<svg width="378" height="486" viewBox="0 0 378 486" fill="none" xmlns="http://www.w3.org/2000/svg">
<path d="M83.5 360.296L51.5 320L186 373.246L296 336.5L338.5 305.5L206.424 475.25C196.203 488.386 176.239 488.054 166.462 474.584L83.5 360.296Z" fill="#BF9956" stroke="black"/>
<path d="M378 189C378 293.382 293.382 378 189 378C84.6182 378 0 293.382 0 189C0 84.6182 84.6182 0 189 0C293.382 0 378 84.6182 378 189Z" fill="#BF9956" fill-opacity="0.17"/>
<path d="M361 189C361 94.007 283.993 17 189 17C94.007 17 17 94.007 17 189C17 283.993 94.007 361 189 361V378C84.6182 378 0 293.382 0 189C0 84.6182 84.6182 0 189 0C293.382 0 378 84.6182 378 189C378 293.382 293.382 378 189 378V361C283.993 361 361 283.993 361 189Z" fill="#BF9956"/>
<path d="M289 141.619V254.043L230.428 289H146.805L89 254.012V141.653L188.229 89L289 141.619ZM156.286 273.893H172.431V221.321H205.206V273.893H220.971V202.615H156.286V273.893ZM235.84 179.825V268.248L274.13 245.396V158.877L235.84 179.825ZM103.87 245.427L141.416 268.153V179.795L103.87 158.963V245.427ZM112.215 146.379L150.749 167.759H226.53L265.598 146.386L188.284 106.015L112.215 146.379Z" fill="#BF9956"/>
</svg>
