<svg width="275" height="275" viewBox="0 0 275 275" fill="none" xmlns="http://www.w3.org/2000/svg">
<rect width="275" height="275" fill="#113126"/>
<path fill-rule="evenodd" clip-rule="evenodd" d="M174.432 58.282C160.335 50.7607 143.859 47 125.006 47H58V116.079L96.4739 126.008C107.466 102.374 127.619 100.588 136.321 102.649C149.375 106.542 175.894 114.466 177.543 115.015C177.737 115.08 177.925 115.139 178.106 115.195C179.85 115.739 180.978 116.09 180.978 119.824C180.978 123.122 178.688 123.489 177.543 123.26L143.191 119.824C140.901 119.595 136.321 120.511 136.321 126.008C136.321 131.504 139.985 132.878 141.817 132.878C153.039 133.107 175.894 133.565 177.543 133.565C179.604 133.565 181.665 134.252 181.665 138.374C181.665 141.672 179.375 142.496 178.23 142.496L141.817 143.87C139.985 143.641 136.321 144.557 136.321 150.053C136.321 155.55 138.611 156.924 139.756 156.924C150.978 155.779 174.382 153.489 178.23 153.489C183.039 153.489 183.039 157.611 181.665 158.985C180.291 160.359 150.749 174.099 128.764 174.099C111.176 174.099 100.367 157.611 97.1609 149.366L58 160.922V227H125.006C143.689 227 160.08 223.239 174.178 215.718C188.445 208.197 199.4 197.598 207.044 183.923C214.857 170.248 218.763 154.607 218.763 137C218.763 119.222 214.857 103.581 207.044 90.0769C199.4 76.4017 188.53 65.8034 174.432 58.282Z" fill="white"/>
</svg>
