<svg width="275" height="275" viewBox="0 0 275 275" fill="none" xmlns="http://www.w3.org/2000/svg">
<rect width="275" height="275" fill="#856930"/>
<path d="M133.58 59.3165C136.18 57.2946 139.82 57.2946 142.42 59.3165L207.221 109.717C208.974 111.081 210 113.178 210 115.399V194.6C210 200.328 207.724 205.822 203.674 209.873C199.623 213.924 194.129 216.2 188.4 216.2H87.5996C81.8711 216.2 76.3769 213.924 72.3262 209.873C68.2756 205.822 66 200.328 66 194.6V115.399C66.0001 113.178 67.0258 111.081 68.7793 109.717L133.58 59.3165ZM125.516 133.277C124.781 132.851 123.847 132.821 123.08 133.198C122.313 133.576 121.837 134.302 121.837 135.09V173.882C121.837 174.67 122.313 175.396 123.08 175.774C123.847 176.151 124.781 176.121 125.516 175.694L158.944 156.299C159.628 155.902 160.041 155.219 160.041 154.486C160.041 153.753 159.628 153.069 158.944 152.673L125.516 133.277Z" fill="white"/>
</svg>
