<svg width="275" height="275" viewBox="0 0 275 275" fill="none" xmlns="http://www.w3.org/2000/svg">
<rect width="275" height="275" fill="white"/>
<path d="M131.254 47.9152C157.717 21.4524 200.622 21.4524 227.085 47.9153C253.548 74.3781 253.548 117.283 227.085 143.746L143.746 227.085C117.283 253.548 74.3781 253.548 47.9152 227.085C21.4524 200.622 21.4524 157.717 47.9152 131.254L131.254 47.9152Z" fill="black"/>
<path d="M131.254 47.9152C157.717 21.4524 200.622 21.4524 227.085 47.9153C253.548 74.3781 253.548 117.283 227.085 143.746L175.129 195.701L79.2987 99.8708L131.254 47.9152Z" fill="white"/>
<path fill-rule="evenodd" clip-rule="evenodd" d="M175.129 170.918L214.693 131.354C234.312 111.735 234.312 79.9262 214.693 60.3071C195.074 40.6881 163.265 40.6881 143.646 60.3071L104.082 99.8708L175.129 170.918ZM227.085 47.9153C200.622 21.4524 157.717 21.4524 131.254 47.9152L79.2987 99.8708L175.129 195.701L227.085 143.746C253.548 117.283 253.548 74.3781 227.085 47.9153Z" fill="black"/>
<path fill-rule="evenodd" clip-rule="evenodd" d="M101.659 115.285C103.94 117.566 103.94 121.265 101.659 123.546L66.0625 159.143C63.5587 161.741 61.1389 164.715 59.6913 168.469C58.2831 172.121 57.651 176.888 59.3836 183.323C60.2223 186.438 58.3768 189.644 55.2615 190.482C52.1462 191.321 48.9409 189.476 48.1021 186.36C45.7455 177.607 46.4633 170.301 48.7904 164.266C51.0713 158.35 54.7563 154.033 57.6923 150.992L57.7279 150.955L93.3978 115.285C95.6791 113.004 99.3778 113.004 101.659 115.285Z" fill="white"/>
</svg>
