<svg width="275" height="275" viewBox="0 0 275 275" fill="none" xmlns="http://www.w3.org/2000/svg">
<rect width="275" height="275" fill="#EC143B"/>
<path d="M144.679 50C170.604 50 193.931 61.0749 210.146 78.7305L205.856 95.2549L187.709 98.0479V98.4629C176.983 86.9802 161.673 79.7969 144.679 79.7969C112.235 79.7971 85.9337 105.979 85.9336 138.274C85.9336 151.574 90.3947 163.836 97.9072 173.66V150.193L104.269 146.842V130.825L118.861 122.259L130.461 128.963V132.315L118.861 125.983V138.647L125.971 142.372V145.352L118.861 141.627V145.724L125.971 149.821V152.801L118.861 148.704V152.801L125.971 156.897V159.505L118.861 155.78V190.815C123.535 193.095 128.558 194.775 133.828 195.755V128.218L121.48 120.769V97.6758L142.06 84.2666L159.646 101.772V130.825L164.511 133.433V152.429H170.123L183.968 165.465V181.748C185.269 180.582 186.517 179.361 187.709 178.085V178.129L189.206 196.938L209.755 198.24C193.557 215.65 170.397 226.549 144.679 226.549C95.7028 226.549 56 187.027 56 138.274C56.0001 89.5219 95.7028 50.0002 144.679 50ZM143.557 196.739C143.93 196.746 144.304 196.752 144.679 196.752C150.394 196.752 155.919 195.937 161.143 194.422V135.295L156.652 133.433V103.635L143.557 90.5986V196.739ZM170.123 190.995C173.708 189.278 177.09 187.209 180.226 184.833V166.954L170.123 159.133V190.995Z" fill="white"/>
</svg>
