<svg width="275" height="275" viewBox="0 0 275 275" fill="none" xmlns="http://www.w3.org/2000/svg">
<rect width="275" height="275" fill="#6254F6"/>
<path fill-rule="evenodd" clip-rule="evenodd" d="M77.303 48C61.6954 48 49 60.8188 49 76.5698V199.109C49 202.966 49.7498 206.702 51.2276 210.235C54.0601 216.991 59.475 222.058 66.4657 224.501C73.6809 227.024 81.6495 226.333 88.3322 222.614L138.002 194.944L187.672 222.614C191.703 224.855 196.198 226 200.715 226C203.688 226 206.673 225.503 209.535 224.501C216.528 222.058 221.94 216.991 224.776 210.231C226.254 206.702 227 202.966 227 199.109V76.5698C227 60.8188 214.301 48 198.697 48H77.303ZM65.0358 204.339C64.3476 202.686 63.9927 200.928 63.9927 199.107V76.5684C63.9927 69.1609 69.9655 63.1318 77.3039 63.1318H198.698C206.036 63.1318 212.009 69.1609 212.009 76.5684V199.107C212.009 200.928 211.658 202.686 210.966 204.336C209.811 207.096 207.558 209.18 204.631 210.203C201.429 211.322 197.883 211.015 194.916 209.359L157.391 188.46C169.769 181.543 178.179 168.23 178.179 152.966C178.179 130.604 160.152 112.41 138.003 112.41C115.85 112.41 97.8229 130.604 97.8229 152.966C97.8229 168.23 106.233 181.543 118.61 188.46L81.0853 209.359C79.296 210.357 77.2966 210.866 75.29 210.866C73.9679 210.866 72.6422 210.646 71.3709 210.203C68.4442 209.18 66.1949 207.096 65.0358 204.339ZM138.001 127.548C151.885 127.548 163.182 138.952 163.182 152.97C163.182 166.582 152.526 177.697 139.196 178.33L138.001 177.664L136.802 178.33C123.473 177.697 112.817 166.582 112.817 152.97C112.817 138.952 124.114 127.548 138.001 127.548Z" fill="white"/>
</svg>
