<svg width="275" height="275" viewBox="0 0 275 275" fill="none" xmlns="http://www.w3.org/2000/svg">
<rect width="275" height="275" fill="#E5E7EB"/>
<path d="M154.068 50.7771C158.929 52.9269 162.2 58.1613 162.667 64.3304C163.135 70.4994 161.826 73.584 157.34 77.8836C152.946 82.0898 153.788 83.9592 160.518 84.707C162.761 84.8939 171.921 86.6699 174.071 87.3242C174.351 87.4176 175.753 87.7915 177.342 88.1654C178.838 88.5393 180.988 89.1936 182.016 89.6609C183.044 90.0348 186.409 91.3434 189.493 92.5585C192.578 93.6802 196.878 95.83 199.027 97.3255C201.177 98.7276 203.327 99.9427 203.888 99.9427C204.449 99.9427 204.916 100.317 204.916 100.877C204.916 101.345 205.383 101.812 205.944 101.812C207.627 101.812 214.263 109.383 216.6 113.963C217.722 116.3 219.871 121.908 221.367 126.582C223.33 133.031 224.732 135.835 227.349 138.453C233.985 145.276 235.388 158.642 231.649 177.991C230.901 181.823 226.882 187.618 223.61 189.675C221.554 190.983 219.217 193.413 218.376 195.283C212.113 208.743 201.832 214.538 174.538 219.866C151.918 224.352 131.355 225.38 111.913 222.763C101.257 221.455 100.79 221.361 93.2186 218.837C83.4977 215.566 80.5066 214.257 78.6372 212.668C77.609 211.827 76.5809 211.173 76.3005 211.173C74.431 211.173 67.4207 202.2 64.4297 196.124C60.9713 189.114 60.8778 188.927 56.8586 188.366C51.5307 187.525 48.4462 184.16 45.1747 175.56C43.1184 169.859 42.5576 166.868 42.3706 158.549C42.1837 149.482 42.3706 147.893 44.7074 142.004C47.1376 135.835 52.4654 128.919 54.8022 128.919C56.3912 128.919 58.2606 126.301 62.0929 118.543C65.084 112.655 72.0008 103.682 73.6833 103.682C73.9637 103.682 75.2723 102.653 76.6743 101.345C78.0764 100.036 79.4785 99.008 79.9458 99.008C80.3197 99.008 82.2826 97.9798 84.2455 96.7647C93.0317 91.1564 120.792 84.0527 133.691 84.0527C140.234 84.0527 140.702 82.4637 135.841 76.9489C132.102 72.6493 131.448 71.2472 130.7 66.2933C129.953 60.9654 134.813 52.9269 140.047 50.7771C143.973 49.0947 150.236 49.1881 154.068 50.7771ZM139.58 53.9551C133.318 58.6287 131.635 64.7977 134.72 71.3407C136.215 74.3317 137.804 76.0142 140.421 77.2293C143.693 78.8183 143.88 79.0987 143.412 82.1833C143.225 83.9592 142.945 85.5482 142.852 85.5482C142.758 85.6417 137.524 86.2025 131.168 86.7633C110.978 88.6327 95.5554 93.0259 82.563 100.597C71.9073 106.86 64.8036 115.646 61.0647 127.236C60.13 130.04 59.3823 130.788 57.6998 130.788C54.4283 130.788 49.2874 136.396 47.0441 142.378C44.1466 150.136 43.6792 158.175 45.4551 167.055C48.3527 181.543 51.5307 185.749 59.8496 186.216C63.2146 186.403 63.4015 186.497 65.9252 193.133C70.7857 205.471 79.2915 212.388 95.7424 217.155C123.597 225.193 177.155 221.174 201.925 209.21C208.281 206.125 211.833 202.2 215.665 193.974C217.348 190.516 218.75 189.02 221.647 187.805C228.377 184.721 231.649 174.065 230.901 157.147C230.621 149.202 230.247 147.426 227.91 143.593C226.508 141.07 224.451 138.64 223.236 138.172C221.647 137.424 220.9 135.742 219.684 129.947C218.843 125.928 217.067 120.319 215.665 117.328C208.655 102.56 187.998 91.3434 160.518 87.5111L152.105 86.296L151.544 82.5571C151.17 80.4073 151.264 78.7248 151.825 78.5379C152.292 78.351 154.162 76.9489 155.844 75.4534C161.826 70.219 162.387 62.461 157.059 56.4788C152.479 51.2445 144.721 50.1228 139.58 53.9551Z" fill="black"/>
<path d="M154.068 51.346C158.929 53.4958 162.2 58.7301 162.667 64.8992C163.135 71.0683 161.826 74.1528 157.34 78.4524C152.946 82.6586 153.788 84.528 160.518 85.2758C162.761 85.4628 171.921 87.2387 174.071 87.893C174.351 87.9865 175.753 88.3603 177.342 88.7342C178.838 89.1081 180.988 89.7624 182.016 90.2298C183.044 90.6036 186.409 91.9122 189.493 93.1273C192.578 94.249 196.878 96.3988 199.027 97.8944C201.177 99.2964 203.327 100.512 203.888 100.512C204.449 100.512 204.916 100.885 204.916 101.446C204.916 101.914 205.383 102.381 205.944 102.381C207.627 102.381 214.263 109.952 216.6 114.532C217.722 116.869 219.871 122.477 221.367 127.151C223.33 133.6 224.732 136.404 227.349 139.021C233.985 145.845 235.388 159.211 231.649 178.56C230.901 182.392 226.882 188.187 223.61 190.243C221.554 191.552 219.217 193.982 218.376 195.852C212.113 209.311 201.832 215.107 174.538 220.434C151.918 224.921 131.355 225.949 111.913 223.332C101.257 222.023 100.79 221.93 93.2187 219.406C83.4977 216.135 80.5066 214.826 78.6372 213.237C77.6091 212.396 76.5809 211.742 76.3005 211.742C74.431 211.742 67.4208 202.768 64.4297 196.693C60.9713 189.683 60.8778 189.496 56.8586 188.935C51.5307 188.094 48.4462 184.729 45.1747 176.129C43.1184 170.428 42.5576 167.437 42.3706 159.118C42.1837 150.051 42.3706 148.462 44.7074 142.573C47.1376 136.404 52.4654 129.487 54.8022 129.487C56.3912 129.487 58.2606 126.87 62.0929 119.112C65.084 113.224 72.0008 104.25 73.6833 104.25C73.9637 104.25 75.2723 103.222 76.6743 101.914C78.0764 100.605 79.4785 99.5768 79.9458 99.5768C80.3197 99.5768 82.2826 98.5486 84.2455 97.3335C93.0317 91.7253 120.792 84.6215 133.691 84.6215C140.234 84.6215 140.702 83.0325 135.841 77.5177C132.102 73.2181 131.448 71.816 130.7 66.8621C129.953 61.5343 134.813 53.4958 140.047 51.346C143.973 49.6635 150.236 49.757 154.068 51.346Z" fill="#EE734B"/>
<path d="M161.92 98.5406C178.744 101.158 195.195 106.86 201.925 112.561C216.507 124.899 218.563 175.654 204.729 184.066C200.897 186.403 192.298 186.497 177.81 184.534C164.63 182.758 147.151 182.758 126.962 184.721C96.1164 187.618 88.2649 183.599 83.8717 163.035C82.0023 154.343 82.0958 136.303 83.9652 127.236C87.4236 110.411 93.4992 104.429 111.633 99.8492C121.914 97.3255 148.834 96.5778 161.92 98.5406ZM122.662 100.41C121.353 100.597 118.83 101.064 117.054 101.345C92.7514 105.177 84.8999 116.02 84.9934 145.743C85.0869 157.801 85.3673 160.138 87.6106 166.774C90.4147 175.187 93.1253 178.645 99.2944 181.449C103.127 183.132 104.622 183.225 117.054 182.664C124.531 182.384 133.785 181.73 137.617 181.262C146.591 180.327 172.015 180.795 178.744 182.103C181.549 182.664 187.25 183.319 191.363 183.505C197.626 183.879 199.401 183.599 202.206 182.01C209.216 178.084 211.927 168.27 211.179 149.108C210.151 122.282 202.86 111.627 181.549 105.644C179.212 104.99 176.034 104.149 174.538 103.682C161.452 100.036 133.505 98.2602 122.662 100.41Z" fill="black"/>
<path d="M162.065 98.314C179.025 100.944 195.609 106.674 202.393 112.404C217.092 124.804 219.165 175.811 205.22 184.265C201.357 186.614 192.688 186.708 178.083 184.735C164.797 182.95 147.177 182.95 126.824 184.923C95.7299 187.835 87.815 183.796 83.3864 163.13C81.5019 154.394 81.5962 136.264 83.4807 127.152C86.967 110.244 93.0916 104.232 111.371 99.6291C121.736 97.0929 148.873 96.3414 162.065 98.314Z" fill="white"/>
<path d="M129.392 124.806C133.411 126.862 136.683 132.938 136.683 138.172C136.683 146.211 133.598 151.258 127.616 153.314C118.736 156.212 110.511 148.921 110.511 138.172C110.511 132.097 112.941 127.797 117.988 125.18C121.073 123.497 126.588 123.31 129.392 124.806ZM117.615 128.077C108.174 135.462 112.567 151.352 123.971 151.352C130.794 151.352 135.561 144.622 134.346 136.49C133.037 127.703 123.877 123.123 117.615 128.077Z" fill="black"/>
<path d="M129.392 124.806C133.411 126.862 136.683 132.938 136.683 138.172C136.683 146.211 133.598 151.258 127.616 153.314C118.736 156.212 110.511 148.921 110.511 138.172C110.511 132.097 112.941 127.797 117.988 125.18C121.073 123.497 126.588 123.31 129.392 124.806Z" fill="#EE734B"/>
<path d="M189.4 125.18C196.597 127.423 200.897 139.948 197.064 147.426C194.447 152.473 191.269 154.53 185.941 154.53C177.529 154.53 172.201 148.734 172.201 139.481C172.201 129.292 180.427 122.376 189.4 125.18ZM178.838 129.479C172.949 134.34 172.762 143.687 178.277 149.202C180.8 151.725 182.016 152.286 185.381 152.286C190.054 152.286 192.765 150.51 195.008 146.024C200.803 134.433 188.278 121.534 178.838 129.479Z" fill="black"/>
<path d="M189.405 124.84C196.795 127.157 201.209 140.096 197.275 147.821C194.588 153.035 191.325 155.159 185.854 155.159C177.217 155.159 171.747 149.173 171.747 139.613C171.747 129.088 180.192 121.943 189.405 124.84Z" fill="#EE734B"/>
<path d="M166.406 157.521C169.304 159.483 168.93 162.568 165.378 166.774C162.668 169.952 161.733 170.42 157.153 170.793C151.544 171.261 147.619 169.859 144.16 166.12C141.73 163.409 141.637 158.268 144.067 156.96C147.058 155.371 163.976 155.745 166.406 157.521Z" fill="#EE734B"/>
</svg>
