<svg width="275" height="275" viewBox="0 0 275 275" fill="none" xmlns="http://www.w3.org/2000/svg">
<rect width="275" height="275" fill="white"/>
<path d="M0 137.5V275H137.5H275V137.5V0H137.5H0V137.5ZM157.492 39.6976C159.002 40.0968 163.045 44 163.045 45.0202C163.045 45.375 163.267 45.6855 163.49 45.6855C163.756 45.6855 163.934 46.4839 163.934 47.4597V49.2339H161.49C160.158 49.2339 159.047 49.4113 159.047 49.6774C159.047 49.8992 158.603 50.121 158.025 50.121C157.492 50.121 156.737 50.5202 156.381 51.0081C156.026 51.496 155.493 51.8952 155.182 51.8952C154.16 51.8952 152.827 55.2661 152.827 57.8831C152.827 59.2137 153.005 60.3226 153.227 60.3226C153.449 60.3226 153.76 60.7218 153.938 61.1653C154.426 62.7177 156.381 63.0726 162.468 62.8065C172.597 62.3629 176.373 62.0081 176.373 61.6089C176.373 61.3871 177.973 61.2097 179.927 61.2097C182.015 61.2097 183.481 61.0323 183.481 60.7661C183.481 60.5 184.459 60.3226 185.614 60.3226C186.769 60.3226 188.901 60.0121 190.279 59.6573C191.7 59.3024 193.566 58.9919 194.366 58.9919C195.21 58.9919 195.921 58.7702 195.921 58.5484C195.921 58.2823 197.031 58.1048 198.364 58.1048C199.697 58.1048 200.808 57.8831 200.808 57.6613C200.808 57.3952 201.696 57.2177 202.763 57.2177C203.873 57.2177 204.851 57.0403 204.984 56.8186C205.117 56.5968 206.361 56.2863 207.694 56.1089C209.027 55.9758 210.137 55.621 210.137 55.3992C210.137 55.1774 211.026 55 212.137 55C213.247 55 214.136 54.7782 214.136 54.5565C214.136 54.2903 214.536 54.1129 215.024 54.1129C216.268 54.1129 216.535 55.5766 216.268 62.1411C216.09 66.1774 215.824 67.996 215.38 68.4395C214.313 69.504 212.003 70.5242 210.626 70.5242C209.915 70.5242 209.16 70.7016 209.027 70.9677C208.893 71.1895 207.649 71.4113 206.317 71.4113C204.984 71.4113 203.918 71.5887 203.918 71.8548C203.918 72.0766 203.029 72.2984 201.918 72.2984C199.653 72.2984 199.208 73.0524 201.252 73.496C202.007 73.629 202.718 73.9395 202.851 74.1169C202.985 74.3387 204.273 74.5161 205.739 74.5161C207.161 74.5161 208.36 74.6936 208.36 74.9153C208.36 75.1815 209.204 75.4032 210.271 75.4919C211.87 75.625 212.092 75.7581 212.003 76.5121C211.914 77 211.648 77.4436 211.426 77.5323C211.204 77.621 211.026 78.0645 211.026 78.5524C211.026 78.996 210.848 79.3952 210.582 79.3952C210.359 79.3952 210.137 79.6169 210.137 79.8387C210.137 80.1936 207.027 83.7419 205.25 85.3831C204.984 85.6048 204.095 86.4919 203.251 87.246C202.407 88.0444 201.607 88.7097 201.474 88.7097C201.341 88.7097 200.363 89.5968 199.297 90.7057C198.187 91.8145 197.165 92.7016 196.943 92.7016C196.765 92.7016 196.054 93.1895 195.388 93.8105C194.721 94.4315 193.877 94.9194 193.477 94.9194C193.122 94.9194 192.811 95.0968 192.811 95.3629C192.811 95.5847 192.1 95.8065 191.256 95.8065C190.412 95.8065 189.701 95.5847 189.701 95.3629C189.701 95.0968 189.435 94.9194 189.124 94.9194C188.813 94.9194 188.057 94.4315 187.391 93.8105C186.725 93.1895 185.88 92.7016 185.481 92.7016C185.125 92.7016 184.814 92.4798 184.814 92.2581C184.814 91.9919 184.592 91.8145 184.326 91.8145C184.059 91.8145 183.615 91.5484 183.304 91.2379C181.838 89.8629 180.327 88.7097 179.972 88.7097C179.75 88.7097 179.483 88.4436 179.35 88.1331C179.261 87.8226 178.994 87.7782 178.772 88C178.55 88.2218 178.594 88.4879 178.95 88.5766C179.216 88.7097 179.483 89.1532 179.483 89.6411C179.483 90.0847 179.705 90.4839 179.927 90.4839C180.194 90.4839 180.372 90.7944 180.372 91.1492C180.372 91.504 180.505 91.8145 180.727 91.8145C180.905 91.8145 181.438 92.5242 181.882 93.3669C182.371 94.2097 182.904 94.9194 183.126 94.9194C183.304 94.9194 183.481 95.2298 183.481 95.5847C183.481 95.9839 183.881 96.6936 184.37 97.2258C185.347 98.2903 185.392 98.4677 184.903 99.1331C184.503 99.7097 179.216 102.016 178.328 102.016C177.973 102.016 177.706 102.194 177.706 102.46C177.706 102.681 177.217 102.903 176.64 102.903C176.062 102.903 174.996 103.214 174.33 103.569C173.619 103.923 172.686 104.234 172.286 104.234C171.886 104.234 171.397 104.411 171.264 104.677C171.131 104.899 170.42 105.121 169.665 105.121C168.954 105.121 168.376 105.298 168.376 105.565C168.376 105.786 167.577 106.008 166.599 106.008C165.622 106.008 164.822 106.185 164.822 106.452C164.822 106.673 164.245 106.895 163.49 106.895C162.779 106.895 162.157 107.073 162.157 107.294C162.157 107.516 161.668 107.827 161.046 107.96C160.424 108.137 159.935 108.448 159.935 108.669C159.935 108.935 159.58 109.113 159.136 109.113C158.736 109.113 157.981 109.601 157.536 110.222C157.092 110.843 156.515 111.331 156.337 111.331C156.115 111.331 155.937 110.843 155.937 110.222C155.937 109.601 155.759 109.113 155.537 109.113C155.315 109.113 155.048 108.359 154.915 107.427C154.382 103.968 154.027 102.903 153.405 102.903C152.472 102.903 152.827 118.294 153.893 122.863C154.338 124.681 154.782 127.121 154.915 128.274C155.048 129.472 155.315 130.403 155.537 130.403C155.759 130.403 155.937 131.29 155.937 132.399C155.937 133.508 156.115 134.395 156.337 134.395C156.559 134.395 156.826 135.149 156.959 136.036C157.447 140.073 158.38 144.597 158.691 144.597C158.914 144.597 159.047 145.573 159.047 146.815C159.047 148.012 159.269 149.032 159.491 149.032C159.758 149.032 159.935 149.653 159.935 150.363C159.935 151.605 160.779 155.464 161.668 158.391C162.023 159.456 161.401 161.008 160.646 161.008C160.468 161.008 159.847 161.452 159.269 162.028C157.492 163.669 156.87 164.113 156.381 164.113C156.159 164.113 155.937 164.29 155.937 164.556C155.937 164.778 155.715 165 155.493 165C155.048 165 154.515 165.355 153.049 166.641C152.738 166.952 152.25 167.218 151.983 167.218C151.716 167.218 151.494 167.395 151.494 167.661C151.494 167.883 151.183 168.105 150.828 168.105C150.428 168.105 149.628 168.548 149.051 169.081C147.274 170.766 146.652 171.21 146.163 171.21C145.941 171.21 145.719 171.387 145.719 171.653C145.719 171.875 145.452 172.097 145.097 172.097C144.786 172.097 143.986 172.585 143.32 173.206C142.653 173.827 141.809 174.315 141.454 174.315C141.143 174.315 140.832 174.492 140.832 174.758C140.832 174.98 140.565 175.202 140.21 175.202C139.855 175.202 139.233 175.512 138.833 175.911C137.989 176.754 136.567 176.488 135.19 175.202C134.657 174.714 133.946 174.315 133.635 174.315C133.146 174.315 132.347 173.738 129.859 171.653C129.548 171.431 129.103 171.21 128.837 171.21C128.615 171.21 128.393 170.988 128.393 170.766C128.393 170.5 128.215 170.323 127.948 170.323C127.548 170.323 124.75 168.593 123.639 167.661C123.328 167.44 122.973 167.218 122.839 167.218C122.662 167.218 122.262 166.952 121.951 166.685C120.485 165.355 119.952 165 119.507 165C119.285 165 119.063 164.778 119.063 164.556C119.063 164.29 118.752 164.113 118.397 164.113C117.997 164.113 117.153 163.625 116.486 163.004C115.82 162.383 115.109 161.895 114.931 161.895C113.865 161.895 113.199 160.476 113.51 158.879C113.643 157.992 113.91 156.173 114.043 154.887C114.132 153.645 114.443 152.581 114.62 152.581C114.798 152.581 115.065 151.649 115.198 150.452C115.331 149.298 115.775 146.948 116.175 145.262C116.575 143.532 117.019 141.315 117.153 140.25C117.286 139.23 117.552 138.387 117.73 138.387C117.908 138.387 118.174 137.456 118.308 136.258C118.441 135.105 118.752 133.286 119.019 132.177C119.285 131.069 119.729 129.028 120.04 127.609C120.351 126.234 120.751 125.081 120.929 125.081C121.107 125.081 121.284 123.794 121.284 122.198C121.284 120.556 121.462 119.315 121.729 119.315C121.995 119.315 122.173 116.298 122.173 111.109C122.173 106.585 122.04 102.903 121.906 102.903C121.329 102.903 120.396 104.234 120.396 105.165C120.396 105.698 120.04 107.206 119.641 108.536C118.796 111.02 117.597 111.685 117.064 110C116.931 109.512 116.575 109.113 116.353 109.113C116.131 109.113 115.153 108.625 114.176 108.004C113.199 107.383 111.91 106.895 111.288 106.895C110.666 106.895 110.178 106.673 110.178 106.452C110.178 106.185 109.467 106.008 108.623 106.008C107.779 106.008 107.068 105.786 107.068 105.565C107.068 105.298 106.401 105.121 105.646 105.121C104.847 105.077 103.691 104.81 103.069 104.456C102.447 104.101 101.515 103.835 100.981 103.79C100.404 103.79 99.9596 103.569 99.9596 103.347C99.9596 103.081 99.4709 102.903 98.8489 102.903C98.227 102.903 97.7383 102.681 97.7383 102.46C97.7383 102.194 97.2496 102.016 96.6721 102.016C96.0945 102.016 94.9394 101.661 94.0953 101.262C91.4297 99.9315 91.0743 99.7984 90.4079 99.7984C89.475 99.7984 89.5638 98.0686 90.5412 97.1815C90.9855 96.7823 91.7407 95.8065 92.185 95.0081C92.6737 94.254 93.2068 93.5887 93.3845 93.5887C93.5622 93.5887 93.7399 93.1895 93.7399 92.7016C93.7399 92.2137 93.962 91.8145 94.1842 91.8145C94.4507 91.8145 94.6284 91.5927 94.6284 91.371C94.6284 90.9274 94.9838 90.3952 96.3166 88.9315C97.0719 88.0887 96.983 87.8226 95.9612 87.8226C95.4725 87.8226 95.0727 88 95.0727 88.2661C95.0727 88.4879 94.8506 88.7097 94.6284 88.7097C94.3619 88.7097 93.2956 89.5968 92.2294 90.7057C91.1187 91.8145 89.9636 92.7016 89.5638 92.7016C89.164 92.7016 88.853 92.879 88.853 93.1452C88.853 93.3669 88.6309 93.5887 88.4087 93.5887C87.9645 93.5887 87.4313 93.9436 85.9653 95.2298C85.2544 95.8952 81.7448 95.9839 81.7448 95.3629C81.7448 95.0968 81.5226 94.9194 81.3005 94.9194C80.8562 94.9194 80.3231 94.5645 78.857 93.2339C78.546 92.9677 78.1462 92.7016 78.0129 92.7016C77.8796 92.7016 76.9911 91.9919 76.1026 91.1492C75.2141 90.3065 74.2811 89.5968 74.1034 89.5968C73.6147 89.5968 66.1955 82.0121 66.1955 81.5242C66.1955 81.2581 65.4846 80.4153 64.6405 79.5726C63.7964 78.7742 63.0856 77.7097 63.0856 77.2218C63.0856 76.6895 62.8191 76.2903 62.5525 76.2903C62.1527 76.2903 62.1971 76.1129 62.6414 75.8468C62.9968 75.625 64.1519 75.4032 65.2181 75.4032C66.2399 75.4032 67.084 75.1815 67.084 74.9597C67.084 74.6936 67.9281 74.5161 68.9943 74.5161C71.1268 74.4718 75.7472 73.0968 75.2585 72.6089C75.0808 72.4315 74.1478 72.2984 73.2149 72.2984C72.2819 72.2984 71.5267 72.0766 71.5267 71.8548C71.5267 71.5887 70.3271 71.4113 68.8611 71.4113C67.395 71.4113 66.1955 71.2339 66.1955 70.9677C66.1955 70.7016 65.6179 70.5242 64.9071 70.5242C63.4855 70.5242 60.5977 69.4153 59.7092 68.5726C59.1761 68.0403 58.9095 63.6936 59.0428 57.3065L59.0872 55H61.8861C63.441 55 64.8627 55.1331 65.0404 55.3105C65.4402 55.7097 69.3053 56.7742 71.6599 57.0847C72.5485 57.2177 73.3037 57.4839 73.3037 57.7057C73.3037 57.9274 74.2811 58.1048 75.4806 58.1048C76.7246 58.1048 77.8352 58.2823 77.9685 58.5484C78.1018 58.7702 79.0347 58.9919 79.9677 58.9919C80.9006 58.9919 82.2334 59.2137 82.8998 59.4355C83.5218 59.7016 85.5654 60.0121 87.3425 60.1895C89.164 60.3226 90.63 60.6331 90.63 60.8105C90.63 61.0323 92.4515 61.2097 94.6284 61.2097C96.8498 61.2097 98.6268 61.3871 98.6268 61.6089C98.6268 61.9637 102.492 62.3186 112.843 62.8065L117.952 63.0726L119.641 61.5202C120.529 60.6774 121.284 59.5686 121.284 59.0363C121.284 58.5484 121.506 58.1048 121.729 58.1048C121.995 58.1048 122.173 57.7057 122.173 57.2621C122.173 56.7742 122.306 56.3307 122.528 56.2419C122.973 56.0645 124.394 53.2702 124.394 52.5161C124.394 52.1613 124.616 51.8952 124.838 51.8952C125.105 51.8952 125.283 51.496 125.283 51.0524C125.283 50.5645 125.771 49.2339 126.393 48.0807C127.015 46.9274 127.504 45.7298 127.504 45.4194C127.504 45.1089 127.771 44.754 128.082 44.621C128.526 44.3992 128.526 44.3105 128.082 44.0887C127.771 43.9557 127.504 43.5121 127.504 43.1129C127.504 42.6694 127.193 41.9597 126.838 41.5161C126.482 41.0282 126.171 40.2742 126.171 39.8307C126.171 39.0323 126.882 39.0323 141.187 39.1653C149.406 39.254 156.737 39.4758 157.492 39.6976ZM55.9774 88.3548C55.9774 88.5766 56.4216 88.7097 56.9103 88.7097C57.4435 88.7097 58.1987 89.0645 58.5985 89.5081C58.9984 89.9516 59.9758 90.7057 60.7754 91.1492C61.5307 91.6371 62.1971 92.1694 62.1971 92.3468C62.1971 92.5242 62.5969 92.7016 63.0856 92.7016C63.5743 92.7016 63.9742 92.879 63.9742 93.0565C63.9742 93.2782 64.685 93.8105 65.5291 94.2984C66.3732 94.7419 67.084 95.2742 67.084 95.4516C67.084 95.6734 67.4838 95.8065 67.9725 95.8065C68.4612 95.8065 68.8611 95.9839 68.8611 96.25C68.8611 96.4718 69.0832 96.6936 69.3053 96.6936C69.5719 96.6936 70.3271 97.1815 70.9935 97.8024C71.6599 98.4234 72.4152 98.9113 72.7262 98.9113C73.0372 98.9113 73.3037 99.0887 73.3037 99.3548C73.3037 99.5766 73.5703 99.7984 73.8813 99.7984C74.1922 99.7984 74.9475 100.286 75.6139 100.907C76.2803 101.528 77.1244 102.016 77.5242 102.016C77.8796 102.016 78.1906 102.194 78.1906 102.46C78.1906 102.681 78.4128 102.903 78.6349 102.903C79.3457 102.903 82.6333 106.363 82.6333 107.117C82.6333 107.472 82.8554 107.782 83.0775 107.782C83.3441 107.782 83.5218 108.004 83.5218 108.226C83.5218 108.669 83.8772 109.202 85.21 110.665C85.4766 110.976 85.7431 111.375 85.7431 111.552C85.7431 111.952 90.9855 117.097 91.3853 117.097C91.6074 117.097 92.496 117.762 93.3845 118.605C94.273 119.448 95.3837 120.246 95.9168 120.423C96.4499 120.556 96.8498 120.867 96.8498 121.044C96.8498 121.222 97.5606 121.621 98.4047 121.976C99.2488 122.331 99.9596 122.73 99.9596 122.952C99.9596 123.129 100.448 123.306 101.07 123.306C101.692 123.306 102.181 123.484 102.181 123.75C102.181 123.972 102.492 124.194 102.847 124.194C103.647 124.194 106.801 125.613 106.979 126.056C107.068 126.278 107.823 126.411 108.667 126.411C109.511 126.411 110.178 126.589 110.178 126.855C110.178 127.077 110.578 127.298 111.066 127.298C112.666 127.298 114.176 128.274 114.176 129.339C114.176 129.915 113.998 130.492 113.732 130.625C113.51 130.758 113.288 131.29 113.288 131.734C113.288 132.177 112.977 132.843 112.621 133.242C112.266 133.597 111.955 134.306 111.955 134.794C111.955 135.327 111.777 135.726 111.51 135.726C111.288 135.726 111.066 136.125 111.066 136.613C111.066 137.101 110.889 137.5 110.622 137.5C110.4 137.5 110.178 137.988 110.178 138.565C110.178 139.185 109.867 139.94 109.511 140.339C109.156 140.694 108.845 141.27 108.845 141.669C108.845 142.024 108.667 142.468 108.401 142.601C108.134 142.734 107.956 143.266 107.956 143.754C107.956 144.198 107.779 144.597 107.512 144.597C107.29 144.597 107.068 145.085 107.068 145.706C107.068 146.327 106.89 146.815 106.624 146.815C106.401 146.815 106.179 147.169 106.179 147.613C106.179 148.056 105.868 148.81 105.513 149.298C105.158 149.742 104.847 150.496 104.847 150.895C104.847 151.339 104.669 151.694 104.402 151.694C104.18 151.694 103.958 152.181 103.958 152.802C103.958 153.423 103.78 153.911 103.514 153.911C103.292 153.911 103.069 154.266 103.069 154.665C103.069 155.109 102.758 155.863 102.403 156.306C102.048 156.794 101.737 157.548 101.737 157.992C101.737 158.435 101.559 158.79 101.292 158.79C101.07 158.79 100.848 159.278 100.848 159.899C100.848 160.52 100.67 161.008 100.404 161.008C100.182 161.008 99.9596 161.363 99.9596 161.762C99.9152 162.871 98.8934 164.113 98.0048 164.113C97.605 164.113 96.7165 163.625 96.0501 163.004C95.3837 162.383 94.6284 161.895 94.3174 161.895C94.0065 161.895 93.7399 161.673 93.7399 161.452C93.7399 161.185 93.4289 161.008 93.0735 161.008C92.7181 161.008 92.4071 160.786 92.4071 160.565C92.4071 160.298 92.0961 160.121 91.7407 160.121C91.4297 160.121 90.941 159.855 90.7633 159.544C90.5856 159.278 89.8304 158.702 89.0751 158.347C88.3643 157.992 87.4313 157.371 87.0759 156.972C86.7205 156.617 85.7431 155.907 84.9879 155.464C84.1882 154.976 83.5218 154.444 83.5218 154.266C83.5218 154.089 83.2552 153.911 82.9443 153.911C82.6333 153.911 81.6115 153.202 80.7229 152.359C79.8344 151.516 78.7682 150.806 78.4128 150.806C78.0574 150.806 77.7464 150.585 77.7464 150.363C77.7464 150.097 77.5242 149.919 77.2577 149.919C76.6801 149.919 71.5267 144.685 71.5267 144.109C71.5267 143.887 71.2157 143.71 70.8603 143.71C70.4604 143.71 70.1939 143.31 70.1939 142.601C70.1939 141.98 70.0162 141.492 69.7496 141.492C69.5275 141.492 69.3053 141.093 69.3053 140.649C69.3053 140.161 69.1721 139.718 68.9943 139.629C68.4612 139.407 67.084 136.258 67.084 135.282C67.084 134.794 66.9063 134.395 66.6397 134.395C66.3732 134.395 66.1955 130.98 66.1955 125.036V115.677L62.6414 112.218C60.6866 110.31 59.0872 108.625 59.0872 108.448C59.0872 108.315 58.8207 107.871 58.5541 107.56C57.1325 106.008 56.8659 105.565 56.8659 104.899C56.8659 104.544 56.6882 104.234 56.4216 104.234C56.1995 104.234 55.9774 103.746 55.9774 103.125C55.9774 102.504 55.7997 102.016 55.5775 102.016C55.3554 102.016 55.0889 101.262 54.9556 100.331C54.8223 99.4436 54.5113 97.8911 54.2447 96.9153C53.7561 95.0081 53.5784 87.6895 54.0226 87.246C54.3336 86.9355 55.9774 87.8669 55.9774 88.3548ZM221.244 92.0363C221.244 95.1411 221.066 97.1371 220.8 97.1371C220.578 97.1371 220.355 97.8911 220.355 98.7782C220.355 99.7097 220.044 100.863 219.689 101.306C219.334 101.794 219.023 102.548 219.023 102.992C219.023 103.435 218.845 103.79 218.578 103.79C218.356 103.79 218.134 104.278 218.134 104.899C218.134 105.52 217.956 106.008 217.779 106.008C217.601 106.008 217.068 106.673 216.579 107.427C216.135 108.226 214.269 110.31 212.492 112.04L209.249 115.19L209.204 120.69C209.16 127.786 208.183 136.613 207.427 136.613C207.205 136.613 207.027 137.101 207.027 137.677C207.027 138.831 205.695 141.492 205.162 141.492C204.939 141.492 204.806 141.802 204.806 142.157C204.806 142.512 204.628 142.823 204.362 142.823C204.14 142.823 203.918 143.133 203.918 143.532C203.918 144.419 197.476 150.806 196.587 150.806C196.232 150.806 195.921 150.984 195.921 151.25C195.921 151.472 195.699 151.694 195.477 151.694C195.21 151.694 194.499 152.181 193.877 152.802C193.255 153.423 192.544 153.911 192.278 153.911C192.011 153.911 191.478 154.266 191.078 154.71C190.679 155.153 189.701 155.907 188.946 156.351C188.146 156.839 187.48 157.371 187.48 157.548C187.48 157.726 187.08 157.903 186.591 157.903C186.103 157.903 185.703 158.081 185.703 158.258C185.703 158.48 184.992 159.012 184.148 159.5C183.304 159.944 182.593 160.476 182.593 160.653C182.593 160.875 182.193 161.008 181.704 161.008C181.216 161.008 180.816 161.185 180.816 161.452C180.816 161.673 180.505 161.895 180.149 161.895C179.794 161.895 179.483 162.073 179.483 162.294C179.483 162.516 179.039 162.871 178.506 163.048C177.928 163.226 177.351 163.536 177.173 163.802C176.729 164.468 175.796 163.315 174.774 160.919C174.33 159.722 173.796 158.79 173.619 158.79C173.397 158.79 173.263 158.391 173.263 157.903C173.263 157.415 173.086 157.016 172.819 157.016C172.597 157.016 172.375 156.528 172.375 155.907C172.375 155.286 172.197 154.798 171.975 154.798C171.753 154.798 171.442 154.222 171.264 153.468C171.086 152.758 170.775 152.048 170.553 151.915C170.331 151.738 170.153 151.25 170.153 150.762C170.153 150.319 169.976 149.919 169.709 149.919C169.487 149.919 169.265 149.431 169.265 148.81C169.265 148.19 169.087 147.702 168.821 147.702C168.599 147.702 168.376 147.347 168.376 146.903C168.376 146.504 168.065 145.75 167.71 145.306C167.355 144.819 167.044 144.065 167.044 143.621C167.044 143.177 166.866 142.823 166.599 142.823C166.377 142.823 166.155 142.335 166.155 141.714C166.155 141.093 165.977 140.605 165.711 140.605C165.489 140.605 165.267 140.339 165.267 139.984C165.267 139.673 164.778 138.476 164.156 137.323C163.534 136.169 163.045 134.839 163.045 134.351C163.045 133.907 162.868 133.508 162.601 133.508C162.379 133.508 162.157 133.02 162.157 132.399C162.157 131.778 161.979 131.29 161.712 131.29C161.49 131.29 161.135 130.758 161.002 130.137C160.646 128.673 162.023 127.298 163.934 127.298C164.645 127.298 165.267 127.077 165.267 126.855C165.267 126.589 165.755 126.411 166.377 126.411C166.999 126.411 167.843 126.234 168.288 126.012C168.687 125.79 169.798 125.258 170.731 124.815C171.62 124.371 172.375 123.839 172.375 123.661C172.375 123.44 172.863 123.306 173.485 123.306C174.107 123.306 174.596 123.085 174.596 122.863C174.596 122.597 174.996 122.419 175.485 122.419C175.973 122.419 176.373 122.286 176.373 122.065C176.373 121.887 177.084 121.355 177.928 120.911C178.772 120.423 179.483 119.891 179.483 119.669C179.483 119.492 179.794 119.315 180.149 119.315C180.549 119.315 181.527 118.605 182.326 117.762C183.17 116.919 184.059 116.21 184.326 116.21C184.903 116.21 189.701 111.464 189.701 110.887C189.701 110.621 189.923 110.444 190.145 110.444C190.412 110.444 190.59 110.133 190.59 109.778C190.59 109.423 190.812 109.113 191.034 109.113C191.3 109.113 191.478 108.802 191.478 108.448C191.478 108.093 191.967 107.339 192.589 106.718C193.211 106.097 193.7 105.431 193.7 105.254C193.7 105.032 194.233 104.5 194.899 104.012C195.521 103.524 196.321 102.859 196.632 102.548C196.943 102.282 197.298 102.016 197.476 102.016C197.876 102.016 201.474 99.621 201.607 99.2218C201.696 99.0444 202.052 98.9113 202.407 98.9113C202.763 98.9113 203.029 98.7339 203.029 98.5565C203.029 98.3347 203.829 97.8024 204.806 97.3589C205.784 96.9153 206.583 96.3831 206.583 96.1613C206.583 95.9839 206.894 95.8065 207.25 95.8065C207.605 95.8065 207.916 95.5847 207.916 95.3629C207.916 95.0968 208.138 94.9194 208.36 94.9194C208.805 94.9194 209.338 94.5645 210.804 93.2339C211.115 92.9677 211.603 92.7016 211.87 92.7016C212.137 92.7016 212.359 92.4798 212.359 92.2581C212.359 91.9919 212.67 91.8145 213.025 91.8145C213.425 91.8145 214.269 91.3266 214.935 90.7057C215.602 90.0847 216.313 89.5968 216.535 89.5968C216.757 89.5968 217.246 89.2419 217.645 88.7984C218.312 88.0887 220.133 87.0242 220.933 86.9798C221.111 86.9355 221.244 89.2419 221.244 92.0363ZM100.848 166.774C100.848 166.996 101.159 167.218 101.515 167.218C101.87 167.218 102.181 167.395 102.181 167.661C102.181 167.883 102.492 168.105 102.847 168.105C103.247 168.105 104.091 168.593 104.758 169.214C105.424 169.835 106.135 170.323 106.401 170.323C106.668 170.323 107.157 170.722 107.512 171.21C107.868 171.698 108.401 172.097 108.667 172.097C109.422 172.097 111.955 173.56 111.955 173.96C111.955 174.181 112.266 174.315 112.621 174.315C112.977 174.315 113.288 174.448 113.288 174.669C113.288 174.847 113.998 175.379 114.842 175.823C115.687 176.31 116.397 176.843 116.397 177.065C116.397 177.242 116.753 177.419 117.197 177.419C117.641 177.419 118.263 177.819 118.619 178.306C118.974 178.794 119.463 179.194 119.774 179.194C120.04 179.194 120.84 179.681 121.551 180.302C122.262 180.923 123.106 181.411 123.417 181.411C123.683 181.411 123.95 181.589 123.95 181.855C123.95 182.077 124.261 182.298 124.616 182.298C124.972 182.298 125.283 182.431 125.283 182.653C125.283 182.831 125.994 183.363 126.838 183.806C127.682 184.294 128.393 184.782 128.393 184.96C128.393 185.093 129.103 185.492 129.947 185.847C130.792 186.202 131.502 186.734 131.502 187.044C131.502 187.355 131.769 187.621 132.124 187.621C132.524 187.621 132.835 188.286 132.968 189.484C133.191 191.657 132.391 197.379 131.858 197.379C131.68 197.379 131.502 197.601 131.502 197.867C131.502 198.754 128.082 201.815 127.104 201.815C126.616 201.815 126.171 201.992 126.171 202.258C126.171 202.48 125.86 202.702 125.505 202.702C125.149 202.702 124.483 202.879 124.039 203.101C121.995 204.121 119.818 204.919 119.063 204.919C118.574 204.919 118.174 205.097 118.174 205.363C118.174 205.585 117.286 205.806 116.175 205.806C115.065 205.806 114.176 205.984 114.176 206.25C114.176 206.516 112.532 206.694 110.178 206.694C107.823 206.694 106.179 206.516 106.179 206.25C106.179 205.984 105.468 205.806 104.624 205.806C103.78 205.806 103.069 205.585 103.069 205.363C103.069 205.097 102.847 204.919 102.581 204.919C102.314 204.919 101.826 204.653 101.515 204.343C100.182 203.19 99.5598 202.702 99.2932 202.702C98.7157 202.702 95.517 199.685 95.517 199.153C95.517 198.399 96.8498 197.468 98.8045 196.891C99.9596 196.581 100.848 196.137 100.848 195.96C100.848 195.782 101.248 195.605 101.737 195.605C102.225 195.605 102.625 195.383 102.625 195.161C102.625 194.895 102.936 194.718 103.292 194.718C103.647 194.718 103.958 194.407 103.958 194.008C103.958 193.476 103.647 193.387 102.758 193.565C100.004 194.052 93.0291 194.274 92.4071 193.875C91.874 193.52 91.6963 192.145 91.6074 187.399L91.4297 181.411H94.584C96.4055 181.411 97.7383 181.589 97.7383 181.855C97.7383 182.077 98.6712 182.298 99.7819 182.298C100.893 182.298 102.181 182.52 102.67 182.742C103.336 183.097 103.691 183.052 104.18 182.565C105.113 181.633 105.024 181.411 103.647 181.411C102.936 181.411 101.826 180.923 101.115 180.302C100.404 179.681 99.5598 179.194 99.2044 179.194C98.8934 179.194 98.6268 178.972 98.6268 178.75C98.6268 178.484 98.3158 178.306 97.9604 178.306C96.983 178.306 94.6284 176.089 94.6284 175.113C94.6284 174.669 94.8061 174.315 95.0727 174.315C95.2948 174.315 95.6058 173.605 95.7835 172.762C95.9168 171.919 96.2278 171.21 96.4499 171.21C96.6721 171.21 96.8498 170.81 96.8498 170.323C96.8498 169.835 97.0719 169.435 97.294 169.435C97.5606 169.435 97.7383 168.992 97.7383 168.504C97.7383 167.972 98.0937 167.262 98.538 166.952C99.4265 166.242 100.848 166.153 100.848 166.774ZM176.64 166.952C176.995 167.306 177.262 167.883 177.262 168.194C177.262 168.504 177.573 169.169 177.928 169.613C178.284 170.101 178.594 170.855 178.594 171.298C178.594 171.742 178.817 172.097 179.039 172.097C179.305 172.097 179.483 172.806 179.483 173.649C179.483 174.492 179.705 175.202 179.927 175.202C180.194 175.202 180.372 175.423 180.372 175.69C180.372 176.31 179.261 177.419 178.639 177.419C178.372 177.419 178.15 177.597 178.15 177.863C178.15 178.085 177.75 178.306 177.262 178.306C176.773 178.306 176.373 178.44 176.373 178.661C176.373 178.839 175.662 179.371 174.818 179.815C173.974 180.302 173.263 180.835 173.263 181.056C173.263 181.234 172.553 181.411 171.708 181.411C170.065 181.411 170.02 181.411 170.42 182.476C170.598 182.964 170.909 183.052 171.797 182.698C172.375 182.476 173.885 182.298 175.085 182.298C176.284 182.298 177.262 182.077 177.262 181.855C177.262 181.589 178.594 181.411 180.372 181.411H183.481V187.31C183.481 194.718 183.659 194.54 176.551 193.964C173.885 193.698 171.397 193.698 171.042 193.875C170.509 194.185 170.553 194.319 171.397 194.54C171.931 194.673 172.375 194.984 172.375 195.206C172.375 195.427 172.775 195.605 173.263 195.605C173.752 195.605 174.152 195.782 174.152 196.048C174.152 196.27 174.552 196.492 175.085 196.492C175.574 196.492 176.284 196.802 176.64 197.157C177.04 197.512 177.706 197.823 178.15 197.823C179.927 197.823 179.572 199.242 177.262 201.415C176.018 202.613 174.596 203.677 174.107 203.81C173.663 203.988 173.263 204.298 173.263 204.52C173.263 204.742 172.863 204.919 172.375 204.919C171.886 204.919 171.486 205.097 171.486 205.363C171.486 205.585 170.909 205.806 170.153 205.806C169.443 205.806 168.821 205.984 168.821 206.25C168.821 206.516 167.132 206.694 164.6 206.694C162.068 206.694 160.38 206.516 160.38 206.25C160.38 205.984 159.58 205.806 158.603 205.806C157.625 205.806 156.826 205.629 156.826 205.407C156.826 205.185 156.292 204.919 155.626 204.786C153.671 204.387 151.05 203.411 151.05 203.056C151.05 202.835 150.561 202.702 149.939 202.702C149.317 202.702 148.829 202.48 148.829 202.258C148.829 201.992 148.429 201.815 147.94 201.815C146.119 201.815 142.609 197.911 142.609 195.915C142.609 195.25 142.431 194.718 142.165 194.718C141.898 194.718 141.721 193.431 141.721 191.79C141.721 188.952 141.765 188.819 143.409 187.355C144.297 186.556 145.408 185.758 145.852 185.581C146.252 185.448 146.607 185.137 146.607 184.915C146.607 184.694 146.83 184.516 147.052 184.516C147.496 184.516 148.029 184.161 149.495 182.831C149.806 182.565 150.295 182.298 150.561 182.298C150.828 182.298 151.05 182.077 151.05 181.855C151.05 181.589 151.45 181.411 151.939 181.411C152.427 181.411 152.827 181.234 152.827 181.056C152.827 180.835 153.538 180.302 154.382 179.815C155.226 179.371 155.937 178.839 155.937 178.661C155.937 178.44 156.248 178.306 156.603 178.306C156.959 178.306 157.27 178.129 157.27 177.952C157.27 177.73 157.981 177.242 158.825 176.843C159.669 176.444 160.38 175.911 160.38 175.645C160.38 175.423 160.691 175.202 161.046 175.202C161.446 175.202 162.246 174.714 162.868 174.093C163.49 173.472 164.2 172.984 164.511 172.984C164.822 172.984 165.355 172.585 165.711 172.097C166.066 171.609 166.733 171.21 167.221 171.21C167.666 171.21 168.376 170.855 168.776 170.411C169.665 169.435 171.753 168.105 172.375 168.105C172.641 168.105 173.263 167.706 173.796 167.218C174.952 166.153 175.751 166.109 176.64 166.952ZM138.611 206.25C138.611 206.472 139.01 206.694 139.499 206.694C140.254 206.694 142.431 207.492 144.475 208.512C144.919 208.734 145.674 208.911 146.163 208.911C146.652 208.911 147.052 209.089 147.052 209.355C147.052 209.577 147.54 209.798 148.162 209.798C149.273 209.798 149.54 209.887 152.294 211.262C153.138 211.661 154.293 212.016 154.871 212.016C155.448 212.016 155.937 212.194 155.937 212.46C155.937 212.681 156.248 212.903 156.648 212.903C157.67 212.903 161.668 214.278 161.979 214.722C162.112 214.944 162.69 215.121 163.312 215.121C163.889 215.121 164.378 215.298 164.378 215.565C164.378 215.786 165.089 216.008 165.933 216.008C166.777 216.008 167.488 216.185 167.488 216.452C167.488 216.673 167.799 216.895 168.154 216.895C168.954 216.895 171.931 218.315 171.931 218.714C171.931 219.379 168.643 223.105 168.065 223.105C167.843 223.105 167.132 223.593 166.422 224.214C165.711 224.835 164.778 225.323 164.289 225.323C163.845 225.323 163.49 225.5 163.49 225.766C163.49 225.988 162.912 226.21 162.157 226.21C161.446 226.21 160.824 226.387 160.824 226.565C160.824 226.742 159.536 227.319 157.936 227.762C156.337 228.25 155.048 228.782 155.048 228.96C155.048 229.181 154.338 229.315 153.494 229.315C152.649 229.315 151.939 229.492 151.939 229.758C151.939 229.98 151.45 230.202 150.828 230.202C150.206 230.202 149.717 230.379 149.717 230.601C149.717 230.823 149.006 231.133 148.162 231.266C147.318 231.444 146.607 231.754 146.607 231.976C146.607 232.242 146.03 232.419 145.275 232.419C144.564 232.419 143.942 232.597 143.942 232.863C143.942 233.085 143.231 233.306 142.387 233.306C141.543 233.306 140.832 233.484 140.832 233.75C140.832 234.016 139.499 234.194 137.722 234.194C135.945 234.194 134.612 234.016 134.612 233.75C134.612 233.484 133.901 233.306 133.057 233.306C132.213 233.306 131.502 233.085 131.502 232.863C131.502 232.597 130.792 232.419 129.947 232.419C129.103 232.419 128.393 232.242 128.393 232.02C128.393 231.798 127.682 231.488 126.838 231.355C125.994 231.177 125.283 230.867 125.283 230.645C125.283 230.379 124.572 230.202 123.728 230.202C122.884 230.202 122.173 229.98 122.173 229.758C122.173 229.492 121.773 229.315 121.284 229.315C120.796 229.315 120.04 229.137 119.596 228.915C117.641 227.851 115.731 227.097 114.976 227.097C114.532 227.097 114.176 226.875 114.176 226.653C114.176 226.387 113.687 226.21 113.065 226.21C112.443 226.21 111.955 225.988 111.955 225.766C111.955 225.5 111.644 225.323 111.244 225.323C109.511 225.323 103.958 221.109 103.958 219.778C103.958 219.468 103.691 219.069 103.425 218.935C102.981 218.714 102.981 218.625 103.425 218.403C103.736 218.27 104.269 217.871 104.58 217.516C104.935 217.161 105.646 216.895 106.135 216.895C106.668 216.895 107.068 216.673 107.068 216.452C107.068 216.185 107.779 216.008 108.623 216.008C109.467 216.008 110.178 215.786 110.178 215.565C110.178 215.298 110.711 215.121 111.422 215.121C112.088 215.121 113.021 214.81 113.465 214.456C113.954 214.101 114.798 213.79 115.376 213.79C115.953 213.79 116.397 213.569 116.397 213.347C116.397 213.081 117.019 212.903 117.73 212.903C118.485 212.903 119.063 212.681 119.063 212.46C119.063 212.194 119.463 212.016 119.952 212.016C120.44 212.016 121.951 211.528 123.328 210.907C124.705 210.286 126.216 209.798 126.66 209.798C127.149 209.798 127.504 209.577 127.504 209.355C127.504 209.089 128.082 208.911 128.792 208.911C129.548 208.911 130.214 208.778 130.347 208.556C130.436 208.379 131.858 207.847 133.457 207.359C135.057 206.871 136.389 206.339 136.389 206.117C136.389 205.94 136.878 205.806 137.5 205.806C138.122 205.806 138.611 205.984 138.611 206.25Z" fill="black"/>
</svg>
