<svg width="1440" height="1024" viewBox="0 0 1440 1024" fill="none" xmlns="http://www.w3.org/2000/svg">
<g clip-path="url(#clip0_3457_4771)">
<path d="M791.5 377.5L809.5 239.5C800.167 233.167 782.1 225.9 774.5 237.5C766.9 249.1 754.333 247.333 749 245C746.667 232.5 744.1 204.8 752.5 194C760.9 183.2 768.667 191.167 771.5 196.5C791.1 177.7 1109.33 179.333 1266 182.5V211.5L1243.5 220C1238 272.5 1224.2 393.3 1213 456.5C1201.8 519.7 1198 715.5 1197.5 805.5C1167.9 810.7 905.5 810.5 771.5 799L791.5 377.5Z" fill="white" stroke="black"/>
<path d="M841.134 704.624C652.618 858.323 453.724 884.584 315.02 810.31C253.828 777.538 204.301 725.232 172.595 655.609C78.7667 449.961 265.351 221.917 546.622 281.522C639.162 301.128 724.259 331.252 791.035 368.961C940.903 453.467 998.517 576.255 841.134 704.624Z" fill="#48BA82"/>
<path d="M841.134 704.624C652.618 858.323 453.724 884.584 315.02 810.31C349.732 735.321 378.503 667.058 388.952 661.548C388.952 661.548 387.664 647.237 385.446 628.49C381.867 598.866 375.927 558.223 368.841 545.63C368.841 545.63 320.173 565.593 315.092 534.467C312.158 516.793 331.482 506.275 347.513 505.345C347.084 505.345 346.583 505.273 346.153 505.201C346.153 505.201 343.648 458.19 358.249 445.239C358.821 444.738 359.394 444.237 359.967 443.808C376.141 419.264 403.195 399.802 458.304 410.248C513.413 420.695 543.902 427.064 546.192 431.572C548.483 436.08 479.847 474.147 479.847 474.147C479.847 474.147 501.032 547.061 515.059 593.428C520.928 612.819 525.58 627.56 526.94 630.422C526.94 630.422 576.467 703.121 597.795 772.1C604.952 764.086 615.616 754.569 629.787 747.342C634.94 744.48 640.952 745.195 645.604 746.483C650.256 747.7 652.331 741.904 652.689 736.323C653.047 730.813 657.842 722.298 667.934 721.94C678.097 721.582 704.721 688.882 709.301 678.22C713.667 668.06 721.826 635.001 744.156 633.284C750.096 625.341 755.035 619.903 758.756 616.254C764.768 545.988 779.369 450.82 791.178 369.033C940.903 453.467 998.517 576.255 841.134 704.624Z" fill="white"/>
<path d="M874.342 352.862C880.998 348.855 912.919 350.357 915.137 357.227C917.285 364.096 922.294 507.849 915.137 511.641C907.98 515.362 878.708 516.65 876.561 502.912C874.342 489.173 866.613 357.513 874.342 352.862Z" fill="#FAD932"/>
<path d="M899.893 515.147C893.881 515.147 887.44 514.217 882.716 511.856C878.565 509.781 876.132 506.776 875.559 503.055C874.486 496.329 871.981 460.408 870.692 424.559C868.259 355.366 872.482 352.79 873.841 352.003C879.567 348.568 900.967 348.998 910.843 352.719C913.921 353.863 915.71 355.295 916.211 357.012C917.428 360.733 919.145 399.73 919.79 435.65C921.006 509.852 916.998 511.928 915.71 512.643C912.847 514.003 906.621 515.147 899.893 515.147ZM874.915 353.792C874.128 354.221 870.478 359.874 872.768 424.488C874.056 460.265 876.489 496.042 877.563 502.697C878.064 505.702 880.068 508.135 883.575 509.924C892.951 514.647 909.77 513.144 914.565 510.64C916.497 509.065 918.43 488.243 917.499 434.792C916.855 396.939 915.066 360.733 914.064 357.584C913.778 356.583 912.275 355.581 909.984 354.651C900.322 351.001 879.639 350.93 874.915 353.792Z" fill="#FAD932"/>
<path d="M432.253 474.29C430.392 474.576 428.602 473.217 428.316 471.356L427.099 462.555C426.813 460.694 428.173 458.906 430.034 458.619C431.895 458.333 433.684 459.693 433.97 461.553L435.187 470.354C435.473 472.286 434.185 474.075 432.253 474.29Z" fill="#202D37"/>
<path d="M458.233 466.49C456.372 466.777 454.582 465.417 454.296 463.557L453.079 454.755C452.793 452.895 454.153 451.106 456.014 450.82C457.875 450.534 459.664 451.893 459.95 453.754L461.167 462.555C461.382 464.487 460.093 466.204 458.233 466.49Z" fill="#202D37"/>
<path d="M911.702 289.035C911.845 291.539 911.416 293.543 910.414 295.189C909.412 296.763 907.766 297.979 905.404 298.767L905.69 305.278C905.69 305.493 905.619 305.636 905.547 305.779C905.404 305.922 905.261 305.994 905.046 305.994L896.458 306.423C896.243 306.423 896.1 306.351 895.957 306.28C895.814 306.137 895.742 305.994 895.742 305.779L895.456 299.983C893.809 299.983 892.378 299.911 891.09 299.84C890.947 299.84 890.804 299.768 890.66 299.625C890.517 299.482 890.446 299.339 890.446 299.124L890.804 292.183C890.804 291.969 890.875 291.826 891.09 291.683C891.233 291.539 891.448 291.539 891.662 291.539C892.163 291.611 892.736 291.683 893.309 291.754C893.881 291.826 894.597 291.897 895.527 291.969C896.458 292.04 897.245 292.04 898.032 292.04C898.891 292.04 899.535 291.897 900.108 291.611C900.68 291.325 901.038 291.039 901.324 290.681C901.539 290.323 901.682 290.037 901.754 289.751C901.825 289.464 901.897 289.25 901.825 289.035C901.825 288.82 901.754 288.534 901.611 288.248C901.468 287.962 901.324 287.604 901.038 287.175C900.752 286.745 900.251 286.388 899.535 286.03C898.819 285.672 898.032 285.386 897.03 285.171C895.885 284.956 894.812 284.599 893.738 284.026C892.664 283.454 891.734 282.738 890.804 281.88C889.873 281.021 889.086 279.876 888.513 278.517C887.941 277.157 887.583 275.654 887.511 274.08C887.368 271.79 887.869 269.858 888.943 268.284C890.016 266.71 891.662 265.422 893.81 264.563L893.452 257.909C893.452 257.694 893.523 257.551 893.595 257.408C893.738 257.265 893.881 257.193 894.096 257.193L902.684 256.764C902.899 256.764 903.042 256.836 903.185 256.979C903.328 257.122 903.4 257.265 903.4 257.48L903.686 263.275C905.261 263.275 906.764 263.347 908.267 263.419C908.41 263.419 908.553 263.49 908.696 263.633C908.839 263.776 908.911 263.919 908.911 264.134L908.553 271.075C908.553 271.29 908.481 271.433 908.267 271.576C908.124 271.719 907.909 271.79 907.766 271.719C905.332 271.29 903.185 271.146 901.181 271.218C900.394 271.218 899.678 271.361 899.106 271.647C898.533 271.934 898.104 272.22 897.889 272.578C897.674 272.935 897.531 273.293 897.388 273.508C897.316 273.794 897.245 274.009 897.317 274.295C897.317 274.51 897.388 274.724 897.46 275.01C897.603 275.297 897.746 275.654 898.104 276.084C898.39 276.513 898.891 276.871 899.607 277.229C900.322 277.586 901.11 277.873 902.112 278.087C903.185 278.302 904.33 278.731 905.332 279.232C906.406 279.805 907.408 280.52 908.338 281.379C909.269 282.237 909.984 283.382 910.629 284.742C911.273 285.958 911.559 287.461 911.702 289.035Z" fill="#202D37"/>
<path d="M896.386 307.496C895.957 307.496 895.527 307.353 895.241 307.067C894.883 306.781 894.668 306.351 894.668 305.85L894.454 301.056C893.237 301.056 892.02 300.985 891.018 300.913C890.589 300.842 890.159 300.698 889.873 300.341C889.587 300.054 889.444 299.625 889.372 299.196V299.124L889.73 292.183C889.73 291.683 890.016 291.182 890.374 290.895C890.804 290.609 891.305 290.466 891.805 290.538C892.306 290.609 892.879 290.681 893.38 290.752C893.953 290.824 894.668 290.895 895.527 290.967C896.386 291.039 897.173 291.039 897.889 291.039C898.605 291.039 899.177 290.895 899.607 290.752C900.108 290.538 900.251 290.323 900.322 290.251C900.537 289.894 900.609 289.679 900.68 289.536C900.752 289.321 900.752 289.178 900.752 289.178C900.752 289.107 900.752 288.964 900.609 288.749C900.537 288.606 900.465 288.391 900.108 287.962C899.964 287.747 899.678 287.461 898.963 287.103C898.39 286.817 897.603 286.531 896.744 286.388C895.527 286.173 894.31 285.744 893.165 285.1C892.02 284.456 890.947 283.668 889.945 282.738C888.943 281.736 888.084 280.52 887.44 279.017C886.796 277.515 886.438 275.941 886.295 274.152C886.151 271.647 886.724 269.501 887.941 267.64C889.014 266.066 890.589 264.778 892.593 263.848L892.307 257.909C892.307 257.48 892.45 257.05 892.736 256.692C893.022 256.335 893.523 256.12 893.953 256.048L902.541 255.619C903.042 255.619 903.471 255.762 903.829 256.12C904.187 256.478 904.402 256.907 904.402 257.336L904.617 262.131C905.833 262.131 907.05 262.202 908.267 262.274C908.696 262.345 909.125 262.488 909.412 262.775C909.77 263.132 909.984 263.633 909.913 264.134L909.555 271.075C909.483 271.576 909.269 272.005 908.911 272.363C908.481 272.721 907.98 272.864 907.479 272.721C905.189 272.363 903.042 272.148 901.181 272.22C900.537 272.22 899.965 272.363 899.535 272.506C899.106 272.721 898.891 272.935 898.819 273.007C898.605 273.365 898.533 273.579 898.462 273.722C898.39 273.866 898.39 274.009 898.39 274.08C898.39 274.152 898.39 274.223 898.462 274.509C898.533 274.653 898.605 274.867 898.963 275.297C899.106 275.511 899.392 275.797 900.108 276.155C900.68 276.441 901.468 276.728 902.326 276.871C903.543 277.157 904.76 277.586 905.905 278.159C907.05 278.731 908.124 279.518 909.126 280.52C910.128 281.522 910.986 282.738 911.631 284.241C912.275 285.672 912.633 287.318 912.704 289.035C912.847 291.754 912.346 294.044 911.201 295.833C910.199 297.478 908.553 298.695 906.406 299.625L906.692 305.35C906.692 305.85 906.549 306.28 906.263 306.637C905.976 306.995 905.547 307.21 905.046 307.21L896.458 307.639C896.458 307.496 896.386 307.496 896.386 307.496ZM895.456 298.91C896.028 298.91 896.529 299.339 896.529 299.911L896.815 305.278L904.617 304.92L904.33 298.838C904.33 298.337 904.617 297.908 905.046 297.765C907.122 297.049 908.625 295.976 909.483 294.616C910.342 293.185 910.772 291.325 910.629 289.107C910.557 287.604 910.271 286.244 909.698 285.028C909.197 283.812 908.481 282.81 907.694 282.023C906.835 281.236 905.905 280.52 904.974 280.019C903.972 279.518 902.971 279.161 901.969 278.946C900.895 278.731 899.965 278.445 899.177 278.016C898.318 277.586 897.746 277.085 897.316 276.513C896.959 276.012 896.672 275.583 896.529 275.225C896.386 274.867 896.314 274.509 896.314 274.152C896.314 273.794 896.314 273.436 896.458 273.007C896.601 272.649 896.744 272.291 897.03 271.79C897.388 271.218 897.961 270.789 898.676 270.431C899.392 270.145 900.179 269.93 901.181 269.93C903.042 269.858 905.189 270.002 907.479 270.359L907.766 264.206C906.406 264.134 905.046 264.063 903.615 264.063C903.042 264.063 902.541 263.633 902.541 263.061L902.255 257.623L894.382 257.98L894.668 264.277C894.668 264.707 894.454 265.136 894.024 265.351C892.092 266.138 890.589 267.282 889.658 268.642C888.728 270.073 888.299 271.79 888.37 273.794C888.442 275.297 888.728 276.656 889.301 277.873C889.873 279.089 890.517 280.091 891.376 280.878C892.235 281.665 893.165 282.38 894.096 282.881C895.026 283.382 896.028 283.74 897.03 283.955C898.104 284.169 899.106 284.456 899.893 284.885C900.752 285.314 901.324 285.815 901.754 286.388C902.112 286.888 902.326 287.318 902.469 287.676C902.613 288.033 902.684 288.463 902.756 288.749C902.756 289.107 902.756 289.464 902.613 289.822C902.469 290.18 902.326 290.609 902.04 291.039C901.682 291.611 901.11 292.04 900.394 292.398C899.678 292.684 898.819 292.899 897.889 292.899C897.102 292.971 896.243 292.899 895.312 292.827C894.382 292.756 893.666 292.684 893.094 292.613C892.664 292.541 892.235 292.47 891.805 292.398L891.519 298.552C892.664 298.91 894.024 298.91 895.456 298.91Z" fill="#202D37"/>
<path d="M958.581 288.033C958.294 290.538 957.507 292.47 956.219 293.829C954.931 295.26 953.141 296.119 950.708 296.548L949.921 302.988C949.921 303.203 949.778 303.346 949.634 303.418C949.491 303.561 949.348 303.561 949.133 303.561L940.545 302.487C940.33 302.487 940.187 302.344 940.115 302.201C939.972 302.058 939.972 301.915 939.972 301.7L940.688 295.904C939.114 295.618 937.682 295.332 936.394 294.974C936.251 294.903 936.108 294.831 936.036 294.688C935.964 294.545 935.893 294.33 935.893 294.187L937.396 287.389C937.467 287.175 937.539 287.032 937.754 286.96C937.968 286.888 938.112 286.817 938.326 286.96C938.827 287.175 939.328 287.318 939.901 287.461C940.473 287.604 941.118 287.819 942.048 288.033C942.907 288.248 943.766 288.391 944.481 288.534C945.269 288.677 945.984 288.677 946.628 288.463C947.201 288.32 947.702 288.105 947.988 287.747C948.275 287.461 948.489 287.175 948.632 286.888C948.776 286.602 948.847 286.388 948.847 286.173C948.847 285.958 948.847 285.672 948.775 285.386C948.704 285.1 948.561 284.742 948.346 284.241C948.131 283.812 947.702 283.311 947.058 282.81C946.414 282.309 945.626 281.88 944.696 281.522C943.622 281.093 942.621 280.52 941.69 279.805C940.76 279.089 939.901 278.159 939.185 277.157C938.398 276.155 937.897 274.867 937.539 273.436C937.181 272.005 937.11 270.502 937.324 268.857C937.611 266.567 938.398 264.778 939.758 263.347C941.117 261.916 942.907 260.986 945.197 260.556L946.056 253.902C946.056 253.687 946.199 253.544 946.342 253.401C946.485 253.258 946.628 253.258 946.843 253.258L955.432 254.331C955.646 254.331 955.789 254.474 955.933 254.617C956.076 254.76 956.076 254.975 956.076 255.118L955.36 260.914C956.863 261.2 958.366 261.487 959.869 261.844C960.012 261.916 960.155 261.987 960.298 262.131C960.442 262.274 960.441 262.488 960.37 262.631L958.867 269.429C958.795 269.644 958.724 269.787 958.509 269.858C958.294 270.002 958.151 270.002 957.937 269.93C955.646 269.143 953.499 268.57 951.567 268.284C950.779 268.141 950.064 268.141 949.491 268.356C948.919 268.499 948.418 268.714 948.131 269.071C947.845 269.429 947.63 269.644 947.487 269.93C947.344 270.145 947.273 270.431 947.273 270.646C947.273 270.86 947.273 271.146 947.344 271.433C947.416 271.719 947.559 272.077 947.774 272.578C947.988 273.007 948.418 273.508 949.062 274.009C949.706 274.509 950.493 274.939 951.424 275.297C952.497 275.726 953.499 276.298 954.43 277.014C955.36 277.729 956.219 278.66 957.006 279.661C957.793 280.735 958.294 281.951 958.652 283.382C958.724 284.956 958.795 286.459 958.581 288.033Z" fill="#202D37"/>
<path d="M949.205 304.706C949.133 304.706 949.062 304.706 948.99 304.706L940.402 303.632C939.901 303.561 939.543 303.346 939.257 302.988C938.97 302.63 938.827 302.201 938.899 301.7L939.471 296.978C938.255 296.763 937.11 296.477 936.108 296.262C935.678 296.119 935.32 295.904 935.106 295.475C934.891 295.117 934.748 294.688 934.819 294.259V294.187L936.322 287.389C936.465 286.888 936.752 286.459 937.181 286.244C937.611 286.03 938.112 285.958 938.613 286.173C939.114 286.316 939.615 286.531 940.115 286.674C940.616 286.817 941.332 287.032 942.191 287.246C943.05 287.461 943.766 287.604 944.481 287.676C945.197 287.819 945.77 287.747 946.199 287.676C946.7 287.532 946.915 287.389 946.986 287.318C947.273 287.032 947.344 286.817 947.416 286.674C947.487 286.459 947.559 286.388 947.559 286.316C947.559 286.244 947.559 286.101 947.559 285.887C947.559 285.744 947.416 285.457 947.201 285.028C947.129 284.813 946.843 284.456 946.271 284.026C945.77 283.597 945.054 283.239 944.195 282.953C943.05 282.524 941.905 281.88 940.903 281.093C939.901 280.305 938.97 279.304 938.183 278.23C937.324 277.085 936.752 275.726 936.322 274.152C935.964 272.578 935.821 270.932 936.036 269.214C936.322 266.71 937.253 264.707 938.756 263.132C940.115 261.773 941.833 260.771 943.98 260.199L944.696 254.26C944.768 253.83 944.982 253.401 945.34 253.115C945.698 252.828 946.199 252.685 946.7 252.685L955.288 253.759C955.789 253.83 956.147 254.045 956.505 254.474C956.791 254.832 956.935 255.333 956.863 255.762L956.29 260.485C957.507 260.699 958.652 260.986 959.797 261.272C960.227 261.415 960.585 261.63 960.799 261.987C961.086 262.417 961.157 262.918 961.086 263.419L959.583 270.216C959.44 270.717 959.153 271.075 958.724 271.361C958.223 271.647 957.722 271.719 957.221 271.504C955.002 270.717 952.927 270.216 951.066 269.93C950.422 269.858 949.849 269.858 949.348 269.93C948.99 270.002 948.704 270.145 948.561 270.288C948.275 270.574 948.131 270.789 948.06 270.932C947.988 271.075 947.917 271.218 947.917 271.29C947.917 271.361 947.917 271.504 947.917 271.719C947.917 271.862 947.988 272.077 948.275 272.578C948.346 272.792 948.632 273.15 949.277 273.651C949.778 274.08 950.493 274.438 951.352 274.724C952.497 275.153 953.571 275.798 954.644 276.585C955.646 277.372 956.577 278.373 957.436 279.447C958.294 280.592 958.867 281.951 959.296 283.525C959.654 285.1 959.726 286.745 959.511 288.463C959.153 291.182 958.294 293.328 956.863 294.903C955.575 296.334 953.785 297.264 951.495 297.765L950.779 303.489C950.708 303.99 950.493 304.348 950.135 304.634C949.992 304.562 949.634 304.706 949.205 304.706ZM941.117 301.557L948.919 302.559L949.706 296.477C949.778 295.976 950.135 295.618 950.565 295.547C952.712 295.189 954.358 294.402 955.432 293.185C956.577 291.969 957.221 290.18 957.507 287.962C957.722 286.531 957.65 285.1 957.292 283.812C957.006 282.524 956.505 281.379 955.789 280.449C955.074 279.518 954.286 278.66 953.428 278.016C952.569 277.372 951.638 276.799 950.708 276.441C949.706 276.084 948.847 275.583 948.131 275.01C947.344 274.438 946.843 273.866 946.557 273.222C946.271 272.649 946.127 272.22 946.056 271.79C945.984 271.361 945.984 271.003 945.984 270.717C946.056 270.359 946.127 270.002 946.342 269.644C946.485 269.286 946.772 268.928 947.129 268.57C947.559 268.07 948.203 267.712 948.99 267.569C949.706 267.354 950.565 267.354 951.495 267.497C953.356 267.783 955.432 268.284 957.65 269L959.01 262.989C957.722 262.703 956.362 262.417 955.002 262.202C954.43 262.131 954.072 261.558 954.143 260.986L954.787 255.619L946.986 254.617L946.199 260.914C946.127 261.343 945.77 261.701 945.34 261.844C943.336 262.274 941.69 263.132 940.473 264.349C939.257 265.565 938.541 267.211 938.326 269.214C938.112 270.646 938.183 272.077 938.541 273.365C938.827 274.653 939.4 275.798 940.044 276.728C940.76 277.658 941.547 278.517 942.406 279.161C943.265 279.805 944.195 280.377 945.125 280.735C946.199 281.164 947.058 281.593 947.774 282.166C948.561 282.738 949.062 283.382 949.348 283.955C949.634 284.527 949.777 284.956 949.849 285.314C949.921 285.744 949.921 286.101 949.921 286.459C949.849 286.817 949.778 287.175 949.563 287.532C949.42 287.89 949.133 288.248 948.775 288.606C948.346 289.107 947.702 289.393 946.915 289.608C946.199 289.822 945.34 289.822 944.338 289.679C943.551 289.608 942.692 289.393 941.833 289.178C940.903 288.964 940.187 288.749 939.686 288.606C939.257 288.463 938.827 288.32 938.469 288.176L937.11 294.187C938.255 294.473 939.543 294.759 940.974 294.974C941.547 295.046 941.905 295.618 941.833 296.191L941.117 301.557Z" fill="#202D37"/>
<path d="M1003.67 291.039C1003.38 293.543 1002.6 295.475 1001.31 296.835C1000.02 298.266 998.231 299.124 995.797 299.554L995.01 305.994C995.01 306.208 994.867 306.351 994.724 306.423C994.581 306.566 994.437 306.566 994.223 306.566L985.634 305.493C985.42 305.493 985.276 305.35 985.205 305.206C985.062 305.063 985.062 304.92 985.062 304.706L985.777 298.91C984.203 298.623 982.771 298.337 981.483 297.979C981.34 297.908 981.197 297.836 981.125 297.693C981.054 297.55 980.982 297.335 980.982 297.192L982.485 290.395C982.557 290.18 982.628 290.037 982.843 289.965C983.058 289.894 983.201 289.822 983.416 289.965C983.917 290.18 984.418 290.323 984.99 290.466C985.563 290.609 986.207 290.824 987.137 291.039C987.996 291.253 988.855 291.396 989.571 291.54C990.358 291.683 991.074 291.683 991.718 291.468C992.29 291.325 992.791 291.11 993.078 290.752C993.364 290.466 993.579 290.18 993.722 289.894C993.865 289.608 993.936 289.393 993.936 289.178C993.936 288.964 993.936 288.677 993.865 288.391C993.793 288.105 993.65 287.747 993.435 287.246C993.221 286.817 992.791 286.316 992.147 285.815C991.503 285.314 990.716 284.885 989.785 284.527C988.712 284.098 987.71 283.525 986.779 282.81C985.849 282.094 984.99 281.164 984.274 280.162C983.487 279.161 982.986 277.873 982.628 276.442C982.27 275.01 982.199 273.508 982.414 271.862C982.7 269.572 983.487 267.783 984.847 266.352C986.207 264.921 987.996 263.991 990.286 263.562L991.145 256.907C991.145 256.692 991.288 256.549 991.432 256.406C991.575 256.263 991.718 256.263 991.932 256.263L1000.52 257.336C1000.74 257.336 1000.88 257.48 1001.02 257.623C1001.17 257.766 1001.17 257.98 1001.17 258.124L1000.45 263.919C1001.95 264.206 1003.46 264.492 1004.96 264.85C1005.1 264.921 1005.24 264.993 1005.39 265.136C1005.53 265.279 1005.53 265.494 1005.46 265.637L1003.96 272.434C1003.88 272.649 1003.81 272.792 1003.6 272.864C1003.38 273.007 1003.24 273.007 1003.03 272.935C1000.74 272.148 998.588 271.576 996.656 271.29C995.869 271.146 995.153 271.146 994.581 271.361C994.008 271.504 993.507 271.719 993.221 272.077C992.934 272.434 992.72 272.649 992.577 272.935C992.433 273.15 992.362 273.436 992.362 273.651C992.362 273.866 992.362 274.152 992.433 274.438C992.505 274.724 992.648 275.082 992.863 275.583C993.078 276.012 993.507 276.513 994.151 277.014C994.795 277.515 995.583 277.944 996.513 278.302C997.587 278.731 998.588 279.304 999.519 280.019C1000.45 280.735 1001.31 281.665 1002.1 282.667C1002.88 283.74 1003.38 284.957 1003.74 286.388C1003.81 287.89 1003.88 289.464 1003.67 291.039Z" fill="#202D37"/>
<path d="M994.294 307.711C994.223 307.711 994.151 307.711 994.08 307.711L985.491 306.638C984.99 306.566 984.632 306.351 984.346 305.994C984.06 305.636 983.917 305.206 983.988 304.706L984.561 299.983C983.344 299.768 982.199 299.482 981.197 299.267C980.768 299.124 980.41 298.91 980.195 298.48C979.98 298.123 979.837 297.693 979.909 297.264V297.192L981.412 290.395C981.555 289.894 981.841 289.464 982.27 289.25C982.7 289.035 983.201 288.964 983.702 289.178C984.203 289.321 984.704 289.536 985.205 289.679C985.706 289.822 986.422 290.037 987.28 290.252C988.139 290.466 988.855 290.609 989.571 290.681C990.286 290.824 990.859 290.752 991.288 290.681C991.789 290.538 992.004 290.395 992.076 290.323C992.362 290.037 992.434 289.822 992.505 289.679C992.577 289.464 992.648 289.321 992.648 289.321C992.648 289.25 992.648 289.107 992.648 288.892C992.648 288.749 992.505 288.463 992.29 288.033C992.219 287.819 991.932 287.461 991.36 287.032C990.859 286.602 990.143 286.244 989.284 285.958C988.139 285.529 986.994 284.885 985.992 284.098C984.99 283.311 984.06 282.309 983.272 281.236C982.414 280.091 981.841 278.731 981.412 277.157C981.054 275.583 980.911 273.937 981.125 272.22C981.412 269.715 982.342 267.712 983.845 266.138C985.205 264.778 986.923 263.776 989.07 263.204L989.785 257.265C989.857 256.836 990.072 256.406 990.43 256.12C990.787 255.834 991.288 255.691 991.789 255.691L1000.38 256.764C1000.88 256.836 1001.24 257.05 1001.59 257.48C1001.88 257.837 1002.02 258.338 1001.95 258.768L1001.38 263.49C1002.6 263.705 1003.74 263.991 1004.89 264.277C1005.32 264.42 1005.67 264.635 1005.89 264.993C1006.17 265.422 1006.25 265.923 1006.17 266.352L1004.67 273.15C1004.53 273.651 1004.24 274.009 1003.81 274.295C1003.38 274.581 1002.81 274.653 1002.31 274.438C1000.09 273.651 998.016 273.15 996.155 272.864C995.511 272.792 994.938 272.792 994.437 272.864C993.936 273.007 993.722 273.15 993.65 273.222C993.364 273.508 993.221 273.722 993.149 273.866C993.078 274.009 993.006 274.152 993.006 274.223C993.006 274.295 993.006 274.366 993.006 274.653C993.006 274.796 993.078 275.01 993.364 275.511C993.435 275.726 993.722 276.084 994.366 276.585C994.867 277.014 995.583 277.372 996.441 277.658C997.587 278.087 998.66 278.731 999.734 279.518C1000.74 280.305 1001.67 281.307 1002.52 282.381C1003.38 283.525 1003.96 284.885 1004.39 286.459C1004.74 288.033 1004.82 289.679 1004.6 291.396C1004.24 294.115 1003.38 296.262 1001.95 297.836C1000.66 299.267 998.875 300.198 996.585 300.699L995.869 306.423C995.797 306.924 995.583 307.282 995.225 307.568C995.082 307.568 994.724 307.711 994.294 307.711ZM986.207 304.491L994.008 305.493L994.795 299.41C994.867 298.91 995.225 298.552 995.654 298.48C997.801 298.123 999.447 297.335 1000.52 296.119C1001.67 294.903 1002.31 293.114 1002.6 290.896C1002.81 289.464 1002.74 288.033 1002.38 286.745C1002.1 285.457 1001.59 284.313 1000.88 283.382C1000.16 282.452 999.376 281.593 998.517 280.949C997.658 280.305 996.728 279.733 995.797 279.375C994.795 279.017 993.936 278.517 993.221 277.944C992.434 277.372 991.932 276.799 991.646 276.155C991.36 275.583 991.217 275.153 991.145 274.724C991.074 274.295 991.074 273.937 991.074 273.651C991.145 273.293 991.217 272.935 991.432 272.578C991.575 272.22 991.861 271.862 992.219 271.504C992.648 271.003 993.292 270.646 994.08 270.502C994.795 270.288 995.654 270.288 996.585 270.431C998.445 270.717 1000.52 271.218 1002.74 271.934L1004.1 265.923C1002.81 265.637 1001.45 265.351 1000.09 265.136C999.519 265.064 999.161 264.492 999.233 263.919L999.877 258.553L992.076 257.551L991.288 263.848C991.217 264.277 990.859 264.635 990.43 264.778C988.426 265.207 986.779 266.066 985.563 267.283C984.346 268.499 983.63 270.145 983.416 272.148C983.201 273.579 983.272 275.01 983.63 276.298C983.988 277.586 984.489 278.731 985.133 279.661C985.849 280.592 986.636 281.45 987.495 282.094C988.354 282.738 989.284 283.311 990.215 283.668C991.288 284.098 992.147 284.527 992.863 285.1C993.65 285.672 994.151 286.316 994.437 286.888C994.724 287.461 994.867 287.89 994.938 288.248C995.01 288.677 995.01 289.035 995.01 289.393C994.938 289.751 994.867 290.037 994.652 290.466C994.509 290.824 994.223 291.182 993.865 291.539C993.435 292.04 992.791 292.327 992.004 292.541C991.288 292.756 990.43 292.756 989.428 292.613C988.64 292.541 987.781 292.327 986.923 292.112C985.992 291.897 985.348 291.683 984.775 291.539C984.346 291.396 983.917 291.253 983.559 291.11L982.199 297.121C983.344 297.407 984.632 297.693 986.064 297.908C986.636 297.979 986.994 298.552 986.923 299.124L986.207 304.491Z" fill="#202D37"/>
<path d="M303.283 838.002C302.925 838.002 302.567 837.93 302.209 837.787C300.993 837.215 300.42 835.712 300.993 834.424C312.802 809.451 324.396 784.05 334.559 761.581C362.114 700.975 377.573 667.559 386.376 660.332C385.302 648.668 377.573 570.531 367.625 548.778C360.396 551.426 337.279 558.796 323.251 550.925C317.382 547.633 313.804 542.267 312.587 534.825C311.156 526.024 314.162 518.439 321.319 512.715C334.058 502.625 357.676 500.837 370.273 505.989C371.561 506.489 372.133 507.992 371.632 509.28C371.131 510.568 369.629 511.14 368.34 510.64C357.247 506.06 335.633 507.706 324.396 516.65C318.67 521.23 316.38 527.026 317.525 534.038C318.527 539.977 321.175 544.056 325.684 546.56C340.07 554.574 367.625 543.412 367.911 543.34C369.056 542.839 370.416 543.34 371.06 544.413C382.797 565.307 391.171 657.47 391.529 661.333C391.601 662.335 391.1 663.337 390.169 663.766C382.797 667.63 361.613 714.284 339.14 763.656C328.977 786.125 317.382 811.527 305.573 836.571C305.072 837.501 304.213 838.002 303.283 838.002Z" fill="#202D37"/>
<path d="M346.153 505.201C362.829 506.418 371.203 512.142 371.704 523.305C372.205 534.467 386.662 527.383 384.658 517.223C382.654 507.062 380.221 502.411 384.873 500.193C397.112 494.325 407.275 469.997 380.65 463.628C384.086 458.047 378.002 427.779 358.32 445.239C343.577 458.19 346.153 505.201 346.153 505.201Z" fill="#202D37"/>
<path d="M376.213 531.462C375.211 531.462 374.281 531.247 373.35 530.889C371.847 530.246 369.342 528.385 369.128 523.448C368.841 517.366 366.122 509.208 345.867 507.777C344.579 507.706 343.577 506.704 343.577 505.416C343.505 503.413 341.144 457.045 356.531 443.45C366.694 434.434 373.493 437.582 376.571 440.23C382.368 445.167 384.73 455.829 383.656 461.982C396.396 465.918 399.187 473.932 399.688 478.512C400.762 488.744 393.318 498.905 385.803 502.482C384.229 503.198 384.086 503.985 385.732 511.069C386.09 512.715 386.591 514.647 387.02 516.722C388.094 522.231 385.374 526.739 382.368 529.101C380.436 530.603 378.289 531.462 376.213 531.462ZM348.515 502.912C365.191 504.557 373.636 511.212 374.137 523.162C374.209 524.807 374.71 525.952 375.426 526.31C376.356 526.739 377.931 526.238 379.291 525.165C381.08 523.734 382.797 521.015 382.153 517.723C381.724 515.648 381.294 513.86 380.937 512.214C379.434 505.702 378.217 500.622 383.728 497.974C389.597 495.184 395.609 486.74 394.75 479.012C394.106 472.716 388.953 468.208 379.935 466.061C379.147 465.846 378.503 465.346 378.217 464.558C377.931 463.843 378.002 462.984 378.432 462.269C379.935 459.907 378.718 448.387 373.422 443.951C370.058 441.089 365.477 442.162 359.895 447.099C348.014 457.618 348.301 493.61 348.515 502.912Z" fill="#202D37"/>
<path d="M597.651 774.533C596.578 774.533 595.576 773.817 595.29 772.744C574.32 704.91 525.222 632.425 524.793 631.71C524.721 631.567 524.65 631.495 524.578 631.352C520.069 621.692 479.06 480.801 477.342 474.791C476.984 473.646 477.485 472.501 478.559 471.929C507.115 456.115 537.676 437.582 543.043 432.073C541.183 430.999 535.743 428.853 520.284 425.275C504.539 421.626 480.92 417.046 457.803 412.681C412.714 404.166 382.296 414.47 362.042 445.167C361.255 446.312 359.752 446.67 358.607 445.883C357.462 445.096 357.104 443.593 357.891 442.448C367.553 427.779 379.219 417.69 393.605 411.608C411.139 404.166 433.04 402.95 458.805 407.816C528.3 420.982 545.906 425.418 548.411 430.427C549.771 433.146 547.481 435.793 538.177 442.162C532.737 445.883 524.936 450.82 515.131 456.687C501.533 464.845 487.576 472.644 482.781 475.363C497.525 526.167 525.365 620.619 529.087 629.134C531.878 633.213 579.473 704.409 600.156 771.313C600.586 772.601 599.799 774.032 598.51 774.461C598.152 774.533 597.938 774.533 597.651 774.533Z" fill="#202D37"/>
<path d="M409.708 631.71C401.978 631.71 393.819 631.495 385.302 631.066C383.943 630.994 382.869 629.85 382.941 628.418C383.012 627.059 384.157 625.986 385.589 626.057C454.439 629.635 494.877 618.83 512.912 592.069C513.7 590.924 515.274 590.638 516.419 591.353C517.564 592.14 517.851 593.714 517.135 594.859C500.244 619.76 465.891 631.71 409.708 631.71Z" fill="#202D37"/>
<path d="M455.227 545.057C452.077 546.632 448.427 547.633 444.205 547.848C428.388 548.492 417.437 536.113 413.859 525.165C411.282 517.294 412.499 510.21 418.368 509.208C433.326 506.704 462.527 501.337 467.823 505.201C474.622 510.139 472.475 536.399 455.227 545.057Z" fill="#202D37"/>
<path d="M442.988 550.352C426.813 550.352 415.362 537.83 411.426 525.952C409.422 519.942 409.565 514.503 411.712 510.926C413.072 508.636 415.219 507.205 417.938 506.776C419.084 506.561 420.372 506.346 421.66 506.132C448.785 501.552 464.459 499.692 469.254 503.198C472.69 505.702 474.407 511.57 473.835 518.94C473.048 528.814 468.038 541.48 456.372 547.419C452.722 549.279 448.642 550.281 444.276 550.424C443.775 550.352 443.346 550.352 442.988 550.352ZM460.022 506.346C457.517 506.346 454.01 506.561 449.143 507.062C440.34 507.992 429.962 509.781 422.376 511.069C421.016 511.284 419.799 511.498 418.583 511.713C417.366 511.927 416.435 512.5 415.863 513.573C414.503 515.863 414.575 519.942 416.078 524.45C419.513 534.968 429.748 545.987 443.99 545.415C447.64 545.272 451.004 544.413 454.01 542.911C463.815 537.973 468.109 526.668 468.753 518.51C469.254 512.357 467.823 508.35 466.248 507.276C465.962 506.919 464.602 506.346 460.022 506.346Z" fill="#202D37"/>
<path d="M455.227 545.057C452.078 546.632 448.427 547.633 444.205 547.848C428.388 548.492 417.437 536.113 413.859 525.165C429.962 520.8 448.928 525.881 455.227 545.057Z" fill="#FFFEF2"/>
<path d="M442.988 550.352C426.813 550.352 415.362 537.83 411.426 525.952C411.211 525.308 411.282 524.593 411.569 523.949C411.927 523.376 412.428 522.875 413.143 522.732C429.676 518.224 450.718 523.019 457.588 544.27C457.946 545.415 457.445 546.703 456.3 547.276C452.65 549.136 448.571 550.138 444.205 550.281C443.775 550.352 443.346 550.352 442.988 550.352ZM417.151 526.954C421.302 536.614 431.036 545.844 444.062 545.344C446.924 545.2 449.573 544.7 452.078 543.769C445.851 528.457 430.392 524.378 417.151 526.954Z" fill="#202D37"/>
<path d="M436.547 683.587C425.024 683.587 412.929 677.075 399.33 669.777C395.609 667.773 391.815 665.77 387.879 663.766C386.662 663.122 386.161 661.62 386.734 660.403C387.378 659.187 388.881 658.686 390.098 659.258C394.034 661.262 397.899 663.337 401.62 665.341C417.581 673.927 431.394 681.297 443.417 677.505C451.505 675 458.59 667.416 465.175 654.464C465.819 653.248 467.322 652.747 468.539 653.391C469.755 654.035 470.256 655.538 469.612 656.754C462.384 670.993 454.296 679.365 444.849 682.371C442.201 683.229 439.41 683.587 436.547 683.587Z" fill="#202D37"/>
<path d="M500.531 659.33C494.805 659.33 488.149 654.464 479.918 648.454L479.847 648.382C478.702 647.595 478.487 646.021 479.274 644.876C480.062 643.731 481.636 643.516 482.781 644.303L482.853 644.375C495.521 653.677 500.316 656.539 504.324 652.389C510.121 646.45 524.721 628.919 524.865 628.776C525.723 627.703 527.298 627.56 528.371 628.49C529.445 629.349 529.588 630.923 528.658 631.996C528.085 632.712 513.771 649.813 507.902 655.895C505.612 658.257 503.179 659.33 500.531 659.33Z" fill="#202D37"/>
<path d="M466.535 642.515C468.539 637.577 475.982 636.003 479.489 638.651C482.996 641.298 506.9 667.272 483.568 675.072C459.879 683.086 461.811 653.963 466.535 642.515Z" fill="#202D37"/>
<path d="M476.197 677.576C472.475 677.576 469.398 676.36 467.107 673.855C459.95 666.199 462.527 649.455 465.533 642.157C466.606 639.581 468.968 637.577 472.117 636.719C475.123 635.932 478.201 636.361 480.133 637.863C483.139 640.153 496.38 654.679 494.519 665.627C493.731 670.564 490.153 674.07 483.855 676.145C481.063 677.075 478.487 677.576 476.197 677.576ZM467.537 642.944C464.244 650.958 462.813 666.056 468.753 672.424C471.903 675.716 476.769 676.36 483.282 674.142C488.722 672.353 491.799 669.348 492.515 665.269C494.161 655.394 481.636 641.584 478.916 639.581C477.485 638.507 475.123 638.221 472.761 638.865C470.185 639.438 468.324 640.94 467.537 642.944Z" fill="#202D37"/>
<path d="M475.839 668.346C473.62 700.688 458.233 794.282 456.085 804.228C454.296 812.457 471.974 830.56 481.278 832.993C490.582 835.426 501.747 810.453 503.966 799.792C506.185 789.13 499.6 690.242 483.712 668.346H475.839Z" fill="#202D37"/>
<path d="M482.638 834.281C482.066 834.281 481.564 834.209 481.064 834.066C471.688 831.562 453.08 813.172 455.083 804.013C457.231 794.21 472.547 701.046 474.765 668.274C474.837 667.702 475.266 667.272 475.839 667.272H483.783C484.141 667.272 484.427 667.416 484.642 667.702C493.875 680.439 499.314 717.289 501.747 738.111C505.04 766.59 506.256 794.282 505.04 800.006C503.322 808.45 495.378 827.626 486.932 832.85C485.501 833.78 483.998 834.281 482.638 834.281ZM476.841 669.419C474.407 703.121 459.235 794.783 457.159 804.443C455.584 811.813 472.475 829.558 481.636 831.92C482.924 832.277 484.356 831.92 485.859 830.989C493.445 826.267 501.246 807.949 502.964 799.505C504.896 790.132 499.028 692.317 483.211 669.348H476.841V669.419Z" fill="#202D37"/>
<path d="M333.629 531.462C332.627 531.462 331.696 530.889 331.338 529.959C330.766 528.671 331.41 527.24 332.698 526.668C341.859 522.804 353.74 523.233 359.967 525.809C361.255 526.382 361.827 527.813 361.326 529.101C360.754 530.389 359.322 530.961 358.034 530.46C353.597 528.6 343.004 527.813 334.702 531.319C334.344 531.39 333.987 531.462 333.629 531.462Z" fill="#202D37"/>
<path d="M629.643 749.775C628.785 749.775 627.926 749.274 627.425 748.487C626.781 747.27 627.21 745.768 628.427 745.052C633.15 742.405 639.091 742.047 646.105 743.907C646.82 744.122 647.178 743.907 647.464 743.693C648.753 742.763 649.826 739.686 650.041 736.036C650.47 729.31 656.268 719.722 667.719 719.293C675.806 719.006 702.073 688.238 706.939 677.075C707.584 675.573 708.299 673.498 709.23 671.136C714.24 657.398 723.544 631.71 744.442 630.637C745.802 630.565 747.019 631.638 747.09 632.998C747.162 634.357 746.088 635.574 744.729 635.645C727.122 636.576 718.892 659.33 713.953 672.854C713.023 675.287 712.307 677.433 711.592 679.079C707.44 688.739 680.244 723.872 668.005 724.302C658.844 724.588 655.409 732.53 655.123 736.323C654.979 738.899 654.192 745.052 650.399 747.771C648.753 748.916 646.82 749.274 644.816 748.702C639.162 747.199 634.439 747.414 630.86 749.346C630.431 749.703 630.073 749.775 629.643 749.775Z" fill="#202D37"/>
<path d="M805.277 689.383C804.991 689.383 804.705 689.311 804.418 689.24C769.707 676.789 743.082 636.361 741.937 634.644C741.365 633.785 741.365 632.64 742.009 631.781C756.466 612.462 765.269 607.381 765.627 607.167C766.701 606.594 768.061 606.809 768.848 607.811C781.158 623.338 796.188 635.645 806.064 643.874C814.08 650.457 817.659 653.534 818.446 656.038C820.164 661.333 811.289 680.224 807.424 688.095C807.066 688.882 806.207 689.383 805.277 689.383ZM747.162 633.356C752.172 640.511 775.504 672.353 804.06 683.73C809.428 672.639 814.438 659.902 813.794 657.469C813.221 656.11 807.997 651.817 802.987 647.667C793.253 639.652 778.796 627.774 766.486 612.676C763.48 614.966 756.681 620.834 747.162 633.356Z" fill="#202D37"/>
<path d="M766.915 611.818C766.414 611.818 765.913 611.675 765.484 611.388C764.339 610.601 764.124 609.027 764.911 607.882C765.77 606.737 785.667 579.046 821.237 559.726C838.7 550.281 874.342 558.009 886.724 567.669C893.452 572.964 895.885 579.69 893.094 585.343C890.088 591.425 880.354 596.219 861.889 591.425C860.529 591.067 859.742 589.707 860.1 588.348C860.458 586.988 861.818 586.201 863.177 586.559C877.706 590.28 886.438 587.489 888.656 583.053C890.302 579.69 888.442 575.253 883.646 571.533C872.553 562.803 838.772 555.862 823.671 564.091C789.174 582.838 769.206 610.458 768.991 610.744C768.49 611.46 767.703 611.818 766.915 611.818Z" fill="#202D37"/>
<path d="M868.044 612.963C861.818 612.963 855.162 611.388 849.865 608.598C841.706 604.376 837.698 598.151 838.843 591.425C839.058 590.065 840.346 589.135 841.706 589.35C843.066 589.564 843.997 590.852 843.782 592.212C842.78 598.294 848.577 602.229 852.156 604.09C861.674 609.027 874.7 609.17 879.424 604.448C882.215 601.657 882.072 597.292 878.994 591.425C878.35 590.208 878.851 588.706 880.068 588.062C881.285 587.418 882.788 587.919 883.432 589.135C888.585 599.153 886.008 604.949 882.931 608.025C879.495 611.46 873.985 612.963 868.044 612.963Z" fill="#202D37"/>
<path d="M857.881 629.205C853.444 629.205 849.078 628.49 845.5 627.202C839.273 624.984 835.694 620.619 835.623 615.252C835.551 609.385 839.774 603.66 845.857 601.371C847.146 600.87 848.577 601.514 849.078 602.802C849.579 604.09 848.935 605.521 847.647 606.022C843.567 607.596 840.633 611.46 840.633 615.181C840.633 618.401 842.995 620.977 847.146 622.408C855.233 625.27 868.33 624.626 874.199 619.045C876.991 616.397 877.635 613.034 876.346 608.741C875.917 607.453 876.704 606.022 877.993 605.592C879.281 605.163 880.712 605.95 881.142 607.238C883.503 614.966 880.569 619.832 877.635 622.622C872.983 627.202 865.325 629.205 857.881 629.205Z" fill="#202D37"/>
<path d="M814.009 656.396C812.72 656.396 811.647 655.466 811.504 654.178C811.36 652.818 812.362 651.602 813.722 651.459C827.822 649.956 840.847 644.375 844.211 640.082C845.07 639.008 846.645 638.794 847.718 639.652C848.792 640.511 849.006 642.085 848.148 643.159C843.496 649.098 828.609 654.965 814.223 656.468C814.223 656.396 814.152 656.396 814.009 656.396Z" fill="#202D37"/>
<path d="M853.945 644.661C848.577 644.661 843.138 643.302 838.844 640.654C834.478 637.935 832.331 633.928 832.975 629.706C833.691 625.341 837.341 621.406 841.706 620.261C843.066 619.903 844.426 620.762 844.712 622.121C845.07 623.481 844.211 624.841 842.851 625.127C840.418 625.699 838.271 628.061 837.913 630.422C837.484 633.212 839.559 635.216 841.42 636.361C848.577 640.797 860.386 640.654 866.112 636.075C869.476 633.427 870.335 629.635 868.76 624.841C868.331 623.553 869.046 622.121 870.334 621.692C871.623 621.263 873.054 621.978 873.484 623.266C875.774 630.064 874.271 636.075 869.261 640.082C865.396 643.158 859.742 644.661 853.945 644.661Z" fill="#202D37"/>
<path d="M836.696 579.833C870.692 533.537 950.422 418.549 956.791 410.606C963.09 402.664 973.253 406.957 965.38 418.764C957.436 430.498 849.937 584.627 849.937 584.627L836.696 579.833Z" fill="#202D37"/>
<path d="M849.865 585.7C849.722 585.7 849.651 585.7 849.508 585.629L836.339 580.906C836.052 580.763 835.766 580.548 835.694 580.191C835.623 579.833 835.623 579.547 835.838 579.26C855.376 552.642 889.658 503.842 917.213 464.63C937.324 436.008 953.213 413.397 955.933 410.034C959.726 405.24 964.593 404.739 967.169 406.671C969.674 408.46 970.676 412.825 966.239 419.479C958.438 431.071 851.798 583.768 850.724 585.343C850.509 585.486 850.223 585.7 849.865 585.7ZM838.414 579.332L849.436 583.339C857.166 572.248 956.863 429.425 964.449 418.191C968.1 412.824 967.527 409.533 965.881 408.317C964.02 406.957 960.441 407.744 957.579 411.322C954.931 414.685 939.042 437.225 918.931 465.846C891.806 504.486 858.096 552.427 838.414 579.332Z" fill="#202D37"/>
<path d="M758.685 618.687C758.613 618.687 758.542 618.687 758.47 618.687C757.11 618.544 756.037 617.327 756.18 615.968C761.333 555.719 772.569 478.798 783.448 404.453C793.325 336.69 802.629 272.721 805.205 234.868C805.277 233.509 806.494 232.435 807.854 232.507C809.213 232.579 810.287 233.795 810.215 235.154C807.639 273.293 798.335 337.334 788.458 405.168C777.651 479.442 766.414 556.291 761.261 616.397C761.046 617.757 759.973 618.687 758.685 618.687Z" fill="#202D37"/>
<path d="M1021.63 814.389C933.316 814.389 855.018 809.237 766.701 801.079C765.341 800.936 764.339 799.72 764.41 798.36C764.553 797.001 765.77 795.999 767.13 796.071C908.338 809.165 1024 814.532 1196.05 803.298C1191.04 610.959 1207.43 497.617 1221.89 397.583C1230.48 338.05 1238.64 281.808 1241.14 216.121C1241.21 214.761 1242.36 213.688 1243.72 213.688C1245.08 213.76 1246.15 214.905 1246.15 216.264C1243.65 282.237 1235.49 338.622 1226.9 398.299C1212.44 498.547 1195.98 612.175 1201.2 805.587C1201.28 806.947 1200.2 808.092 1198.84 808.163C1133 812.457 1075.45 814.389 1021.63 814.389Z" fill="#202D37"/>
<path d="M776.864 772.243C776.363 772.243 775.862 772.1 775.432 771.814C774.287 771.027 774.001 769.452 774.788 768.308C811.146 714.642 808.211 695.107 803.273 688.31C802.486 687.165 802.7 685.59 803.846 684.803C804.991 684.016 806.565 684.231 807.353 685.376C817.587 699.4 807.997 728.309 778.939 771.17C778.438 771.885 777.651 772.243 776.864 772.243Z" fill="#202D37"/>
<path d="M760.832 251.04C757.54 251.04 753.961 250.253 750.24 248.678C747.591 247.533 745.587 245.244 744.299 241.738C739.218 227.999 746.733 196.944 749.023 192.436C750.812 188.93 755.965 186.068 761.118 185.782C766.701 185.496 771.639 188.215 774.931 193.438C775.647 194.583 775.289 196.157 774.144 196.873C772.999 197.588 771.424 197.302 770.709 196.086C767.774 191.435 763.981 190.648 761.404 190.719C757.397 190.934 754.176 193.295 753.532 194.583C751.599 198.519 744.585 227.927 749.023 239.949C749.81 242.095 750.884 243.455 752.243 243.956C758.184 246.46 763.408 246.603 766.987 244.313C770.064 242.382 771.782 238.661 772.068 233.509C772.14 232.149 773.285 231.076 774.717 231.147C776.076 231.219 777.15 232.364 777.078 233.795C776.649 242.453 772.784 246.603 769.635 248.607C767.059 250.253 764.124 251.04 760.832 251.04Z" fill="#202D37"/>
<path d="M790.82 237.516C775.003 237.516 773.714 236.085 772.712 235.083C764.267 226.282 767.416 198.805 770.637 193.51C773.357 189.002 788.816 188.215 833.046 186.569C856.664 185.71 886.008 184.637 916.283 182.347C976.616 177.768 1114.6 176.981 1180.95 176.551C1195.62 176.48 1206.29 176.408 1211.37 176.337C1232.84 175.979 1259.53 176.981 1264.62 183.564C1269.05 189.288 1267.26 207.105 1263.68 214.189C1261.75 217.981 1259.53 218.84 1257.89 218.84H1257.82C1233.2 218.339 1146.6 220.057 1083.4 221.273C1060.78 221.702 1041.24 222.06 1029.94 222.275C1014.76 222.489 978.763 225.28 937.181 228.5C901.754 231.219 861.603 234.367 830.541 236.085C811.718 237.086 799.265 237.516 790.82 237.516ZM776.219 231.505C778.152 232.435 788.029 233.509 832.116 231.004C862.82 229.215 902.112 226.21 936.752 223.563C978.477 220.343 1014.48 217.552 1029.86 217.337C1041.24 217.194 1060.71 216.765 1083.33 216.336C1146.52 215.119 1232.98 213.402 1257.82 213.903C1258.25 213.688 1259.46 212.257 1260.61 208.107C1262.97 199.592 1262.54 189.216 1260.61 186.712C1258.89 184.494 1246.58 180.916 1211.37 181.417C1206.21 181.489 1195.62 181.56 1180.88 181.632C1114.6 182.061 976.688 182.848 916.569 187.428C886.151 189.717 856.736 190.791 833.118 191.649C804.848 192.651 778.08 193.653 774.788 196.3C772.212 200.88 770.351 225.065 776.219 231.505Z" fill="#202D37"/>
<path d="M1268.34 174.906C1279 173.546 1290.81 183.635 1290.88 207.964C1291.02 232.292 1273.99 237.945 1261.61 227.212C1250.95 217.981 1249.08 177.338 1268.34 174.906Z" fill="white"/>
<path d="M1274.21 234.94C1269.41 234.94 1264.4 232.936 1260.03 229.144C1252.23 222.346 1248.8 201.667 1253.09 187.356C1255.74 178.626 1261.04 173.26 1268.05 172.401C1273.2 171.757 1278.36 173.403 1282.58 177.124C1289.52 183.206 1293.31 194.082 1293.39 207.892C1293.46 220.486 1289.02 229.716 1281.22 233.366C1279 234.439 1276.64 234.94 1274.21 234.94ZM1268.62 177.41C1262.32 178.197 1259.32 184.065 1257.89 188.859C1253.81 202.239 1257.53 220.414 1263.33 225.352C1268.41 229.788 1274.35 231.076 1279.14 228.858C1285.08 226.139 1288.45 218.482 1288.45 207.964C1288.38 195.656 1285.16 185.997 1279.29 180.916C1276.14 178.197 1272.34 176.909 1268.62 177.41Z" fill="#202D37"/>
<path d="M1089.34 389.999C1087.98 389.999 1086.83 388.854 1086.83 387.494C1086.83 386.135 1087.98 384.99 1089.34 384.99C1115.68 384.99 1141.8 380.267 1142.09 380.196C1143.45 379.981 1144.74 380.84 1145.02 382.199C1145.24 383.559 1144.38 384.847 1143.02 385.133C1142.73 385.133 1116.11 389.999 1089.34 389.999Z" fill="#202D37"/>
<path d="M1100.72 426.205C1099.43 426.205 1098.36 425.275 1098.21 423.987C1098.07 422.627 1099.07 421.411 1100.43 421.268C1122.69 418.978 1152.25 421.268 1152.54 421.268C1153.9 421.339 1154.97 422.556 1154.83 423.987C1154.75 425.347 1153.54 426.42 1152.11 426.277C1151.82 426.277 1122.69 424.059 1100.86 426.277C1100.86 426.205 1100.79 426.205 1100.72 426.205Z" fill="#202D37"/>
<path d="M1145.74 453.611C1133.07 453.611 1110.31 453.253 1089.05 451.249C1087.69 451.106 1086.69 449.89 1086.83 448.53C1086.98 447.171 1088.19 446.169 1089.55 446.312C1120.69 449.317 1155.33 448.602 1155.61 448.602C1156.97 448.602 1158.12 449.675 1158.19 451.035C1158.19 452.394 1157.12 453.539 1155.76 453.611C1155.61 453.539 1151.89 453.611 1145.74 453.611Z" fill="#202D37"/>
<path d="M1127.92 493.681C1120.04 493.681 1107.23 493.395 1095.57 491.749C1094.21 491.534 1093.2 490.318 1093.42 488.959C1093.63 487.599 1094.85 486.669 1096.21 486.812C1114.25 489.316 1135.07 488.601 1135.29 488.529C1136.65 488.458 1137.86 489.531 1137.86 490.962C1137.94 492.322 1136.86 493.538 1135.43 493.538C1135.43 493.538 1132.5 493.681 1127.92 493.681Z" fill="#202D37"/>
<path d="M1041.24 512.643C1034.95 512.643 1028.5 512.071 1024.28 511.212C1018.56 509.995 1015.62 508.207 1015.05 505.559C1014.55 503.269 1012.83 459.263 1011.83 417.261C1010.4 359.802 1010.54 328.247 1012.4 323.596C1015.41 315.868 1033.23 316.512 1043.25 318.086C1053.7 319.732 1059.07 322.523 1059.28 326.243C1059.35 327.818 1060.64 372.754 1061.43 416.187C1063.14 505.273 1061.57 507.42 1060.64 508.708C1058.56 511.57 1050.05 512.643 1041.24 512.643ZM1019.92 504.414C1020.42 504.915 1022.99 506.203 1029.72 507.062C1041.32 508.421 1053.84 507.348 1056.35 505.845C1058.64 494.325 1054.7 338.765 1054.13 326.816C1052.12 324.526 1036.88 321.091 1024.93 322.451C1019.63 323.023 1017.34 324.455 1016.91 325.456C1016.34 326.887 1014.69 337.692 1016.7 416.402C1017.84 459.693 1019.49 500.407 1019.92 504.414Z" fill="#202D37"/>
<path d="M972.68 510.568C965.595 510.568 958.724 509.996 954.143 508.994C949.42 507.921 947.058 506.489 946.485 504.2C945.913 501.981 944.338 460.909 943.408 426.992C942.119 376.761 942.406 349.141 944.267 344.919C947.058 338.622 960.728 339.982 968.601 341.413C973.754 342.343 990.573 345.778 990.93 351.788C991.002 352.933 992.362 390.428 993.364 428.066C995.368 503.842 993.793 505.702 992.791 506.99C992.147 507.777 990.286 510.139 976.044 510.496C974.97 510.496 973.825 510.568 972.68 510.568ZM951.352 502.697C952.712 503.77 959.082 505.201 969.889 505.488C979.837 505.702 986.922 504.772 988.783 503.913C990.93 492.751 986.493 362.307 985.992 352.432C983.63 349.713 965.022 344.275 953.714 345.349C950.35 345.635 949.133 346.493 948.919 346.923C948.346 348.211 946.7 357.727 948.489 426.134C949.42 463.127 950.923 498.404 951.352 502.697Z" fill="#202D37"/>
<path d="M1014.26 731.099C963.09 731.099 919.646 690.671 917.356 640.797C916.426 620.046 922.795 599.797 935.463 583.625C947.917 567.74 965.809 556.506 985.92 551.998C992.577 550.495 999.447 549.708 1006.39 549.708C1006.46 549.708 1006.6 549.708 1006.68 549.708C1027.22 549.708 1046.97 556.077 1063.79 568.169C1080.18 579.904 1092.63 596.648 1098.93 615.181C1101.65 623.195 1103.22 631.567 1103.65 640.01C1104.73 663.838 1096.43 686.306 1080.11 703.408C1063.22 721.153 1039.96 730.956 1014.62 731.028C1014.48 731.099 1014.33 731.099 1014.26 731.099ZM1006.68 554.789C1006.6 554.789 1006.46 554.789 1006.39 554.789C999.805 554.789 993.292 555.504 986.994 556.935C947.058 565.88 920.434 600.297 922.294 640.583C924.513 687.809 965.666 726.09 1014.19 726.09C1014.26 726.09 1014.41 726.09 1014.48 726.09C1038.45 726.019 1060.43 716.788 1076.39 700.044C1091.7 683.945 1099.57 662.765 1098.57 640.296C1098.21 632.354 1096.71 624.411 1094.13 616.827C1081.75 580.334 1045.82 554.789 1006.68 554.789Z" fill="#202D37"/>
<path d="M1109.02 612.319C1070.3 629.993 1014.55 653.892 1008.75 647.953C1004.67 643.731 996.799 593.929 986.35 543.769C993.435 542.195 1000.88 541.336 1008.54 541.336C1054.77 541.193 1095.14 571.175 1109.02 612.319Z" fill="#FAD932"/>
<path d="M1012.26 650.028C1009.9 650.028 1008.68 649.455 1008.04 648.74C1005.24 645.806 1001.52 627.274 994.795 591.926C992.004 577.185 988.783 560.513 985.348 543.984C985.205 543.412 985.563 542.839 986.135 542.696C993.436 541.05 1000.95 540.192 1008.54 540.192C1008.68 540.192 1008.75 540.192 1008.89 540.192C1031.44 540.192 1053.05 547.204 1071.52 560.442C1089.48 573.321 1103.15 591.639 1110.02 611.961C1110.17 612.462 1109.95 613.034 1109.45 613.249C1084.33 624.698 1063.29 633.713 1046.9 639.939C1026.57 647.81 1016.98 650.028 1012.26 650.028ZM987.71 544.628C991.074 560.871 994.151 577.185 996.942 591.568C1002.38 620.047 1007.11 644.661 1009.61 647.237C1011.04 648.74 1022.49 650.6 1107.73 611.746C1093.42 570.817 1052.98 542.338 1008.97 542.338C1008.82 542.338 1008.75 542.338 1008.68 542.338C1001.52 542.41 994.509 543.125 987.71 544.628Z" fill="#FAD932"/>
<path d="M566.018 341.914C538.892 331.038 539.322 310.716 545.119 290.108C550.916 269.501 570.025 243.813 605.31 257.408C633.437 268.284 627.926 305.707 621.556 317.872C615.258 330.036 595.648 353.792 566.018 341.914Z" fill="#FAD932"/>
<path d="M581.763 346.207C576.753 346.207 571.385 345.205 565.66 342.916C536.602 331.252 538.892 308.426 544.117 289.822C548.34 274.724 557.787 262.274 569.31 256.549C579.902 251.254 592.141 251.183 605.739 256.406C614.9 259.912 621.341 266.424 624.848 275.797C630.645 291.039 626.995 309.857 622.558 318.372C616.403 330.036 602.017 346.207 581.763 346.207ZM566.447 340.912C593.787 351.86 613.397 331.252 620.626 317.371C624.777 309.5 628.284 291.039 622.844 276.513C619.552 267.783 613.54 261.701 604.952 258.41C591.997 253.401 580.332 253.401 570.24 258.481C559.29 263.991 550.272 275.941 546.193 290.395C540.825 309.213 539.107 329.964 566.447 340.912Z" fill="#FAD932"/>
<path d="M573.175 356.01C567.592 356.01 559.004 352.575 554.852 349.642C547.194 344.204 547.91 340.841 551.632 333.828C552.204 332.755 553.493 332.397 554.566 332.97C555.64 333.542 555.998 334.83 555.425 335.903C552.276 341.842 552.133 342.486 557.286 346.207C563.083 350.286 572.602 352.504 574.534 351.717C575.894 349.928 577.54 345.849 578.113 344.418C578.542 343.345 579.759 342.773 580.904 343.202C581.978 343.631 582.55 344.848 582.121 345.992C581.906 346.565 579.759 352.003 577.827 354.507C576.968 355.509 575.25 356.01 573.175 356.01Z" fill="#202D37"/>
<path d="M560.721 341.628C560.292 341.628 559.862 341.485 559.505 341.27C558.503 340.626 558.288 339.266 558.932 338.265C561.938 333.828 566.662 324.884 570.24 316.154C566.447 314.938 562.01 311.432 562.01 303.561C562.01 299.625 564.586 294.259 568.666 292.47C571.457 291.253 574.391 291.897 576.896 294.187C578.113 295.332 581.763 298.695 574.606 316.87C570.884 326.172 565.731 335.903 562.511 340.697C562.081 341.27 561.365 341.628 560.721 341.628ZM571.528 296.119C571.099 296.119 570.741 296.262 570.455 296.334C568.308 297.264 566.375 300.698 566.375 303.561C566.375 309.643 569.811 311.503 571.886 312.147C575.465 302.273 575.035 298.194 574.105 297.335C572.96 296.405 572.172 296.119 571.528 296.119Z" fill="#202D37"/>
<path d="M569.381 345.277C569.095 345.277 568.88 345.205 568.594 345.134C567.52 344.705 566.948 343.488 567.377 342.343C572.459 329.32 576.681 319.947 580.26 313.221C580.332 312.648 580.618 312.147 581.047 311.789C587.918 299.196 592.284 296.691 595.504 296.262C598.153 295.904 600.514 297.192 602.518 300.054C604.164 302.344 603.878 305.994 601.803 309.857C599.083 314.938 593.572 320.09 588.204 319.947C586.63 319.947 584.626 319.446 582.837 317.657C579.687 323.954 575.894 332.397 571.457 343.846C571.099 344.776 570.24 345.277 569.381 345.277ZM584.984 313.578C586.343 315.653 587.775 315.725 588.276 315.725H588.347C591.353 315.725 595.648 312.219 598.009 307.854C599.441 305.206 599.512 303.274 599.011 302.487C597.508 300.341 596.435 300.412 596.005 300.484C594.145 300.77 590.709 303.203 584.984 313.578Z" fill="#202D37"/>
<path d="M568.021 366.314C567.95 366.314 567.95 366.314 567.878 366.314C563.226 366.171 552.705 361.234 547.982 357.942C546.336 356.797 545.262 355.152 544.976 353.22C544.189 348.568 547.409 343.273 549.413 340.554C550.129 339.624 551.417 339.41 552.419 340.054C553.35 340.769 553.564 342.057 552.92 343.059C550.272 346.708 548.841 350.286 549.27 352.504C549.413 353.363 549.771 353.935 550.487 354.436C555.139 357.584 564.658 361.949 568.093 362.021C569.954 362.021 572.101 358.371 573.389 353.076C573.675 351.932 574.821 351.216 575.966 351.502C577.111 351.788 577.827 352.933 577.54 354.078C576.324 358.658 573.675 366.314 568.021 366.314Z" fill="#202D37"/>
<path d="M560.149 373.469C558.073 373.469 555.783 372.969 553.35 371.895C549.485 370.25 546.765 367.53 545.405 364.167C544.117 360.876 544.189 357.012 545.62 353.72C546.121 352.647 547.338 352.146 548.483 352.647C549.556 353.148 550.057 354.364 549.556 355.509C548.554 357.727 548.483 360.447 549.342 362.665C550.272 365.026 552.133 366.815 554.996 368.031C558.145 369.391 560.721 369.606 562.797 368.747C564.729 367.888 566.304 365.956 567.377 363.023C567.807 361.878 569.023 361.305 570.097 361.735C571.242 362.164 571.815 363.38 571.385 364.454C569.882 368.532 567.52 371.323 564.443 372.682C563.155 373.112 561.723 373.469 560.149 373.469Z" fill="#202D37"/>
<path d="M584.339 221.988C584.268 221.988 584.125 221.988 584.053 221.988C582.693 221.845 581.691 220.557 581.834 219.198C582.55 212.686 581.834 194.011 581.834 193.796C581.763 192.436 582.836 191.22 584.268 191.22C585.628 191.148 586.844 192.222 586.844 193.653C586.844 194.44 587.632 212.973 586.844 219.842C586.63 221.058 585.556 221.988 584.339 221.988Z" fill="#202D37"/>
<path d="M625.85 226.997C625.492 226.997 625.063 226.926 624.705 226.711C623.488 226.067 622.987 224.564 623.632 223.348C628.928 213.259 639.52 203.885 640.021 203.456C641.095 202.526 642.669 202.669 643.528 203.67C644.458 204.744 644.315 206.318 643.313 207.177C643.242 207.248 632.936 216.336 628.069 225.638C627.639 226.496 626.781 226.997 625.85 226.997Z" fill="#202D37"/>
<path d="M658.558 246.818C657.627 246.818 656.697 246.317 656.268 245.387C655.695 244.17 656.196 242.668 657.413 242.024C660.777 240.378 669.938 233.222 673.23 230.575C674.303 229.716 675.878 229.859 676.737 230.933C677.596 232.006 677.452 233.58 676.379 234.439C675.162 235.441 664.069 244.385 659.631 246.532C659.345 246.746 658.916 246.818 658.558 246.818Z" fill="#202D37"/>
<path d="M822.454 574.252C845.213 570.101 864.537 574.466 865.325 583.554C866.398 596.004 833.905 591.067 833.905 591.067C833.905 591.067 840.06 612.748 808.068 623.982" fill="#FFFEF2"/>
<path d="M808.068 626.558C807.066 626.558 806.064 625.914 805.707 624.912C805.277 623.624 805.921 622.193 807.21 621.692C836.482 611.388 831.687 592.57 831.472 591.782C831.257 590.995 831.472 590.065 832.044 589.421C832.617 588.777 833.476 588.491 834.263 588.634C842.637 589.922 857.595 590.494 861.818 586.487C862.605 585.772 862.891 584.913 862.82 583.768C862.677 582.409 861.889 581.121 860.315 579.904C854.016 575.11 838.629 573.751 822.955 576.684C821.595 576.899 820.307 576.04 820.021 574.681C819.806 573.321 820.665 572.033 822.025 571.747C839.559 568.527 855.806 570.173 863.321 575.897C865.969 577.972 867.543 580.477 867.758 583.339C867.973 585.986 867.114 588.348 865.182 590.137C859.241 595.718 843.782 594.788 836.768 594.001C836.911 596.505 836.768 600.154 835.265 604.161C832.832 610.887 826.319 620.19 808.784 626.343C808.641 626.486 808.355 626.558 808.068 626.558Z" fill="#202D37"/>
</g>
<defs>
<clipPath id="clip0_3457_4771">
<rect width="1440" height="1024" fill="white"/>
</clipPath>
</defs>
</svg>
