<svg width="1440" height="1024" viewBox="0 0 1440 1024" fill="none" xmlns="http://www.w3.org/2000/svg">
<g clip-path="url(#clip0_3457_3968)">
<rect width="1440" height="1024" fill="white"/>
<g clip-path="url(#clip1_3457_3968)">
<path d="M1498.98 -123.962H-60.0452V1148.96H1498.98V-123.962Z" fill="#FFFEF2"/>
<path d="M766.361 713.069C755.339 730.544 741.316 745.932 725.207 759.365C637.812 832.198 487.153 846.674 397.019 807.42C376.213 798.357 358.604 786.425 345.755 771.623C267.1 681.25 233.837 442.209 396.823 351.705C743.273 159.287 851.212 579.27 766.361 713.069Z" fill="#ED95BF"/>
<path d="M725.207 759.365C637.812 832.198 487.153 846.674 397.019 807.421C398.323 798.814 401.91 790.402 408.236 782.708C408.236 782.708 385.735 754.8 375.17 686.596C361.8 600.135 378.17 572.749 378.17 572.749C360.495 554.557 345.886 534.8 338.712 513.935C328.798 485.114 343.668 461.967 361.604 453.62C379.539 445.274 399.106 456.424 417.172 460.467H417.367C417.302 460.923 417.237 461.38 417.237 461.836C416.389 473.638 428.716 477.942 456.304 476.312C456.369 476.442 473.391 510.74 484.348 532.909C486.435 537.082 488.262 540.864 489.762 543.864C509.915 542.429 566.135 520.325 573.309 517.977C572.787 516.934 571.287 513.869 569.2 509.501C562.548 495.547 549.699 468.161 540.699 448.991C560.134 438.362 620.463 403.804 641.464 410.194C662.465 416.649 678.901 432.885 668.661 490.526C659.204 543.603 638.66 604.895 635.464 614.35C668.857 667.948 715.815 744.629 715.815 744.629L725.207 759.365Z" fill="#FFFEF2"/>
<path d="M569.265 509.37C562.613 495.416 549.764 468.03 540.764 448.86C535.09 436.732 530.916 427.864 530.916 427.864C530.916 427.864 561.895 394.414 561.895 390.893C561.895 387.372 530.068 389.785 496.61 395.327C488.979 410.781 461.913 417.497 461.913 417.497C468.174 437.254 459.826 465.096 449.977 459.619C447.173 458.054 444.369 455.055 442.086 451.338C428.52 449.317 418.867 451.469 417.367 460.336C417.302 460.793 417.237 461.249 417.237 461.706C416.389 473.508 428.716 477.811 456.304 476.181C456.369 476.311 473.392 510.609 484.349 532.779C486.436 536.952 488.262 540.734 489.762 543.733C509.915 542.299 566.135 520.194 573.309 517.847C572.852 516.869 571.418 513.804 569.265 509.37ZM490.805 439.34C489.24 439.927 487.479 439.145 486.827 437.58L484.088 430.277C483.501 428.712 484.283 426.952 485.849 426.3C486.175 426.169 486.566 426.104 486.892 426.104C488.131 426.104 489.305 426.886 489.762 428.125L492.501 435.428C493.153 436.993 492.371 438.754 490.805 439.34ZM505.349 428.451C503.784 429.038 502.023 428.256 501.371 426.691L498.632 419.388C498.045 417.823 498.827 416.062 500.393 415.41C500.719 415.28 501.11 415.215 501.501 415.215C502.741 415.215 503.915 415.997 504.371 417.171L507.11 424.474C507.697 426.104 506.915 427.864 505.349 428.451Z" fill="#FFFEF2"/>
<path d="M507.11 424.474C507.697 426.039 506.915 427.799 505.349 428.451C503.784 429.038 502.023 428.256 501.371 426.691L498.566 419.388C497.979 417.823 498.762 416.062 500.327 415.41C500.654 415.28 501.045 415.215 501.436 415.215C502.675 415.215 503.849 415.997 504.306 417.171L507.11 424.474Z" fill="#FFFEF2"/>
<path d="M492.566 435.363C493.153 436.928 492.37 438.688 490.805 439.341C489.24 439.927 487.479 439.145 486.827 437.58L484.022 430.277C483.435 428.712 484.218 426.952 485.783 426.3C486.109 426.169 486.501 426.104 486.892 426.104C488.131 426.104 489.305 426.886 489.762 428.06L492.566 435.363Z" fill="#FFFEF2"/>
<path d="M490.74 439.34C489.175 439.927 487.414 439.145 486.762 437.58L484.023 430.277C483.436 428.712 484.218 426.952 485.783 426.3C487.349 425.713 489.11 426.495 489.762 428.06L492.501 435.363C493.153 436.993 492.371 438.754 490.74 439.34Z" fill="#202D37"/>
<path d="M505.35 428.451C503.784 429.038 502.023 428.256 501.371 426.691L498.632 419.388C498.045 417.823 498.828 416.062 500.393 415.41C501.958 414.824 503.719 415.606 504.371 417.171L507.111 424.474C507.698 426.104 506.915 427.864 505.35 428.451Z" fill="#202D37"/>
<path d="M740.534 197.757C811.689 191.824 956.283 190.324 962.739 197.757C969.261 205.191 980.805 400.935 972.457 421.8C964.109 442.666 793.819 445.47 759.056 445.013C724.229 444.557 719.142 432.037 716.859 410.716C714.511 389.394 711.315 246.53 711.315 229.382C711.315 212.102 712.685 200.039 740.534 197.757Z" fill="#FFFEF2"/>
<path d="M767.144 447.295C763.948 447.295 761.274 447.295 759.122 447.23C741.969 446.969 730.946 443.84 724.229 437.254C717.968 431.059 715.881 422.257 714.641 410.911C712.293 389.133 709.032 244.509 709.032 229.316C709.032 211.059 711.25 197.888 740.338 195.475C774.579 192.606 827.733 190.65 875.866 190.454C899.802 190.324 920.411 190.715 935.412 191.498C961.5 192.867 963.457 195.084 964.5 196.258C965.348 197.236 967.37 199.518 970.5 232.772C972.392 252.66 974.153 278.155 975.522 304.628C976.762 328.753 980.284 408.564 974.675 422.648C973.24 426.234 968.153 431.646 940.956 436.537C924.912 439.406 902.998 441.818 875.866 443.644C833.799 446.513 789.253 447.295 767.144 447.295ZM740.534 197.757L740.73 200.039C714.837 202.191 713.598 212.037 713.598 229.316C713.598 248.552 716.924 389.785 719.142 410.455C721.294 430.212 725.077 442.275 759.122 442.731C776.405 442.992 827.603 442.405 875.54 439.145C956.739 433.668 968.935 424.604 970.37 420.953C973.827 412.346 974.022 367.224 970.957 305.997C967.892 245.291 963.457 203.561 961.044 199.257C958.435 197.496 937.499 194.693 874.496 195.019C826.885 195.28 774.383 197.236 740.73 199.974L740.534 197.757Z" fill="#202D37"/>
<path d="M925.759 200.561C924.194 219.21 936.39 231.729 952.63 233.098C968.87 234.468 985.24 224.296 986.806 205.647C988.371 186.999 974.218 170.632 957.978 169.263C941.738 167.959 927.325 181.978 925.759 200.561Z" fill="#FAD932"/>
<path d="M771.97 294.651C766.557 294.651 761.6 294.325 757.165 293.478C756.252 293.282 755.535 292.565 755.339 291.652C755.143 290.739 755.535 289.826 756.317 289.305C756.513 289.174 777.449 275.677 798.71 262.375C842.147 235.12 844.56 234.859 845.669 234.794C846.908 234.663 849.321 234.468 892.888 257.028C914.15 268.048 935.086 279.198 935.282 279.328C936.195 279.785 936.651 280.828 936.456 281.871C936.26 282.849 935.347 283.632 934.369 283.632C933.651 283.697 864.974 286.957 840.843 288.196C832.56 288.587 822.907 289.826 812.602 291.13C798.645 292.826 784.297 294.651 771.97 294.651ZM764.078 289.761C777.449 290.87 795.058 288.653 812.146 286.501C822.516 285.197 832.299 283.958 840.712 283.501C859.822 282.523 906.846 280.241 925.955 279.328C895.041 262.897 851.539 240.401 846.191 239.227C840.777 241.118 795.188 269.808 764.078 289.761Z" fill="#202D37"/>
<path d="M1114.25 600.526C1114.12 600.526 1113.98 600.526 1113.85 600.461C1112.62 600.265 1111.77 599.092 1111.96 597.853C1112.35 595.701 1149.27 379.613 1153.18 355.357C1157.49 329.014 1158.86 316.104 1144.57 311.474C1137.27 309.127 1105.44 309.453 1065.33 312.322C1024.5 315.256 988.958 319.755 974.935 323.798C973.696 324.124 972.457 323.472 972.131 322.233C971.805 320.994 972.457 319.755 973.696 319.429C991.11 314.408 1033.83 310.04 1065.07 307.823C1097.88 305.475 1136.42 304.041 1146.01 307.171C1164.73 313.235 1161.79 331.231 1157.75 356.139C1153.83 380.461 1116.85 596.483 1116.53 598.7C1116.27 599.744 1115.29 600.526 1114.25 600.526Z" fill="#202D37"/>
<path d="M1073.42 597.592C1073.29 597.592 1073.16 597.592 1073.03 597.592C1071.79 597.396 1070.94 596.223 1071.14 594.984C1071.46 592.767 1106.42 375.31 1109.09 344.533C1109.35 341.599 1109.16 337.491 1106.62 334.948C1104.53 332.796 1101.01 331.818 1096.18 332.014C1092.07 332.209 1087.9 332.405 1083.66 332.601C1039.89 334.752 990.262 337.1 975.979 340.621C974.74 340.947 973.501 340.164 973.24 338.925C972.914 337.686 973.696 336.448 974.935 336.187C989.675 332.601 1037.35 330.253 1083.53 328.036C1087.77 327.841 1091.94 327.645 1096.05 327.449C1102.25 327.123 1106.94 328.623 1110.01 331.753C1112.94 334.752 1114.18 339.317 1113.72 344.924C1111.05 375.896 1076.09 593.484 1075.77 595.701C1075.44 596.81 1074.46 597.592 1073.42 597.592Z" fill="#202D37"/>
<path d="M1024.83 768.363C1024.76 768.363 1024.7 768.363 1024.7 768.363C1023.98 768.298 1007.09 767.124 943.565 757.148C880.562 747.237 865.561 744.889 865.561 716.134C865.496 664.818 891.845 528.214 901.106 484.397C901.367 483.158 902.606 482.375 903.78 482.636C905.019 482.897 905.802 484.136 905.541 485.31C893.932 540.277 870.061 668.991 870.127 716.069C870.127 740.064 878.54 742.281 944.282 752.583C1007.48 762.494 1024.83 763.733 1025.02 763.733C1026.26 763.799 1027.24 764.907 1027.18 766.146C1027.05 767.385 1026 768.363 1024.83 768.363Z" fill="#202D37"/>
<path d="M974.609 746.845C963.261 746.845 927.52 738.434 923.998 737.195C920.02 735.76 919.042 728.979 919.694 724.545C920.281 720.177 922.368 717.568 925.368 717.373C939.977 716.395 976.109 722.524 981.718 727.871C984.849 730.805 986.023 735.63 984.719 739.803C983.545 743.585 980.544 746.063 976.631 746.715C976.044 746.78 975.392 746.845 974.609 746.845ZM929.281 721.872C927.977 721.872 926.738 721.937 925.629 722.002C925.238 722.002 924.716 722.85 924.39 724.35C923.542 728.132 924.716 732.435 925.629 732.957C929.216 734.261 964.696 742.346 974.479 742.346C975.066 742.346 975.522 742.346 975.914 742.281C978.718 741.824 979.892 739.999 980.349 738.564C981.131 736.021 980.414 733.022 978.588 731.261C975.131 728.001 946.239 721.872 929.281 721.872Z" fill="#202D37"/>
<path d="M1046.61 725.393C1046.48 725.393 1046.42 725.393 1046.29 725.393C1045.89 725.328 1009.11 720.568 972.066 714.308C950.282 710.657 932.673 707.201 919.694 704.071C897.323 698.659 893.084 695.334 891.845 692.791C888.323 685.423 892.366 642.453 896.41 607.699C900.91 569.163 907.237 525.15 910.889 507.545C911.15 506.306 912.324 505.523 913.563 505.784C914.802 506.045 915.585 507.219 915.324 508.457C911.737 525.997 905.345 569.815 900.91 608.22C894.519 663.384 894.127 687.053 895.888 690.77C896.149 691.291 898.628 694.291 920.802 699.637C933.651 702.702 951.195 706.158 972.848 709.809C1009.83 716.004 1046.48 720.829 1046.87 720.894C1048.11 721.024 1049.03 722.198 1048.83 723.437C1048.7 724.545 1047.72 725.393 1046.61 725.393Z" fill="#202D37"/>
<path d="M1094.29 594.136C1094.16 594.136 1094.03 594.136 1093.9 594.071C1092.66 593.875 1091.81 592.702 1092.07 591.463C1092.72 587.811 1094.09 580.378 1095.98 570.141C1106.68 512.304 1135.18 358.747 1131.01 336.317C1130.75 335.078 1131.59 333.905 1132.83 333.644C1134.07 333.383 1135.25 334.231 1135.51 335.469C1139.36 356.074 1118.81 472.138 1100.48 570.923C1098.59 581.16 1097.22 588.529 1096.57 592.18C1096.38 593.354 1095.4 594.136 1094.29 594.136Z" fill="#202D37"/>
<path d="M1137.45 691.162C1157.98 661.652 1151.88 621.93 1123.85 602.44C1095.81 582.95 1056.44 591.073 1035.92 620.583C1015.4 650.092 1021.49 689.815 1049.53 709.305C1077.56 728.794 1116.93 720.672 1137.45 691.162Z" fill="#FAD932"/>
<path d="M841.56 655.624C841.429 655.624 841.234 655.624 841.103 655.559C811.298 649.364 789.645 626.869 781.688 593.81C781.362 592.571 782.144 591.332 783.383 591.071C784.623 590.745 785.862 591.528 786.123 592.767C793.688 624.065 814.037 645.322 842.016 651.125C843.256 651.386 844.038 652.559 843.777 653.798C843.582 654.842 842.603 655.624 841.56 655.624Z" fill="#202D37"/>
<path d="M732.773 534.735C737.664 528.149 793.102 519.347 797.537 524.693C801.58 529.584 810.711 566.033 801.58 568.054C789.449 570.728 747.513 578.552 742.817 572.554C738.121 566.424 726.251 543.472 732.773 534.735Z" fill="#FFFEF2"/>
<path d="M753.252 576.987C744.838 576.987 742.164 575.422 740.99 573.858C736.816 568.511 723.185 543.733 730.881 533.366C735.642 526.975 770.6 521.237 786.319 520.781C795.71 520.52 798.123 521.889 799.232 523.194C803.406 528.214 810.254 555.209 806.732 565.381C805.558 568.772 803.471 569.88 801.971 570.206C795.971 571.51 782.405 574.184 769.557 575.749C762.578 576.661 757.295 576.987 753.252 576.987ZM788.536 525.345C784.362 525.345 778.362 525.737 770.34 526.845C751.426 529.388 736.229 533.822 734.534 536.169C729.381 543.081 739.099 564.142 744.578 571.119C744.643 571.249 747.056 573.988 769.1 571.315C781.753 569.75 795.123 567.142 801.058 565.837C801.645 565.707 802.102 565.055 802.493 563.946C805.493 555.274 798.645 529.779 795.841 526.193C795.188 525.737 792.775 525.345 788.536 525.345Z" fill="#202D37"/>
<path d="M769.165 557.035C764.013 557.035 755.991 554.231 741.251 548.754C740.077 548.297 739.49 546.993 739.881 545.82C740.338 544.646 741.642 544.059 742.816 544.45C760.361 551.036 768.187 553.514 771.252 552.079C773.339 551.101 782.079 540.603 788.927 531.475C789.71 530.496 791.145 530.236 792.123 531.018C793.101 531.801 793.362 533.235 792.579 534.213C789.058 538.908 777.253 554.296 773.209 556.187C772.035 556.709 770.731 557.035 769.165 557.035Z" fill="#202D37"/>
<path d="M895.497 361.747C894.388 361.747 893.41 360.964 893.28 359.856C892.954 357.769 884.605 308.605 885.453 283.436C885.518 282.197 886.562 281.219 887.801 281.219C889.04 281.284 890.019 282.328 890.019 283.567C889.171 308.279 897.649 358.552 897.78 359.074C897.975 360.312 897.128 361.486 895.889 361.682C895.693 361.747 895.562 361.747 895.497 361.747Z" fill="#202D37"/>
<path d="M917.085 359.791C915.846 359.791 914.868 358.813 914.802 357.574C914.802 356.987 912.976 297.26 910.302 282.719C910.106 281.48 910.889 280.306 912.128 280.046C913.367 279.785 914.541 280.632 914.802 281.871C917.476 296.803 919.303 354.966 919.368 357.443C919.433 358.682 918.389 359.726 917.15 359.791C917.15 359.791 917.15 359.791 917.085 359.791Z" fill="#202D37"/>
<path d="M891.388 379.809C890.345 379.809 889.432 379.091 889.171 378.048C889.04 377.526 888.91 377.005 888.779 376.483C887.41 370.876 886.236 366.05 888.649 362.269C890.345 359.66 893.345 358.03 898.302 357.117C905.671 355.683 923.085 353.27 924.911 361.225C925.955 365.724 926.151 375.831 926.151 376.288C926.151 377.526 925.172 378.57 923.933 378.635C923.933 378.635 923.933 378.635 923.868 378.635C922.629 378.635 921.585 377.657 921.585 376.418C921.585 376.288 921.389 366.376 920.476 362.334C920.15 360.834 913.302 359.008 899.149 361.682C895.628 362.334 893.41 363.377 892.497 364.812C891.127 366.963 892.04 370.745 893.214 375.505C893.345 376.027 893.475 376.548 893.606 377.07C893.932 378.309 893.149 379.548 891.91 379.809C891.714 379.743 891.519 379.809 891.388 379.809Z" fill="#202D37"/>
<path d="M838.755 365.268C837.581 365.268 836.603 364.355 836.473 363.181C836.473 363.051 835.038 348.184 832.69 335.339C830.016 320.603 828.19 305.671 826.69 286.957C826.559 285.718 827.538 284.61 828.777 284.479C830.016 284.349 831.125 285.327 831.255 286.566C832.755 305.149 834.581 319.951 837.19 334.491C839.538 347.467 840.973 362.529 840.973 362.66C841.103 363.899 840.19 365.007 838.886 365.138C838.886 365.268 838.821 365.268 838.755 365.268Z" fill="#202D37"/>
<path d="M865.431 363.964C864.452 363.964 863.539 363.312 863.278 362.334C860.735 354.183 859.365 337.621 857.93 320.146C856.952 308.149 855.909 295.76 854.474 285.327C854.278 284.088 855.191 282.915 856.43 282.719C857.67 282.523 858.843 283.436 859.039 284.675C860.539 295.173 861.517 307.692 862.561 319.755C863.996 336.969 865.365 353.27 867.713 360.964C868.105 362.138 867.387 363.442 866.213 363.834C865.887 363.899 865.692 363.964 865.431 363.964Z" fill="#202D37"/>
<path d="M834.973 383.33C833.864 383.33 832.886 382.482 832.69 381.373C832.494 379.874 832.233 378.504 832.038 377.266C830.994 370.419 830.407 366.637 832.429 363.833C834.125 361.551 837.06 360.834 839.995 360.443C848.995 359.074 866.67 359.269 870.518 359.595C876.779 360.182 876.648 370.55 875.996 378.309C875.866 379.548 874.757 380.526 873.518 380.395C872.279 380.265 871.3 379.157 871.431 377.918C872.344 366.768 870.583 364.225 870.061 364.159C866.474 363.833 849.191 363.703 840.647 365.007C838.038 365.398 836.603 365.92 836.081 366.637C835.168 367.876 835.755 371.528 836.538 376.614C836.734 377.852 836.929 379.287 837.19 380.787C837.386 382.026 836.538 383.199 835.234 383.395C835.168 383.33 835.103 383.33 834.973 383.33Z" fill="#202D37"/>
<path d="M781.688 370.354C780.709 370.354 779.796 369.702 779.47 368.659C775.427 354.183 772.687 310.431 773.274 292.239C773.34 291 774.318 290.022 775.557 290.022H775.622C776.862 290.087 777.84 291.13 777.84 292.369C777.188 312.061 780.188 354.248 783.905 367.42C784.231 368.659 783.514 369.897 782.34 370.224C782.079 370.289 781.883 370.354 781.688 370.354Z" fill="#202D37"/>
<path d="M805.95 369.572C804.71 369.572 803.667 368.528 803.667 367.289C803.667 358.291 800.536 304.106 798.319 290.674C798.123 289.435 798.971 288.261 800.21 288.066C801.449 287.87 802.623 288.718 802.819 289.957C805.167 303.976 808.232 358.03 808.232 367.355C808.232 368.528 807.189 369.572 805.95 369.572Z" fill="#202D37"/>
<path d="M775.296 386.133C774.122 386.133 773.144 385.286 773.013 384.112C772.035 375.57 771.513 371.267 773.796 368.659C775.818 366.311 779.079 366.246 784.949 366.05L786.775 365.985C796.884 365.659 802.037 365.79 806.602 365.92C807.972 365.985 809.276 365.985 810.58 365.985C812.928 365.985 814.689 366.702 815.928 368.137C818.407 371.006 817.755 375.961 816.907 382.286C816.776 383.525 815.602 384.438 814.363 384.242C813.124 384.112 812.211 382.938 812.407 381.699C812.994 377.331 813.646 372.375 812.472 371.071C812.146 370.745 811.493 370.549 810.515 370.549C809.146 370.549 807.841 370.484 806.471 370.484C801.971 370.354 796.884 370.223 786.905 370.549L785.079 370.615C781.101 370.745 777.97 370.81 777.253 371.658C776.274 372.766 776.861 377.787 777.579 383.59C777.709 384.829 776.796 386.003 775.557 386.133C775.427 386.133 775.361 386.133 775.296 386.133Z" fill="#202D37"/>
<path d="M763.426 400.283C762.252 400.283 761.274 399.435 761.143 398.262C760.296 390.698 760.1 386.916 762.187 384.438C763.752 382.547 766.165 382.091 769.296 381.895C776.144 381.504 922.498 374.723 928.042 374.592C930.194 374.592 931.89 375.179 933.064 376.418C935.412 378.896 935.282 383.33 934.825 389.329C934.76 390.567 933.651 391.545 932.412 391.415C931.173 391.35 930.194 390.241 930.325 389.002C930.52 386.133 930.912 380.787 929.803 379.548C929.542 379.287 929.02 379.157 928.238 379.157C922.694 379.222 776.535 386.003 769.687 386.394C767.47 386.525 766.231 386.851 765.774 387.307C764.796 388.416 765.252 392.85 765.774 397.675C765.905 398.914 764.991 400.087 763.752 400.218C763.622 400.218 763.557 400.283 763.426 400.283Z" fill="#202D37"/>
<path d="M761.73 418.475C757.556 418.475 756.839 418.279 756.382 418.149C750.513 416.519 750.382 409.216 750.252 403.869V403.021C750.056 396.436 756.774 396.045 766.035 395.523C767.666 395.392 769.427 395.327 771.318 395.197C776.796 394.806 807.972 393.371 840.908 391.871C882.453 389.981 929.542 387.829 933.716 387.307C939.391 386.655 943.108 386.59 945.586 388.546C946.956 389.589 947.739 391.219 948 393.306L948.065 394.088C948.652 398.653 949.565 406.282 942.586 407.195C939.912 407.521 894.715 410.911 850.756 413.845C791.601 417.692 769.948 418.475 761.73 418.475ZM754.817 402.956V403.869C754.882 407.977 755.013 413.063 757.622 413.845C759.187 414.237 771.383 414.497 850.952 409.216C897.128 406.151 939.782 402.956 942.065 402.63C943.956 402.369 944.347 400.478 943.63 394.61L943.565 393.828C943.434 392.589 943.043 392.263 942.847 392.132C941.543 391.154 937.63 391.48 934.369 391.871C929.999 392.393 884.866 394.48 841.234 396.436C808.298 397.935 777.188 399.37 771.774 399.761C769.883 399.892 768.057 400.022 766.426 400.087C757.23 400.609 754.752 401.065 754.817 402.956Z" fill="#202D37"/>
<path d="M412.932 858.084C412.28 858.084 411.628 857.824 411.171 857.302C401.454 846.022 395.649 833.111 394.475 819.94C393.236 806.442 396.953 793.532 405.367 782.643C400.606 775.992 382.214 747.171 372.952 686.922C359.647 600.657 375.561 572.749 376.279 571.575C376.931 570.467 378.3 570.141 379.409 570.793C380.518 571.445 380.844 572.814 380.192 573.923C380.061 574.184 364.474 602.026 377.453 686.205C387.757 752.844 409.802 781.013 410.063 781.273C410.715 782.121 410.715 783.295 410.063 784.142C393.562 804.291 395.388 831.872 414.693 854.303C415.541 855.281 415.411 856.715 414.432 857.498C413.976 857.889 413.454 858.084 412.932 858.084Z" fill="#202D37"/>
<path d="M449.782 783.947C449.064 783.947 448.282 783.556 447.89 782.904C447.173 781.86 447.499 780.426 448.543 779.774C468.174 766.994 509.002 757.995 555.047 756.365C602.462 754.67 643.356 760.995 664.552 773.253C665.661 773.905 665.987 775.275 665.4 776.383C664.813 777.492 663.378 777.818 662.269 777.231C641.79 765.364 601.81 759.299 555.243 760.93C509.98 762.56 470 771.232 451.086 783.621C450.63 783.816 450.173 783.947 449.782 783.947Z" fill="#202D37"/>
<path d="M490.675 566.164C489.697 566.164 488.783 565.511 488.457 564.533C486.501 557.817 489.175 553.188 490.871 551.036L473.065 514.978C460.543 489.679 456.369 481.332 455.065 478.594C435.629 479.637 424.085 477.55 418.672 472.073C415.998 469.4 414.758 465.814 415.085 461.575C415.411 457.402 417.106 454.142 420.172 451.86C425.846 447.687 436.216 447.296 450.825 450.686C452.064 450.947 452.847 452.186 452.521 453.425C452.26 454.664 451.021 455.446 449.782 455.12C436.672 452.055 427.346 452.186 422.846 455.511C420.889 456.946 419.846 459.032 419.65 461.901C419.454 464.836 420.172 467.118 421.933 468.878C426.433 473.443 437.651 475.073 456.369 473.964C457.282 473.899 458.13 474.421 458.586 475.268C458.847 475.79 494.262 547.254 495.827 550.384C495.827 550.449 495.892 550.449 495.892 550.449C496.349 551.492 496.023 552.34 495.762 552.731C495.566 553.057 495.24 553.318 494.914 553.514C493.936 554.622 491.457 557.948 493.023 563.229C493.349 564.468 492.697 565.707 491.458 566.033C491.066 566.098 490.871 566.164 490.675 566.164Z" fill="#202D37"/>
<path d="M472.413 390.307C484.87 362.921 504.306 379.874 496.675 395.327C489.044 410.781 461.978 417.497 461.978 417.497C468.239 437.254 459.891 465.096 450.043 459.619C442.216 455.316 434.325 439.406 437.064 428.777C444.499 399.5 463.217 374.331 472.413 390.307Z" fill="#202D37"/>
<path d="M452.586 462.618C451.347 462.618 450.173 462.292 448.934 461.64C440.194 456.815 431.781 440.058 434.846 428.19C440.194 407.26 452.586 384.699 464.13 383.134C466.348 382.808 469.348 383.199 472.087 385.938C477.631 375.831 483.762 373.81 487.088 373.484C491.327 373.092 495.436 375.179 498.045 379.026C501.371 383.916 501.632 390.502 498.827 396.305C492.045 409.933 471.826 417.04 464.913 419.062C469.022 435.167 464.652 454.924 457.608 460.662C455.978 461.966 454.282 462.618 452.586 462.618ZM465.435 387.633C465.109 387.633 464.913 387.698 464.717 387.698C457.282 388.742 445.282 405.695 439.281 429.364C436.868 438.819 444.173 453.751 451.217 457.663C452.064 458.119 453.173 458.445 454.739 457.206C460.217 452.707 464.717 433.472 459.891 418.214C459.695 417.627 459.76 416.975 460.087 416.388C460.413 415.867 460.934 415.41 461.521 415.28C461.782 415.215 487.675 408.564 494.719 394.284C497.262 389.133 496.153 384.373 494.262 381.569C492.566 379.091 490.088 377.787 487.479 378.048C482.914 378.439 478.218 383.264 474.565 391.219C474.239 392.002 473.457 392.523 472.609 392.523C471.761 392.589 470.978 392.132 470.522 391.415C468.5 388.09 466.543 387.633 465.435 387.633Z" fill="#202D37"/>
<path d="M494.262 460.662C489.566 460.662 482.718 459.489 476.261 455.511C475.218 454.859 474.826 453.425 475.544 452.381C476.196 451.338 477.631 450.947 478.674 451.664C486.892 456.75 495.632 456.489 497.784 455.772C498.958 455.381 500.262 456.033 500.654 457.272C501.045 458.445 500.393 459.75 499.154 460.141C498.11 460.402 496.414 460.662 494.262 460.662Z" fill="#202D37"/>
<path d="M444.173 467.639C443.716 467.639 443.26 467.509 442.869 467.183C441.499 466.531 433.477 464.379 428.259 465.618C427.02 465.944 425.781 465.162 425.52 463.923C425.194 462.684 425.977 461.445 427.216 461.184C433.868 459.554 444.303 462.162 445.803 463.727C446.717 464.64 446.717 466.074 445.803 466.987C445.347 467.444 444.76 467.639 444.173 467.639Z" fill="#202D37"/>
<path d="M573.374 520.194C572.526 520.194 571.744 519.738 571.352 518.955C568.091 512.696 530.459 432.233 528.894 428.842C528.503 427.995 528.633 427.017 529.285 426.299C542.134 412.476 555.765 396.827 559.026 391.806C553.026 390.763 530.003 392.132 497.067 397.609C495.827 397.805 494.653 396.957 494.458 395.719C494.262 394.48 495.11 393.306 496.349 393.11C511.937 390.502 527.329 388.611 539.721 387.633C560.135 386.003 562.287 387.894 563.2 388.676C563.917 389.263 564.309 390.046 564.309 390.959C564.309 392.263 564.309 394.023 548.264 412.28C542.264 419.127 536.134 425.778 533.786 428.386C538.938 439.34 572.526 511.261 575.527 516.934C576.114 518.042 575.657 519.412 574.548 519.999C574.092 520.064 573.766 520.194 573.374 520.194Z" fill="#202D37"/>
<path d="M595.745 552.927C595.092 552.927 594.44 552.666 594.049 552.145C588.049 545.233 584.07 537.017 580.94 530.497C578.722 525.867 575.722 519.607 574.222 520.064C573.048 520.455 570.374 521.433 566.656 522.802C548.721 529.388 507.045 544.842 490.023 546.081C488.783 546.146 487.675 545.233 487.609 543.994C487.544 542.755 488.457 541.647 489.697 541.581C506.002 540.408 547.286 525.15 564.961 518.629C568.744 517.26 571.418 516.217 572.722 515.826C578.005 514.065 581.135 520.455 585.049 528.606C588.114 534.93 591.897 542.82 597.506 549.276C598.354 550.254 598.223 551.688 597.31 552.471C596.788 552.731 596.266 552.927 595.745 552.927Z" fill="#202D37"/>
<path d="M569.265 511.652C568.222 511.652 567.243 510.935 567.048 509.892C565.026 500.828 569.591 489.287 578.07 481.789C584.527 476.116 592.092 473.834 599.332 475.333C599.788 470.834 601.223 462.553 606.376 459.815C606.571 455.772 607.419 446.382 610.224 443.253C611.072 442.34 612.506 442.209 613.419 443.057C614.333 443.905 614.463 445.339 613.615 446.252C612.18 447.817 611.072 455.381 610.876 461.38C610.811 462.358 610.158 463.205 609.18 463.466C605.202 464.575 603.767 473.899 603.702 478.202C603.702 478.92 603.31 479.637 602.723 480.028C602.136 480.419 601.354 480.55 600.636 480.289C591.832 477.159 584.592 481.984 581.07 485.049C573.896 491.374 569.852 501.35 571.483 508.718C571.744 509.957 570.961 511.196 569.722 511.457C569.591 511.652 569.461 511.652 569.265 511.652Z" fill="#202D37"/>
<path d="M635.529 616.566C635.268 616.566 635.007 616.501 634.812 616.436C633.638 616.045 632.986 614.741 633.377 613.502C633.638 612.85 656.4 546.863 666.509 490.004C676.879 431.581 659.4 417.888 640.877 412.215C622.355 406.542 567.439 436.732 546.764 448.143C544.938 449.121 543.308 450.034 541.873 450.816C540.764 451.403 539.395 451.012 538.808 449.903C538.221 448.795 538.612 447.426 539.721 446.839C541.155 446.056 542.786 445.209 544.547 444.165C582.766 423.104 624.246 402.369 642.247 407.846C655.487 411.889 663.965 418.931 668.987 430.016C675.183 443.709 675.835 463.596 671.009 490.722C660.835 547.906 637.942 614.284 637.747 614.936C637.355 615.98 636.442 616.566 635.529 616.566Z" fill="#202D37"/>
<path d="M539.133 570.141C531.437 570.141 524.002 569.228 518.198 567.598C516.959 567.272 516.241 566.033 516.632 564.794C516.959 563.555 518.198 562.838 519.437 563.229C536.133 567.859 563.135 565.772 571.744 556.252C572.591 555.34 574.026 555.209 574.939 556.057C575.852 556.904 575.983 558.339 575.135 559.252C568.156 567.011 553.286 570.141 539.133 570.141Z" fill="#202D37"/>
<path d="M715.88 746.845C715.098 746.845 714.38 746.454 713.924 745.737C713.206 744.563 641.66 627.651 612.832 582.465C612.18 581.421 612.441 579.987 613.55 579.335C614.593 578.683 616.028 578.944 616.68 580.052C645.573 625.304 717.12 742.216 717.837 743.39C718.489 744.433 718.163 745.867 717.054 746.519C716.663 746.715 716.272 746.845 715.88 746.845Z" fill="#202D37"/>
<path d="M517.154 764.059C516.176 764.059 515.328 763.473 515.002 762.495C514.676 761.517 482.066 667.035 470.652 636.715C470.196 635.541 470.783 634.237 471.957 633.781C473.131 633.324 474.435 633.911 474.892 635.085C486.305 665.47 518.981 760.017 519.307 760.995C519.698 762.169 519.111 763.473 517.872 763.929C517.676 763.994 517.415 764.059 517.154 764.059Z" fill="#202D37"/>
<path d="M484.479 535.126C484.022 535.126 483.631 534.996 483.24 534.735C464.782 522.542 445.803 514.913 437.259 513.935C431.716 513.283 425.585 508.718 419.715 504.35C415.15 500.959 410.454 497.438 407.454 497.047C400.736 496.134 398.193 496.916 398.127 496.916C397.019 497.373 395.779 496.786 395.258 495.677C390.105 483.875 374.257 485.179 374.061 485.245C372.822 485.375 371.713 484.462 371.583 483.158C371.452 481.919 372.365 480.811 373.67 480.68C374.452 480.615 391.54 479.246 398.649 492.221C400.41 492.026 403.41 491.895 408.041 492.547C412.215 493.134 417.172 496.786 422.389 500.763C427.542 504.61 433.477 509.044 437.716 509.501C446.977 510.544 466.478 518.303 485.718 531.018C486.762 531.735 487.088 533.105 486.37 534.213C485.914 534.8 485.196 535.126 484.479 535.126Z" fill="#202D37"/>
<path d="M478.153 654.385C477.696 654.385 477.239 654.255 476.783 653.929C471.761 650.212 466.087 646.169 460.086 641.931C418.019 612.002 354.495 566.815 336.559 514.586C326.45 485.179 341.059 460.597 360.626 451.468C374.713 444.883 389.388 449.577 403.606 454.077C408.497 455.642 413.128 457.076 417.693 458.119C418.932 458.38 419.715 459.619 419.454 460.858C419.193 462.097 417.954 462.879 416.715 462.618C411.954 461.575 406.997 460.01 402.236 458.445C388.866 454.207 375.039 449.838 362.582 455.642C344.842 463.923 331.668 486.288 340.864 513.152C358.343 564.012 421.15 608.677 462.695 638.28C468.696 642.583 474.37 646.626 479.457 650.343C480.5 651.06 480.696 652.494 479.979 653.537C479.587 654.059 478.87 654.385 478.153 654.385Z" fill="#202D37"/>
<path d="M950.086 418.997C950.086 418.997 925.237 435.559 898.954 436.145C895.04 520.52 940.238 530.366 940.238 530.366C940.238 530.366 986.218 531.409 997.175 447.882C971.478 441.101 950.086 418.997 950.086 418.997Z" fill="#FFFEF2"/>
<path d="M940.303 532.583C940.238 532.583 940.173 532.583 940.173 532.583C940.042 532.583 939.912 532.583 939.716 532.518C939.195 532.387 927.52 529.714 916.367 516.282C906.258 504.089 894.649 480.289 896.671 435.95C896.736 434.776 897.714 433.798 898.888 433.798C924.194 433.276 948.586 417.236 948.782 417.04C949.695 416.454 950.934 416.584 951.717 417.367C951.913 417.562 973.044 439.08 997.697 445.6C998.806 445.861 999.523 446.969 999.393 448.078C994.762 483.354 983.544 508.262 966 522.15C953.282 532.257 941.803 532.583 940.303 532.583ZM901.106 438.297C899.541 479.833 910.367 502.002 919.824 513.413C929.216 524.693 938.868 527.628 940.434 528.019C941.999 527.954 952.239 527.367 963.391 518.368C974.479 509.435 988.827 490.265 994.567 449.447C972.848 443.057 954.717 426.626 949.76 421.8C943.956 425.452 923.477 437.123 901.106 438.297Z" fill="#202D37"/>
<path d="M918.781 472.921C918.52 475.333 934.434 492.091 938.542 494.243C942.586 496.46 978.196 467.704 978.457 463.857C978.718 460.01 972.522 455.381 970.631 456.88C968.739 458.38 944.217 481.071 941.086 479.832C937.955 478.594 930.651 465.422 928.303 464.901C926.02 464.509 919.303 468.487 918.781 472.921Z" fill="#FAD932"/>
<path d="M939.129 495.416C938.673 495.416 938.347 495.286 938.086 495.156C934.629 493.265 917.476 476.181 917.802 472.856C918.063 470.573 919.759 468.161 922.433 466.205C924.129 464.966 926.803 463.662 928.499 463.988C929.933 464.314 931.76 466.792 934.955 471.226C937.238 474.355 940.043 478.333 941.347 478.92C943.304 478.92 951.913 472.138 966.913 458.771C968.479 457.337 969.522 456.424 969.913 456.163C970.827 455.446 972.327 455.511 973.957 456.359C976.696 457.793 979.501 461.054 979.305 463.923C979.044 468.031 954.195 487.853 944.217 493.395C941.608 494.96 940.043 495.416 939.129 495.416ZM919.759 472.986C920.15 475.464 935.021 491.243 938.999 493.395C938.999 493.395 939.977 493.656 944.478 491.048C956.869 483.745 976.957 466.335 977.479 463.792C977.609 461.771 975.327 459.228 973.174 458.054C972.066 457.467 971.414 457.467 971.218 457.663C970.892 457.924 969.848 458.902 968.348 460.206C947.934 478.333 942.651 481.528 940.76 480.745C938.999 480.028 936.716 476.964 933.455 472.334C931.694 469.856 929.02 466.14 928.172 465.879C927.585 465.748 925.759 466.27 923.607 467.77C921.39 469.335 920.02 471.291 919.759 472.986Z" fill="#FAD932"/>
<path d="M962.022 183.934V219.601C962.022 219.796 961.957 219.992 961.826 220.122C961.696 220.253 961.5 220.318 961.304 220.318H952.304C952.108 220.318 951.913 220.253 951.782 220.122C951.652 219.992 951.586 219.796 951.586 219.601V192.606H948.912C948.717 192.606 948.521 192.541 948.391 192.411C948.26 192.28 948.195 192.085 948.195 191.889V183.934C948.195 183.738 948.26 183.543 948.391 183.412C948.521 183.282 948.717 183.217 948.912 183.217H961.304C961.5 183.217 961.696 183.282 961.826 183.412C961.957 183.543 962.022 183.738 962.022 183.934Z" fill="#202D37"/>
<path d="M961.304 221.361H952.304C951.847 221.361 951.456 221.231 951.13 220.905C950.804 220.579 950.608 220.123 950.608 219.666V193.649H948.913C948.391 193.649 947.999 193.454 947.673 193.128C947.347 192.802 947.217 192.411 947.217 191.954V183.999C947.217 183.543 947.412 183.086 947.739 182.76C948.065 182.434 948.456 182.239 948.978 182.239H961.37C961.826 182.239 962.217 182.434 962.544 182.76C962.87 183.086 963.065 183.478 963.065 183.999V219.666C963.065 220.123 962.87 220.579 962.544 220.905C962.152 221.166 961.761 221.361 961.304 221.361ZM952.565 219.405H961.043V184.195H949.108V191.693H951.521C952.043 191.693 952.5 192.15 952.5 192.671V219.405H952.565Z" fill="#202D37"/>
<path d="M1107.46 668.013C1108.31 671.795 1108.12 675.055 1107.01 677.729C1105.9 680.467 1103.68 682.684 1100.29 684.51L1102.44 694.421C1102.51 694.682 1102.44 694.943 1102.31 695.203C1102.18 695.464 1101.92 695.595 1101.66 695.66L1088.61 698.529C1088.35 698.594 1088.09 698.529 1087.83 698.398C1087.57 698.268 1087.44 698.007 1087.38 697.746L1085.48 688.944C1083.01 689.4 1080.79 689.661 1078.7 689.857C1078.44 689.857 1078.18 689.791 1077.98 689.596C1077.79 689.4 1077.59 689.205 1077.53 688.879L1076.22 678.12C1076.16 677.794 1076.29 677.533 1076.48 677.272C1076.68 677.011 1077 676.946 1077.33 676.946C1078.18 676.946 1079.03 676.946 1079.87 676.881C1080.72 676.816 1081.9 676.75 1083.27 676.62C1084.64 676.49 1085.94 676.294 1087.05 676.033C1088.29 675.772 1089.33 675.381 1090.18 674.86C1090.96 674.338 1091.48 673.751 1091.74 673.164C1092.01 672.577 1092.14 672.056 1092.2 671.599C1092.27 671.143 1092.27 670.752 1092.2 670.426C1092.14 670.034 1091.94 669.708 1091.74 669.317C1091.48 668.926 1091.09 668.469 1090.57 667.883C1089.98 667.296 1089.14 666.839 1088.03 666.448C1086.85 666.057 1085.48 665.861 1083.98 665.796C1082.22 665.796 1080.46 665.47 1078.7 664.883C1076.94 664.296 1075.24 663.449 1073.61 662.34C1071.98 661.232 1070.55 659.732 1069.24 657.776C1068 655.82 1067.09 653.668 1066.5 651.19C1065.72 647.734 1065.98 644.605 1067.22 641.866C1068.46 639.127 1070.61 636.845 1073.68 634.954L1071.46 624.782C1071.4 624.522 1071.46 624.196 1071.59 623.935C1071.72 623.674 1071.98 623.544 1072.24 623.478L1085.29 620.609C1085.55 620.544 1085.87 620.609 1086.14 620.74C1086.4 620.935 1086.59 621.131 1086.59 621.457L1088.48 630.26C1090.83 629.868 1093.18 629.542 1095.53 629.282C1095.79 629.282 1096.05 629.347 1096.31 629.542C1096.57 629.738 1096.7 629.934 1096.7 630.26L1098.01 641.018C1098.01 641.344 1097.94 641.605 1097.75 641.866C1097.55 642.127 1097.29 642.257 1096.96 642.257C1093.18 642.257 1089.79 642.583 1086.79 643.17C1085.55 643.431 1084.51 643.757 1083.72 644.344C1082.94 644.865 1082.35 645.452 1082.09 646.104C1081.83 646.756 1081.7 647.278 1081.64 647.669C1081.57 648.126 1081.57 648.517 1081.64 648.843C1081.7 649.169 1081.83 649.56 1082.09 649.951C1082.35 650.343 1082.74 650.799 1083.33 651.386C1083.92 651.908 1084.77 652.429 1085.94 652.82C1087.11 653.212 1088.48 653.407 1089.98 653.472C1091.74 653.538 1093.51 653.864 1095.27 654.45C1097.03 655.037 1098.72 655.885 1100.35 656.993C1101.98 658.102 1103.42 659.667 1104.66 661.558C1106.03 663.384 1106.94 665.535 1107.46 668.013Z" fill="#202D37"/>
<path d="M1088.35 699.507C1087.96 699.507 1087.64 699.376 1087.24 699.181C1086.79 698.855 1086.46 698.464 1086.33 697.877L1084.64 689.987C1082.48 690.313 1080.53 690.574 1078.7 690.769C1078.18 690.835 1077.72 690.639 1077.27 690.313C1076.87 689.987 1076.61 689.531 1076.48 689.074V689.009L1075.18 678.25C1075.11 677.598 1075.31 677.076 1075.7 676.62C1076.09 676.164 1076.61 675.968 1077.27 675.968C1078.05 675.968 1078.9 675.968 1079.81 675.903C1080.66 675.838 1081.77 675.772 1083.14 675.642C1084.51 675.512 1085.74 675.316 1086.85 675.055C1088.03 674.859 1088.94 674.468 1089.66 674.012C1090.31 673.621 1090.7 673.164 1090.9 672.773C1091.09 672.251 1091.22 671.795 1091.29 671.469C1091.35 671.143 1091.35 670.882 1091.29 670.621C1091.22 670.36 1091.09 670.1 1090.9 669.774C1090.77 669.578 1090.44 669.121 1089.85 668.535C1089.4 668.078 1088.68 667.687 1087.64 667.361C1086.59 667.035 1085.29 666.839 1083.85 666.774C1081.96 666.774 1080.14 666.383 1078.24 665.796C1076.42 665.144 1074.59 664.296 1072.9 663.123C1071.14 661.949 1069.57 660.319 1068.27 658.298C1066.96 656.276 1065.98 653.929 1065.4 651.386C1064.61 647.734 1064.87 644.409 1066.18 641.475C1067.42 638.736 1069.5 636.389 1072.44 634.498L1070.35 625.043C1070.22 624.522 1070.35 624 1070.61 623.544C1070.87 623.022 1071.33 622.696 1071.92 622.565L1084.96 619.696C1085.48 619.566 1086.07 619.696 1086.53 619.957C1086.98 620.283 1087.31 620.74 1087.44 621.261L1089.14 629.151C1091.22 628.825 1093.24 628.564 1095.33 628.303C1095.85 628.238 1096.31 628.434 1096.77 628.695C1097.22 629.021 1097.55 629.542 1097.61 630.129L1098.85 640.888C1098.92 641.475 1098.72 641.996 1098.33 642.453C1097.94 642.909 1097.35 643.17 1096.77 643.17C1093.05 643.17 1089.72 643.496 1086.85 644.083C1085.74 644.279 1084.83 644.605 1084.11 645.061C1083.46 645.452 1083.07 645.909 1082.87 646.365C1082.68 646.887 1082.48 647.343 1082.48 647.669C1082.42 647.995 1082.42 648.256 1082.48 648.517C1082.55 648.647 1082.61 648.908 1082.81 649.299C1082.94 649.495 1083.2 649.886 1083.85 650.538C1084.31 650.995 1085.09 651.386 1086.07 651.712C1087.11 652.038 1088.42 652.234 1089.85 652.299C1091.68 652.364 1093.57 652.69 1095.4 653.342C1097.22 653.929 1099.05 654.842 1100.75 656.015C1102.51 657.189 1104.01 658.819 1105.38 660.841C1106.68 662.862 1107.66 665.144 1108.18 667.687C1109.03 671.665 1108.9 675.12 1107.66 677.989C1106.55 680.728 1104.33 683.075 1101.2 684.901L1103.22 694.095C1103.35 694.617 1103.22 695.138 1102.96 695.595C1102.64 696.051 1102.25 696.377 1101.66 696.507L1088.61 699.376C1088.68 699.507 1088.55 699.507 1088.35 699.507ZM1085.48 687.966C1085.94 687.966 1086.33 688.292 1086.46 688.748L1088.35 697.551L1088.42 697.616L1101.53 694.747L1101.59 694.682L1099.44 684.771C1099.38 684.314 1099.57 683.923 1099.9 683.727C1103.03 682.032 1105.11 679.88 1106.16 677.403C1107.2 674.86 1107.33 671.795 1106.55 668.274C1106.03 665.927 1105.18 663.84 1104.01 662.079C1102.83 660.254 1101.46 658.819 1099.96 657.776C1098.4 656.733 1096.77 655.885 1095.07 655.363C1093.38 654.842 1091.74 654.516 1090.05 654.45C1088.42 654.385 1086.98 654.19 1085.68 653.733C1084.37 653.277 1083.4 652.755 1082.68 652.103C1082.03 651.451 1081.57 650.929 1081.31 650.473C1080.98 649.951 1080.85 649.56 1080.72 649.104C1080.59 648.647 1080.59 648.126 1080.66 647.604C1080.72 647.082 1080.92 646.496 1081.18 645.778C1081.51 644.996 1082.16 644.279 1083.14 643.627C1084.05 643.04 1085.22 642.583 1086.53 642.322C1089.53 641.736 1092.98 641.41 1096.83 641.41C1096.9 641.344 1096.9 641.279 1096.9 641.279L1095.66 630.586C1095.59 630.52 1095.59 630.52 1095.53 630.52C1093.24 630.781 1090.9 631.107 1088.61 631.498C1088.09 631.564 1087.64 631.238 1087.51 630.716L1085.61 621.913C1085.61 621.913 1085.61 621.848 1085.55 621.848C1085.48 621.783 1085.48 621.783 1085.48 621.848L1072.44 624.717C1072.37 624.782 1072.37 624.782 1072.37 624.848L1074.59 635.02C1074.66 635.411 1074.53 635.867 1074.14 636.063C1071.27 637.823 1069.18 640.04 1068.07 642.583C1066.9 645.126 1066.7 648.06 1067.42 651.255C1067.94 653.603 1068.79 655.689 1069.96 657.515C1071.14 659.341 1072.5 660.775 1074.07 661.819C1075.64 662.862 1077.27 663.71 1078.9 664.296C1080.53 664.883 1082.22 665.144 1083.92 665.209C1085.55 665.274 1087.05 665.47 1088.29 665.926C1089.59 666.383 1090.57 666.905 1091.22 667.557C1091.81 668.209 1092.27 668.73 1092.59 669.187C1092.85 669.708 1093.11 670.165 1093.18 670.621C1093.24 671.078 1093.31 671.534 1093.24 672.121C1093.18 672.643 1092.98 673.229 1092.72 673.947C1092.4 674.729 1091.74 675.446 1090.77 676.098C1089.85 676.685 1088.68 677.142 1087.31 677.403C1086.14 677.663 1084.83 677.859 1083.4 677.989C1081.96 678.12 1080.85 678.185 1079.94 678.25C1079.03 678.315 1078.18 678.315 1077.33 678.315C1077.27 678.315 1077.27 678.315 1077.27 678.315C1077.27 678.315 1077.27 678.315 1077.27 678.381L1078.51 689.074C1078.51 689.139 1078.57 689.139 1078.57 689.205C1080.59 689.074 1082.87 688.748 1085.29 688.357C1085.35 687.966 1085.42 687.966 1085.48 687.966Z" fill="#202D37"/>
<path d="M1028.35 775.079C1031.09 770.384 1137.92 762.234 1142.09 765.885C1146.27 769.537 1147.38 788.837 1140.73 790.076C1134.01 791.25 1033.18 800.313 1030.44 797.835C1027.7 795.358 1026.33 778.535 1028.35 775.079Z" fill="#FFFEF2"/>
<path d="M1035.98 800.574C1029.92 800.574 1029.33 800.052 1028.87 799.596C1025.22 796.205 1023.98 778.144 1026.33 773.971C1027.05 772.797 1028.35 771.688 1038.07 770.123C1050.79 768.037 1075.31 765.624 1099.05 764.059C1140.33 761.386 1142.68 763.473 1143.6 764.19C1147.57 767.646 1148.75 779.122 1146.92 785.773C1145.55 790.598 1143.01 792.032 1141.12 792.358C1137.66 793.01 1110.72 795.553 1084.24 797.64C1056.33 799.857 1042.76 800.574 1035.98 800.574ZM1031.74 795.879C1034.94 796.336 1050.53 795.749 1085.68 792.945C1111.25 790.924 1137.07 788.446 1140.27 787.859C1141.12 787.729 1141.96 786.49 1142.49 784.534C1144.12 778.6 1142.55 769.797 1140.73 767.776C1137.53 766.798 1116.2 767.189 1085.22 769.602C1053.33 772.08 1033.37 775.014 1030.18 776.514C1028.94 779.709 1030.05 793.075 1031.74 795.879Z" fill="#202D37"/>
<path d="M1023.13 752.127C1025.81 747.432 1132.64 738.63 1136.88 742.281C1141.12 745.933 1143.01 762.429 1136.36 763.668C1129.64 764.907 1028.15 777.361 1025.42 774.883C1022.68 772.406 1021.18 755.583 1023.13 752.127Z" fill="#FFFEF2"/>
<path d="M1028.81 777.492C1024.83 777.492 1024.31 777.035 1023.85 776.644C1020.13 773.253 1018.83 755.192 1021.18 751.084C1021.89 749.845 1023.13 748.802 1032.85 747.171C1045.57 745.02 1070.03 742.411 1093.77 740.781C1135.05 737.847 1137.4 739.934 1138.31 740.651C1142.03 743.846 1144.05 753.627 1142.29 759.952C1141.05 764.516 1138.25 765.69 1136.68 766.016C1133.22 766.668 1105.7 770.123 1079.55 773.058C1047.98 776.448 1034.61 777.492 1028.81 777.492ZM1026.72 772.927C1035.59 773.905 1126.38 763.212 1135.9 761.451C1137.01 761.256 1137.66 759.821 1137.99 758.713C1139.29 753.953 1137.66 746.324 1135.57 744.237C1132.38 743.259 1111.05 743.781 1080.07 746.389C1048.18 749.062 1028.22 752.062 1025.02 753.627C1023.79 756.756 1024.96 769.993 1026.72 772.927Z" fill="#202D37"/>
<path d="M1029.92 726.306C1032.59 721.611 1141.96 716.264 1146.2 719.916C1150.44 723.567 1151.16 740.194 1144.44 741.433C1137.73 742.672 1034.87 751.54 1032.13 749.062C1029.46 746.584 1027.96 729.762 1029.92 726.306Z" fill="#FFFEF2"/>
<path d="M1037.94 751.736C1031.74 751.736 1031.09 751.214 1030.63 750.758C1026.92 747.367 1025.61 729.305 1027.96 725.197C1028.68 723.959 1030.11 723.176 1035.92 722.198C1048.57 720.046 1076.55 718.155 1098.72 717.242C1111.12 716.721 1122.53 716.46 1130.81 716.525C1145.68 716.59 1146.79 717.568 1147.64 718.286C1151.42 721.611 1152.53 731.001 1150.9 736.934C1149.86 740.781 1147.7 743.194 1144.77 743.716C1141.05 744.433 1112.35 746.976 1086.92 748.932C1058.68 751.084 1044.85 751.736 1037.94 751.736ZM1033.5 747.041C1036.7 747.497 1052.55 746.976 1088.48 744.172C1114.7 742.151 1140.99 739.673 1144.05 739.151C1145.49 738.89 1146.27 736.804 1146.6 735.63C1147.96 730.675 1146.73 723.698 1144.83 721.742C1141.7 720.698 1119.86 720.568 1088.09 722.198C1055.09 723.893 1035.07 726.241 1031.74 727.74C1030.57 731.001 1031.81 744.237 1033.5 747.041Z" fill="#202D37"/>
</g>
</g>
<defs>
<clipPath id="clip0_3457_3968">
<rect width="1440" height="1024" fill="white"/>
</clipPath>
<clipPath id="clip1_3457_3968">
<rect width="1479" height="1109" fill="white" transform="translate(-20 -42)"/>
</clipPath>
</defs>
</svg>
