<svg width="1440" height="1024" viewBox="0 0 1440 1024" fill="none" xmlns="http://www.w3.org/2000/svg">
<g clip-path="url(#clip0_3376_2662)">
<rect width="1440" height="1024" fill="white"/>
<g clip-path="url(#clip1_3376_2662)">
<path d="M1545.33 -161.84H-105.401V1186.84H1545.33V-161.84Z" fill="#FFFEF2"/>
<path d="M753.044 553.191C706.361 641.896 609.06 722.311 465.698 726.733C397.125 728.805 339.946 713.4 297.96 685.627C188.228 613.088 182.497 456.265 349.752 307.524C494.219 179.095 658.436 250.322 751.801 341.583C796.204 384.969 795.514 472.5 753.044 553.191Z" fill="#EF7136"/>
<path d="M845.373 345.176C802.627 336.955 769.272 389.459 753.389 437.197C737.506 484.866 738.611 523.415 756.082 534.054C756.082 534.054 706.361 646.18 701.735 661.517C700.215 666.491 722.037 678.581 725.283 676.784C731.636 673.261 781.633 558.234 785.086 549.046C785.086 549.046 820.581 557.613 850.552 500.479C880.523 443.277 888.188 353.466 845.373 345.176ZM839.779 446.04C824.103 494.192 788.608 534.607 769.341 518.441C757.602 508.562 757.601 458.13 797.585 401.618C837.569 345.107 858.148 389.528 839.779 446.04Z" fill="#FFFEF2"/>
<path d="M724.523 679.341C719.068 679.341 708.364 672.708 704.635 669.669C700.422 666.284 698.765 663.382 699.525 660.826C703.806 646.456 746.483 550.082 753.182 534.953C736.194 522.172 735.365 483.968 751.179 436.437C760.226 409.356 773.139 385.314 787.572 368.665C805.596 347.87 825.76 338.958 845.925 342.827C856.629 344.899 864.847 351.739 870.371 363.069C877.691 378.198 879.625 401.342 875.965 428.078C872.443 453.363 864.018 480.168 852.831 501.515C837.017 531.706 819.545 543.657 807.599 548.355C797.931 552.224 790.265 552.017 786.743 551.671C783.36 559.961 771.137 588.286 758.637 615.99C731.429 676.232 728.045 678.097 726.595 678.857C725.974 679.202 725.283 679.341 724.523 679.341ZM704.152 662.069C704.359 662.967 706.776 665.869 713.129 669.669C718.377 672.778 722.797 674.436 724.247 674.574C731.498 667.113 779.009 558.372 782.876 548.217C783.291 547.043 784.534 546.421 785.708 546.697C785.777 546.697 794.271 548.562 806.079 543.796C817.128 539.305 833.426 527.975 848.411 499.305C871.96 454.33 879.832 394.088 865.882 365.141C861.118 355.193 854.074 349.321 844.889 347.525C803.939 339.649 771.206 391.256 755.668 437.888C740.268 484.106 740.959 521.896 757.325 531.913C758.361 532.535 758.775 533.847 758.292 534.953C757.878 536.196 708.916 646.594 704.152 662.069ZM779.147 524.452C774.935 524.452 770.999 523.07 767.684 520.307C760.571 514.296 758.154 497.37 761.607 477.128C764.507 459.788 772.794 432.361 795.514 400.237C816.507 370.599 830.042 371.428 836.257 374.537C850.552 381.722 853.038 412.81 841.989 446.8C829.628 484.797 805.182 517.82 785.224 523.554C783.153 524.175 781.15 524.452 779.147 524.452ZM829.835 377.853C821.824 377.853 811.051 386.696 799.519 403C759.19 459.995 761.123 508.424 770.86 516.576C774.451 519.616 778.871 520.376 783.912 518.925C802.212 513.674 825.691 481.343 837.431 445.28C848.618 410.876 844.475 384.002 834.116 378.82C832.873 378.199 831.423 377.853 829.835 377.853Z" fill="#202D37"/>
<path d="M753.044 553.191C706.361 641.896 609.06 722.312 465.698 726.733C397.125 728.806 339.946 713.4 297.96 685.627C308.318 647.838 320.265 621.171 329.864 599.271C371.022 504.97 405.619 515.333 405.619 515.333C408.174 505.108 410.798 495.298 413.422 485.902C421.571 456.61 429.72 431.532 435.866 413.501C442.426 394.295 446.846 382.965 446.846 382.965C444.843 382.758 442.841 382.413 440.976 381.998C424.264 378.406 413.768 368.596 416.323 358.993C419.361 347.248 436.557 344.83 454.166 355.469C454.995 359.545 458.517 361.756 459.967 362.931C461.969 364.451 456.445 371.221 459.967 373.363C463.489 375.504 474.331 366.592 475.919 363.552C486.761 363.552 516.11 350.772 517.422 332.119C517.422 332.119 537.31 329.148 550.017 349.528C555.127 357.818 563.345 363.622 571.217 365.487C596.423 394.226 617.761 428.838 615.344 432.085C611.753 436.921 556.922 413.501 556.922 413.501C556.922 413.501 541.73 470.358 533.098 530.324C531.786 539.167 530.681 548.079 529.783 556.853C528.54 568.804 553.815 615.851 553.815 615.851L553.884 615.99C561.756 611.154 568.8 607.008 572.598 604.452C582.335 597.958 588.274 585.938 620.04 590.221C622.664 590.566 626.393 589.944 630.675 588.77C644.279 585.108 663.27 575.92 667.344 575.298C668.035 575.16 669.071 576.335 670.175 578.338C709.4 559.962 728.528 552.017 740.682 551.602C743.514 551.464 747.864 552.017 753.044 553.191Z" fill="#FFFEF2"/>
<path d="M790.403 596.024C798.345 602.587 795.859 621.102 779.63 617.578L779.561 617.993C785.293 624.901 781.357 634.159 770.584 635.264C770.584 650.463 759.121 653.088 744.55 652.881C730.393 652.674 706.499 645.282 689.028 638.649L670.106 578.2C709.331 559.823 728.459 551.878 740.613 551.464C752.836 551.049 791.923 562.794 802.626 576.956C812.778 590.635 800.693 598.925 790.403 596.024Z" fill="#FFFEF2"/>
<path d="M514.867 380.409C513.348 379.787 512.657 378.129 513.279 376.61L516.041 369.701C516.662 368.181 518.32 367.49 519.839 368.112C521.358 368.734 522.049 370.392 521.427 371.912L518.665 378.82C518.043 380.271 516.386 381.031 514.867 380.409Z" fill="#202D37"/>
<path d="M970.918 769.911C969.951 773.504 968.432 776.129 966.291 777.994C964.15 779.79 961.25 780.758 957.659 780.827L955.173 790.153C955.104 790.43 954.966 790.637 954.689 790.775C954.482 790.913 954.206 790.913 953.93 790.844L941.638 787.528C941.361 787.459 941.154 787.321 941.016 787.044C940.878 786.837 940.878 786.561 940.947 786.284L943.157 777.994C940.878 777.303 938.806 776.543 937.011 775.783C936.804 775.714 936.597 775.507 936.527 775.231C936.389 774.954 936.389 774.747 936.458 774.471L940.118 764.799C940.257 764.523 940.464 764.315 940.74 764.177C941.016 764.039 941.292 764.108 941.569 764.246C942.259 764.592 943.019 765.006 943.778 765.352C944.538 765.697 945.505 766.112 946.748 766.595C947.991 767.079 949.165 767.493 950.201 767.77C951.375 768.115 952.411 768.253 953.377 768.184C954.275 768.115 954.966 767.839 955.449 767.424C955.932 767.01 956.278 766.664 956.485 766.319C956.692 765.973 956.899 765.628 956.968 765.352C957.037 765.006 957.106 764.592 957.037 764.177C957.037 763.763 956.899 763.141 956.692 762.45C956.485 761.759 955.932 760.93 955.104 760.101C954.275 759.272 953.239 758.512 951.927 757.752C950.408 756.923 949.096 755.887 947.853 754.643C946.61 753.4 945.574 751.88 944.676 750.222C943.778 748.564 943.226 746.63 942.95 744.419C942.743 742.208 942.95 739.997 943.571 737.649C944.469 734.402 945.988 731.845 948.267 730.118C950.546 728.322 953.377 727.355 956.761 727.078L959.316 717.476C959.385 717.199 959.523 716.992 959.8 716.854C960.007 716.716 960.283 716.647 960.559 716.716L972.851 720.032C973.128 720.101 973.335 720.239 973.473 720.515C973.611 720.792 973.68 721.068 973.611 721.344L971.401 729.635C973.611 730.325 975.683 731.085 977.754 731.914C977.962 731.984 978.169 732.191 978.307 732.467C978.445 732.743 978.445 732.951 978.376 733.227L974.716 742.899C974.578 743.175 974.44 743.383 974.094 743.452C973.818 743.59 973.542 743.59 973.266 743.452C970.02 741.794 967.051 740.55 964.288 739.79C963.114 739.445 962.078 739.307 961.181 739.445C960.283 739.514 959.523 739.79 959.04 740.205C958.557 740.619 958.211 740.965 957.935 741.31C957.728 741.655 957.521 742.001 957.452 742.346C957.383 742.623 957.314 743.037 957.383 743.452C957.383 743.866 957.521 744.488 957.797 745.179C958.073 745.87 958.557 746.699 959.385 747.528C960.214 748.357 961.25 749.117 962.562 749.877C964.012 750.706 965.393 751.742 966.636 752.985C967.879 754.229 968.915 755.749 969.813 757.407C970.711 759.065 971.263 760.999 971.47 763.21C971.746 765.421 971.539 767.631 970.918 769.911Z" fill="#202D37"/>
<path d="M954.137 791.949C953.93 791.949 953.791 791.949 953.584 791.88L941.292 788.564C940.74 788.426 940.325 788.081 940.049 787.597C939.773 787.113 939.704 786.561 939.842 786.077L941.845 778.754C939.911 778.132 938.185 777.511 936.596 776.82C936.113 776.612 935.768 776.267 935.561 775.783C935.353 775.3 935.284 774.816 935.422 774.333V774.264L939.082 764.592C939.29 764.039 939.704 763.624 940.256 763.348C940.809 763.141 941.43 763.21 941.983 763.486C942.673 763.832 943.364 764.177 944.124 764.522C944.883 764.868 945.85 765.282 947.093 765.766C948.267 766.25 949.441 766.595 950.477 766.94C951.513 767.286 952.479 767.355 953.239 767.286C953.93 767.217 954.482 767.01 954.758 766.802C955.173 766.457 955.449 766.181 955.656 765.904C955.863 765.559 955.932 765.352 956.001 765.213C956.07 765.006 956.07 764.73 956.07 764.384C956.07 764.108 956.001 763.694 955.725 762.865C955.518 762.312 955.104 761.69 954.413 760.93C953.653 760.17 952.687 759.479 951.513 758.788C949.924 757.959 948.474 756.854 947.162 755.472C945.85 754.16 944.745 752.571 943.847 750.844C942.881 749.047 942.259 746.975 942.052 744.695C941.845 742.415 942.052 739.997 942.673 737.579C943.64 734.125 945.298 731.362 947.715 729.496C949.993 727.7 952.756 726.664 956.07 726.318L958.487 717.476C958.625 716.923 958.971 716.508 959.385 716.232C959.869 715.956 960.421 715.818 960.973 715.956L973.266 719.272C973.818 719.41 974.232 719.755 974.509 720.239C974.785 720.723 974.854 721.275 974.716 721.828L972.713 729.151C974.578 729.773 976.442 730.464 978.238 731.154C978.721 731.362 979.066 731.707 979.343 732.191C979.619 732.743 979.619 733.296 979.412 733.849L975.752 743.521C975.544 744.073 975.13 744.488 974.578 744.695C974.025 744.971 973.404 744.902 972.851 744.626C969.744 743.037 966.774 741.793 964.081 741.034C963.045 740.757 962.147 740.619 961.388 740.688C960.697 740.757 960.145 740.964 959.799 741.241C959.247 741.655 959.04 742.001 958.902 742.139C958.764 742.346 958.626 742.623 958.556 742.83C958.487 742.968 958.487 743.244 958.487 743.59C958.487 743.797 958.556 744.281 958.833 745.041C959.04 745.593 959.454 746.284 960.145 746.975C960.904 747.735 961.871 748.426 963.045 749.117C964.564 750.015 966.015 751.12 967.327 752.433C968.639 753.745 969.744 755.334 970.71 757.061C971.677 758.858 972.299 760.93 972.506 763.21C972.713 765.49 972.506 767.908 971.884 770.326C970.849 774.056 969.191 776.958 966.912 778.892C964.772 780.688 961.871 781.725 958.418 781.932L956.139 790.499C956.001 791.051 955.656 791.466 955.173 791.742C954.827 791.811 954.482 791.949 954.137 791.949ZM937.356 774.816C939.082 775.576 941.154 776.336 943.364 777.027C943.916 777.165 944.193 777.718 944.055 778.27L941.845 786.561L954.137 789.808L956.623 780.481C956.761 780.067 957.106 779.721 957.59 779.721C960.973 779.652 963.667 778.754 965.6 777.165C967.603 775.507 969.053 772.951 969.951 769.635C970.503 767.424 970.71 765.352 970.503 763.279C970.296 761.276 969.813 759.41 968.984 757.89C968.155 756.301 967.119 754.92 965.946 753.745C964.772 752.571 963.459 751.535 962.147 750.775C960.766 750.015 959.661 749.186 958.764 748.287C957.866 747.32 957.244 746.422 956.968 745.593C956.692 744.764 956.554 744.142 956.485 743.59C956.485 743.037 956.485 742.553 956.623 742.139C956.761 741.655 956.968 741.241 957.244 740.826C957.521 740.412 957.935 739.997 958.487 739.514C959.109 738.961 960.007 738.616 961.181 738.477C962.216 738.339 963.39 738.477 964.702 738.892C967.465 739.652 970.572 740.964 973.818 742.623L977.478 733.02C975.475 732.26 973.335 731.5 971.194 730.809C970.641 730.671 970.365 730.118 970.503 729.565L972.713 721.275L960.352 717.959L957.797 727.562C957.659 727.976 957.313 728.322 956.899 728.322C953.722 728.529 951.029 729.496 948.958 731.154C946.886 732.812 945.436 735.161 944.607 738.132C944.054 740.343 943.847 742.484 944.055 744.488C944.262 746.56 944.814 748.357 945.643 749.876C946.471 751.465 947.507 752.847 948.681 754.091C949.855 755.265 951.098 756.232 952.479 756.992C953.861 757.752 955.035 758.581 955.932 759.479C956.899 760.447 957.452 761.345 957.728 762.243C958.004 763.072 958.142 763.694 958.142 764.246C958.142 764.799 958.142 765.282 958.004 765.766C957.866 766.181 957.659 766.595 957.382 767.079C957.106 767.493 956.692 767.977 956.139 768.391C955.518 768.944 954.62 769.289 953.515 769.358C952.479 769.497 951.236 769.358 949.993 768.944C948.889 768.668 947.714 768.253 946.402 767.7C945.159 767.217 944.124 766.733 943.364 766.388C942.604 766.042 941.845 765.628 941.154 765.282L937.356 774.816Z" fill="#202D37"/>
<path d="M904.485 758.65C905.797 762.104 906.143 765.144 905.521 767.908C904.9 770.602 903.104 773.089 900.273 775.3L903.795 784.281C903.864 784.557 903.864 784.764 903.795 785.041C903.657 785.317 903.518 785.455 903.242 785.593L891.364 790.222C891.088 790.291 890.812 790.291 890.605 790.222C890.329 790.084 890.19 789.946 890.052 789.669L886.945 781.656C884.666 782.416 882.594 783.037 880.73 783.521C880.453 783.59 880.246 783.521 880.039 783.383C879.832 783.245 879.625 783.037 879.556 782.761L876.724 772.813C876.655 772.536 876.655 772.191 876.862 771.984C877.001 771.707 877.277 771.569 877.622 771.5C878.382 771.362 879.21 771.224 880.039 771.086C880.868 770.947 881.904 770.671 883.216 770.326C884.528 769.98 885.633 769.635 886.738 769.22C887.912 768.806 888.809 768.253 889.5 767.631C890.19 767.01 890.605 766.388 890.743 765.766C890.881 765.144 890.95 764.661 890.95 764.246C890.95 763.832 890.881 763.486 890.743 763.141C890.605 762.795 890.398 762.45 890.121 762.104C889.845 761.759 889.362 761.345 888.809 760.93C888.188 760.516 887.29 760.17 886.185 759.963C885.011 759.756 883.699 759.756 882.249 759.963C880.592 760.239 878.865 760.17 877.139 759.894C875.412 759.617 873.686 759.065 871.959 758.236C870.233 757.407 868.645 756.232 867.195 754.574C865.675 752.916 864.501 751.051 863.673 748.771C862.43 745.593 862.222 742.692 862.982 739.928C863.742 737.165 865.399 734.678 868.023 732.398L864.432 723.141C864.363 722.864 864.363 722.588 864.432 722.381C864.501 722.104 864.709 721.897 864.985 721.828L876.862 717.199C877.139 717.13 877.415 717.13 877.691 717.199C877.967 717.337 878.175 717.545 878.244 717.752L881.351 725.766C883.492 725.006 885.702 724.384 887.843 723.831C888.05 723.762 888.326 723.831 888.602 723.97C888.878 724.108 889.016 724.315 889.086 724.591L891.917 734.54C891.986 734.816 891.917 735.092 891.779 735.369C891.641 735.645 891.364 735.783 891.088 735.852C887.497 736.405 884.39 737.234 881.627 738.27C880.523 738.685 879.625 739.168 878.934 739.79C878.244 740.412 877.829 741.034 877.691 741.655C877.553 742.277 877.484 742.83 877.484 743.244C877.484 743.659 877.553 744.004 877.691 744.35C877.829 744.626 878.036 744.971 878.313 745.317C878.589 745.662 879.072 746.077 879.694 746.491C880.315 746.906 881.213 747.251 882.387 747.458C883.561 747.666 884.873 747.666 886.323 747.458C887.981 747.251 889.707 747.32 891.433 747.597C893.16 747.873 894.886 748.426 896.613 749.255C898.339 750.084 899.927 751.327 901.378 752.916C902.483 754.505 903.657 756.44 904.485 758.65Z" fill="#202D37"/>
<path d="M890.95 791.397C890.674 791.397 890.398 791.328 890.121 791.258C889.638 791.051 889.224 790.637 889.016 790.153L886.254 783.037C884.321 783.659 882.525 784.212 880.868 784.626C880.384 784.764 879.832 784.695 879.418 784.419C878.934 784.143 878.658 783.797 878.451 783.314V783.245L875.619 773.296C875.481 772.675 875.55 772.122 875.896 771.638C876.241 771.155 876.724 770.809 877.346 770.74C878.105 770.602 878.934 770.464 879.694 770.326C880.522 770.187 881.558 769.911 882.801 769.566C884.044 769.22 885.149 768.875 886.185 768.46C887.221 768.115 888.05 767.631 888.602 767.079C889.085 766.595 889.431 766.181 889.5 765.766C889.638 765.282 889.707 764.799 889.638 764.522C889.638 764.108 889.569 763.901 889.5 763.763C889.431 763.555 889.293 763.279 889.016 763.072C888.878 762.864 888.533 762.588 887.842 762.104C887.359 761.759 886.599 761.483 885.633 761.345C884.597 761.206 883.354 761.206 882.042 761.345C880.246 761.621 878.451 761.552 876.586 761.275C874.791 760.93 872.926 760.377 871.131 759.548C869.335 758.719 867.609 757.407 866.021 755.68C864.432 753.952 863.189 751.88 862.291 749.6C860.979 746.284 860.772 743.037 861.532 740.066C862.292 737.303 863.949 734.816 866.366 732.536L863.051 723.97C862.844 723.486 862.844 722.933 863.051 722.45C863.258 721.897 863.673 721.482 864.156 721.275L876.034 716.647C876.517 716.439 877.07 716.439 877.622 716.716C878.175 716.923 878.52 717.337 878.727 717.89L881.489 725.006C883.354 724.384 885.218 723.831 887.083 723.348C887.566 723.21 888.119 723.279 888.533 723.486C889.086 723.762 889.431 724.177 889.569 724.729L892.4 734.678C892.538 735.23 892.469 735.783 892.193 736.336C891.848 736.888 891.364 737.234 890.743 737.303C887.29 737.856 884.183 738.616 881.558 739.652C880.522 739.997 879.763 740.481 879.21 740.964C878.658 741.448 878.382 741.932 878.244 742.346C878.105 743.037 878.036 743.382 878.036 743.659C878.036 743.935 878.105 744.211 878.175 744.419C878.244 744.557 878.313 744.764 878.589 745.11C878.727 745.317 879.072 745.593 879.763 746.077C880.246 746.422 881.006 746.699 881.973 746.837C883.009 747.044 884.252 746.975 885.564 746.837C887.359 746.629 889.155 746.699 890.95 746.975C892.815 747.251 894.61 747.873 896.406 748.702C898.27 749.6 899.927 750.913 901.516 752.571C903.035 754.298 904.278 756.301 905.245 758.65C906.695 762.243 907.04 765.559 906.35 768.529C905.659 771.293 904.002 773.78 901.309 776.06L904.554 784.35C904.761 784.903 904.761 785.386 904.554 785.939C904.347 786.422 903.933 786.837 903.449 787.044L891.572 791.673C891.433 791.328 891.226 791.397 890.95 791.397ZM886.876 780.688C887.29 780.688 887.704 780.965 887.842 781.379L890.95 789.393L902.759 784.695L899.237 775.783C899.099 775.369 899.237 774.885 899.582 774.609C902.275 772.536 903.864 770.257 904.485 767.77C905.107 765.282 904.761 762.381 903.518 759.134C902.69 757.061 901.585 755.196 900.204 753.676C898.823 752.156 897.372 751.051 895.784 750.291C894.196 749.531 892.538 748.978 890.881 748.702C889.224 748.426 887.635 748.426 886.047 748.564C884.528 748.771 883.078 748.771 881.835 748.564C880.522 748.357 879.487 748.011 878.727 747.458C878.036 746.975 877.484 746.491 877.139 746.077C876.793 745.662 876.517 745.248 876.379 744.833C876.241 744.419 876.103 743.935 876.103 743.382C876.103 742.899 876.172 742.277 876.31 741.586C876.517 740.757 877.001 739.928 877.829 739.168C878.589 738.477 879.625 737.856 880.868 737.441C883.561 736.405 886.807 735.576 890.467 735.023L887.704 725.144C885.633 725.697 883.423 726.388 881.351 727.078C880.799 727.286 880.246 727.009 880.039 726.457L876.931 718.443L865.054 723.071L868.714 732.329C868.852 732.743 868.783 733.227 868.438 733.503C866.021 735.576 864.432 737.925 863.742 740.481C863.051 743.037 863.258 745.8 864.432 748.702C865.261 750.775 866.366 752.64 867.747 754.16C869.128 755.68 870.647 756.854 872.236 757.545C873.824 758.305 875.481 758.858 877.139 759.134C878.796 759.41 880.384 759.41 881.973 759.203C883.561 758.996 884.942 758.996 886.254 759.203C887.566 759.41 888.602 759.825 889.362 760.308C890.052 760.792 890.536 761.275 890.881 761.69C891.226 762.105 891.503 762.588 891.641 763.003C891.779 763.417 891.917 763.901 891.917 764.453C891.917 765.006 891.848 765.559 891.71 766.25C891.502 767.079 891.019 767.839 890.19 768.599C889.431 769.289 888.395 769.911 887.083 770.395C886.047 770.809 884.804 771.224 883.492 771.569C882.18 771.915 881.144 772.191 880.315 772.329C879.487 772.536 878.658 772.675 877.829 772.744L880.592 782.623C880.592 782.623 880.592 782.623 880.661 782.623C882.456 782.139 884.528 781.517 886.807 780.757C886.669 780.688 886.807 780.688 886.876 780.688Z" fill="#202D37"/>
<path d="M286.082 741.103C285.944 741.103 285.806 741.103 285.667 741.034C284.355 740.826 283.458 739.583 283.734 738.201C295.335 672.087 313.221 631.119 326.342 601.205L327.654 598.235C363.494 516.231 394.846 511.878 403.755 512.5C414.32 471.049 425.784 435.332 433.587 412.534C438.214 398.993 441.805 389.252 443.531 384.762C442.495 384.623 441.46 384.416 440.493 384.209C429.029 381.722 420.121 376.471 415.978 369.701C413.699 365.97 413.008 362.033 414.044 358.233C415.287 353.328 418.809 349.597 423.85 347.594C432.827 344.14 445.672 346.696 457.343 354.364C458.447 355.124 458.793 356.575 458.033 357.68C457.274 358.786 455.823 359.131 454.718 358.371C444.291 351.601 433.173 349.183 425.576 352.084C421.986 353.466 419.638 356.022 418.74 359.407C418.049 361.963 418.533 364.589 420.121 367.145C423.505 372.672 431.515 377.3 441.598 379.442C443.393 379.856 445.327 380.133 447.26 380.34C448.02 380.409 448.641 380.824 449.056 381.515C449.47 382.136 449.539 382.965 449.263 383.656C449.194 383.794 444.774 395.124 438.283 414.123C430.341 437.197 418.671 473.605 408.036 515.816C407.898 516.438 407.484 516.99 406.862 517.336C406.31 517.681 405.619 517.75 404.998 517.543C404.929 517.543 396.849 515.471 383.935 524.314C371.781 532.673 352.929 552.638 332.143 600.169L330.831 603.14C317.848 632.846 300.1 673.468 288.568 739.03C288.292 740.274 287.256 741.103 286.082 741.103Z" fill="#202D37"/>
<path d="M448.918 371.635C448.158 371.635 447.398 371.29 446.915 370.599C446.086 369.494 440.355 365.832 433.656 365.832H433.587C432.275 365.832 431.17 364.727 431.17 363.414C431.17 362.102 432.275 360.996 433.587 360.996C433.656 360.996 433.656 360.996 433.725 360.996C441.943 360.996 449.194 365.349 450.92 367.836C451.68 368.941 451.473 370.461 450.368 371.221C449.884 371.497 449.401 371.635 448.918 371.635Z" fill="#202D37"/>
<path d="M553.677 618.2C552.848 618.2 551.95 617.717 551.536 616.957C548.912 612.052 525.916 568.942 527.228 556.576C534.272 488.666 554.229 413.57 554.436 412.81C554.644 412.119 555.058 411.567 555.679 411.29C556.301 411.014 557.061 410.945 557.682 411.221C580.195 420.824 606.505 430.358 612.789 430.289C611.546 425.66 602.638 409.563 585.926 387.525C566.798 362.24 547.462 342.758 532.891 334.053C531.717 333.362 531.372 331.911 532.062 330.737C532.753 329.562 534.203 329.217 535.377 329.908C570.181 350.633 615.206 417.646 617.623 429.874C617.761 430.427 618.038 432.154 617.071 433.397C615.275 435.746 611.408 436.99 583.717 426.765C573.289 422.896 563 418.682 558.304 416.748C554.713 430.703 538.208 496.818 531.924 557.06C530.957 566.248 548.774 601.758 555.679 614.677C556.301 615.851 555.887 617.302 554.713 617.924C554.436 618.131 554.022 618.2 553.677 618.2Z" fill="#202D37"/>
<path d="M527.09 532.811C508.514 532.811 486.83 528.39 465.284 520.168C442.495 511.464 422.952 499.512 411.627 487.491C410.729 486.524 410.729 485.004 411.765 484.106C412.732 483.208 414.251 483.208 415.149 484.244C436.28 506.697 491.042 530.186 532.822 527.906C534.134 527.837 535.308 528.873 535.377 530.186C535.446 531.498 534.41 532.673 533.098 532.742C531.095 532.742 529.093 532.811 527.09 532.811Z" fill="#202D37"/>
<path d="M537.034 386.696C535.998 386.696 535.031 386.005 534.755 384.969C534.341 383.725 535.1 382.344 536.343 381.929C544.216 379.511 554.644 381.791 555.058 381.86C556.37 382.136 557.199 383.449 556.922 384.762C556.646 386.074 555.334 386.903 554.022 386.627C553.953 386.627 544.423 384.554 537.794 386.558C537.517 386.696 537.31 386.696 537.034 386.696Z" fill="#202D37"/>
<path d="M501.746 407.352C500.848 407.352 499.951 406.8 499.536 405.902C496.429 398.855 492.078 394.295 482.963 388.63C481.858 387.939 481.512 386.42 482.203 385.314C482.894 384.209 484.413 383.863 485.518 384.554C493.943 389.805 499.951 394.848 503.956 404.036C504.508 405.28 503.956 406.662 502.713 407.214C502.368 407.283 502.022 407.352 501.746 407.352Z" fill="#202D37"/>
<path d="M446.846 382.896C446.846 382.896 442.426 394.226 435.866 413.432C403.824 412.05 407.276 383.794 415.287 387.87C421.709 391.186 431.308 387.525 440.976 381.929C442.841 382.275 444.774 382.62 446.846 382.896Z" fill="#202D37"/>
<path d="M435.797 415.85C435.728 415.85 435.728 415.85 435.659 415.85C415.77 415.021 409.901 404.382 408.312 399.822C406.448 394.503 407.207 388.976 410.108 386.351C411.834 384.831 414.113 384.623 416.254 385.66C420.881 388.078 428.753 386.074 439.664 379.718C440.217 379.442 440.769 379.304 441.391 379.442C443.186 379.857 445.12 380.133 447.053 380.34C447.813 380.409 448.434 380.824 448.849 381.515C449.263 382.136 449.332 382.965 449.056 383.656C448.987 383.794 444.567 395.124 438.076 414.123C437.8 415.159 436.833 415.85 435.797 415.85ZM413.699 389.874C413.561 389.874 413.492 389.943 413.353 390.012C412.318 390.91 411.558 394.295 412.939 398.233C414.182 401.687 418.602 409.701 434.14 410.876C438.49 398.233 441.874 389.183 443.531 384.831C442.841 384.692 442.081 384.554 441.391 384.416C429.029 391.394 420.397 393.19 414.182 390.012C413.906 389.943 413.768 389.874 413.699 389.874Z" fill="#202D37"/>
<path d="M454.442 350.357C452.163 357.68 457.964 361.204 459.967 362.792C461.969 364.312 456.445 371.083 459.967 373.224C463.489 375.366 474.331 366.454 475.919 363.414C486.761 363.414 516.11 350.633 517.422 331.981C517.422 331.981 537.31 329.01 549.948 349.39C560.375 366.178 583.44 373.086 590.829 356.575C596.354 344.278 575.43 354.019 573.082 346.834C569.974 337.369 570.941 318.509 551.053 311.255C531.164 304.07 513.969 318.163 513.969 318.163C503.542 304.83 468.392 304.83 454.442 350.357Z" fill="#202D37"/>
<path d="M461.279 375.988C460.312 375.988 459.483 375.78 458.724 375.297C455.064 373.086 456.514 368.803 457.343 366.178C457.55 365.625 457.826 364.796 457.895 364.243C455.616 362.516 449.539 357.957 452.094 349.597C462.108 316.92 481.72 310.011 489.73 308.492C499.26 306.695 508.652 309.251 514.314 314.847C519.494 311.324 534.617 302.688 551.881 308.906C569.007 315.124 571.77 329.148 573.841 339.442C574.325 341.86 574.808 344.209 575.361 345.936C575.844 347.386 579.918 347.317 582.957 347.248C587.1 347.179 591.451 347.11 593.384 350.012C595.18 352.706 593.592 356.229 593.108 357.404C590.208 363.898 584.752 367.767 577.847 368.181C567.143 368.872 554.851 361.618 547.945 350.495C538.415 335.158 524.535 333.984 519.632 334.053C516.386 352.637 489.454 364.934 477.162 365.763C474.607 369.079 468.116 374.261 463.489 375.573C462.729 375.85 461.969 375.988 461.279 375.988ZM461.141 371.152C463.42 371.635 472.328 365.072 473.709 362.309C474.123 361.48 474.952 360.996 475.85 360.996C486.623 360.996 513.762 348.354 514.936 331.773C515.005 330.668 515.903 329.701 517.008 329.563C517.905 329.424 538.622 326.592 551.95 348.077C557.889 357.611 568.593 364.105 577.432 363.483C582.543 363.138 586.41 360.375 588.62 355.539C589.448 353.742 589.379 352.913 589.31 352.775C588.827 352.084 584.89 352.153 583.026 352.153C578.261 352.222 572.391 352.361 570.803 347.525C570.112 345.452 569.629 343.034 569.146 340.409C567.212 330.737 564.864 318.716 550.293 313.466C531.993 306.834 515.696 319.822 515.557 319.96C515.074 320.374 514.384 320.581 513.762 320.512C513.14 320.443 512.519 320.098 512.105 319.614C507.892 314.226 499.26 311.669 490.697 313.258C475.643 316.022 463.351 329.77 456.859 350.979C455.409 355.677 458.102 358.164 460.934 360.305C461.141 360.444 461.348 360.651 461.555 360.789C463.765 362.516 462.798 365.349 462.038 367.628C461.624 368.665 461.003 370.53 461.141 371.152Z" fill="#202D37"/>
<path d="M510.24 579.443C508.928 579.443 507.754 579.029 506.787 578.2C504.646 576.335 502.368 571.291 498.846 563.278C496.153 557.129 491.733 546.835 489.523 545.799C486.485 544.901 470.878 553.606 462.522 558.234C456.928 561.343 452.094 564.037 449.125 565.281C439.457 569.288 425.3 556.714 411.282 531.567C410.66 530.393 411.075 528.942 412.249 528.251C413.423 527.63 414.873 528.044 415.563 529.149C427.51 550.566 440.562 563.554 447.329 560.721C450.023 559.616 454.995 556.853 460.174 553.951C478.888 543.519 487.451 539.443 491.526 541.308C495.186 542.966 498.362 549.944 503.265 561.205C505.613 566.525 508.445 573.157 509.895 574.4C509.964 574.469 510.033 574.538 510.378 574.469C512.864 574.193 517.629 569.426 520.046 566.248C520.875 565.212 522.394 565.005 523.43 565.834C524.466 566.663 524.673 568.183 523.844 569.219C522.601 570.808 516.248 578.753 510.862 579.236C510.654 579.443 510.447 579.443 510.24 579.443Z" fill="#202D37"/>
<path d="M489.592 577.647C484.827 577.647 477.369 576.058 475.159 574.331C472.466 572.19 470.878 566.317 467.563 553.329L467.287 552.155C466.941 550.842 467.77 549.53 469.013 549.184C470.325 548.839 471.637 549.668 471.983 550.911L472.259 552.086C474.4 560.514 476.609 569.219 478.129 570.462C479.648 571.706 489.04 573.295 491.042 572.604C492.285 572.051 496.843 567.284 500.227 563.139C501.056 562.103 502.575 561.965 503.611 562.794C504.646 563.623 504.785 565.143 503.956 566.179C501.539 569.15 495.531 576.058 492.631 577.095C491.94 577.509 490.835 577.647 489.592 577.647Z" fill="#202D37"/>
<path d="M495.186 653.986C493.874 653.986 492.838 652.95 492.769 651.707C492.631 649.427 490.006 595.54 489.454 575.091C489.385 573.778 490.49 572.673 491.802 572.604C493.114 572.535 494.219 573.64 494.288 574.953C494.909 595.402 497.534 649.219 497.603 651.499C497.672 652.812 496.636 653.986 495.324 654.055C495.324 653.986 495.255 653.986 495.186 653.986Z" fill="#202D37"/>
<path d="M457.274 683.969C457.205 683.969 457.135 683.969 457.066 683.969C455.754 683.9 454.719 682.726 454.857 681.344C459.276 623.934 474.192 572.259 474.331 571.775C474.676 570.462 476.057 569.772 477.3 570.117C478.612 570.462 479.303 571.844 478.957 573.088C478.819 573.571 464.041 624.832 459.691 681.689C459.622 683.002 458.517 683.969 457.274 683.969Z" fill="#202D37"/>
<path d="M585.167 745.386C584.476 745.386 583.716 745.04 583.302 744.488C582.473 743.452 582.681 741.932 583.716 741.103C651.392 687.354 655.19 666.353 655.259 666.145C655.328 665.178 656.019 664.418 656.917 664.142C670.452 659.789 686.059 653.572 687.923 651.016C688.683 646.525 685.506 630.636 680.051 612.121C674.043 591.602 669.002 580.134 666.999 577.785C665.065 578.338 660.853 580.065 656.433 581.861C644.279 586.836 627.637 593.606 619.695 592.57C594.904 589.254 586.686 596.162 579.435 602.172C577.639 603.692 575.913 605.143 573.979 606.387C571.355 608.114 567.281 610.601 562.516 613.502C549.671 621.309 530.197 633.123 521.358 641.827C510.723 652.259 503.403 653.088 494.979 654.055C493.114 654.263 491.18 654.47 489.178 654.815C482.686 655.852 481.582 660.895 480.684 668.425C480.062 673.676 479.303 679.686 473.502 680.031C463.143 680.722 451.058 685.351 448.089 692.881C444.429 702.208 439.871 711.603 428.684 715.058C419.569 717.89 414.182 722.864 405.619 736.267C404.929 737.372 403.409 737.718 402.304 737.027C401.199 736.336 400.854 734.816 401.545 733.711C409.555 721.068 415.77 714.021 427.234 710.498C436.418 707.665 440.078 700.066 443.531 691.154C447.398 681.344 461.624 676.024 473.157 675.265C474.745 675.126 475.228 672.847 475.85 667.872C476.678 661.033 477.783 651.707 488.418 650.048C490.559 649.703 492.562 649.496 494.495 649.289C502.644 648.39 508.583 647.7 518.044 638.442C527.297 629.323 546.219 617.855 560.099 609.426C564.795 606.594 568.869 604.107 571.424 602.38C573.151 601.205 574.739 599.893 576.465 598.442C584.131 592.086 593.592 584.141 620.524 587.734C627.222 588.632 643.865 581.861 654.845 577.371C661.405 574.677 665.273 573.157 667.137 572.88C668.311 572.673 669.416 573.157 670.452 574.262C674.457 578.545 680.879 597.198 685.161 611.913C687.371 619.444 694.345 644.66 692.757 652.19C692.343 654.194 690.547 656.888 674.595 663.037C668.518 665.385 662.372 667.458 659.817 668.287C657.952 674.297 647.249 696.888 586.893 744.833C586.202 745.179 585.65 745.386 585.167 745.386Z" fill="#202D37"/>
<path d="M657.538 668.84C656.571 668.84 655.674 668.287 655.328 667.32C636.13 620.895 628.327 589.53 628.189 589.254C627.844 587.941 628.672 586.628 629.984 586.352C631.297 586.007 632.609 586.836 632.885 588.148C632.954 588.425 640.757 619.513 659.748 665.524C660.231 666.767 659.679 668.149 658.436 668.701C658.16 668.771 657.883 668.84 657.538 668.84Z" fill="#202D37"/>
<path d="M794.547 598.995C792.406 598.995 790.265 598.649 788.263 597.82C778.871 594.228 775.142 592.777 775.142 592.708C773.899 592.224 773.277 590.773 773.761 589.599C774.244 588.355 775.694 587.734 776.868 588.217C776.937 588.217 780.597 589.737 789.92 593.26C794.616 595.057 800.209 593.882 802.696 590.635C804.974 587.595 804.215 583.243 800.624 578.407C790.472 564.866 752.008 553.537 740.683 553.882C728.805 554.227 709.607 562.379 671.073 580.411C669.83 580.963 668.449 580.48 667.828 579.236C667.275 577.993 667.759 576.611 669.002 575.989C708.157 557.682 727.769 549.391 740.475 549.046C752.629 548.631 792.82 560.031 804.491 575.506C811.535 584.901 808.289 591.257 806.563 593.537C804.008 597.06 799.381 598.995 794.547 598.995Z" fill="#202D37"/>
<path d="M783.36 620.48C779.078 620.48 773.415 618.96 766.164 614.262C765.06 613.572 764.714 612.052 765.474 610.946C766.164 609.841 767.684 609.496 768.789 610.256C778.871 616.75 786.812 617.579 790.472 612.535C793.511 608.39 792.682 601.205 788.815 598.027C787.779 597.198 787.641 595.679 788.47 594.642C789.298 593.606 790.818 593.468 791.854 594.297C797.654 599.133 798.828 609.15 794.34 615.368C793.166 616.888 789.851 620.48 783.36 620.48Z" fill="#202D37"/>
<path d="M768.443 637.889C764.645 637.889 760.226 637.06 755.184 634.988C753.941 634.504 753.389 633.053 753.872 631.81C754.356 630.566 755.806 630.014 757.049 630.497C768.512 635.195 775.694 632.57 778.387 628.977C780.459 626.214 780.183 622.622 777.697 619.582C776.868 618.546 777.006 617.026 778.042 616.197C779.078 615.368 780.597 615.506 781.426 616.542C785.293 621.24 785.638 627.25 782.255 631.879C779.769 635.195 775.142 637.889 768.443 637.889Z" fill="#202D37"/>
<path d="M746.069 655.437C745.517 655.437 745.033 655.437 744.481 655.437C726.802 655.23 696.901 644.384 688.13 641.067C686.887 640.584 686.266 639.202 686.749 637.959C687.233 636.715 688.614 636.093 689.857 636.577C698.42 639.824 727.7 650.463 744.55 650.67C754.977 650.808 761.192 649.358 764.645 645.903C766.993 643.555 768.167 640.1 768.167 635.472C768.167 634.159 769.272 633.054 770.584 633.054C771.896 633.054 773.001 634.159 773.001 635.472C773.001 641.413 771.344 646.111 768.029 649.358C762.712 654.539 754.08 655.437 746.069 655.437Z" fill="#202D37"/>
<path d="M1037.21 740.135C1035.97 740.135 1034.93 739.237 1034.8 737.994C1034.66 736.681 1035.62 735.507 1036.94 735.369C1059.52 733.089 1123.26 731.776 1131.68 733.02C1132.99 733.227 1133.89 734.47 1133.68 735.783C1133.48 737.096 1132.3 737.994 1130.92 737.787C1123.67 736.681 1060.62 737.787 1037.35 740.135C1037.35 740.135 1037.28 740.135 1037.21 740.135Z" fill="#202D37"/>
<path d="M1142.25 760.654C1135.89 760.654 1121.81 760.239 1104.54 759.825C1081.2 759.203 1052.13 758.374 1034.59 758.374C1033.28 758.374 1032.17 757.269 1032.17 755.956C1032.17 754.643 1033.28 753.538 1034.59 753.538C1052.2 753.538 1081.27 754.298 1104.68 754.989C1124.09 755.542 1140.87 755.956 1144.66 755.818C1145.98 755.749 1147.15 756.785 1147.15 758.098C1147.15 759.41 1146.18 760.585 1144.87 760.585C1144.25 760.654 1143.42 760.654 1142.25 760.654Z" fill="#202D37"/>
<path d="M1058.41 782.07C1048.26 782.07 1039.56 781.794 1035.14 780.896C1033.83 780.619 1033 779.376 1033.21 778.063C1033.41 776.751 1034.73 775.853 1036.04 776.129C1047.57 778.34 1091.84 776.543 1108.55 775.853C1112.55 775.714 1114.9 775.576 1115.66 775.576C1116.97 775.576 1118.08 776.682 1118.08 777.994C1118.08 779.307 1116.97 780.412 1115.66 780.412C1115.04 780.412 1112.42 780.55 1108.76 780.688C1097.08 781.241 1075.68 782.07 1058.41 782.07Z" fill="#202D37"/>
<path d="M1126.71 270.978C1122.36 270.978 1118.42 270.909 1115.04 270.771C1113.73 270.702 1112.69 269.597 1112.69 268.284C1112.76 266.971 1113.8 265.935 1115.18 265.935C1126.92 266.35 1146.94 265.866 1164.62 265.451C1178.99 265.106 1192.52 264.761 1200.32 264.968C1201.64 264.968 1202.74 266.073 1202.67 267.455C1202.67 268.768 1201.57 269.804 1200.26 269.804H1200.19C1192.45 269.597 1178.99 269.942 1164.69 270.287C1151.36 270.633 1137.76 270.978 1126.71 270.978Z" fill="#202D37"/>
<path d="M1123.88 294.122C1122.57 294.122 1121.46 293.086 1121.46 291.704C1121.46 290.391 1122.5 289.286 1123.88 289.286C1138.04 289.079 1165.38 288.111 1169.32 287.697C1170.63 287.559 1171.8 288.526 1171.94 289.839C1172.08 291.151 1171.11 292.326 1169.8 292.464C1165.66 292.947 1138.45 293.915 1123.88 294.122Z" fill="#202D37"/>
<path d="M1123.88 314.64C1122.57 314.64 1121.53 313.604 1121.46 312.291C1121.39 310.979 1122.43 309.804 1123.81 309.804C1134.44 309.39 1148.39 309.252 1163.24 309.113C1187 308.906 1211.51 308.699 1220.42 307.179C1221.73 306.972 1222.97 307.87 1223.18 309.182C1223.39 310.495 1222.49 311.739 1221.18 311.946C1211.86 313.466 1187.13 313.742 1163.24 313.949C1148.46 314.087 1134.51 314.226 1123.95 314.64H1123.88Z" fill="#202D37"/>
<path d="M1157.79 343.103C1148.32 343.103 1139.49 342.758 1133.06 341.929C1131.75 341.791 1130.78 340.547 1130.99 339.234C1131.2 337.922 1132.37 336.955 1133.68 337.162C1155.99 340.063 1206.75 336.609 1210.41 335.435C1211.65 335.02 1213.03 335.711 1213.45 337.024C1213.86 338.267 1213.17 339.649 1211.86 340.063C1208.47 341.1 1181.26 343.103 1157.79 343.103Z" fill="#202D37"/>
<path d="M883.285 648.529C877.208 648.529 875.205 647.7 874.1 646.801C873.341 646.18 872.857 645.282 872.788 644.314C869.404 562.587 874.445 497.992 874.515 497.37C874.584 496.196 875.55 495.229 876.793 495.16C895.439 494.054 912.703 499.305 913.463 499.512C914.429 499.788 915.12 500.755 915.189 501.792C915.189 502.69 917.192 592.293 908.214 644.66C908.007 645.696 907.178 646.525 906.143 646.663C906.073 646.663 899.375 647.63 892.262 648.183C888.602 648.39 885.633 648.529 883.285 648.529ZM877.622 643.209C880.73 644.176 892.884 643.416 903.726 641.965C911.598 593.951 910.562 516.3 910.355 503.588C905.866 502.414 892.953 499.374 879.141 499.788C878.382 511.602 874.722 570.531 877.622 643.209Z" fill="#202D37"/>
<path d="M947.922 646.801C942.743 646.801 937.425 646.663 933.144 646.387C931.901 646.318 930.934 645.212 930.934 643.969C930.934 642.933 931.003 541.308 935.077 483.761C935.146 482.793 935.768 481.964 936.735 481.619C945.988 478.441 969.26 481.412 970.227 481.481C971.401 481.619 972.299 482.586 972.368 483.761C972.368 484.59 975.337 564.176 970.503 644.038C970.434 645.282 969.398 646.249 968.224 646.318C967.534 646.456 958.004 646.801 947.922 646.801ZM935.768 641.758C945.781 642.311 960.352 641.896 965.807 641.689C970.02 569.979 968.017 499.028 967.603 486.109C960.559 485.349 946.748 484.313 939.842 485.833C936.113 538.614 935.768 626.49 935.768 641.758Z" fill="#202D37"/>
<path d="M1092.46 654.953C1089.49 654.953 1063.73 654.608 1058.69 653.019C1057.65 652.674 1056.96 651.707 1057.03 650.601C1057.1 649.496 1061.73 541.17 1070.08 476.23C1070.22 475.194 1071.05 474.296 1072.09 474.158C1089 471.532 1103.58 478.165 1104.2 478.441C1105.03 478.855 1105.58 479.685 1105.58 480.652C1105.58 481.688 1104.27 587.112 1094.87 652.881C1094.74 654.055 1093.7 654.953 1092.46 654.953ZM1061.93 648.736C1067.32 649.496 1080.93 649.91 1090.39 650.048C1098.81 589.046 1100.54 495.712 1100.74 482.172C1097.02 480.721 1086.45 477.267 1074.64 478.579C1067.04 538.614 1062.63 633.606 1061.93 648.736Z" fill="#202D37"/>
<path d="M1006.07 437.059C1017.53 434.157 1045.64 441.135 1045.64 441.135C1045.64 441.135 1031.48 625.523 1028.03 644.383C1028.03 644.383 1002.2 646.456 992.532 642.587C992.532 642.587 992.532 523.83 1006.07 437.059Z" fill="#FAD932"/>
<path d="M1013.11 646.041C1005.52 646.041 996.952 645.558 992.118 643.554C991.704 643.416 991.497 643.002 991.497 642.587C991.497 641.413 991.635 522.725 1005.03 436.852C1005.1 436.437 1005.38 436.092 1005.79 436.023C1017.39 433.121 1044.74 439.822 1045.84 440.099C1046.33 440.237 1046.67 440.651 1046.6 441.204C1046.05 448.734 1032.38 625.869 1028.93 644.591C1028.86 645.074 1028.44 645.42 1027.96 645.42C1027.54 645.489 1020.85 646.041 1013.11 646.041ZM993.568 641.896C1002.34 645.005 1022.85 643.762 1027.13 643.416C1030.65 621.793 1043.5 455.574 1044.53 441.895C1039.84 440.79 1017.32 435.746 1006.97 437.819C994.259 520.03 993.568 631.879 993.568 641.896Z" fill="#FAD932"/>
<path d="M1067.11 323.414C1066.7 332.188 1064.9 339.994 1062.07 346.834C1060.21 351.324 1057.86 355.469 1055.17 359.131C1037.42 383.38 1003.1 389.805 974.44 378.406C961.181 373.086 949.165 364.036 940.533 351.117C905.659 298.958 948.612 256.263 975.337 243.828C975.337 243.828 989.356 300.754 998.955 315.953C999.024 315.953 1046.6 318.716 1067.11 323.414Z" fill="#FFFEF2"/>
<path d="M1003.1 386.281C993.154 386.281 983.072 384.347 973.611 380.616C959.178 374.882 947.093 365.072 938.599 352.43C925.824 333.362 922.095 313.949 927.481 294.813C934.456 269.942 956.07 250.184 974.44 241.617C975.061 241.341 975.821 241.341 976.511 241.617C977.133 241.963 977.616 242.515 977.823 243.206C977.961 243.759 991.22 297.438 1000.47 313.604C1008.35 314.087 1048.81 316.782 1067.67 321.065C1068.84 321.341 1069.6 322.378 1069.53 323.552C1069.12 332.326 1067.39 340.478 1064.35 347.801C1062.49 352.361 1060.07 356.713 1057.17 360.651C1048.26 372.81 1035.21 381.1 1019.46 384.623C1014.15 385.729 1008.62 386.281 1003.1 386.281ZM973.818 247.282C957.106 255.918 938.323 273.88 932.108 296.056C927.136 313.811 930.658 331.842 942.604 349.666C950.546 361.549 961.871 370.668 975.406 376.057C1004.27 387.594 1037 379.857 1053.3 357.611C1055.93 354.019 1058.14 350.012 1059.93 345.798C1062.49 339.58 1064.08 332.671 1064.63 325.21C1043.57 320.927 999.438 318.233 998.955 318.233C998.195 318.164 997.435 317.749 997.021 317.127C988.458 303.656 976.857 259.234 973.818 247.282Z" fill="#202D37"/>
<path d="M1062.14 346.834C1060.28 351.324 1057.93 355.469 1055.24 359.131C1037.49 383.38 1003.17 389.805 974.509 378.406C982.588 347.939 999.024 315.953 999.024 315.953L1062.14 346.834Z" fill="#FFFEF2"/>
<path d="M1003.1 386.281C993.154 386.281 983.072 384.347 973.611 380.616C972.506 380.133 971.885 378.958 972.161 377.784C980.171 347.387 996.745 315.193 996.883 314.847C997.505 313.673 998.886 313.189 1000.13 313.811L1063.18 344.692C1064.35 345.245 1064.83 346.627 1064.35 347.801C1062.49 352.361 1060.07 356.713 1057.17 360.651C1048.26 372.81 1035.21 381.1 1019.46 384.623C1014.15 385.729 1008.62 386.281 1003.1 386.281ZM977.409 376.886C1005.79 387.249 1037.35 379.373 1053.3 357.68C1055.51 354.64 1057.45 351.393 1059.03 347.939L1000.2 319.131C996.469 326.523 984.246 352.153 977.409 376.886Z" fill="#202D37"/>
<path d="M988.527 237.61C990.046 256.401 1005.52 304.001 1005.52 304.001C1005.52 304.001 1064.35 309.321 1074.02 309.252C1074.02 254.882 1031.89 223.033 988.527 237.61Z" fill="#FAD932"/>
<path d="M1073.88 310.357C1063.8 310.357 1007.79 305.314 1005.38 305.106C1004.96 305.037 1004.62 304.761 1004.48 304.416C1003.86 302.481 988.941 256.401 987.422 237.748C987.353 237.265 987.698 236.85 988.113 236.712C1008.07 230.011 1028.86 232.843 1045.22 244.588C1064.14 258.198 1075.06 281.825 1075.06 309.39C1075.06 309.942 1074.57 310.426 1074.02 310.426C1074.02 310.357 1073.95 310.357 1073.88 310.357ZM1006.27 303.103C1012.63 303.656 1061.59 308.077 1072.98 308.284C1072.71 281.825 1062.21 259.303 1044.05 246.246C1028.51 235.054 1008.69 232.222 989.632 238.37C991.358 256.125 1004.48 297.438 1006.27 303.103Z" fill="#FAD932"/>
<path d="M1067.11 323.414C1066.42 337.922 1062 349.874 1055.24 359.131C1022.23 342.274 999.093 315.953 999.093 315.953C999.093 315.953 1046.6 318.716 1067.11 323.414Z" fill="#FFFEF2"/>
<path d="M1055.24 361.549C1054.89 361.549 1054.48 361.48 1054.13 361.273C1021.05 344.416 997.505 317.749 997.228 317.542C996.607 316.782 996.469 315.746 996.883 314.916C997.297 314.018 998.264 313.535 999.231 313.535C1001.16 313.673 1047.23 316.367 1067.67 321.065C1068.84 321.341 1069.6 322.378 1069.53 323.552C1068.84 337.853 1064.7 350.357 1057.17 360.582C1056.69 361.204 1056 361.549 1055.24 361.549ZM1005.03 318.716C1012.9 326.661 1031.14 343.656 1054.48 355.953C1060.35 347.317 1063.73 337.024 1064.63 325.279C1048.26 321.963 1018.01 319.614 1005.03 318.716Z" fill="#202D37"/>
</g>
</g>
<defs>
<clipPath id="clip0_3376_2662">
<rect width="1440" height="1024" fill="white"/>
</clipPath>
<clipPath id="clip1_3376_2662">
<rect width="1566" height="1175" fill="white" transform="translate(-63 -75)"/>
</clipPath>
</defs>
</svg>
