<svg width="1440" height="1024" viewBox="0 0 1440 1024" fill="none" xmlns="http://www.w3.org/2000/svg">
<g clip-path="url(#clip0_3457_4418)">
<rect width="1440" height="1024" fill="white"/>
<g clip-path="url(#clip1_3457_4418)">
<path d="M1515.84 -137.736H-76.9116V1162.74H1515.84V-137.736Z" fill="#FFFEF2"/>
<path d="M437.416 765.573C453.141 679.839 441.214 678.64 426.089 680.038C411.03 681.437 327.474 692.029 308.351 697.492C289.161 702.954 292.626 717.676 311.749 776.565C313.815 776.765 363.855 843.513 437.416 765.573Z" fill="#FFFEF2"/>
<path d="M1103.8 685.168C1030.77 725.004 923.959 738.327 807.42 720.941C803.156 720.274 798.891 719.608 794.56 718.875C710.072 704.686 653.169 667.248 618.054 619.884C580.54 569.19 568.014 507.171 573.477 450.081C578.341 398.92 597.665 351.756 626.316 320.247C742.788 192.212 1011.98 169.229 1144.18 370.808C1242.39 520.361 1206.61 629.077 1103.8 685.168Z" fill="#EF7136"/>
<path d="M1064.55 567.591C1044.03 531.619 1017.04 497.178 1000.25 476.128C998.386 473.796 996.653 471.598 995.054 469.666C991.723 465.536 989.057 462.205 987.192 459.74C985.659 457.675 984.66 456.276 984.327 455.61C983.86 454.544 981.595 450.214 978.13 443.952C963.604 417.173 928.823 354.554 928.823 354.554C933.42 349.225 936.952 344.295 939.617 339.765C956.275 310.921 936.952 297.931 918.895 314.185C910.166 322.645 910.699 330.839 910.699 330.839C910.699 330.839 919.561 340.632 916.229 346.96C912.898 353.222 879.849 329.973 879.849 329.973C879.849 329.973 876.184 341.564 862.324 349.758C853.196 355.154 844.001 356.153 836.472 355.154C819.814 393.658 809.819 428.498 814.483 429.63C819.547 430.829 851.464 405.182 851.464 405.182C851.464 405.182 883.513 458.608 888.711 499.31C888.977 501.442 889.177 503.507 889.31 505.572C889.51 508.836 888.844 518.629 887.578 532.618C886.445 544.675 884.913 559.93 883.047 576.851C880.182 602.564 876.65 632.009 872.852 659.921C835.272 598.434 788.564 517.629 760.978 494.181C739.256 475.662 725.464 472.264 719.733 471.731C702.009 441.021 668.827 445.285 634.912 460.207C634.912 460.207 630.98 441.554 621.385 439.423C615.522 438.157 594 443.286 573.744 450.214C560.884 454.611 548.557 459.74 540.961 464.337C528.101 472.197 538.829 502.974 541.761 515.764C544.693 528.554 552.622 556.999 552.622 556.999L505.98 543.743C505.98 543.743 487.39 514.898 478.994 517.696C469.932 520.694 473.264 568.324 476.262 573.72C480.06 580.515 494.786 576.118 505.447 567.858C505.447 567.858 567.68 602.631 570.479 607.161C573.211 611.691 577.808 628.145 587.537 628.944C591.135 629.211 603.661 625.347 618.254 620.018C643.24 610.958 674.291 597.835 677.023 594.837C681.42 590.107 679.221 584.245 679.221 584.245C695.013 576.318 705.141 567.791 712.204 557.133C723.731 564.327 737.257 564.26 739.856 565.726C748.651 570.789 765.909 610.692 807.553 721.074C924.092 738.46 1030.9 725.204 1103.93 685.301C1096.2 649.862 1083.14 600.1 1064.55 567.591ZM673.025 564.66L640.775 476.328C640.775 476.328 671.426 463.071 691.415 467.534C671.359 471.864 670.959 482.59 675.157 489.451C676.623 491.783 679.555 493.315 682.953 494.247C676.823 499.51 678.089 506.771 686.484 510.835C682.553 513.033 679.621 520.894 684.752 525.423C680.421 528.688 678.355 540.146 692.814 541.544C694.08 541.678 695.28 541.744 696.412 541.744C694.48 550.271 683.686 559.664 673.025 564.66Z" fill="#FFFEF2"/>
<path d="M875.784 375.671C874.585 376.604 872.919 376.337 871.986 375.138L867.788 369.676C866.855 368.477 867.122 366.811 868.321 365.879C869.521 364.946 871.186 365.213 872.119 366.412L876.317 371.874C877.25 373.073 876.983 374.805 875.784 375.671Z" fill="#202D37"/>
<path d="M852.93 379.069C851.73 380.001 850.064 379.735 849.132 378.536L844.934 373.073C844.001 371.874 844.267 370.209 845.467 369.276C846.666 368.344 848.332 368.61 849.265 369.809L853.463 375.272C854.329 376.471 854.129 378.136 852.93 379.069Z" fill="#202D37"/>
<path d="M859.992 743.057C859.859 743.057 859.659 743.057 859.526 742.99C858.26 742.724 857.46 741.525 857.727 740.259C870.12 677.973 887.711 520.094 886.911 505.505C884.846 469.866 857.194 419.771 850.731 408.446C847.799 410.778 842.135 415.174 836.205 419.504C818.148 432.628 815.416 432.028 813.95 431.629C812.951 431.362 812.151 430.696 811.618 429.697C809.952 426.233 811.818 415.841 817.282 398.787C822.612 382.066 830.275 362.548 838.87 343.829C839.403 342.63 840.803 342.164 841.935 342.697C843.135 343.229 843.601 344.628 843.068 345.761C823.945 387.596 814.816 420.57 815.616 426.965C820.28 425.566 836.538 413.909 849.931 403.184C850.464 402.784 851.13 402.584 851.797 402.717C852.463 402.851 853.063 403.25 853.396 403.783C854.862 406.248 889.177 463.871 891.576 505.239C892.508 520.96 874.984 677.774 862.324 741.192C862.058 742.324 861.058 743.057 859.992 743.057Z" fill="#202D37"/>
<path d="M1111.73 729.534C1110.59 729.534 1109.59 728.735 1109.39 727.535C1109.26 726.47 1093.34 622.749 1062.49 568.724C1043.03 534.683 1017.98 502.108 998.386 477.527C996.92 475.661 995.521 473.929 994.188 472.331C986.392 462.671 982.927 458.275 982.194 456.476C980.395 452.213 945.147 388.595 926.824 355.553C926.357 354.687 926.491 353.621 927.09 352.889C931.355 347.959 934.886 343.096 937.618 338.433C943.615 328.041 945.281 318.648 942.082 313.252C940.417 310.521 937.551 309.056 933.953 309.255C927.09 309.522 916.896 315.584 908.833 331.638C908.234 332.771 906.834 333.237 905.702 332.704C904.569 332.105 904.102 330.706 904.636 329.573C913.564 311.654 925.558 304.925 933.687 304.592C938.951 304.392 943.415 306.657 946.014 310.854C950.211 317.782 948.612 328.707 941.616 340.765C939.017 345.295 935.686 349.958 931.688 354.687C938.551 367.011 984.26 449.348 986.526 454.611C987.059 455.943 992.123 462.138 997.853 469.4C999.185 471.065 1000.58 472.797 1002.05 474.662C1021.77 499.377 1046.96 532.152 1066.62 566.459C1097.93 621.217 1113.92 725.803 1114.06 726.869C1114.26 728.135 1113.39 729.334 1112.13 729.534C1111.99 729.534 1111.86 729.534 1111.73 729.534Z" fill="#202D37"/>
<path d="M880.915 399.32C879.915 399.32 878.982 398.654 878.649 397.655C878.249 396.389 878.982 395.123 880.248 394.723C890.176 391.792 891.709 381.134 891.309 372.74C891.243 371.475 892.242 370.342 893.508 370.275C894.774 370.209 895.907 371.208 895.973 372.474C896.706 386.663 891.576 396.189 881.581 399.12C881.381 399.253 881.115 399.32 880.915 399.32Z" fill="#202D37"/>
<path d="M923.625 334.303C923.292 334.303 922.892 334.236 922.559 334.037C921.427 333.437 920.96 332.038 921.493 330.906C925.424 323.045 930.888 318.582 931.155 318.382C932.154 317.582 933.62 317.716 934.42 318.715C935.219 319.714 935.086 321.18 934.087 321.979C934.02 322.046 929.156 326.043 925.691 332.971C925.291 333.837 924.492 334.303 923.625 334.303Z" fill="#202D37"/>
<path d="M888.577 501.508C887.311 501.508 886.245 500.509 886.245 499.243C886.245 497.978 887.245 496.912 888.511 496.845C929.022 496.046 958.474 477.86 976.064 442.887C976.664 441.754 978.063 441.288 979.196 441.821C980.329 442.42 980.795 443.819 980.262 444.952C961.872 481.59 931.021 500.642 888.577 501.508Z" fill="#202D37"/>
<path d="M922.693 581.714C917.029 581.714 910.966 581.114 904.436 580.515C897.906 579.915 890.576 579.182 882.847 578.982C881.581 578.916 880.515 577.85 880.582 576.584C880.648 575.319 881.714 574.319 882.98 574.319C890.843 574.519 898.306 575.252 904.902 575.852C929.222 578.183 943.948 579.582 950.345 557.133C963.338 511.567 976.664 468.001 985.459 458.142C986.326 457.209 987.792 457.076 988.724 457.942C989.657 458.808 989.79 460.273 988.924 461.206C979.596 471.665 962.205 532.418 954.809 558.398C949.345 577.517 937.818 581.714 922.693 581.714Z" fill="#202D37"/>
<path d="M892.175 535.816C890.443 535.816 888.511 535.416 886.512 534.55C885.312 534.017 884.779 532.685 885.312 531.485C885.845 530.286 887.178 529.753 888.377 530.286C896.24 533.684 901.57 525.956 905.702 517.896C906.168 517.03 906.501 516.364 906.834 515.831C907.9 514.099 909.233 513.233 910.766 513.166C913.764 513.1 915.83 516.23 918.761 520.561C920.36 522.959 922.159 525.623 924.292 527.955C925.691 529.554 926.624 529.687 927.357 529.554C935.552 528.621 954.542 496.246 968.069 471.931C968.668 470.799 970.134 470.399 971.267 470.998C972.4 471.598 972.799 473.064 972.2 474.196C945.014 522.892 934.886 533.351 927.89 534.15C925.291 534.417 922.959 533.417 920.827 531.019C918.495 528.421 916.629 525.623 914.897 523.092C913.631 521.227 911.965 518.695 911.032 517.962C910.965 518.029 910.965 518.096 910.899 518.229C910.699 518.562 910.366 519.228 909.966 519.961C907.434 524.691 901.704 535.816 892.175 535.816Z" fill="#202D37"/>
<path d="M961.672 751.051C961.539 751.051 961.406 751.051 961.339 751.051C960.073 750.851 959.207 749.652 959.407 748.386C966.27 704.753 968.868 662.585 971.4 621.816C974.865 565.393 978.13 512.167 992.856 468.933C993.255 467.734 994.588 467.068 995.787 467.468C996.987 467.867 997.653 469.2 997.253 470.399C982.728 513.033 979.463 565.992 975.998 622.083C973.466 662.985 970.867 705.286 964.004 749.119C963.804 750.185 962.805 751.051 961.672 751.051Z" fill="#202D37"/>
<path d="M819.547 344.828C812.151 346.294 837.204 364.28 862.191 349.558C876.117 341.364 879.715 329.773 879.715 329.773C879.715 329.773 912.764 353.022 916.096 346.76C919.428 340.498 910.566 330.639 910.566 330.639C910.566 330.639 910.033 322.379 918.761 313.985C918.761 313.985 922.226 301.328 909.3 295.333C895.573 288.871 884.979 302.061 884.979 302.061C884.979 302.061 876.517 292.069 862.458 298.264C848.399 304.459 844.8 312.586 842.735 322.179C840.736 331.638 835.938 341.564 819.547 344.828Z" fill="#202D37"/>
<path d="M841.402 357.685C832.14 357.685 824.278 354.687 819.747 351.423C816.815 349.291 815.616 347.293 816.016 345.295C816.149 344.628 816.749 343.03 819.147 342.563C834.672 339.499 838.67 330.306 840.536 321.713C843.001 310.654 847.332 302.527 861.592 296.199C873.052 291.136 881.381 295.932 884.912 298.797C889.843 293.934 899.638 288.205 910.366 293.201C921.96 298.664 922.426 309.589 921.093 314.585C920.96 314.984 920.76 315.384 920.494 315.651C914.097 321.846 913.164 327.775 913.031 329.773C915.296 332.438 921.826 341.164 918.295 347.826C917.895 348.559 917.095 349.558 915.43 349.958C908.633 351.556 889.51 339.233 880.915 333.304C878.916 337.501 873.918 345.428 863.524 351.49C855.928 356.02 848.265 357.685 841.402 357.685ZM821.479 346.827C822.679 347.893 825.211 349.558 829.142 350.957C834.073 352.689 847.066 355.753 861.059 347.559C873.918 339.965 877.516 329.24 877.583 329.107C877.783 328.374 878.383 327.841 879.049 327.575C879.782 327.308 880.515 327.442 881.115 327.908C881.181 327.974 888.444 333.037 896.373 337.767C909.833 345.761 913.564 345.694 914.23 345.561C916.096 341.564 910.899 334.503 908.9 332.305C908.567 331.905 908.367 331.438 908.3 330.906C908.3 330.506 907.834 321.846 916.696 312.919C917.096 310.654 917.962 301.994 908.367 297.531C896.506 292.002 887.245 303.193 886.845 303.66C886.378 304.193 885.779 304.526 885.046 304.526C884.379 304.526 883.713 304.259 883.247 303.726C882.98 303.393 875.651 295.133 863.457 300.595C850.931 306.125 847.199 312.919 845.067 322.845C843.201 331.239 838.737 342.83 821.479 346.827Z" fill="#202D37"/>
<path d="M872.719 662.052C871.919 662.052 871.187 661.652 870.72 660.92C865.523 652.393 860.192 643.6 854.595 634.34C820.946 578.716 782.767 515.698 759.312 495.713C737.657 477.26 724.131 474.263 719.334 473.796C718.068 473.663 717.135 472.531 717.201 471.265C717.335 469.999 718.467 469.067 719.733 469.133C726.263 469.733 740.389 473.53 762.311 492.116C786.365 512.567 824.744 575.985 858.593 631.875C864.19 641.135 869.454 649.862 874.718 658.388C875.384 659.454 875.051 660.92 873.918 661.586C873.519 661.919 873.119 662.052 872.719 662.052Z" fill="#202D37"/>
<path d="M813.217 738.594C812.284 738.594 811.351 737.994 811.018 737.062C771.306 631.276 747.985 572.987 738.59 567.591C738.124 567.325 736.058 566.992 734.259 566.659C728.795 565.726 719.6 564.194 711.338 559.198C710.205 558.531 709.872 557.066 710.538 556C711.205 554.868 712.67 554.534 713.736 555.201C721.199 559.73 729.528 561.129 735.059 562.062C737.99 562.528 739.789 562.861 740.989 563.528C750.717 569.057 768.108 609.226 815.483 735.396C815.949 736.595 815.349 737.928 814.15 738.394C813.817 738.527 813.484 738.594 813.217 738.594Z" fill="#202D37"/>
<path d="M738.39 548.006C738.124 548.006 737.857 547.94 737.591 547.873C726.73 543.876 720.666 527.955 724.064 513.566C716.602 511.9 698.944 507.038 699.344 497.511C699.411 494.98 700.543 492.848 702.542 491.183C708.139 486.586 721.066 485.854 742.121 489.051C743.387 489.251 744.254 490.45 744.054 491.716C743.854 492.982 742.654 493.848 741.388 493.648C715.935 489.784 707.94 492.649 705.474 494.714C704.475 495.513 704.008 496.446 704.008 497.645C703.808 502.774 717.534 507.637 727.396 509.436C728.062 509.569 728.595 509.969 728.995 510.502C729.328 511.101 729.395 511.767 729.195 512.433C725.264 524.757 730.261 540.145 739.19 543.41C740.389 543.876 740.989 545.208 740.589 546.407C740.189 547.407 739.323 548.006 738.39 548.006Z" fill="#202D37"/>
<path d="M696.879 498.111C689.549 498.111 677.223 497.112 673.225 490.65C670.559 486.32 670.026 481.457 671.759 477.327C674.224 471.531 680.687 467.468 690.949 465.269C692.215 465.003 693.481 465.802 693.747 467.068C694.014 468.334 693.214 469.599 691.948 469.866C683.353 471.731 677.889 474.929 676.023 479.192C674.424 482.923 676.023 486.453 677.156 488.252C680.154 493.115 693.88 493.981 701.876 493.315C703.142 493.248 704.275 494.181 704.408 495.446C704.541 496.712 703.542 497.845 702.276 497.978C701.543 497.978 699.544 498.111 696.879 498.111Z" fill="#202D37"/>
<path d="M699.877 516.097C697.812 516.097 695.413 515.831 692.748 515.298C684.219 513.499 678.555 509.369 677.156 503.973C676.09 499.91 677.689 495.713 681.487 492.449C682.486 491.583 683.952 491.716 684.752 492.715C685.618 493.714 685.485 495.18 684.485 495.979C682.02 498.111 681.021 500.509 681.62 502.774C682.553 506.371 687.084 509.369 693.68 510.701C707.14 513.499 710.205 506.904 710.338 506.638C710.805 505.439 712.137 504.906 713.337 505.372C714.536 505.838 715.136 507.237 714.603 508.436C714.536 508.769 711.471 516.097 699.877 516.097Z" fill="#202D37"/>
<path d="M695.946 530.953C694.747 530.953 693.547 530.886 692.348 530.753C682.953 529.554 680.554 524.358 679.954 521.426C678.888 516.164 681.953 510.768 685.418 508.836C686.551 508.17 687.95 508.57 688.616 509.702C689.283 510.835 688.883 512.234 687.75 512.9C685.751 514.032 684.019 517.563 684.552 520.56C685.285 524.424 689.549 525.756 692.948 526.223C702.809 527.489 714.536 521.893 718.001 516.164C719.6 513.499 718.601 512.034 718.267 511.567C717.535 510.502 717.801 509.036 718.867 508.303C719.933 507.57 721.399 507.837 722.132 508.903C724.131 511.767 724.064 515.165 721.999 518.562C718.068 524.824 706.94 530.953 695.946 530.953Z" fill="#202D37"/>
<path d="M696.479 544.009C695.28 544.009 694.014 543.943 692.681 543.809C683.219 542.877 680.487 538.014 679.688 535.216C678.355 530.42 680.621 525.623 683.419 523.492C684.419 522.692 685.885 522.959 686.684 523.958C687.484 524.957 687.217 526.423 686.218 527.222C684.619 528.421 683.419 531.352 684.152 533.95C684.952 536.881 688.083 538.68 693.081 539.146C703.675 540.145 708.206 536.482 708.872 533.018C709.272 531.086 708.339 529.354 706.74 528.887C705.474 528.488 704.808 527.222 705.141 525.956C705.541 524.691 706.807 524.024 708.073 524.358C712.004 525.557 714.27 529.554 713.47 533.884C712.537 538.813 707.54 544.009 696.479 544.009Z" fill="#202D37"/>
<path d="M687.55 482.323C686.751 482.323 685.951 481.923 685.485 481.124C684.885 479.992 685.218 478.593 686.351 477.926C695.213 472.93 704.875 474.063 705.341 474.129C706.607 474.263 707.54 475.462 707.34 476.727C707.207 477.993 706.007 478.926 704.741 478.726C704.675 478.726 696.146 477.727 688.617 481.99C688.35 482.19 687.95 482.323 687.55 482.323Z" fill="#202D37"/>
<path d="M673.025 566.992C672.692 566.992 672.425 566.925 672.159 566.792C671.559 566.525 671.092 566.059 670.826 565.459L638.576 477.127C638.177 475.995 638.71 474.662 639.842 474.196C641.975 473.263 691.415 452.146 706.54 474.396C708.806 475.062 714.403 476.994 717.001 481.324C718.467 483.789 718.801 486.653 717.868 489.651C717.468 490.916 716.202 491.583 714.936 491.183C713.67 490.783 713.004 489.518 713.403 488.252C713.936 486.453 713.803 484.988 713.004 483.655C710.871 480.058 704.675 478.659 704.608 478.659C704.008 478.526 703.409 478.126 703.075 477.593C692.148 459.807 653.102 473.863 643.774 477.593L674.357 561.396C684.485 556.067 692.681 547.74 694.214 541.145C694.48 539.879 695.746 539.08 697.012 539.413C698.278 539.679 699.078 540.945 698.744 542.211C696.412 552.203 684.285 561.929 674.024 566.792C673.691 566.925 673.358 566.992 673.025 566.992Z" fill="#202D37"/>
<path d="M587.736 631.143C587.537 631.143 587.337 631.143 587.203 631.143C578.208 630.41 573.477 619.618 570.346 612.49C569.546 610.758 568.88 609.226 568.347 608.36C565.548 604.896 528.901 583.646 505.513 570.589C496.851 576.917 486.657 580.381 480.327 579.049C477.528 578.449 475.396 576.984 474.13 574.786C471.065 569.323 468.533 533.417 473.397 520.827C474.596 517.829 476.129 516.031 478.128 515.364C482.725 513.832 488.855 517.896 497.251 528.088C501.982 533.75 505.913 539.613 507.246 541.611L549.024 553.469C546.692 545.142 541.494 525.956 539.229 516.164C538.829 514.299 538.229 512.1 537.563 509.502C533.365 493.714 527.102 469.799 539.495 462.205C558.419 450.614 610.591 434.56 621.585 436.958C630.247 438.89 634.578 451.08 636.178 456.809C663.63 445.151 684.818 443.153 700.81 450.681C714.07 456.876 723.598 469.799 729.062 489.051C729.395 490.317 728.729 491.583 727.463 491.916C726.197 492.249 724.931 491.583 724.597 490.317C719.467 472.464 710.871 460.54 698.878 454.877C683.619 447.75 662.897 450.081 635.511 462.205C634.845 462.472 634.112 462.472 633.512 462.138C632.913 461.805 632.446 461.206 632.313 460.54C631.313 455.743 627.249 443.02 620.586 441.554C612.39 439.756 561.95 453.945 541.894 466.202C532.432 471.998 538.429 494.78 542.027 508.37C542.694 510.968 543.293 513.233 543.76 515.165C546.625 527.755 554.554 556 554.621 556.266C554.821 557.066 554.621 557.932 554.021 558.531C553.421 559.131 552.555 559.331 551.756 559.131L505.114 545.874C504.58 545.741 504.114 545.341 503.781 544.875C495.319 531.685 483.525 518.429 479.527 519.761C479.061 519.894 478.394 520.694 477.661 522.492C472.864 534.75 476.129 568.923 478.128 572.454C478.728 573.453 479.66 574.119 481.193 574.386C486.457 575.452 496.185 571.788 503.848 565.859C504.581 565.26 505.58 565.193 506.446 565.659C506.579 565.726 522.238 574.453 537.963 583.646C570.279 602.498 571.678 604.763 572.345 605.829C573.011 606.961 573.744 608.626 574.61 610.558C577.275 616.687 581.407 625.947 587.603 626.479C587.737 626.479 587.803 626.479 587.936 626.479C598.398 626.479 670.892 597.368 675.224 593.105C678.555 589.508 676.956 584.978 676.956 584.911C676.556 583.779 677.023 582.58 678.089 582.047C707.806 567.125 716.535 550.204 723.065 522.226C723.331 520.96 724.597 520.161 725.863 520.494C727.129 520.76 727.929 522.026 727.596 523.292C720.866 552.203 711.871 569.856 681.82 585.378C682.22 587.909 682.22 592.439 678.622 596.303C674.69 600.499 636.644 615.355 635.045 616.021C623.184 620.617 595.332 631.143 587.736 631.143Z" fill="#202D37"/>
<path d="M311.749 778.83C310.75 778.83 309.884 778.23 309.551 777.231C294.892 732.199 289.894 714.212 295.358 703.82C297.557 699.69 301.488 696.959 307.685 695.16C326.875 689.698 409.564 679.106 425.889 677.64C431.819 677.107 437.416 676.974 441.547 681.504C447.144 687.633 451.342 702.488 439.682 765.906C439.482 767.172 438.216 768.038 436.95 767.771C435.684 767.572 434.818 766.306 435.084 765.04C443.813 717.477 444.746 691.896 438.083 684.635C435.351 681.637 431.286 681.77 426.289 682.237C410.564 683.636 327.541 694.294 308.951 699.624C303.954 701.022 301.022 703.021 299.423 705.952C294.825 714.612 300.289 733.864 313.948 775.699C314.348 776.898 313.682 778.23 312.482 778.63C312.216 778.83 312.016 778.83 311.749 778.83Z" fill="#202D37"/>
<path d="M298.623 735.463C297.357 735.463 296.357 734.464 296.291 733.198C296.224 731.932 297.29 730.866 298.556 730.8C337.669 729.8 427.755 716.677 428.621 716.544C429.887 716.344 431.086 717.21 431.286 718.542C431.486 719.808 430.62 721.007 429.287 721.207C428.421 721.34 338.002 734.464 298.623 735.463Z" fill="#202D37"/>
<path d="M363.788 690.231C363.655 690.231 363.522 690.231 363.389 690.164C347.864 687.3 327.941 676.574 321.411 663.451C318.812 658.255 318.679 653.059 320.944 648.463C323.343 643.666 327.741 641.668 333.338 642.867C340.467 644.332 349.996 651.194 358.858 661.12C365.587 668.647 372.85 679.372 373.25 686.833C373.317 688.099 372.317 689.231 371.051 689.298C369.785 689.365 368.653 688.365 368.586 687.1C367.986 676.241 345.865 650.328 332.338 647.463C327.674 646.464 325.942 648.796 325.009 650.594C323.343 653.858 323.543 657.522 325.475 661.453C330.673 671.845 347.997 682.77 364.122 685.701C365.388 685.901 366.254 687.166 365.987 688.432C365.854 689.431 364.855 690.231 363.788 690.231Z" fill="#202D37"/>
<path d="M373.05 688.898C372.051 688.898 371.118 688.232 370.785 687.166C370.452 685.901 371.185 684.635 372.384 684.302C383.978 681.038 401.702 667.315 404.034 659.854C404.567 658.122 404.034 657.522 403.834 657.256C402.368 655.524 399.303 655.857 397.637 656.19C388.509 657.989 375.982 668.314 371.851 680.838C371.451 682.037 370.118 682.703 368.919 682.303C367.72 681.904 367.053 680.571 367.453 679.372C372.184 664.85 386.376 653.659 396.771 651.594C401.435 650.661 405.233 651.594 407.432 654.258C408.498 655.524 409.631 657.789 408.565 661.253C405.633 670.979 385.777 685.501 373.717 688.832C373.45 688.898 373.25 688.898 373.05 688.898Z" fill="#202D37"/>
<path d="M367.187 675.842C366.854 675.842 366.52 675.775 366.254 675.642C365.054 675.109 364.588 673.71 365.054 672.577C373.05 654.858 375.982 645.865 356.659 635.273C354.393 634.007 352.061 632.808 349.596 631.542C329.607 621.084 306.885 609.226 306.552 577.65C306.286 551.137 315.347 539.946 335.27 515.431C338.202 511.767 341.267 508.037 344.599 503.84C368.852 473.33 392.507 440.755 391.84 406.781C391.84 405.515 392.84 404.449 394.106 404.383C395.372 404.316 396.438 405.382 396.504 406.648C397.171 442.154 372.984 475.528 348.197 506.704C344.799 510.968 341.6 514.898 338.802 518.362C319.079 542.744 310.883 552.802 311.15 577.65C311.483 606.428 331.939 617.087 351.662 627.412C354.127 628.744 356.526 629.943 358.858 631.209C381.179 643.466 377.714 655.724 369.252 674.509C368.919 675.309 368.119 675.842 367.187 675.842Z" fill="#202D37"/>
<path d="M394.239 414.375C393.839 414.375 393.439 414.308 393.106 414.109C392.373 413.709 391.974 412.976 391.907 412.177C391.307 399.253 395.172 371.608 404.7 364.746C407.232 362.948 410.031 362.548 412.896 363.614C416.827 365.146 419.226 368.743 419.559 373.873C420.425 385.73 410.031 405.848 395.372 414.109C395.039 414.308 394.639 414.375 394.239 414.375ZM409.764 367.677C408.965 367.677 408.232 367.944 407.432 368.543C401.035 373.207 396.771 393.857 396.505 407.847C407.699 399.52 415.561 383.532 414.895 374.206C414.628 370.942 413.429 368.81 411.163 368.01C410.697 367.744 410.231 367.677 409.764 367.677Z" fill="#202D37"/>
<path d="M394.239 414.375C394.172 414.375 394.039 414.375 393.972 414.375C367.053 411.177 347.53 396.189 342.733 383.732C340.667 378.203 341.334 373.14 344.732 369.343C346.797 367.011 350.595 364.613 357.059 366.212C372.051 369.876 391.574 392.325 396.438 411.511C396.638 412.243 396.438 413.043 395.905 413.642C395.572 414.109 394.905 414.375 394.239 414.375ZM353.127 370.342C351.062 370.342 349.463 371.008 348.263 372.407C346.064 374.939 345.665 378.136 347.131 382.066C351.195 392.858 368.519 405.515 390.974 409.246C384.91 391.259 367.453 373.473 355.992 370.742C354.993 370.475 353.994 370.342 353.127 370.342Z" fill="#202D37"/>
<path d="M355.793 495.58C355.326 495.58 354.86 495.446 354.46 495.113C338.202 483.389 330.206 463.671 331.939 451.413C332.738 445.618 335.67 441.488 340.068 439.889C341.867 439.223 344.732 439.09 348.197 442.287C356.193 449.681 363.789 472.864 358.058 493.781C357.858 494.514 357.325 495.113 356.592 495.38C356.326 495.58 356.059 495.58 355.793 495.58ZM342.2 444.286C342 444.286 341.867 444.286 341.667 444.352C338.135 445.618 336.936 449.282 336.536 452.146C335.137 462.338 341.4 478.459 354.327 489.251C357.925 471.198 351.528 451.88 344.998 445.818C344.332 445.152 343.199 444.286 342.2 444.286Z" fill="#202D37"/>
<path d="M355.926 513.366C351.395 513.366 346.864 512.7 342.6 511.234C341.867 510.968 341.267 510.302 341.067 509.502C340.867 508.703 341.134 507.903 341.733 507.304C351.795 497.645 368.919 487.852 380.113 488.185C383.711 488.318 386.576 489.451 388.509 491.583C390.774 494.047 390.841 497.245 388.842 500.309C384.577 506.971 370.252 513.366 355.926 513.366ZM348.13 507.903C363.455 511.101 381.179 503.64 385.044 497.845C386.243 495.979 385.577 495.247 385.177 494.847C384.111 493.648 382.379 493.048 380.046 492.915C371.184 492.649 357.458 500.043 348.13 507.903Z" fill="#202D37"/>
<path d="M327.208 617.42C326.941 617.42 326.675 617.353 326.408 617.287C325.742 617.02 325.209 616.487 324.942 615.754C317.746 592.505 322.943 575.785 329.607 568.59C333.071 564.793 337.203 563.261 341.2 564.127C343.333 564.593 346.065 566.392 347.131 572.121C349.263 583.912 343.066 607.228 328.407 616.953C328.074 617.287 327.674 617.42 327.208 617.42ZM339.068 568.59C337.069 568.59 335.004 569.723 333.071 571.788C327.141 578.183 323.61 592.705 328.474 611.158C339.135 601.832 344.332 582.713 342.6 573.054C342.133 570.589 341.267 568.99 340.201 568.724C339.868 568.657 339.468 568.59 339.068 568.59Z" fill="#202D37"/>
<path d="M444.279 524.957C444.079 524.957 443.879 524.957 443.679 524.89C443.08 524.757 429.287 520.894 421.291 517.829C420.092 517.363 419.492 516.031 419.959 514.832C420.425 513.632 421.758 513.033 422.957 513.499C430.753 516.497 444.812 520.361 444.945 520.427C446.211 520.76 446.944 522.026 446.545 523.292C446.211 524.291 445.279 524.957 444.279 524.957Z" fill="#202D37"/>
<path d="M433.951 551.204C433.019 551.204 432.086 550.604 431.753 549.605C431.353 548.406 431.953 547.074 433.219 546.607C443.08 543.21 451.276 540.212 451.342 540.146C452.542 539.679 453.874 540.345 454.341 541.544C454.807 542.744 454.141 544.076 452.941 544.542C452.875 544.542 444.612 547.607 434.751 551.004C434.418 551.137 434.151 551.204 433.951 551.204Z" fill="#202D37"/>
<path d="M404.5 560.597C403.434 560.597 402.501 559.864 402.235 558.865C401.902 557.599 402.701 556.333 403.9 556C407.232 555.134 411.963 553.735 418.026 551.737C419.226 551.337 420.558 552.003 420.958 553.202C421.358 554.401 420.692 555.734 419.492 556.133C413.295 558.132 408.431 559.597 405.033 560.463C404.9 560.53 404.7 560.597 404.5 560.597Z" fill="#202D37"/>
<path d="M429.354 580.381C428.687 580.381 428.088 580.115 427.621 579.582C426.755 578.649 426.822 577.117 427.821 576.318C436.75 568.324 451.342 561.862 451.942 561.596C453.141 561.063 454.474 561.596 455.007 562.795C455.54 563.994 455.007 565.326 453.807 565.859C453.674 565.926 439.282 572.321 430.886 579.848C430.42 580.182 429.887 580.381 429.354 580.381Z" fill="#202D37"/>
<path d="M307.352 633.541C303.687 633.541 300.422 632.941 297.757 631.809C293.892 630.143 291.693 627.212 291.827 623.815C291.893 621.683 292.826 618.619 296.891 616.221C305.619 611.025 322.743 611.824 335.137 618.019C335.803 618.352 336.27 619.018 336.403 619.751C336.536 620.484 336.27 621.217 335.737 621.75C327.408 629.81 316.347 633.541 307.352 633.541ZM312.349 617.42C306.885 617.42 302.154 618.419 299.223 620.151C297.424 621.217 296.491 622.482 296.424 623.881C296.357 625.68 298.09 626.812 299.556 627.479C305.819 630.21 319.279 629.144 329.74 620.684C324.076 618.419 317.879 617.42 312.349 617.42Z" fill="#202D37"/>
<path d="M365.921 640.336C365.521 640.336 365.188 640.269 364.788 640.069C363.655 639.47 363.255 638.004 363.855 636.871C364.855 635.073 369.852 630.276 371.984 628.278C372.917 627.412 374.383 627.479 375.249 628.411C376.115 629.344 376.049 630.809 375.116 631.675C372.051 634.54 368.386 638.204 367.853 639.07C367.587 639.869 366.787 640.336 365.921 640.336Z" fill="#202D37"/>
<path d="M308.951 579.915C308.818 579.915 308.618 579.915 308.484 579.848L292.426 576.518C291.16 576.251 290.361 575.052 290.627 573.786C290.894 572.521 292.093 571.721 293.359 571.988L309.417 575.319C310.683 575.585 311.483 576.784 311.216 578.05C310.95 579.182 310.017 579.915 308.951 579.915Z" fill="#202D37"/>
<path d="M402.102 449.148C401.968 449.148 401.902 449.148 401.768 449.148C395.238 448.216 387.909 447.283 386.31 447.283C385.843 447.416 385.377 447.35 384.844 447.15C383.645 446.617 383.112 445.285 383.645 444.086C384.378 442.354 385.91 442.553 388.642 442.82C390.041 442.953 391.907 443.153 394.306 443.486C398.304 444.019 402.368 444.552 402.435 444.552C403.701 444.752 404.567 445.884 404.434 447.217C404.3 448.282 403.301 449.148 402.102 449.148ZM387.976 445.884C387.909 446.018 387.842 446.217 387.709 446.351C387.776 446.217 387.909 446.084 387.976 445.884Z" fill="#202D37"/>
<path d="M1037.83 440.222C1033.17 449.015 1017.91 445.684 1016.04 459.674C1014.84 468.4 1008.71 474.196 1000.25 476.061C991.323 464.87 985.193 457.409 984.393 455.544C982.061 450.014 928.889 354.421 928.889 354.421C933.487 349.092 937.018 344.162 939.617 339.632C940.483 346.76 943.548 351.956 949.878 353.022C958.807 354.554 964.071 358.418 961.672 369.409C959.34 380.401 968.402 386.663 978.196 384.798C987.991 382.932 1002.85 383.865 1005.65 396.988C1008.45 410.112 1007.98 420.57 1022.77 421.37C1037.63 422.102 1041.96 432.561 1037.83 440.222Z" fill="#202D37"/>
<path d="M1000.25 478.459C999.519 478.459 998.852 478.126 998.452 477.593C996.987 475.728 995.587 473.996 994.255 472.397C986.459 462.738 982.994 458.341 982.261 456.543C980.462 452.279 945.214 388.661 926.89 355.62C926.424 354.754 926.557 353.688 927.157 352.955C931.421 348.026 934.953 343.163 937.685 338.5C938.218 337.634 939.217 337.167 940.15 337.367C941.149 337.567 941.882 338.367 942.016 339.366C942.815 346.094 945.614 349.958 950.345 350.757C956.475 351.823 960.339 353.821 962.605 357.152C964.737 360.35 965.203 364.48 964.071 369.942C963.204 373.873 964.004 377.204 966.336 379.602C969.001 382.333 973.332 383.465 977.863 382.599C989.924 380.334 1005.05 382.666 1007.98 396.589C1008.38 398.521 1008.71 400.319 1009.05 402.051C1010.91 412.31 1012.05 418.505 1022.97 419.105C1030.97 419.505 1036.97 422.635 1039.96 427.831C1042.3 431.962 1042.36 437.091 1040.03 441.421C1037.7 445.818 1033.37 447.616 1029.17 449.282C1023.91 451.413 1019.37 453.279 1018.51 460.073C1017.24 469.4 1010.65 476.261 1000.85 478.459C1000.58 478.393 1000.38 478.459 1000.25 478.459ZM931.688 354.754C938.551 367.078 984.26 449.415 986.525 454.678C987.058 456.01 992.122 462.205 997.853 469.466C998.919 470.732 999.985 472.131 1001.12 473.53C1008.25 471.531 1012.78 466.469 1013.71 459.474C1014.98 450.014 1021.77 447.217 1027.24 445.018C1030.97 443.486 1034.17 442.154 1035.77 439.223C1037.37 436.292 1037.37 432.894 1035.77 430.096C1033.63 426.299 1028.97 424.034 1022.57 423.701C1007.98 422.968 1006.25 413.176 1004.32 402.851C1003.98 401.119 1003.65 399.32 1003.25 397.521C1000.32 383.798 982.128 386.463 978.53 387.129C972.4 388.262 966.536 386.663 962.805 382.799C959.406 379.269 958.14 374.406 959.34 368.943C960.206 364.813 960.006 361.815 958.607 359.75C957.141 357.552 954.209 356.22 949.412 355.354C945.547 354.687 940.883 352.422 938.551 345.694C936.552 348.625 934.22 351.69 931.688 354.754Z" fill="#202D37"/>
<path d="M422.357 420.97C444.213 416.973 460.737 439.089 454.474 456.609C446.078 480.191 418.293 484.388 403.101 466.668C390.841 452.279 401.502 424.767 422.357 420.97Z" fill="#FAD932"/>
<path d="M432.552 455.81C431.952 457.475 431.153 458.675 430.087 459.407C429.021 460.207 427.621 460.54 425.889 460.407L424.357 464.67C424.29 464.803 424.223 464.87 424.09 464.936C423.957 465.003 423.823 465.003 423.757 464.936L418.093 462.938C417.96 462.871 417.893 462.805 417.827 462.671C417.76 462.538 417.76 462.405 417.827 462.338L419.159 458.541C418.093 458.142 417.16 457.675 416.361 457.276C416.227 457.209 416.161 457.142 416.161 457.009C416.094 456.876 416.094 456.743 416.161 456.609L418.226 452.213C418.293 452.08 418.36 452.013 418.56 451.946C418.693 451.88 418.826 451.946 418.959 452.013C419.292 452.213 419.626 452.413 419.959 452.612C420.292 452.812 420.758 453.012 421.291 453.345C421.824 453.612 422.358 453.878 422.891 454.011C423.424 454.211 423.89 454.344 424.357 454.278C424.823 454.278 425.156 454.145 425.356 454.011C425.623 453.812 425.756 453.678 425.889 453.545C426.022 453.412 426.089 453.212 426.156 453.079C426.222 452.946 426.222 452.746 426.222 452.546C426.222 452.346 426.156 452.08 426.089 451.746C426.022 451.413 425.822 451.014 425.423 450.614C425.089 450.214 424.623 449.815 424.023 449.415C423.357 449.015 422.757 448.416 422.224 447.816C421.691 447.15 421.225 446.417 420.892 445.618C420.559 444.818 420.359 443.886 420.292 442.82C420.225 441.754 420.425 440.755 420.825 439.689C421.358 438.223 422.158 437.091 423.29 436.292C424.423 435.559 425.756 435.159 427.422 435.159L428.954 430.763C429.021 430.629 429.087 430.563 429.221 430.496C429.354 430.429 429.487 430.429 429.554 430.496L435.217 432.495C435.351 432.561 435.417 432.628 435.484 432.761C435.551 432.894 435.551 433.027 435.484 433.161L434.151 436.958C435.151 437.357 436.15 437.824 437.083 438.224C437.216 438.29 437.283 438.357 437.35 438.49C437.416 438.623 437.416 438.756 437.35 438.823L435.284 443.22C435.217 443.353 435.151 443.42 435.018 443.486C434.884 443.553 434.751 443.553 434.618 443.42C433.152 442.487 431.819 441.821 430.553 441.354C430.02 441.155 429.554 441.088 429.087 441.088C428.621 441.088 428.288 441.221 428.088 441.354C427.821 441.554 427.688 441.688 427.555 441.821C427.422 441.954 427.355 442.154 427.288 442.287C427.222 442.42 427.222 442.62 427.222 442.82C427.222 443.02 427.288 443.286 427.355 443.686C427.422 444.019 427.688 444.419 428.021 444.818C428.354 445.218 428.821 445.618 429.42 446.018C430.087 446.484 430.686 447.017 431.22 447.616C431.753 448.282 432.219 449.015 432.552 449.815C432.885 450.614 433.085 451.547 433.152 452.612C433.152 453.745 432.952 454.744 432.552 455.81Z" fill="#202D37"/>
<path d="M423.957 466.069C423.823 466.069 423.623 466.069 423.49 466.002L417.826 464.004C417.427 463.871 417.16 463.604 416.96 463.271C416.76 462.938 416.76 462.538 416.894 462.139L417.893 459.207C417.16 458.874 416.494 458.608 415.894 458.275C415.561 458.075 415.294 457.809 415.161 457.475C415.028 457.142 415.028 456.743 415.161 456.41C415.161 456.41 415.161 456.343 415.228 456.343L417.293 451.946C417.493 451.547 417.827 451.28 418.226 451.147C418.626 451.014 419.092 451.08 419.426 451.347C419.759 451.547 420.025 451.747 420.359 451.88C420.692 452.08 421.158 452.279 421.691 452.546C422.224 452.812 422.691 453.012 423.157 453.212C423.623 453.412 423.957 453.478 424.29 453.478C424.623 453.478 424.756 453.412 424.756 453.412C424.956 453.279 425.089 453.145 425.089 453.079C425.156 452.946 425.223 452.946 425.223 452.946C425.223 452.946 425.223 452.879 425.223 452.746C425.223 452.679 425.223 452.546 425.156 452.146C425.156 452.013 425.023 451.813 424.69 451.413C424.423 451.08 424.023 450.747 423.49 450.414C422.757 449.948 422.024 449.348 421.491 448.616C420.892 447.883 420.425 447.083 420.025 446.217C419.626 445.285 419.359 444.219 419.359 443.086C419.359 441.954 419.492 440.755 419.959 439.556C420.558 437.824 421.558 436.558 422.824 435.692C423.957 434.959 425.289 434.493 426.755 434.426L428.088 430.696C428.221 430.363 428.488 430.03 428.821 429.897C429.154 429.697 429.62 429.697 430.02 429.83L435.684 431.828C436.084 431.962 436.35 432.228 436.55 432.628C436.75 432.961 436.75 433.427 436.617 433.76L435.55 436.691C436.283 437.024 436.95 437.291 437.616 437.624C437.949 437.824 438.216 438.09 438.349 438.423C438.549 438.823 438.482 439.223 438.282 439.622L436.217 444.019C436.017 444.419 435.75 444.685 435.351 444.818C434.884 444.952 434.484 444.885 434.085 444.685C432.752 443.819 431.419 443.153 430.22 442.753C429.82 442.62 429.42 442.487 429.154 442.554C428.887 442.554 428.754 442.62 428.687 442.62C428.421 442.82 428.354 442.887 428.354 442.953C428.288 443.02 428.288 443.086 428.288 443.086C428.288 443.086 428.288 443.153 428.288 443.286C428.288 443.353 428.288 443.486 428.354 443.886C428.354 444.019 428.488 444.219 428.821 444.619C429.087 444.952 429.487 445.285 430.02 445.618C430.753 446.084 431.419 446.75 432.019 447.416C432.619 448.149 433.152 448.949 433.485 449.815C433.885 450.747 434.085 451.813 434.151 452.946C434.151 454.078 433.951 455.277 433.552 456.41C432.885 458.208 431.952 459.607 430.686 460.473C429.62 461.273 428.221 461.672 426.622 461.672L425.356 465.269C425.223 465.669 424.956 465.936 424.623 466.135C424.423 466.002 424.223 466.069 423.957 466.069ZM418.959 462.272L423.623 463.937L424.956 460.14C425.089 459.74 425.489 459.474 425.956 459.474C427.421 459.541 428.621 459.274 429.487 458.675C430.353 458.008 431.086 456.943 431.619 455.544C431.952 454.611 432.086 453.678 432.086 452.746C432.086 451.88 431.886 451.08 431.619 450.348C431.286 449.615 430.886 448.949 430.42 448.416C429.953 447.883 429.42 447.35 428.821 446.95C428.154 446.55 427.621 446.084 427.222 445.551C426.755 445.018 426.489 444.485 426.355 444.019C426.222 443.553 426.222 443.22 426.222 442.953C426.222 442.62 426.289 442.354 426.355 442.087C426.422 441.821 426.622 441.554 426.822 441.354C427.022 441.155 427.222 440.888 427.555 440.688C427.954 440.422 428.488 440.222 429.154 440.222C429.687 440.222 430.353 440.355 430.953 440.555C432.152 440.955 433.352 441.621 434.684 442.354L436.283 438.956C435.484 438.623 434.684 438.224 433.885 437.89C433.418 437.691 433.152 437.158 433.285 436.625L434.484 433.294L429.82 431.629L428.421 435.559C428.288 435.959 427.888 436.225 427.488 436.225C427.488 436.225 427.488 436.225 427.421 436.225C426.022 436.225 424.889 436.558 423.89 437.158C422.957 437.824 422.224 438.756 421.824 440.022C421.491 440.955 421.358 441.887 421.358 442.82C421.358 443.753 421.558 444.552 421.891 445.218C422.224 445.951 422.624 446.617 423.09 447.15C423.557 447.683 424.09 448.149 424.69 448.549C425.356 449.015 425.889 449.482 426.355 449.948C426.822 450.481 427.088 451.014 427.222 451.48C427.288 451.88 427.355 452.279 427.355 452.546C427.355 452.879 427.288 453.145 427.222 453.412C427.155 453.678 427.022 453.878 426.822 454.145C426.622 454.344 426.422 454.611 426.089 454.811C425.689 455.077 425.156 455.277 424.556 455.277C423.957 455.277 423.357 455.144 422.691 454.944C422.158 454.744 421.625 454.544 421.025 454.211C420.425 453.945 419.959 453.678 419.626 453.478C419.426 453.345 419.226 453.279 419.092 453.145L417.493 456.543C418.16 456.876 418.959 457.209 419.759 457.542C420.225 457.742 420.492 458.275 420.359 458.808L418.959 462.272Z" fill="#202D37"/>
<path d="M239.254 554.734C247.583 534.15 276.701 528.421 292.16 548.139C307.552 567.858 293.759 599.367 266.44 596.036C244.851 593.371 231.325 574.319 239.254 554.734Z" fill="#FAD932"/>
<path d="M276.901 565.393C277.967 566.725 278.567 568.124 278.634 569.39C278.7 570.722 278.234 572.054 277.301 573.453L280.099 577.051C280.166 577.184 280.233 577.25 280.233 577.384C280.233 577.517 280.166 577.584 280.033 577.717L275.302 581.447C275.169 581.514 275.102 581.58 274.969 581.58C274.836 581.58 274.769 581.514 274.636 581.381L272.104 578.183C271.171 578.849 270.371 579.382 269.572 579.848C269.438 579.915 269.372 579.915 269.239 579.915C269.105 579.915 269.039 579.848 268.905 579.715L266.307 575.652C266.24 575.518 266.24 575.385 266.24 575.252C266.307 575.119 266.373 574.985 266.507 574.919C266.84 574.786 267.173 574.586 267.506 574.386C267.839 574.186 268.306 573.92 268.839 573.587C269.372 573.253 269.838 572.92 270.238 572.587C270.704 572.254 271.038 571.855 271.237 571.521C271.437 571.122 271.571 570.789 271.571 570.522C271.571 570.256 271.504 569.989 271.437 569.789C271.371 569.59 271.304 569.456 271.171 569.323C271.038 569.19 270.904 569.057 270.771 568.923C270.571 568.79 270.371 568.724 270.038 568.59C269.705 568.457 269.238 568.457 268.705 568.524C268.172 568.59 267.573 568.79 266.906 569.057C266.173 569.39 265.441 569.59 264.574 569.723C263.775 569.856 262.909 569.789 262.042 569.656C261.176 569.523 260.243 569.19 259.377 568.657C258.511 568.124 257.711 567.391 256.978 566.525C255.979 565.26 255.512 563.994 255.446 562.595C255.379 561.263 255.846 559.864 256.712 558.531L253.847 554.868C253.78 554.734 253.713 554.668 253.713 554.534C253.713 554.401 253.78 554.268 253.913 554.201L258.644 550.471C258.777 550.404 258.844 550.338 258.977 550.404C259.111 550.404 259.244 550.471 259.31 550.604L261.842 553.802C262.709 553.202 263.575 552.603 264.508 552.003C264.641 551.936 264.708 551.936 264.841 551.936C264.974 551.936 265.107 552.003 265.174 552.136L267.773 556.2C267.839 556.333 267.839 556.466 267.839 556.6C267.773 556.733 267.706 556.866 267.573 556.866C266.04 557.599 264.708 558.398 263.641 559.264C263.175 559.597 262.842 559.93 262.642 560.33C262.442 560.73 262.309 561.063 262.309 561.329C262.309 561.662 262.375 561.862 262.442 562.062C262.509 562.262 262.575 562.395 262.709 562.528C262.775 562.662 262.909 562.728 263.108 562.861C263.308 562.995 263.508 563.061 263.908 563.195C264.241 563.328 264.708 563.328 265.241 563.261C265.774 563.195 266.373 562.995 267.04 562.728C267.773 562.395 268.506 562.195 269.372 562.062C270.171 561.929 271.038 561.929 271.97 562.062C272.837 562.195 273.769 562.528 274.636 563.061C275.369 563.794 276.168 564.527 276.901 565.393Z" fill="#202D37"/>
<path d="M274.969 582.513C274.902 582.513 274.836 582.513 274.769 582.513C274.369 582.446 274.036 582.247 273.769 581.98L271.837 579.515C271.171 579.982 270.571 580.381 269.971 580.714C269.638 580.914 269.305 580.981 268.905 580.914C268.572 580.848 268.239 580.648 268.039 580.381L267.972 580.315L265.374 576.251C265.107 575.852 265.107 575.452 265.174 575.052C265.307 574.652 265.574 574.319 265.974 574.12C266.307 573.986 266.64 573.786 266.973 573.587C267.306 573.387 267.706 573.187 268.239 572.854C268.705 572.521 269.172 572.254 269.572 571.921C269.971 571.655 270.238 571.388 270.371 571.122C270.571 570.855 270.504 570.722 270.504 570.722C270.504 570.456 270.438 570.322 270.438 570.256C270.371 570.123 270.371 570.056 270.371 570.056C270.371 570.056 270.305 569.989 270.171 569.923C270.105 569.856 269.971 569.79 269.638 569.656C269.505 569.59 269.305 569.59 268.772 569.656C268.306 569.723 267.839 569.856 267.306 570.123C266.507 570.522 265.64 570.722 264.708 570.855C263.775 570.989 262.842 570.989 261.909 570.789C260.91 570.656 259.91 570.256 258.911 569.656C257.911 569.057 257.045 568.257 256.245 567.325C255.113 565.926 254.513 564.394 254.513 562.861C254.446 561.529 254.846 560.197 255.579 558.865L253.114 555.734C252.847 555.401 252.781 555.067 252.781 554.668C252.781 554.268 252.98 553.868 253.314 553.602L258.044 549.871C258.378 549.605 258.777 549.538 259.177 549.538C259.577 549.605 259.91 549.805 260.177 550.071L262.109 552.536C262.775 552.07 263.375 551.67 264.041 551.27C264.374 551.07 264.708 551.004 265.107 551.07C265.507 551.137 265.907 551.404 266.107 551.737L268.705 555.8C268.905 556.2 268.972 556.533 268.905 556.933C268.772 557.399 268.506 557.732 268.106 557.932C266.64 558.665 265.374 559.397 264.374 560.197C264.041 560.463 263.775 560.73 263.641 560.996C263.508 561.196 263.442 561.396 263.442 561.463C263.442 561.729 263.508 561.862 263.508 561.929C263.508 561.995 263.575 562.062 263.575 562.062C263.575 562.062 263.641 562.129 263.708 562.195C263.775 562.195 263.908 562.329 264.241 562.395C264.374 562.462 264.641 562.462 265.107 562.395C265.574 562.329 266.04 562.195 266.573 561.929C267.373 561.596 268.239 561.329 269.172 561.196C270.105 561.063 271.038 561.063 272.037 561.196C273.036 561.329 274.036 561.729 275.035 562.329C276.035 562.928 276.901 563.727 277.701 564.66C278.9 566.192 279.566 567.724 279.633 569.257C279.7 570.589 279.366 571.988 278.5 573.32L280.899 576.318C281.166 576.651 281.232 576.984 281.232 577.384C281.166 577.783 280.966 578.116 280.699 578.383L275.968 582.113C275.635 582.447 275.302 582.513 274.969 582.513ZM272.104 577.184C272.37 577.184 272.703 577.317 272.903 577.584L275.102 580.315L278.967 577.25L276.501 574.12C276.235 573.786 276.235 573.254 276.501 572.92C277.368 571.721 277.767 570.589 277.701 569.523C277.634 568.391 277.101 567.258 276.168 566.059C275.568 565.26 274.836 564.66 274.103 564.194C273.37 563.727 272.57 563.461 271.837 563.328C271.038 563.195 270.305 563.195 269.572 563.328C268.839 563.461 268.172 563.594 267.506 563.927C266.773 564.26 266.107 564.46 265.44 564.527C264.774 564.593 264.174 564.593 263.708 564.46C263.308 564.327 262.975 564.194 262.709 563.994C262.442 563.794 262.242 563.661 262.042 563.461C261.842 563.261 261.709 562.995 261.643 562.662C261.576 562.395 261.509 562.062 261.509 561.662C261.509 561.129 261.643 560.597 261.976 560.064C262.242 559.597 262.709 559.131 263.242 558.731C264.241 557.999 265.44 557.266 266.773 556.533L264.708 553.335C263.975 553.802 263.242 554.268 262.575 554.801C262.109 555.134 261.509 555.001 261.176 554.601L258.977 551.803L255.046 554.868L257.645 558.132C257.911 558.465 257.911 558.931 257.711 559.264C256.978 560.463 256.579 561.596 256.645 562.795C256.645 563.927 257.112 564.993 257.978 566.126C258.577 566.925 259.31 567.525 260.11 567.991C260.91 568.457 261.642 568.724 262.375 568.857C263.175 568.99 263.908 568.99 264.641 568.923C265.374 568.857 266.04 568.657 266.64 568.324C267.373 567.991 268.039 567.791 268.705 567.724C269.438 567.658 269.971 567.658 270.504 567.858C270.904 567.991 271.237 568.124 271.504 568.324C271.77 568.524 271.97 568.724 272.17 568.923C272.304 569.123 272.437 569.39 272.57 569.656C272.637 569.923 272.703 570.256 272.77 570.656C272.77 571.122 272.637 571.655 272.304 572.254C272.037 572.721 271.571 573.187 271.038 573.653C270.638 573.986 270.105 574.319 269.572 574.652C269.039 574.986 268.572 575.252 268.239 575.452C268.039 575.585 267.839 575.652 267.706 575.718L269.772 578.916C270.438 578.516 271.104 578.05 271.837 577.517C271.704 577.25 271.904 577.184 272.104 577.184Z" fill="#202D37"/>
<path d="M387.443 579.049C409.298 574.986 429.753 596.502 421.358 620.151C412.962 643.733 379.98 643.999 367.12 624.148C355.393 605.962 366.654 582.913 387.443 579.049Z" fill="#FAD932"/>
<path d="M398.637 616.554C398.037 618.219 397.237 619.418 396.171 620.151C395.105 620.95 393.706 621.283 392.04 621.15L390.508 625.414C390.441 625.547 390.374 625.613 390.241 625.68C390.108 625.747 389.975 625.747 389.908 625.68L384.244 623.682C384.111 623.615 384.044 623.548 383.978 623.415C383.911 623.282 383.911 623.149 383.978 623.082L385.31 619.285C384.244 618.885 383.311 618.419 382.512 618.019C382.379 617.953 382.312 617.886 382.312 617.753C382.245 617.62 382.245 617.486 382.312 617.353L384.378 612.956C384.444 612.823 384.511 612.757 384.711 612.69C384.844 612.623 384.977 612.69 385.11 612.757C385.444 612.956 385.777 613.156 386.11 613.356C386.443 613.556 386.91 613.756 387.443 614.022C387.976 614.289 388.509 614.555 389.042 614.688C389.575 614.888 390.041 615.022 390.508 614.955C390.974 614.955 391.307 614.822 391.507 614.688C391.774 614.489 391.907 614.355 392.04 614.222C392.173 614.089 392.24 613.889 392.307 613.756C392.373 613.623 392.373 613.423 392.373 613.223C392.373 613.023 392.307 612.757 392.24 612.424C392.173 612.09 391.974 611.691 391.574 611.291C391.241 610.891 390.774 610.492 390.174 610.092C389.508 609.692 388.908 609.159 388.375 608.493C387.842 607.827 387.376 607.094 387.043 606.295C386.71 605.496 386.51 604.563 386.443 603.497C386.443 602.431 386.576 601.432 386.976 600.366C387.509 598.834 388.309 597.768 389.442 596.969C390.574 596.236 391.907 595.836 393.573 595.836L395.105 591.44C395.172 591.306 395.238 591.24 395.372 591.173C395.505 591.107 395.638 591.107 395.705 591.173L401.369 593.172C401.502 593.238 401.568 593.305 401.635 593.438C401.702 593.571 401.702 593.705 401.635 593.838L400.302 597.635C401.302 598.035 402.301 598.434 403.234 598.901C403.367 598.967 403.434 599.034 403.501 599.167C403.567 599.3 403.567 599.433 403.501 599.5L401.435 603.897C401.369 604.03 401.302 604.097 401.169 604.163C401.035 604.23 400.902 604.23 400.769 604.097C399.303 603.231 397.97 602.498 396.638 602.031C396.105 601.832 395.638 601.765 395.172 601.765C394.705 601.765 394.372 601.898 394.172 602.031C393.906 602.231 393.773 602.365 393.639 602.498C393.506 602.631 393.439 602.831 393.373 602.964C393.306 603.097 393.306 603.297 393.306 603.497C393.306 603.697 393.373 603.963 393.439 604.363C393.506 604.696 393.773 605.096 394.106 605.496C394.439 605.895 394.905 606.295 395.505 606.695C396.171 607.161 396.771 607.694 397.304 608.293C397.837 608.96 398.303 609.626 398.637 610.492C398.97 611.291 399.17 612.224 399.236 613.29C399.17 614.422 399.036 615.488 398.637 616.554Z" fill="#202D37"/>
<path d="M390.108 626.813C389.974 626.813 389.775 626.813 389.641 626.746L383.978 624.747C383.578 624.614 383.311 624.348 383.111 624.015C382.912 623.682 382.912 623.282 383.045 622.882L384.044 619.951C383.311 619.618 382.645 619.352 382.045 619.018C381.712 618.819 381.446 618.552 381.312 618.219C381.179 617.886 381.179 617.486 381.312 617.153C381.312 617.153 381.312 617.087 381.379 617.087L383.445 612.69C383.644 612.29 383.978 612.024 384.377 611.891C384.777 611.757 385.177 611.824 385.577 612.09C385.91 612.29 386.176 612.49 386.51 612.623C386.843 612.823 387.309 613.023 387.842 613.29C388.375 613.556 388.842 613.756 389.308 613.889C389.775 614.089 390.108 614.156 390.441 614.156C390.774 614.156 390.907 614.089 390.907 614.089C391.107 613.956 391.24 613.822 391.24 613.756C391.307 613.623 391.374 613.623 391.374 613.623C391.374 613.623 391.374 613.556 391.374 613.356C391.374 613.29 391.374 613.156 391.307 612.757C391.307 612.623 391.174 612.424 390.841 612.024C390.574 611.691 390.174 611.358 389.641 611.025C388.908 610.558 388.175 609.959 387.576 609.226C386.976 608.493 386.51 607.694 386.11 606.828C385.71 605.895 385.444 604.829 385.444 603.697C385.377 602.564 385.577 601.365 385.977 600.166C386.576 598.434 387.509 597.169 388.842 596.303C389.974 595.57 391.307 595.103 392.773 595.037L394.106 591.306C394.239 590.973 394.505 590.64 394.839 590.44C395.172 590.241 395.638 590.24 396.038 590.374L401.702 592.372C402.101 592.505 402.368 592.772 402.568 593.105C402.768 593.438 402.768 593.904 402.634 594.237L401.635 597.169C402.368 597.502 403.034 597.768 403.701 598.101C404.034 598.301 404.3 598.567 404.433 598.901C404.633 599.3 404.567 599.7 404.433 600.1L402.435 604.496C402.235 604.896 401.968 605.162 401.568 605.296C401.102 605.429 400.702 605.362 400.302 605.162C398.97 604.296 397.637 603.697 396.438 603.231C396.038 603.097 395.638 603.031 395.372 603.031C395.038 603.031 394.905 603.097 394.905 603.097C394.639 603.297 394.572 603.364 394.572 603.43C394.505 603.497 394.505 603.564 394.505 603.564C394.505 603.564 394.505 603.63 394.505 603.764C394.505 603.83 394.505 603.963 394.572 604.363C394.572 604.496 394.705 604.696 395.038 605.096C395.305 605.429 395.705 605.762 396.238 606.095C396.971 606.561 397.637 607.227 398.237 607.894C398.836 608.626 399.369 609.426 399.769 610.292C400.169 611.224 400.436 612.29 400.436 613.423C400.436 614.555 400.302 615.754 399.836 616.887C399.17 618.685 398.237 620.084 397.037 621.017C395.971 621.816 394.572 622.216 392.973 622.216L391.707 625.813C391.574 626.213 391.307 626.479 390.974 626.679C390.507 626.746 390.308 626.813 390.108 626.813ZM385.044 623.015L389.708 624.681L391.041 620.884C391.174 620.484 391.574 620.218 392.04 620.218C393.506 620.284 394.705 620.018 395.571 619.352C396.438 618.685 397.171 617.62 397.704 616.221C398.037 615.288 398.17 614.355 398.17 613.423C398.17 612.557 397.97 611.757 397.704 611.025C397.371 610.292 396.971 609.626 396.504 609.093C396.038 608.56 395.505 608.027 394.905 607.694C394.239 607.294 393.706 606.828 393.306 606.295C392.84 605.762 392.573 605.229 392.44 604.763C392.307 604.296 392.307 603.963 392.307 603.697C392.307 603.364 392.373 603.097 392.44 602.831C392.506 602.564 392.706 602.298 392.906 602.098C393.106 601.898 393.306 601.632 393.639 601.432C394.039 601.165 394.572 600.966 395.238 600.966C395.771 600.966 396.438 601.032 397.104 601.299C398.303 601.698 399.569 602.365 400.835 603.097L402.435 599.7C401.635 599.367 400.835 598.967 400.036 598.634C399.569 598.434 399.303 597.901 399.436 597.368L400.635 594.038L395.905 592.372L394.505 596.303C394.372 596.702 393.972 596.969 393.573 596.969C392.173 596.969 390.974 597.302 390.041 597.901C389.108 598.567 388.442 599.5 387.975 600.766C387.642 601.698 387.509 602.631 387.509 603.564C387.509 604.496 387.709 605.296 388.042 605.962C388.375 606.695 388.775 607.361 389.242 607.894C389.708 608.427 390.241 608.893 390.841 609.293C391.507 609.759 392.04 610.225 392.506 610.692C392.973 611.224 393.239 611.757 393.373 612.224C393.506 612.623 393.506 613.023 393.506 613.29C393.506 613.623 393.439 613.889 393.373 614.156C393.306 614.422 393.173 614.622 392.973 614.888C392.773 615.088 392.573 615.355 392.24 615.554C391.84 615.821 391.307 616.021 390.707 616.021C390.108 616.021 389.508 615.888 388.842 615.688C388.309 615.488 387.776 615.288 387.176 614.955C386.576 614.688 386.11 614.422 385.777 614.222C385.577 614.089 385.377 614.022 385.244 613.889L383.644 617.286C384.311 617.62 385.11 617.953 385.91 618.286C386.376 618.486 386.643 619.018 386.51 619.551L385.044 623.015Z" fill="#202D37"/>
</g>
</g>
<defs>
<clipPath id="clip0_3457_4418">
<rect width="1440" height="1024" fill="white"/>
</clipPath>
<clipPath id="clip1_3457_4418">
<rect width="1511" height="1133" fill="white" transform="translate(-36 -54)"/>
</clipPath>
</defs>
</svg>
