<svg width="1440" height="1024" viewBox="0 0 1440 1024" fill="none" xmlns="http://www.w3.org/2000/svg">
<g clip-path="url(#clip0_3457_3476)">
<rect width="1440" height="1024" fill="white"/>
<g clip-path="url(#clip1_3457_3476)">
<path d="M1480.71 -136.44H-106.776V1159.44H1480.71V-136.44Z" fill="#FFFEF2"/>
<path d="M1216.33 467.291C1213.67 472.203 1154.63 438.216 1142.35 428.392C1142.35 428.392 1096.46 441.867 1049.3 448.439C1041.34 449.567 1033.3 450.43 1025.46 451.027C1008.66 452.355 992.656 452.289 979.64 449.832C965.826 447.244 953.74 443.991 943.18 439.61C912.565 426.865 894.7 404.627 883.344 361.945C883.078 360.949 882.813 359.953 882.547 358.891C879.559 347.142 876.57 335.592 873.847 323.909C862.889 276.048 857.577 226.064 884.141 154.638C897.954 117.532 969.545 101.999 1032.37 91.7095C1095.19 81.4206 1120.9 80.2921 1158.88 116.071C1196.87 151.85 1199.06 163.002 1203.64 215.244C1207.63 260.449 1206.5 322.581 1202.65 353.713C1202.05 358.559 1201.39 362.675 1200.66 365.861C1195.28 389.293 1183.45 391.086 1183.92 393.542C1184.38 395.998 1219.05 462.378 1216.33 467.291Z" fill="#FAD932"/>
<path d="M984.355 324.639C1003.08 352.851 1021.74 414.717 1025.53 447.974V451.027C1008.73 452.355 992.723 452.289 979.706 449.832C965.893 447.244 953.806 443.991 943.247 439.61C943.446 434.233 944.043 417.439 943.844 415.381C943.645 412.925 939.129 408.876 934.945 406.353C930.761 403.897 930.828 379.204 934.945 377.544C934.945 377.544 931.89 372.897 928.503 372.698C925.116 372.566 908.646 370.508 895.696 361.546C892.11 362.409 887.926 362.608 883.41 361.945C882.879 361.878 882.348 361.746 881.816 361.679C861.96 357.895 864.284 344.287 876.105 341.035C865.28 337.052 866.21 328.29 873.914 323.909C874.644 323.51 875.375 323.178 876.172 322.847L875.375 321.386L884.34 280.761C894.435 275.517 896.161 271.003 924.718 278.305C950.021 284.81 972.6 316.142 977.382 323.178C978.776 320.39 980.702 319.196 984.355 324.639Z" fill="#FFFEF2"/>
<path d="M1216.33 467.291C1213.67 472.203 1154.63 438.216 1142.35 428.392C1142.35 428.392 1096.46 441.867 1049.3 448.438L1049.64 446.314C1055.22 419.629 1077.26 374.358 1077.26 374.358C1077.26 374.358 1068.36 358.095 1068.36 344.553C1068.36 338.18 1069.56 335.326 1073.74 333.6C1071.69 317.735 1063.32 287.864 1063.32 287.864C1061.72 285.939 1061.26 283.881 1061.26 283.881C1061.26 283.881 1055.48 292.776 1047.25 290.32C1039.21 287.93 1041.4 279.102 1041.47 278.703C1041.27 278.903 1037.15 282.62 1033.63 280.031C1030.58 277.841 1032.5 268.414 1038.28 262.374C1014.64 261.179 1011.92 260.117 1012.38 256.466C1012.91 252.417 1036.02 204.689 1053.29 183.182C1053.29 183.182 1053.29 183.182 1053.36 183.116C1053.42 183.049 1053.42 182.983 1053.56 182.916C1053.75 182.717 1053.95 182.385 1054.35 181.987C1054.48 181.788 1054.62 181.655 1054.82 181.456C1054.88 181.323 1055.02 181.257 1055.15 181.124C1060.59 174.685 1077.66 155.833 1090.94 154.837C1118.84 152.846 1139.03 180.128 1144.67 188.758C1144.67 188.758 1159.28 167.981 1171.57 180.394C1185.91 194.865 1156.23 216.107 1156.23 216.107C1156.23 216.107 1163.6 243.655 1177.61 282.288C1179.34 287.134 1181.13 292.046 1182.79 296.759C1192.02 322.581 1199.99 345.881 1202.65 353.846C1202.05 358.692 1201.39 362.808 1200.66 365.994C1195.28 389.426 1183.45 391.218 1183.92 393.675C1184.38 395.998 1219.05 462.378 1216.33 467.291Z" fill="#FFFEF2"/>
<path d="M522.998 529.423C514.83 557.634 500.817 582.726 479.499 601.711C439.055 637.756 372.046 651.961 267.848 623.949C223.684 665.304 213.457 659.462 218.836 650.501C225.743 638.884 236.369 608.88 236.369 608.88C235.373 608.482 228.599 601.91 219.368 590.095C196.124 560.422 157.473 498.091 157.473 420.028C157.473 310.898 229.064 254.275 303.842 237.614C407.111 214.58 492.449 268.149 516.556 351.324C525.323 381.66 531.167 414.916 532.163 447.775C533.093 476.053 530.37 503.999 522.998 529.423Z" fill="#FAD932"/>
<path d="M530.038 512.429C538.207 519.267 534.156 526.568 522.998 529.489C519.279 530.485 514.697 530.95 509.583 530.75C508.72 530.684 507.923 530.684 507.126 530.618C495.637 551.063 478.437 548.275 475.913 551.262C474.983 552.324 473.987 556.24 472.991 560.887C471.132 569.782 469.471 581.465 469.471 581.465C474.851 583.656 478.57 592.75 479.433 601.778C438.989 637.822 371.98 652.028 267.781 624.015C223.618 665.37 213.391 659.529 218.77 650.567C225.677 638.951 236.303 608.947 236.303 608.947C235.306 608.548 228.533 601.977 219.301 590.161C261.804 500.149 256.226 426.732 256.226 426.732C212.66 428.325 213.059 387.634 240.486 391.816C229.13 376.548 241.549 347.407 271.235 359.09C271.235 359.09 259.281 329.153 287.505 320.523C311.214 313.288 317.39 332.737 335.122 336.587C376.762 345.748 358.233 324.108 362.683 324.904C390.974 330.148 383.735 352.12 362.35 363.14C361.886 363.405 361.354 363.604 360.889 363.87C388.848 396.263 422.187 451.558 417.671 454.413C412.889 457.466 371.25 445.584 371.25 445.584L365.605 563.277C365.605 563.277 376.43 585.78 384.465 609.61C390.177 582.328 393.763 574.429 402.396 571.309C404.189 570.645 405.783 568.72 407.178 565.799C409.569 560.887 411.561 553.386 413.42 545.42C415.745 535.663 418.003 525.241 420.792 518.271C432.082 490.59 449.548 441.8 498.626 453.616C504.138 448.439 511.576 445.319 519.744 445.319C524.061 445.319 528.245 446.182 532.097 447.775C544.316 452.82 553.348 465.034 553.88 479.305C554.676 495.436 544.383 508.911 530.038 512.429Z" fill="#FFFEF2"/>
<path d="M384.532 611.934C384.399 611.934 384.2 611.934 384.067 611.867C382.805 611.602 382.008 610.407 382.274 609.146C387.786 582.793 391.571 572.769 401.666 569.118C408.174 566.795 414.35 537.588 417.339 523.515C417.804 521.457 418.202 519.466 418.6 517.74C423.183 496.763 435.734 469.813 457.052 457.002C470.335 449.036 485.476 447.376 502.079 452.089C503.341 452.421 504.005 453.749 503.673 454.944C503.341 456.205 502.013 456.869 500.817 456.537C485.476 452.222 471.53 453.683 459.443 460.984C439.387 472.999 427.5 498.689 423.116 518.735C422.718 520.461 422.319 522.453 421.855 524.511C416.542 549.536 411.428 570.512 403.193 573.499C395.689 576.221 392.302 583.722 386.79 610.075C386.59 611.204 385.661 611.934 384.532 611.934Z" fill="#202D37"/>
<path d="M505.333 517.872C496.5 517.872 489.66 514.753 487.136 509.973C486.14 508.115 483.683 501.477 493.777 495.237C494.84 494.573 496.301 494.905 496.965 495.967C497.629 497.029 497.297 498.489 496.234 499.153C494.109 500.481 489.261 503.999 491.254 507.716C494.043 512.96 507.325 516.08 522.6 509.177C523.795 508.646 525.123 509.177 525.655 510.372C526.186 511.566 525.655 512.894 524.459 513.425C517.685 516.545 511.111 517.872 505.333 517.872Z" fill="#202D37"/>
<path d="M511.576 533.074C510.912 533.074 510.181 533.074 509.517 533.007C499.356 532.675 492.516 529.157 491.32 523.581C490.391 519.532 492.848 515.416 497.762 512.894C498.891 512.297 500.286 512.761 500.884 513.89C501.481 515.018 501.016 516.412 499.887 517.01C496.965 518.536 495.438 520.66 495.836 522.586C496.434 525.241 500.95 528.095 509.716 528.361C522.666 528.825 530.237 524.71 531.765 520.727C533.093 517.341 530.171 513.956 527.514 511.699C526.518 510.903 526.385 509.376 527.249 508.446C528.046 507.451 529.573 507.318 530.503 508.181C537.808 514.288 537.144 519.731 536.081 522.453C533.558 528.958 524.061 533.074 511.576 533.074Z" fill="#202D37"/>
<path d="M535.713 510.391C551.959 502.797 558.618 482.723 550.585 465.555C542.553 448.387 522.871 440.625 506.625 448.219C490.379 455.813 483.721 475.887 491.754 493.055C499.786 510.223 519.468 517.985 535.713 510.391Z" fill="#48BA82"/>
<path d="M1063.78 223.608C1062.25 223.342 1061.26 221.882 1061.52 220.421L1062.79 213.451C1063.05 211.925 1064.51 210.929 1065.97 211.194C1067.5 211.46 1068.5 212.92 1068.23 214.381L1066.97 221.351C1066.7 222.811 1065.31 223.873 1063.78 223.608Z" fill="#202D37"/>
<path d="M1086.49 224.603C1084.97 224.338 1083.97 222.877 1084.24 221.417L1085.5 214.447C1085.76 212.92 1087.23 211.925 1088.69 212.19C1090.21 212.456 1091.21 213.916 1090.94 215.376L1089.68 222.346C1089.42 223.807 1088.02 224.869 1086.49 224.603Z" fill="#202D37"/>
<path d="M321.109 420.028C319.582 420.16 318.253 419.032 318.121 417.505L317.523 410.469C317.39 408.942 318.519 407.614 320.046 407.482C321.574 407.349 322.902 408.477 323.035 410.004L323.633 417.04C323.765 418.567 322.636 419.895 321.109 420.028Z" fill="#202D37"/>
<path d="M351.924 415.248C350.396 415.381 349.068 414.252 348.935 412.726L348.338 405.689C348.205 404.163 349.334 402.835 350.861 402.702C352.389 402.569 353.717 403.698 353.85 405.225L354.448 412.261C354.514 413.788 353.385 415.115 351.924 415.248Z" fill="#202D37"/>
<path d="M536.546 482.89C537.21 484.815 537.343 486.475 536.945 487.935C536.546 489.395 535.55 490.723 533.89 491.851L535.617 496.83C535.683 496.963 535.683 497.095 535.617 497.228C535.55 497.361 535.417 497.427 535.285 497.494L528.71 499.751C528.577 499.817 528.444 499.817 528.311 499.751C528.179 499.684 528.112 499.552 528.046 499.419L526.518 494.971C525.257 495.37 524.128 495.635 523.065 495.834C522.932 495.834 522.799 495.834 522.667 495.768C522.534 495.701 522.467 495.569 522.401 495.436L521.073 489.993C521.006 489.794 521.073 489.661 521.139 489.528C521.205 489.395 521.338 489.329 521.538 489.329C521.936 489.263 522.401 489.196 522.866 489.13C523.331 489.063 523.862 488.931 524.592 488.798C525.323 488.665 525.921 488.466 526.518 488.267C527.182 488.068 527.647 487.802 528.046 487.47C528.444 487.138 528.643 486.806 528.776 486.475C528.843 486.143 528.909 485.877 528.909 485.612C528.909 485.412 528.909 485.213 528.843 485.014C528.776 484.815 528.644 484.616 528.511 484.483C528.378 484.284 528.112 484.085 527.78 483.819C527.448 483.554 526.983 483.355 526.386 483.222C525.788 483.089 525.057 483.089 524.26 483.156C523.331 483.222 522.401 483.222 521.471 483.023C520.541 482.824 519.612 482.492 518.682 482.027C517.752 481.562 516.955 480.832 516.158 479.969C515.361 479.04 514.764 477.978 514.365 476.783C513.767 475.057 513.701 473.464 514.166 471.937C514.631 470.477 515.627 469.149 517.088 467.954L515.295 462.843C515.228 462.71 515.228 462.578 515.295 462.445C515.361 462.312 515.428 462.179 515.627 462.179L522.202 459.922C522.334 459.856 522.467 459.856 522.667 459.922C522.799 459.989 522.932 460.121 522.932 460.254L524.46 464.702C525.655 464.37 526.85 464.038 528.046 463.772C528.179 463.772 528.311 463.772 528.444 463.839C528.577 463.905 528.643 464.038 528.71 464.171L530.038 469.614C530.038 469.747 530.038 469.879 529.972 470.079C529.905 470.211 529.772 470.278 529.573 470.344C527.581 470.61 525.854 470.941 524.393 471.473C523.795 471.672 523.264 471.937 522.866 472.269C522.467 472.601 522.268 472.933 522.135 473.265C522.069 473.597 522.002 473.862 522.002 474.128C522.002 474.327 522.002 474.526 522.069 474.725C522.135 474.858 522.202 475.057 522.401 475.256C522.534 475.455 522.799 475.655 523.131 475.92C523.463 476.186 523.928 476.385 524.526 476.517C525.124 476.65 525.854 476.65 526.651 476.584C527.581 476.517 528.511 476.584 529.44 476.783C530.37 476.982 531.3 477.314 532.23 477.779C533.159 478.243 533.956 478.974 534.753 479.837C535.55 480.633 536.148 481.695 536.546 482.89Z" fill="#202D37"/>
<path d="M528.577 500.813C528.378 500.813 528.112 500.746 527.913 500.68C527.514 500.481 527.249 500.215 527.116 499.817L525.92 496.299C524.991 496.564 524.127 496.764 523.33 496.963C522.932 497.029 522.534 496.963 522.202 496.764C521.869 496.564 521.604 496.299 521.537 495.901V495.834L520.209 490.391C520.076 489.926 520.209 489.462 520.475 489.13C520.74 488.798 521.139 488.532 521.604 488.466C522.002 488.4 522.467 488.333 522.866 488.267C523.33 488.2 523.862 488.068 524.526 487.935C525.19 487.802 525.788 487.603 526.319 487.404C526.85 487.205 527.249 487.006 527.514 486.806C527.846 486.541 527.913 486.342 527.913 486.342C527.979 486.076 527.979 485.877 527.979 485.744C527.979 485.545 527.979 485.479 527.979 485.479C527.979 485.412 527.913 485.346 527.846 485.213C527.78 485.147 527.647 485.014 527.315 484.749C527.182 484.616 526.917 484.483 526.319 484.35C525.788 484.218 525.19 484.218 524.459 484.284C523.463 484.417 522.401 484.35 521.338 484.085C520.342 483.886 519.279 483.487 518.283 482.956C517.287 482.425 516.291 481.629 515.428 480.633C514.564 479.637 513.9 478.443 513.435 477.115C512.771 475.19 512.705 473.331 513.236 471.672C513.701 470.211 514.631 468.884 515.892 467.689L514.365 463.241C514.232 462.843 514.232 462.445 514.431 462.113C514.631 461.715 514.896 461.449 515.361 461.25L521.936 458.993C522.334 458.86 522.733 458.86 523.131 459.059C523.53 459.259 523.795 459.524 523.928 459.922L525.124 463.441C526.053 463.175 526.917 462.976 527.846 462.777C528.245 462.71 528.577 462.777 528.975 462.976C529.374 463.175 529.64 463.573 529.706 463.972L531.034 469.415C531.101 469.879 531.034 470.278 530.835 470.61C530.569 471.008 530.171 471.273 529.706 471.273C527.846 471.473 526.186 471.871 524.792 472.336C524.26 472.468 523.862 472.667 523.596 472.933C523.264 473.198 523.198 473.331 523.198 473.464C523.131 473.796 523.065 473.995 523.065 474.061C523.065 474.194 523.065 474.261 523.131 474.327C523.131 474.327 523.198 474.46 523.264 474.592C523.33 474.659 523.463 474.792 523.795 475.057C523.928 475.19 524.26 475.323 524.792 475.455C525.323 475.588 525.921 475.588 526.651 475.522C527.647 475.455 528.71 475.522 529.706 475.721C530.769 475.92 531.765 476.318 532.761 476.849C533.757 477.38 534.753 478.177 535.55 479.173C536.413 480.168 537.011 481.363 537.476 482.691C538.207 484.749 538.339 486.674 537.874 488.333C537.476 489.794 536.48 491.188 535.085 492.316L536.546 496.564C536.679 496.963 536.679 497.361 536.48 497.759C536.281 498.158 536.015 498.423 535.617 498.556L529.042 500.813C528.909 500.813 528.71 500.813 528.577 500.813ZM526.518 494.042C526.917 494.042 527.315 494.307 527.448 494.706L528.843 498.689L534.554 496.697L532.96 492.183C532.827 491.785 532.96 491.32 533.292 491.055C534.687 490.059 535.617 488.931 535.949 487.669C536.281 486.408 536.214 484.881 535.617 483.222C535.218 482.093 534.687 481.164 534.023 480.301C533.359 479.505 532.628 478.907 531.831 478.443C531.034 477.978 530.171 477.712 529.307 477.513C528.444 477.314 527.581 477.314 526.784 477.38C525.92 477.447 525.057 477.447 524.393 477.314C523.596 477.181 522.998 476.916 522.6 476.584C522.201 476.252 521.869 475.986 521.67 475.721C521.471 475.455 521.338 475.19 521.205 474.924C521.073 474.659 521.073 474.327 521.073 473.995C521.073 473.663 521.139 473.331 521.272 472.867C521.405 472.336 521.803 471.871 522.334 471.406C522.799 471.008 523.463 470.676 524.194 470.41C525.588 469.946 527.249 469.614 529.042 469.348L527.913 464.768C526.917 465.034 525.854 465.299 524.858 465.565C524.327 465.697 523.795 465.432 523.663 464.967L522.268 460.918L516.557 462.909L518.217 467.622C518.35 468.021 518.217 468.485 517.885 468.751C516.557 469.747 515.693 470.942 515.295 472.269C514.896 473.53 514.963 474.924 515.494 476.451C515.892 477.58 516.424 478.509 517.088 479.372C517.752 480.168 518.549 480.832 519.346 481.231C520.143 481.629 521.006 481.961 521.869 482.16C522.733 482.359 523.53 482.359 524.327 482.293C525.256 482.226 526.053 482.226 526.784 482.359C527.581 482.492 528.178 482.757 528.643 483.156C529.042 483.487 529.307 483.753 529.507 484.018C529.706 484.284 529.905 484.55 529.972 484.881C530.038 485.147 530.104 485.479 530.104 485.811C530.104 486.143 530.038 486.475 529.905 486.939C529.772 487.47 529.44 487.935 528.909 488.4C528.444 488.798 527.78 489.13 527.049 489.395C526.452 489.594 525.788 489.794 525.057 489.926C524.327 490.059 523.729 490.192 523.264 490.258C522.932 490.325 522.666 490.325 522.401 490.391L523.53 494.971C524.393 494.772 525.389 494.507 526.452 494.175C526.319 494.042 526.452 494.042 526.518 494.042Z" fill="#202D37"/>
<path d="M1066.77 265.958H1066.7C1021.68 264.1 1014.11 263.635 1011.18 260.183C1009.86 258.59 1010.06 256.732 1010.19 256.134C1010.79 251.089 1043.13 184.111 1060.99 172.296C1062.06 171.565 1063.52 171.897 1064.18 172.959C1064.91 174.021 1064.58 175.482 1063.52 176.146C1047.58 186.634 1015.63 251.687 1014.7 256.732C1014.64 257.13 1014.7 257.196 1014.7 257.263C1016.3 259.188 1034.23 259.984 1066.84 261.312C1068.1 261.378 1069.1 262.44 1069.1 263.701C1069.03 264.963 1068.03 265.958 1066.77 265.958Z" fill="#202D37"/>
<path d="M1053.36 183.116C1061.26 193.405 1077.26 193.869 1092.27 182.253C1107.28 170.636 1112.06 207.212 1128.27 201.835C1144.47 196.458 1146.26 191.148 1146.26 191.148C1146.26 191.148 1124.02 152.315 1090.94 154.705C1074.94 155.9 1053.36 183.116 1053.36 183.116Z" fill="#202D37"/>
<path d="M1125.08 204.756C1117.84 204.756 1112.73 197.719 1108.54 191.944C1105.29 187.497 1101.97 182.85 1098.58 182.385C1097.12 182.186 1095.53 182.717 1093.67 184.178C1084.83 191.015 1075.2 194.201 1066.51 193.073C1060.33 192.276 1055.15 189.355 1051.5 184.576C1050.83 183.713 1050.83 182.585 1051.5 181.722C1052.43 180.593 1073.88 153.643 1090.75 152.448C1124.95 149.992 1147.33 188.426 1148.26 190.086C1148.59 190.683 1148.66 191.347 1148.46 192.011C1148.12 193.073 1145.47 198.649 1129 204.092C1127.6 204.49 1126.34 204.756 1125.08 204.756ZM1097.98 177.672C1098.38 177.672 1098.85 177.672 1099.25 177.739C1104.56 178.469 1108.34 183.647 1112.26 189.156C1117.77 196.724 1121.76 201.569 1127.54 199.644C1138.23 196.06 1142.21 192.674 1143.54 191.148C1139.49 184.775 1119.1 155.037 1091.14 157.028C1078.39 157.957 1061.13 177.473 1056.41 183.049C1059.2 185.97 1062.85 187.829 1067.17 188.36C1074.61 189.289 1082.97 186.501 1090.88 180.394C1093.2 178.602 1095.66 177.672 1097.98 177.672Z" fill="#202D37"/>
<path d="M1152.24 203.959C1151.98 203.959 1151.71 203.893 1151.44 203.826C1150.25 203.362 1149.65 202.034 1150.05 200.839C1153.17 192.276 1161.14 186.435 1161.47 186.169C1162.54 185.439 1164 185.638 1164.73 186.7C1165.46 187.762 1165.26 189.223 1164.2 189.953C1164.13 190.019 1157.02 195.263 1154.37 202.432C1154.03 203.428 1153.17 203.959 1152.24 203.959Z" fill="#202D37"/>
<path d="M1041.67 259.652C1033.43 264.963 1030.18 277.442 1033.76 280.031C1037.35 282.62 1041.6 278.637 1041.6 278.637C1041.6 278.637 1039.14 287.798 1047.38 290.254C1055.61 292.71 1061.39 283.815 1061.39 283.815C1061.39 283.815 1063.72 293.307 1074.01 290.718C1081.58 288.793 1083.77 280.695 1083.77 280.695C1083.77 280.695 1088.15 286.204 1097.05 283.549C1105.95 280.96 1106.75 263.436 1086.36 257.395C1069.89 252.55 1047.11 256.068 1041.67 259.652Z" fill="#202D37"/>
<path d="M1070.42 293.506C1068.23 293.506 1066.24 292.975 1064.51 291.913C1062.79 290.851 1061.52 289.457 1060.66 288.129C1057.87 290.917 1052.89 294.369 1046.58 292.511C1041 290.851 1039.14 286.603 1038.81 282.819C1036.75 283.483 1034.43 283.483 1032.3 281.89C1031.17 281.027 1029.78 279.301 1029.91 275.65C1030.05 270.074 1033.76 261.909 1040.34 257.661C1046.45 253.744 1069.69 250.027 1086.89 255.138C1100.44 259.188 1105.22 267.817 1105.22 274.588C1105.22 280.031 1102.23 284.412 1097.59 285.74C1091.48 287.532 1087.16 286.005 1084.57 284.412C1083.04 287.333 1079.99 291.515 1074.47 292.909C1073.08 293.374 1071.75 293.506 1070.42 293.506ZM1061.26 281.558C1061.39 281.558 1061.52 281.558 1061.66 281.558C1062.59 281.691 1063.32 282.421 1063.52 283.284C1063.52 283.284 1064.31 286.404 1066.97 287.93C1068.63 288.926 1070.76 289.059 1073.35 288.461C1079.52 286.868 1081.38 280.164 1081.45 280.097C1081.65 279.234 1082.38 278.637 1083.24 278.438C1084.1 278.239 1084.97 278.571 1085.5 279.234C1085.63 279.367 1089.15 283.416 1096.32 281.359C1098.91 280.628 1100.57 277.973 1100.64 274.654C1100.64 269.543 1096.72 262.905 1085.63 259.652C1069.29 254.806 1047.45 258.723 1042.93 261.644C1037.88 264.896 1034.76 271.402 1034.63 275.849C1034.56 277.442 1034.96 278.106 1035.09 278.172C1037.02 279.566 1039.94 276.978 1039.94 276.978C1040.67 276.247 1041.87 276.181 1042.73 276.712C1043.59 277.243 1044.06 278.305 1043.79 279.301C1043.59 280.031 1042.13 286.404 1047.98 288.129C1054.48 290.055 1059.27 282.753 1059.33 282.686C1059.8 281.956 1060.53 281.558 1061.26 281.558Z" fill="#202D37"/>
<path d="M1073.74 335.924C1072.61 335.924 1071.62 335.061 1071.42 333.932C1069.43 318.399 1061.19 288.86 1061.06 288.528C1060.73 287.267 1061.46 286.005 1062.65 285.673C1063.91 285.342 1065.18 286.072 1065.51 287.267C1065.84 288.461 1073.94 317.47 1076 333.335C1076.13 334.596 1075.27 335.791 1074.01 335.924C1073.94 335.857 1073.88 335.924 1073.74 335.924Z" fill="#202D37"/>
<path d="M1105.69 377.079C1103.36 377.079 1101.04 377.013 1098.78 376.814C1097.52 376.681 1096.52 375.553 1096.66 374.291C1096.79 373.03 1097.92 372.034 1099.18 372.167C1121.63 374.092 1148.92 365.927 1170.37 350.925C1171.43 350.195 1172.9 350.461 1173.63 351.523C1174.36 352.585 1174.09 354.045 1173.03 354.776C1152.84 368.848 1127.67 377.079 1105.69 377.079Z" fill="#202D37"/>
<path d="M976.85 324.705C976.12 324.705 975.389 324.373 974.925 323.709C968.948 315.146 947.696 286.603 924.187 280.629C900.279 274.522 896.095 276.911 889.122 280.828C887.993 281.491 886.797 282.155 885.469 282.885C884.34 283.483 882.945 283.018 882.348 281.89C881.75 280.761 882.215 279.367 883.344 278.77C884.606 278.106 885.735 277.442 886.864 276.845C895.231 272.065 900.81 269.875 925.382 276.181C950.419 282.62 972.6 312.226 978.843 321.121C979.573 322.183 979.308 323.643 978.245 324.373C977.78 324.572 977.315 324.705 976.85 324.705Z" fill="#202D37"/>
<path d="M934.945 379.867C934.215 379.867 933.418 379.469 933.019 378.805C932.023 377.345 929.898 375.088 928.371 375.022C928.171 375.022 909.111 373.827 893.903 363.139C892.841 362.409 892.575 360.949 893.372 359.887C894.103 358.825 895.564 358.559 896.626 359.356C908.447 367.653 924.12 370.176 928.636 370.375C933.086 370.574 936.539 375.685 936.938 376.283C937.668 377.345 937.336 378.805 936.273 379.469C935.809 379.735 935.344 379.867 934.945 379.867Z" fill="#202D37"/>
<path d="M883.543 340.371C923.589 343.624 906.588 366.392 881.75 361.679C858.24 357.165 865.811 338.911 883.543 340.371Z" fill="#FFFEF2"/>
<path d="M888.524 364.666C886.266 364.666 883.809 364.467 881.285 363.936C867.937 361.414 863.952 354.643 864.682 349.2C865.546 343.026 872.851 337.185 883.676 338.048C901.54 339.508 907.385 344.553 909.111 348.602C910.373 351.523 909.842 354.643 907.584 357.364C904.529 361.281 897.622 364.666 888.524 364.666ZM881.617 342.628C874.578 342.628 869.796 346.213 869.331 349.863C868.734 354.112 873.781 357.829 882.148 359.422C892.309 361.347 900.876 358.427 903.998 354.51C905.127 353.116 905.392 351.722 904.861 350.461C904.263 349 900.81 344.155 883.344 342.761C882.813 342.628 882.215 342.628 881.617 342.628Z" fill="#202D37"/>
<path d="M884.34 321.453C926.112 321.32 910.506 345.482 884.34 342.827C859.569 340.305 865.811 321.519 884.34 321.453Z" fill="#FFFEF2"/>
<path d="M888.391 345.35C886.996 345.35 885.602 345.283 884.074 345.15C870.128 343.756 865.413 337.384 865.679 331.874C865.944 325.701 872.585 319.196 884.274 319.129C884.406 319.129 884.539 319.129 884.672 319.129C899.216 319.129 908.514 322.05 911.436 327.56C912.897 330.281 912.631 333.335 910.705 336.189C907.717 340.836 899.548 345.35 888.391 345.35ZM884.34 323.776C875.972 323.776 870.527 328.091 870.327 332.073C870.128 336.322 875.707 339.641 884.539 340.504C895.364 341.566 904.13 337.716 906.92 333.6C907.849 332.206 908.049 330.879 907.385 329.75C906.654 328.356 902.736 323.776 884.738 323.776C884.606 323.776 884.473 323.776 884.34 323.776Z" fill="#202D37"/>
<path d="M886.208 339.254C903.28 329.584 909.878 308.973 900.945 293.217C892.012 277.46 870.932 272.526 853.86 282.196C836.789 291.865 830.191 312.477 839.123 328.233C848.056 343.989 869.136 348.923 886.208 339.254Z" fill="#48BA82"/>
<path d="M881.683 313.354C882.414 315.412 882.547 317.204 882.082 318.797C881.617 320.39 880.554 321.784 878.828 322.979L880.687 328.29C880.754 328.423 880.754 328.622 880.687 328.754C880.621 328.887 880.488 329.02 880.355 329.02L873.316 331.476C873.183 331.542 872.984 331.542 872.851 331.476C872.718 331.41 872.585 331.277 872.585 331.144L870.925 326.431C869.597 326.829 868.335 327.161 867.272 327.36C867.14 327.36 867.007 327.36 866.874 327.294C866.741 327.228 866.608 327.095 866.608 326.962L865.214 321.121C865.147 320.922 865.214 320.789 865.28 320.656C865.413 320.523 865.546 320.457 865.745 320.39C866.21 320.324 866.675 320.258 867.139 320.191C867.604 320.125 868.269 319.992 868.999 319.793C869.73 319.66 870.46 319.461 871.058 319.196C871.722 318.996 872.32 318.665 872.718 318.333C873.116 318.001 873.382 317.602 873.449 317.271C873.515 316.939 873.581 316.607 873.581 316.341C873.581 316.076 873.581 315.877 873.515 315.677C873.449 315.478 873.316 315.279 873.183 315.08C873.05 314.881 872.784 314.615 872.452 314.35C872.12 314.084 871.589 313.885 870.925 313.752C870.261 313.62 869.464 313.62 868.601 313.686C867.604 313.819 866.608 313.752 865.612 313.487C864.616 313.288 863.62 312.889 862.624 312.425C861.627 311.894 860.764 311.164 859.901 310.168C859.104 309.172 858.44 308.044 857.975 306.716C857.311 304.857 857.244 303.132 857.776 301.538C858.307 299.945 859.303 298.551 860.897 297.29L858.971 291.847C858.905 291.714 858.905 291.515 858.971 291.382C859.037 291.249 859.17 291.117 859.303 291.05L866.343 288.594C866.475 288.528 866.675 288.528 866.807 288.661C866.94 288.727 867.073 288.86 867.139 288.992L868.8 293.706C870.062 293.307 871.323 292.975 872.652 292.71C872.784 292.71 872.917 292.71 873.116 292.776C873.249 292.843 873.382 292.975 873.382 293.108L874.777 298.95C874.843 299.082 874.777 299.281 874.71 299.414C874.644 299.547 874.511 299.68 874.312 299.68C872.187 299.945 870.327 300.344 868.733 300.875C868.069 301.074 867.538 301.339 867.139 301.738C866.741 302.069 866.475 302.468 866.343 302.8C866.21 303.132 866.21 303.463 866.21 303.729C866.21 303.995 866.21 304.194 866.276 304.393C866.343 304.592 866.475 304.725 866.608 304.99C866.741 305.189 867.007 305.455 867.405 305.72C867.737 305.986 868.269 306.185 868.933 306.318C869.597 306.451 870.394 306.517 871.257 306.384C872.253 306.318 873.249 306.384 874.246 306.583C875.242 306.782 876.238 307.114 877.234 307.645C878.23 308.176 879.093 308.907 879.957 309.902C880.621 310.898 881.219 312.027 881.683 313.354Z" fill="#202D37"/>
<path d="M873.116 332.472C872.851 332.472 872.652 332.405 872.452 332.339C872.054 332.14 871.788 331.808 871.655 331.41L870.327 327.56C869.331 327.825 868.335 328.091 867.472 328.29C867.073 328.356 866.675 328.29 866.343 328.091C866.011 327.891 865.745 327.56 865.612 327.228V327.161L864.217 321.32C864.085 320.855 864.217 320.39 864.483 319.992C864.749 319.594 865.147 319.395 865.612 319.328C866.077 319.262 866.542 319.196 867.007 319.129C867.472 319.063 868.069 318.93 868.8 318.797C869.53 318.665 870.194 318.465 870.726 318.266C871.323 318.067 871.722 317.868 872.054 317.602C872.386 317.337 872.452 317.138 872.519 317.071C872.585 316.74 872.652 316.54 872.652 316.408C872.652 316.208 872.652 316.142 872.585 316.076C872.585 316.009 872.519 315.877 872.386 315.744C872.32 315.677 872.187 315.478 871.788 315.213C871.655 315.08 871.323 314.947 870.659 314.814C870.062 314.682 869.397 314.682 868.667 314.748C867.604 314.881 866.475 314.814 865.346 314.549C864.284 314.35 863.155 313.952 862.092 313.354C861.03 312.757 859.967 311.96 859.104 310.898C858.174 309.836 857.51 308.575 856.979 307.114C856.248 305.057 856.182 303.065 856.779 301.273C857.311 299.68 858.24 298.219 859.702 297.024L858.041 292.179C857.908 291.78 857.908 291.382 858.108 290.984C858.307 290.586 858.639 290.254 859.037 290.121L866.077 287.665C866.475 287.532 866.94 287.532 867.339 287.731C867.737 287.93 868.003 288.262 868.136 288.661L869.464 292.511C870.46 292.245 871.456 291.98 872.452 291.78C872.851 291.714 873.249 291.78 873.581 291.98C873.98 292.179 874.245 292.577 874.378 292.975L875.773 298.817C875.839 299.281 875.773 299.68 875.574 300.078C875.308 300.476 874.91 300.742 874.445 300.808C872.452 301.074 870.659 301.406 869.132 301.937C868.601 302.136 868.136 302.335 867.87 302.6C867.538 302.866 867.472 303.065 867.405 303.198C867.272 303.53 867.272 303.729 867.272 303.862C867.272 303.994 867.272 304.061 867.339 304.194C867.339 304.26 867.405 304.326 867.538 304.459C867.604 304.526 867.737 304.725 868.136 304.99C868.268 305.123 868.601 305.256 869.265 305.388C869.862 305.521 870.526 305.521 871.257 305.455C872.32 305.388 873.449 305.455 874.511 305.654C875.64 305.853 876.703 306.251 877.765 306.849C878.828 307.446 879.89 308.243 880.754 309.305C881.617 310.367 882.348 311.628 882.812 313.089C883.609 315.279 883.742 317.337 883.211 319.129C882.746 320.722 881.75 322.183 880.156 323.444L881.75 328.091C881.883 328.489 881.883 328.887 881.683 329.285C881.484 329.684 881.152 329.949 880.754 330.082L873.714 332.538C873.449 332.472 873.249 332.472 873.116 332.472ZM870.925 325.369C871.323 325.369 871.722 325.635 871.855 326.033L873.382 330.414L879.625 328.223L877.898 323.311C877.765 322.913 877.898 322.448 878.23 322.183C879.758 321.121 880.754 319.859 881.086 318.532C881.484 317.138 881.351 315.545 880.687 313.686C880.289 312.491 879.691 311.429 878.961 310.566C878.23 309.703 877.433 309.039 876.57 308.575C875.707 308.11 874.777 307.778 873.847 307.579C872.917 307.38 871.987 307.314 871.124 307.38C870.194 307.446 869.331 307.446 868.534 307.247C867.737 307.048 867.073 306.849 866.608 306.451C866.21 306.119 865.878 305.853 865.678 305.521C865.479 305.256 865.28 304.924 865.214 304.658C865.081 304.326 865.081 303.994 865.081 303.663C865.081 303.331 865.147 302.932 865.28 302.534C865.413 302.003 865.811 301.472 866.343 301.007C866.874 300.543 867.538 300.211 868.335 300.012C869.862 299.481 871.655 299.082 873.581 298.883L872.386 293.838C871.257 294.104 870.128 294.369 868.999 294.701C868.468 294.834 867.936 294.568 867.804 294.104L866.276 289.723L859.967 291.913L861.76 297.024C861.893 297.423 861.76 297.887 861.428 298.153C860.034 299.281 859.104 300.543 858.639 301.937C858.174 303.331 858.24 304.857 858.838 306.517C859.237 307.712 859.834 308.774 860.565 309.637C861.295 310.5 862.092 311.164 862.956 311.628C863.885 312.093 864.749 312.425 865.678 312.624C866.608 312.823 867.472 312.889 868.335 312.757C869.331 312.69 870.194 312.69 870.925 312.823C871.722 313.022 872.386 313.288 872.851 313.62C873.249 313.952 873.581 314.217 873.781 314.483C873.98 314.748 874.179 315.08 874.246 315.346C874.312 315.611 874.378 315.943 874.378 316.275C874.378 316.607 874.312 317.005 874.179 317.47C874.046 318.001 873.648 318.532 873.116 318.996C872.585 319.461 871.921 319.793 871.124 320.059C870.526 320.258 869.73 320.457 868.999 320.656C868.202 320.855 867.604 320.921 867.073 321.054C866.741 321.121 866.409 321.187 866.011 321.187L867.206 326.232C868.202 326.033 869.265 325.701 870.46 325.369C870.726 325.369 870.792 325.369 870.925 325.369Z" fill="#202D37"/>
<path d="M912.034 287.864C892.177 298.02 880.821 307.977 885.337 314.416C890.649 321.984 916.284 310.566 916.284 310.566C916.284 310.566 916.683 339.641 939.063 346.279" fill="#FFFEF2"/>
<path d="M939.063 348.536C938.864 348.536 938.598 348.536 938.399 348.469C919.14 342.761 915.022 322.183 914.159 313.952C906.322 317.138 888.657 323.178 883.41 315.744C882.082 313.819 881.684 311.628 882.282 309.239C884.34 300.875 899.017 291.913 910.971 285.806C912.1 285.209 913.495 285.673 914.092 286.802C914.69 287.93 914.225 289.324 913.096 289.922C891.181 301.074 887.462 307.911 886.864 310.367C886.598 311.429 886.731 312.292 887.329 313.089C890.184 317.204 905.791 312.757 915.421 308.442C916.151 308.11 916.948 308.176 917.612 308.575C918.276 308.973 918.675 309.703 918.675 310.5C918.675 310.765 919.339 337.915 939.793 344.022C941.055 344.42 941.719 345.681 941.387 346.943C940.989 347.872 940.059 348.536 939.063 348.536Z" fill="#202D37"/>
<path d="M1025.53 452.554C1024.33 452.554 1023.34 451.691 1023.21 450.496C1019.22 415.912 1000.16 352.651 982.362 325.966C981.167 324.174 980.37 323.51 980.038 323.311C979.374 324.108 978.511 326.829 978.112 328.223L977.979 328.622C973.53 343.093 962.107 368.981 935.941 379.735C935.211 380.598 934.015 385.111 934.148 392.812C934.281 400.246 935.543 403.897 936.14 404.495C939.727 406.619 945.77 411.265 946.102 415.248C946.301 417.771 945.305 435.229 945.106 438.681C945.039 439.942 943.911 440.938 942.649 440.871C941.387 440.805 940.391 439.676 940.457 438.415C940.922 430.516 941.653 417.372 941.52 415.713C941.387 414.584 938.266 411.133 933.75 408.477C928.37 405.291 929.632 387.302 929.699 387.103C930.363 378.009 932.554 376.15 934.082 375.486C958.587 365.529 969.346 340.968 973.596 327.294L973.729 326.896C974.858 323.245 976.12 319.196 979.44 318.665C982.429 318.2 984.82 321.187 986.281 323.444C1006.2 353.514 1024.2 418.501 1027.85 450.032C1027.99 451.293 1027.06 452.488 1025.8 452.62C1025.66 452.554 1025.6 452.554 1025.53 452.554Z" fill="#202D37"/>
<path d="M1102.5 815.124C1102.5 815.124 1102.7 826.343 1096.46 842.473C1087.82 864.843 1066.77 896.706 1015.5 921.333C946.567 954.457 806.905 932.552 772.703 892.259C762.609 880.376 754.905 868.76 749.526 856.015C742.42 839.287 739.365 820.7 740.361 797.334C741.158 778.283 744.611 756.112 750.655 729.228C751.319 726.307 752.049 723.387 752.78 720.599C774.098 641.207 833.735 600.184 898.02 592.152C912.764 590.294 931.093 591.356 950.817 595.538C996.773 605.362 1049.77 632.644 1080.19 681.5C1095.53 706.128 1105.09 736.264 1105.09 772.375C1124.68 790.232 1167.78 797.666 1174.82 797.003C1181.79 796.405 1172.83 820.501 1102.5 815.124Z" fill="#FAD932"/>
<path d="M1138.03 607.885C1131.85 617.775 1121.96 615.12 1121.49 614.987C1129.26 621.094 1114.72 639.415 1100.51 639.614C1086.3 639.814 1085.83 632.512 1085.83 632.512C1079.59 637.291 1072.61 634.968 1069.63 628.927C1069.56 637.158 1066.64 644.659 1062.25 649.771C1079.65 646.186 1096.52 656.409 1093.87 668.424C1092.34 675.327 1086.83 679.443 1080.19 681.368C1072.08 683.691 1062.32 682.695 1055.88 679.376L1050.43 756.842C1050.7 756.776 1050.96 756.643 1051.23 756.577C1060.73 753.922 1066.17 767.131 1054.48 770.119C1052.62 770.583 1050.96 770.517 1049.5 770.052L1048.31 786.979L1096.52 842.274C1087.89 864.644 1066.84 896.507 1015.57 921.134C946.633 954.258 806.971 932.352 772.769 892.06C762.675 880.177 754.971 868.561 749.592 855.816C753.311 836.897 756.698 804.636 756.698 804.636C751.12 804.636 745.143 801.317 740.427 797.202C735.712 793.02 732.259 787.975 731.661 784.457C724.356 784.523 714.328 782.399 709.015 780.208C701.378 777.022 696.663 767.596 707.155 758.369L737.173 736.397C736.908 735.933 736.708 735.402 736.642 734.804C735.845 728.631 743.416 723.055 752.846 720.466C755.436 719.736 758.159 719.271 760.882 719.072L775.692 708.252C811.819 732.215 821.648 779.943 822.113 884.094C861.162 834.508 919.803 775.429 934.945 762.352C928.769 760.825 925.847 752.395 934.878 747.815C935.742 747.35 936.605 747.084 937.402 746.952C939.262 716.483 943.379 647.049 942.516 646.186C941.387 645.058 893.837 632.18 894.966 621.758C895.43 617.709 926.444 604.964 950.883 595.538C956.196 593.48 961.177 591.621 965.494 589.962C965.095 589.298 964.763 588.634 964.498 587.838C962.04 580.602 969.545 576.885 969.545 576.885C969.545 576.885 956.263 569.118 960.58 557.303C964.963 545.487 994.848 546.018 1011.78 566.662C1011.78 566.662 1013.31 558.896 1024.2 561.551C1035.09 564.206 1036.02 583.324 1036.02 583.324C1036.02 583.324 1045.32 578.478 1054.55 587.506C1054.42 587.174 1049.7 575.557 1059.66 566.994C1070.89 557.369 1085.03 569.118 1085.03 569.118C1085.03 569.118 1091.48 551.66 1103.83 552.258C1133.91 553.585 1122.16 588.9 1122.16 588.9C1136.7 583.257 1144.34 597.795 1138.03 607.885Z" fill="#FFFEF2"/>
<path d="M731.13 786.979C722.961 786.979 712.601 784.39 708.019 782.532C703.105 780.474 699.585 776.358 698.788 771.712C698.19 768.127 698.854 762.618 705.495 756.776C706.425 755.913 707.953 756.046 708.75 756.975C709.613 757.971 709.48 759.431 708.55 760.228C704.566 763.746 702.773 767.397 703.37 770.915C703.902 773.969 706.359 776.823 709.746 778.217C718.047 781.669 733.853 783.793 737.505 781.204C741.357 778.482 738.103 772.309 738.037 772.243C737.439 771.114 737.837 769.72 738.966 769.056C740.095 768.459 741.49 768.857 742.154 769.986C744.014 773.371 746.006 780.872 740.228 784.988C738.236 786.382 734.915 786.979 731.13 786.979Z" fill="#202D37"/>
<path d="M771.242 720.864L778.946 698.959C756.1 697.1 722.164 669.021 709.878 658.599C697.592 648.177 679.595 630.255 644.862 630.653C644.862 630.653 621.95 671.145 625.603 706.061C625.603 706.061 644.331 710.642 661.996 722.192C692.28 741.973 707.753 781.005 752.913 773.305L763.538 741.508" fill="#48BA82"/>
<path d="M966.158 614.323C964.83 613.527 964.431 611.801 965.228 610.54L968.947 604.499C969.744 603.172 971.471 602.773 972.733 603.57C974.061 604.366 974.459 606.092 973.662 607.354L969.943 613.394C969.213 614.722 967.486 615.12 966.158 614.323Z" fill="#202D37"/>
<path d="M985.019 622.156C983.691 621.36 983.292 619.634 984.089 618.373L987.808 612.332C988.605 611.004 990.332 610.606 991.594 611.403C992.922 612.199 993.32 613.925 992.523 615.186L988.804 621.227C988.074 622.488 986.347 622.953 985.019 622.156Z" fill="#202D37"/>
<path d="M710.742 711.106C709.945 713.164 708.816 714.691 707.422 715.62C706.027 716.55 704.234 716.881 702.042 716.682L699.917 722.059C699.851 722.192 699.718 722.325 699.585 722.391C699.452 722.457 699.253 722.457 699.12 722.391L692.014 719.537C691.882 719.47 691.749 719.338 691.682 719.205C691.616 719.072 691.616 718.873 691.682 718.74L693.608 713.961C692.28 713.363 691.151 712.766 690.088 712.235C689.956 712.168 689.889 712.036 689.823 711.903C689.756 711.77 689.756 711.571 689.823 711.438L692.678 705.929C692.745 705.73 692.878 705.663 693.077 705.597C693.276 705.53 693.409 705.597 693.608 705.73C694.007 705.995 694.405 706.261 694.87 706.526C695.268 706.792 695.866 707.123 696.597 707.522C697.327 707.92 697.991 708.252 698.589 708.451C699.253 708.717 699.917 708.916 700.449 708.916C700.98 708.916 701.445 708.849 701.777 708.584C702.109 708.385 702.308 708.186 702.507 707.986C702.706 707.787 702.773 707.588 702.839 707.455C702.906 707.256 702.972 707.057 702.972 706.792C702.972 706.526 702.972 706.194 702.839 705.73C702.773 705.265 702.507 704.8 702.042 704.203C701.644 703.672 701.046 703.141 700.316 702.61C699.452 702.012 698.722 701.282 698.124 700.485C697.46 699.622 696.929 698.693 696.53 697.631C696.132 696.569 695.933 695.374 695.933 694.047C695.933 692.719 696.198 691.391 696.73 690.064C697.46 688.205 698.589 686.811 700.05 685.882C701.511 684.952 703.304 684.554 705.363 684.687L707.555 679.111C707.621 678.978 707.754 678.845 707.887 678.779C708.019 678.713 708.219 678.713 708.351 678.779L715.457 681.633C715.59 681.7 715.723 681.832 715.789 681.965C715.856 682.098 715.856 682.297 715.789 682.43L713.864 687.209C715.125 687.807 716.321 688.404 717.516 689.002C717.649 689.068 717.715 689.201 717.782 689.334C717.848 689.466 717.848 689.665 717.782 689.798L714.926 695.308C714.86 695.441 714.727 695.573 714.528 695.64C714.328 695.706 714.196 695.64 714.063 695.573C712.27 694.378 710.543 693.383 708.949 692.719C708.285 692.453 707.687 692.254 707.156 692.254C706.625 692.254 706.16 692.321 705.828 692.586C705.496 692.785 705.23 692.984 705.097 693.184C704.964 693.383 704.832 693.582 704.765 693.781C704.699 693.98 704.632 694.179 704.632 694.445C704.632 694.71 704.632 695.042 704.765 695.507C704.832 695.972 705.097 696.436 705.562 697.034C705.961 697.565 706.558 698.162 707.289 698.627C708.086 699.224 708.816 699.954 709.48 700.817C710.144 701.68 710.676 702.61 711.074 703.672C711.473 704.734 711.672 705.929 711.672 707.256C711.606 708.451 711.34 709.779 710.742 711.106Z" fill="#202D37"/>
<path d="M699.319 723.519C699.12 723.519 698.921 723.453 698.722 723.387L691.616 720.532C691.217 720.4 690.885 720.068 690.752 719.669C690.553 719.271 690.553 718.873 690.752 718.474L692.346 714.558C691.35 714.093 690.42 713.629 689.623 713.164C689.291 712.965 689.026 712.633 688.893 712.235C688.76 711.836 688.76 711.438 688.959 711.106C688.959 711.106 688.959 711.04 689.026 711.04L691.881 705.53C692.081 705.132 692.479 704.8 692.944 704.734C693.409 704.601 693.874 704.734 694.272 704.999C694.671 705.265 695.069 705.53 695.468 705.796C695.866 706.061 696.464 706.393 697.128 706.725C697.792 707.057 698.456 707.389 698.987 707.654C699.585 707.92 700.05 708.053 700.515 708.053C700.98 708.053 701.179 707.986 701.245 707.92C701.511 707.721 701.71 707.588 701.777 707.522C701.909 707.389 701.976 707.256 701.976 707.256C701.976 707.19 702.042 707.057 702.042 706.858C702.042 706.725 702.042 706.526 701.976 706.061C701.909 705.862 701.777 705.53 701.378 704.999C701.046 704.535 700.515 704.07 699.851 703.605C698.921 702.941 698.124 702.145 697.393 701.216C696.729 700.286 696.132 699.291 695.667 698.096C695.202 696.901 695.003 695.573 695.003 694.113C695.003 692.652 695.335 691.192 695.866 689.732C696.663 687.674 697.991 686.081 699.585 685.085C701.046 684.156 702.773 683.758 704.765 683.691L706.691 678.779C706.824 678.381 707.156 678.115 707.488 677.916C707.886 677.717 708.351 677.717 708.75 677.85L715.922 680.704C716.321 680.837 716.653 681.169 716.785 681.567C716.985 681.965 716.985 682.43 716.785 682.828L715.192 686.745C716.188 687.209 717.117 687.674 718.047 688.205C718.379 688.404 718.645 688.736 718.778 689.068C718.911 689.533 718.911 689.931 718.711 690.396L715.856 695.905C715.656 696.303 715.324 696.569 714.86 696.702C714.395 696.834 713.93 696.768 713.531 696.503C711.805 695.308 710.144 694.445 708.617 693.781C708.086 693.515 707.554 693.449 707.156 693.449C706.824 693.449 706.558 693.515 706.359 693.582C706.027 693.781 705.894 693.914 705.828 693.98C705.761 694.046 705.695 694.179 705.628 694.246C705.628 694.312 705.562 694.378 705.562 694.577C705.562 694.644 705.562 694.909 705.695 695.374C705.761 695.573 705.894 695.971 706.293 696.503C706.625 696.967 707.156 697.432 707.82 697.896C708.683 698.56 709.547 699.357 710.211 700.286C710.941 701.216 711.539 702.278 711.937 703.406C712.402 704.601 712.602 705.929 712.602 707.323C712.602 708.783 712.27 710.177 711.672 711.637C710.808 713.894 709.547 715.554 707.953 716.616C706.558 717.545 704.765 718.01 702.706 717.943L700.847 722.656C700.714 723.055 700.382 723.387 699.984 723.519C699.784 723.453 699.585 723.519 699.319 723.519ZM692.745 718.806L699.187 721.329L701.179 716.284C701.312 715.886 701.777 715.62 702.175 715.687C704.101 715.886 705.695 715.554 706.89 714.757C708.152 713.961 709.148 712.567 709.879 710.708C710.344 709.513 710.609 708.252 710.609 707.057C710.609 705.862 710.476 704.8 710.078 703.871C709.679 702.875 709.215 702.012 708.617 701.282C708.019 700.485 707.355 699.822 706.625 699.291C705.828 698.76 705.164 698.096 704.699 697.498C704.167 696.834 703.835 696.171 703.702 695.573C703.57 695.042 703.57 694.577 703.57 694.246C703.57 693.847 703.636 693.515 703.769 693.25C703.902 692.918 704.101 692.652 704.3 692.387C704.499 692.121 704.832 691.856 705.23 691.59C705.695 691.258 706.359 691.126 707.089 691.126C707.754 691.126 708.551 691.325 709.281 691.657C710.808 692.321 712.469 693.184 714.195 694.312L716.653 689.533C715.59 689.002 714.527 688.47 713.398 687.939C712.934 687.74 712.668 687.143 712.867 686.678L714.66 682.231L708.218 679.642L706.16 684.82C706.027 685.218 705.628 685.483 705.164 685.417C703.304 685.351 701.71 685.683 700.448 686.479C699.12 687.276 698.19 688.47 697.526 690.196C697.061 691.391 696.796 692.652 696.796 693.847C696.796 695.042 696.929 696.104 697.327 697.034C697.726 698.029 698.19 698.892 698.788 699.689C699.386 700.419 700.05 701.083 700.78 701.614C701.577 702.211 702.241 702.809 702.706 703.406C703.238 704.07 703.57 704.734 703.636 705.331C703.769 705.862 703.769 706.26 703.769 706.659C703.769 707.057 703.703 707.389 703.57 707.654C703.437 707.92 703.304 708.185 703.038 708.517C702.839 708.783 702.507 709.048 702.109 709.314C701.644 709.646 701.046 709.779 700.249 709.779C699.585 709.779 698.788 709.58 697.991 709.248C697.327 708.982 696.663 708.65 695.932 708.252C695.202 707.854 694.671 707.522 694.206 707.256C693.874 707.057 693.542 706.858 693.276 706.659L690.819 711.505C691.749 711.969 692.811 712.5 693.94 713.031C694.405 713.23 694.671 713.828 694.471 714.293L692.745 718.806Z" fill="#202D37"/>
<path d="M783.13 785.917C766.129 779.346 759.089 762.883 765.133 741.907C765.133 741.907 737.705 743.766 736.51 734.937C734.982 723.32 763.339 713.762 777.087 722.524" fill="#FFFEF2"/>
<path d="M783.13 788.24C782.864 788.24 782.599 788.174 782.267 788.108C764.933 781.403 757.362 764.808 762.078 744.363C753.776 744.628 735.447 744.23 734.251 735.269C733.654 730.755 736.377 726.307 741.955 722.789C751.585 716.682 768.254 714.093 778.415 720.599C779.477 721.262 779.809 722.723 779.145 723.785C778.481 724.847 777.02 725.179 775.958 724.515C767.723 719.271 752.78 721.462 744.479 726.706C742.221 728.166 738.435 731.153 738.9 734.671C739.498 738.986 754.44 740.314 765.066 739.583C765.797 739.517 766.527 739.849 767.058 740.446C767.523 741.044 767.723 741.84 767.457 742.571C761.812 762.219 767.988 777.619 784.06 783.793C785.255 784.258 785.853 785.585 785.388 786.78C784.923 787.643 784.06 788.24 783.13 788.24Z" fill="#202D37"/>
<path d="M821.847 923.657C820.519 923.657 819.523 922.595 819.523 921.333C820.984 797.135 814.808 737.194 774.297 710.31C773.235 709.579 772.969 708.185 773.633 707.057C774.364 705.995 775.758 705.729 776.887 706.393C797.541 720.134 809.827 741.442 816.667 775.495C822.91 806.561 825.101 848.779 824.172 921.333C824.172 922.661 823.176 923.657 821.847 923.657Z" fill="#202D37"/>
<path d="M748.729 862.188C748.53 862.188 748.397 862.188 748.198 862.122C746.936 861.856 746.139 860.595 746.405 859.334C749.792 844.266 753.046 815.39 753.976 806.96C742.487 805.234 730.533 792.754 729.204 784.988C729.005 783.727 729.868 782.532 731.13 782.333C732.392 782.133 733.588 782.996 733.787 784.258C734.716 789.966 746.338 802.512 756.499 802.512C757.163 802.512 757.761 802.778 758.226 803.309C758.691 803.773 758.89 804.437 758.824 805.101C758.691 806.628 754.905 842.407 750.854 860.396C750.721 861.458 749.792 862.188 748.729 862.188Z" fill="#202D37"/>
<path d="M1096.86 845.328C1096.19 845.328 1095.59 845.062 1095.13 844.531L1046.52 788.705C1046.12 788.24 1045.92 787.643 1045.92 787.046L1053.49 679.376C1053.56 678.58 1054.02 677.916 1054.68 677.518C1055.35 677.119 1056.21 677.119 1056.88 677.451C1064.18 681.235 1075.4 681.5 1082.98 677.982C1087.69 675.792 1090.55 672.473 1091.54 668.025C1092.54 663.511 1090.08 659.993 1087.76 657.869C1082.51 653.023 1071.62 649.372 1059.93 652.824C1058.67 653.222 1057.41 652.492 1057.01 651.231C1056.61 649.97 1057.34 648.709 1058.6 648.31C1070.29 644.858 1083.31 647.315 1090.94 654.417C1095.46 658.599 1097.25 663.777 1096.06 669.021C1094.73 674.796 1090.88 679.376 1084.9 682.164C1077.06 685.815 1066.24 686.014 1057.87 682.894L1050.63 786.315L1098.58 841.411C1099.45 842.407 1099.31 843.867 1098.38 844.664C1097.98 845.129 1097.39 845.328 1096.86 845.328Z" fill="#202D37"/>
<path d="M1079.59 668.755C1079.12 668.755 1078.59 668.623 1078.19 668.291C1077.2 667.627 1069.29 664.374 1061.79 667.229C1060.59 667.693 1059.27 667.096 1058.8 665.901C1058.34 664.706 1058.93 663.379 1060.13 662.914C1069.69 659.263 1079.52 663.312 1081.12 664.64C1082.11 665.436 1082.24 666.897 1081.38 667.892C1080.92 668.49 1080.25 668.755 1079.59 668.755Z" fill="#202D37"/>
<path d="M974.46 906.398C965.826 906.398 958.521 903.61 953.208 898.167C945.04 889.803 943.379 877.257 944.508 868.295C944.641 867.034 945.836 866.105 947.098 866.304C948.36 866.437 949.29 867.632 949.091 868.893C948.094 876.792 949.489 887.745 956.529 894.98C961.709 900.291 969.014 902.548 978.245 901.618C979.507 901.486 980.636 902.415 980.769 903.676C980.901 904.937 979.972 906.066 978.71 906.199C977.315 906.331 975.854 906.398 974.46 906.398Z" fill="#202D37"/>
<path d="M860.299 934.742C859.967 934.742 859.569 934.676 859.236 934.477C858.107 933.879 857.643 932.485 858.24 931.357C869.331 909.982 870.526 907.128 872.054 897.503C872.851 892.458 873.116 887.081 873.448 881.306C874.378 863.25 875.441 842.739 893.505 825.015C894.434 824.152 895.895 824.152 896.759 825.082C897.688 826.011 897.622 827.471 896.692 828.334C879.89 844.797 878.894 864.313 878.031 881.505C877.699 887.347 877.433 892.923 876.57 898.167C874.91 908.721 873.183 912.438 862.291 933.415C861.959 934.278 861.162 934.742 860.299 934.742Z" fill="#202D37"/>
<path d="M822.047 886.484C821.515 886.484 821.05 886.351 820.586 886.019C819.589 885.222 819.39 883.762 820.187 882.766C859.369 832.981 919.936 771.977 934.148 759.962C936.738 718.474 940.324 657.338 940.192 647.846C939.129 647.447 937.469 646.916 935.808 646.385C909.178 637.557 891.645 629.989 892.509 621.559C892.774 619.368 893.106 615.983 936.672 598.591C957.591 590.227 978.71 582.594 978.909 582.527C980.105 582.062 981.433 582.726 981.898 583.921C982.362 585.116 981.698 586.444 980.503 586.908C942.118 600.782 900.81 617.709 897.091 622.355C897.224 623.418 898.751 626.737 911.436 632.445C920.268 636.428 930.894 639.946 937.269 642.004C942.782 643.863 943.446 644.062 944.043 644.659C944.973 645.589 945.172 645.788 944.243 664.839C943.778 674.398 943.047 687.674 942.117 704.269C940.524 732.547 938.731 761.024 938.731 761.29C938.664 761.954 938.398 762.551 937.867 762.949C925.382 773.106 863.62 835.171 823.84 885.687C823.441 886.218 822.777 886.484 822.047 886.484Z" fill="#202D37"/>
<path d="M972.202 661.321C971.073 661.321 970.077 661.254 969.08 661.122C967.819 660.923 966.955 659.728 967.155 658.467C967.354 657.205 968.549 656.342 969.811 656.541C979.441 658.135 1000.82 649.306 1007.27 641.141C1008.06 640.145 1009.52 639.946 1010.52 640.743C1011.52 641.539 1011.72 643 1010.92 643.996C1004.08 652.691 984.156 661.321 972.202 661.321Z" fill="#202D37"/>
<path d="M978.511 653.156C978.245 653.156 978.046 653.09 977.78 653.023C976.585 652.625 975.921 651.297 976.319 650.103C977.714 645.854 981.3 642.402 985.882 640.876C990.929 639.15 996.508 640.013 1001.22 643.199C1002.29 643.929 1002.55 645.39 1001.82 646.452C1001.09 647.514 999.629 647.779 998.567 647.049C995.113 644.659 990.996 644.062 987.343 645.257C984.155 646.319 981.632 648.709 980.702 651.563C980.436 652.492 979.507 653.156 978.511 653.156Z" fill="#202D37"/>
<path d="M993.188 671.676C988.472 671.676 983.624 670.017 979.706 666.897C978.71 666.1 978.577 664.64 979.374 663.644C980.171 662.648 981.632 662.516 982.628 663.312C987.144 666.963 993.32 668.092 998.368 666.1C1003.55 664.109 1006.93 659.13 1008 651.828C1008.2 650.567 1009.39 649.704 1010.65 649.903C1011.92 650.102 1012.78 651.297 1012.58 652.559C1011.25 661.52 1006.8 667.892 1000.03 670.481C997.836 671.278 995.512 671.676 993.188 671.676Z" fill="#202D37"/>
<path d="M961.244 817.448C959.915 817.448 958.587 817.05 957.259 816.319C947.762 811.009 938.133 787.909 934.613 773.969C934.281 772.707 935.078 771.446 936.273 771.114C937.535 770.782 938.797 771.579 939.129 772.774C943.047 788.174 952.544 808.287 959.517 812.204C960.447 812.735 961.177 812.868 961.775 812.668C964.166 811.938 969.014 809.416 975.19 806.296C989.468 798.994 1013.38 786.846 1039.61 779.412C1040.87 779.08 1042.13 779.81 1042.46 781.005C1042.8 782.266 1042.07 783.527 1040.87 783.859C1015.1 791.161 991.394 803.176 977.315 810.412C970.674 813.797 965.892 816.253 963.17 817.05C962.505 817.381 961.908 817.448 961.244 817.448Z" fill="#202D37"/>
<path d="M1011.85 762.153C1021.28 760.958 1024.53 774.831 1012.91 775.96C1003.22 776.956 999.895 763.679 1011.85 762.153Z" fill="#FFFEF2"/>
<path d="M1011.98 778.35C1006.27 778.35 1002.42 774.234 1001.95 769.919C1001.49 765.538 1004.28 760.759 1011.58 759.829C1015.3 759.365 1018.69 760.759 1020.81 763.613C1022.81 766.335 1023.27 769.787 1021.94 772.707C1021.15 774.566 1018.89 777.686 1013.18 778.283C1012.78 778.35 1012.38 778.35 1011.98 778.35ZM1012.11 764.476C1008.4 764.941 1006.2 766.799 1006.54 769.388C1006.8 771.712 1009.06 774.035 1012.71 773.637C1015.24 773.371 1017.03 772.375 1017.69 770.849C1018.29 769.455 1018.03 767.729 1017.03 766.401C1016.43 765.538 1014.9 764.144 1012.11 764.476Z" fill="#202D37"/>
<path d="M993.188 765.472C1002.62 764.277 1005.87 778.15 994.25 779.279C984.621 780.275 981.3 766.998 993.188 765.472Z" fill="#FFFEF2"/>
<path d="M993.321 781.669C987.609 781.669 983.757 777.553 983.293 773.238C982.828 768.857 985.617 764.078 992.922 763.148C996.641 762.684 1000.03 764.078 1002.15 766.932C1004.15 769.654 1004.61 773.106 1003.28 776.026C1002.49 777.885 1000.23 781.005 994.516 781.602C994.118 781.669 993.719 781.669 993.321 781.669ZM993.52 767.795C989.801 768.26 987.609 770.118 987.941 772.707C988.207 775.031 990.465 777.354 994.118 776.956C996.641 776.69 998.434 775.694 999.098 774.168C999.696 772.774 999.43 771.048 998.434 769.72C997.77 768.857 996.309 767.463 993.52 767.795Z" fill="#202D37"/>
<path d="M974.327 764.41C983.625 763.082 986.746 779.08 975.39 780.407C965.826 781.47 962.572 766.136 974.327 764.41Z" fill="#FFFEF2"/>
<path d="M974.393 782.797C968.748 782.797 965.162 778.283 964.565 773.703C963.967 768.857 966.623 763.215 973.995 762.153C977.382 761.688 980.57 762.949 982.695 765.671C985.086 768.791 985.683 773.238 984.222 776.757C982.828 780.142 979.773 782.266 975.655 782.731C975.19 782.731 974.792 782.797 974.393 782.797ZM975.39 766.667C975.124 766.667 974.925 766.667 974.659 766.733C970.077 767.397 968.815 770.45 969.147 773.106C969.479 775.894 971.671 778.482 975.124 778.084C977.515 777.819 979.175 776.69 979.906 774.898C980.769 772.906 980.37 770.251 978.976 768.459C978.312 767.662 977.183 766.667 975.39 766.667Z" fill="#202D37"/>
<path d="M958.853 759.697C967.819 764.675 961.045 779.545 950.286 773.238C941.255 767.928 947.497 753.457 958.853 759.697Z" fill="#FFFEF2"/>
<path d="M955.4 777.088C953.607 777.088 951.482 776.624 949.157 775.23C943.18 771.712 942.583 765.14 945.106 760.759C947.564 756.444 953.142 753.855 960.049 757.705C963.436 759.564 965.362 762.817 965.428 766.534C965.494 770.384 963.436 774.035 960.248 775.894C959.119 776.425 957.459 777.088 955.4 777.088ZM953.541 760.493C951.415 760.493 949.888 761.622 949.091 763.082C947.696 765.538 948.028 769.256 951.482 771.247C953.873 772.641 956.064 772.84 957.857 771.844C959.584 770.849 960.713 768.724 960.713 766.6C960.713 765.405 960.314 763.215 957.791 761.821C956.131 760.892 954.736 760.493 953.541 760.493Z" fill="#202D37"/>
<path d="M934.813 747.881C944.044 743.168 952.544 756.245 941.055 761.688C931.492 766.268 923.058 753.855 934.813 747.881Z" fill="#FFFEF2"/>
<path d="M936.937 765.007C932.82 765.007 929.3 762.617 927.706 759.431C925.648 755.249 926.71 749.408 933.75 745.757C937.336 743.898 941.254 744.097 944.376 746.155C947.364 748.147 949.091 751.532 948.891 754.917C948.759 757.041 947.63 761.024 942.051 763.68C940.324 764.609 938.531 765.007 936.937 765.007ZM938.797 749.209C937.934 749.209 936.937 749.408 935.875 749.939C932.089 751.864 930.562 754.718 931.89 757.373C933.086 759.763 936.34 761.356 940.059 759.564C942.649 758.303 944.11 756.577 944.243 754.652C944.375 752.926 943.379 751.134 941.786 750.072C941.188 749.673 940.125 749.209 938.797 749.209Z" fill="#202D37"/>
<path d="M1032.37 758.635C1043.06 757.307 1046.71 772.973 1033.57 774.234C1022.61 775.296 1018.82 760.294 1032.37 758.635Z" fill="#FFFEF2"/>
<path d="M1032.5 776.557C1026.19 776.557 1021.94 772.043 1021.48 767.264C1020.95 762.485 1024.07 757.241 1032.1 756.245C1036.22 755.714 1039.94 757.241 1042.27 760.427C1044.46 763.414 1044.92 767.198 1043.53 770.384C1042.66 772.375 1040.21 775.827 1033.83 776.491C1033.37 776.557 1032.9 776.557 1032.5 776.557ZM1032.64 760.892C1028.25 761.423 1025.66 763.68 1026.06 766.799C1026.39 769.587 1029.05 772.309 1033.37 771.911C1036.35 771.645 1038.41 770.45 1039.28 768.525C1040.01 766.866 1039.74 764.808 1038.55 763.215C1037.75 762.153 1035.96 760.493 1032.64 760.892Z" fill="#202D37"/>
<path d="M1051.16 756.776C1060.66 754.121 1066.11 767.33 1054.42 770.318C1044.66 772.774 1039.14 760.161 1051.16 756.776Z" fill="#FFFEF2"/>
<path d="M1051.96 772.906C1047.05 772.906 1043.33 769.72 1042.27 765.936C1041.14 761.688 1043.26 756.577 1050.57 754.519C1054.29 753.457 1058.07 754.386 1060.66 756.909C1062.99 759.232 1063.98 762.551 1063.12 765.605C1062.59 767.53 1060.79 771.048 1055.02 772.574C1053.95 772.774 1052.89 772.906 1051.96 772.906ZM1053.69 758.701C1053.09 758.701 1052.49 758.767 1051.83 758.966C1048.04 760.029 1046.12 762.219 1046.78 764.742C1047.38 767.065 1050.1 768.99 1053.89 767.994C1056.48 767.33 1058.2 766.003 1058.67 764.343C1059.07 762.949 1058.54 761.356 1057.41 760.161C1056.41 759.232 1055.08 758.701 1053.69 758.701Z" fill="#202D37"/>
<path d="M1085.03 569.118C1085.03 569.118 1091.48 551.66 1103.83 552.258C1133.91 553.585 1122.16 588.9 1122.16 588.9C1136.7 583.257 1144.41 597.795 1138.03 607.884C1131.72 617.974 1121.49 614.987 1121.49 614.987C1129.26 621.094 1114.72 639.415 1100.51 639.681C1086.3 639.946 1085.83 632.578 1085.83 632.578C1079.59 637.357 1072.61 635.034 1069.63 628.993C1069.49 648.974 1052.49 664.308 1038.81 653.222C1023.94 641.141 1028.12 611.469 1028.12 611.469C1023.8 613.66 1020.81 608.947 1025.33 604.897C1011.65 614.124 997.305 605.03 1006.4 592.683C997.371 600.914 968.881 601.047 964.365 587.904C961.908 580.668 969.412 576.951 969.412 576.951C969.412 576.951 956.13 569.185 960.447 557.369C964.83 545.553 994.715 546.084 1011.65 566.729C1011.65 566.729 1013.18 558.962 1024.07 561.617C1034.96 564.272 1035.89 583.39 1035.89 583.39C1035.89 583.39 1045.25 578.544 1054.42 587.572C1054.42 587.572 1049.44 575.756 1059.53 567.06C1070.82 557.369 1085.03 569.118 1085.03 569.118Z" fill="#202D37"/>
<path d="M1048.57 659.329C1044.66 659.329 1040.8 657.869 1037.28 655.081C1024.4 644.593 1024.8 622.621 1025.46 614.39C1023.94 614.257 1022.54 613.527 1021.61 612.199C1021.15 611.535 1020.88 610.739 1020.75 609.876C1013.77 612.332 1007.4 610.739 1004.01 607.221C1002.09 605.163 1000.76 602.043 1001.36 598.259C994.25 600.981 984.421 601.645 976.186 599.521C968.881 597.662 963.9 593.812 962.174 588.701C960.381 583.456 962.771 579.407 965.428 576.951C960.513 572.968 955.001 565.534 958.322 556.572C959.982 551.992 964.631 548.872 971.272 547.744C982.296 545.885 999.032 549.868 1011.12 562.613C1011.72 561.816 1012.51 561.086 1013.58 560.422C1016.43 558.63 1020.15 558.232 1024.67 559.36C1034.36 561.684 1037.15 574.362 1037.95 580.27C1040.94 579.54 1045.72 579.208 1050.9 582.062C1050.63 576.951 1052.09 570.446 1058.07 565.335C1066.84 557.834 1077.73 561.551 1083.97 565.666C1086.49 560.422 1093.07 549.536 1103.83 550.067C1112.4 550.465 1118.7 553.452 1122.49 559.028C1128.33 567.459 1126.74 579.474 1125.35 585.713C1130.79 584.784 1135.77 586.444 1139.03 590.36C1143.28 595.471 1143.61 603.238 1139.89 609.212C1135.9 615.585 1130.13 617.642 1125.61 617.842C1126.01 619.634 1125.81 621.692 1125.08 623.882C1122.22 632.379 1111.33 641.938 1100.31 642.137C1090.28 642.27 1086.16 638.884 1084.44 636.163C1081.71 637.557 1078.72 637.955 1075.94 637.291C1074.21 636.893 1072.62 636.096 1071.15 635.034C1069.49 645.19 1063.65 654.085 1055.88 657.736C1053.62 658.732 1051.1 659.329 1048.57 659.329ZM1028.12 609.146C1028.58 609.146 1029.05 609.278 1029.45 609.544C1030.18 610.075 1030.51 610.872 1030.38 611.735C1030.31 612 1026.53 640.278 1040.21 651.364C1045.65 655.811 1050.77 654.882 1054.09 653.289C1061.72 649.704 1067.17 639.681 1067.17 628.927C1067.17 627.865 1067.9 626.936 1068.96 626.67C1070.02 626.405 1071.09 626.936 1071.55 627.865C1072.75 630.255 1074.81 631.981 1077.13 632.512C1079.52 633.043 1081.98 632.379 1084.3 630.587C1085.03 630.056 1085.96 629.856 1086.76 630.255C1087.56 630.653 1088.02 631.383 1088.09 632.246C1088.16 632.711 1089.22 637.424 1100.37 637.225C1109.07 637.092 1118.5 628.993 1120.76 622.156C1121.63 619.634 1121.36 617.775 1119.97 616.713C1119.1 616.049 1118.84 614.788 1119.37 613.792C1119.9 612.797 1121.03 612.332 1122.09 612.597C1122.42 612.664 1130.72 614.921 1136.04 606.49C1138.76 602.176 1138.49 596.666 1135.51 593.015C1132.72 589.63 1128.13 588.833 1122.95 590.891C1122.09 591.223 1121.16 591.024 1120.5 590.426C1119.83 589.829 1119.63 588.833 1119.9 588.037C1119.97 587.838 1125.41 571.11 1118.7 561.352C1115.72 557.037 1110.67 554.714 1103.63 554.382C1103.5 554.382 1103.3 554.382 1103.16 554.382C1092.94 554.382 1087.16 569.583 1087.09 569.782C1086.83 570.512 1086.23 571.043 1085.5 571.242C1084.77 571.442 1083.97 571.242 1083.44 570.778C1082.91 570.313 1070.62 560.356 1061.06 568.587C1052.36 576.022 1056.41 586.045 1056.54 586.444C1056.94 587.439 1056.61 588.634 1055.68 589.232C1054.75 589.829 1053.56 589.763 1052.76 588.966C1044.99 581.332 1037.28 585.05 1036.95 585.182C1036.22 585.514 1035.42 585.514 1034.76 585.116C1034.1 584.718 1033.63 583.987 1033.63 583.257C1033.37 578.412 1031.11 565.467 1023.6 563.609C1020.42 562.812 1017.89 563.011 1016.17 564.073C1014.37 565.135 1013.97 566.928 1013.97 566.994C1013.77 567.857 1013.11 568.587 1012.25 568.786C1011.38 568.985 1010.45 568.654 1009.92 567.99C998.899 554.581 982.562 550.333 972.069 552.125C967.154 552.921 963.768 555.112 962.705 558.033C959.052 567.923 970.541 574.761 970.674 574.827C971.405 575.292 971.87 576.088 971.803 576.885C971.737 577.681 971.272 578.478 970.541 578.876C969.944 579.142 964.897 581.93 966.623 587.041C968.283 591.887 974.061 594.011 977.382 594.874C987.011 597.33 999.829 595.471 1004.88 590.891C1005.74 590.094 1007.13 590.094 1008 590.891C1008.86 591.688 1008.99 593.015 1008.33 594.011C1005.47 597.927 1005.14 601.512 1007.4 603.902C1010.32 606.889 1017.1 607.619 1024 602.906C1025 602.242 1026.39 602.441 1027.12 603.437C1027.85 604.433 1027.72 605.76 1026.79 606.623C1025.2 608.017 1025.2 609.146 1025.4 609.478C1025.6 609.743 1026.19 609.743 1026.99 609.345C1027.39 609.212 1027.72 609.146 1028.12 609.146Z" fill="#202D37"/>
<path d="M254.1 415.182C253.636 415.182 253.171 415.049 252.772 414.784C252.639 414.717 241.881 407.482 234.31 407.15C233.048 407.083 232.052 406.021 232.118 404.76C232.185 403.499 233.247 402.503 234.509 402.57C243.408 402.968 254.897 410.668 255.362 411C256.425 411.73 256.69 413.19 255.96 414.253C255.561 414.85 254.831 415.182 254.1 415.182Z" fill="#202D37"/>
<path d="M362.749 324.904C391.04 330.148 383.801 352.12 362.417 363.14C340.634 374.291 304.241 368.45 304.241 368.45C304.241 368.45 303.709 383.85 287.638 395.666C271.567 407.482 245.799 398.786 240.619 391.816C229.263 376.548 241.682 347.407 271.367 359.024C271.367 359.024 259.413 329.086 287.638 320.457C311.347 313.221 317.523 332.671 335.255 336.521C376.828 345.681 358.299 324.041 362.749 324.904Z" fill="#202D37"/>
<path d="M268.113 403.764C255.03 403.764 242.412 398.122 238.693 393.143C232.318 384.514 232.517 371.902 239.291 363.073C245.6 354.842 256.027 352.12 267.781 355.373C266.453 349.996 265.191 340.637 269.176 332.273C272.43 325.568 278.341 320.855 286.908 318.2C302.78 313.354 311.48 319.727 319.847 325.834C324.762 329.418 329.477 332.87 335.653 334.198C353.252 338.048 358.432 335.99 359.96 334.397C361.288 333.003 360.823 330.679 360.159 328.024C359.694 326.166 359.229 324.572 360.425 323.245C360.757 322.913 361.62 322.116 363.147 322.448C379.285 325.435 382.805 333.401 383.469 337.915C384.864 347.275 376.762 358.161 363.413 364.998C344.22 374.822 314.8 371.968 306.167 370.84C305.303 375.951 301.917 387.7 288.9 397.325C282.79 402.039 275.352 403.764 268.113 403.764ZM258.417 358.692C252.042 358.692 246.663 361.148 243.01 365.927C237.564 373.03 237.365 383.518 242.479 390.422C247.194 396.728 271.7 404.495 286.244 393.807C301.252 382.788 301.917 368.516 301.917 368.384C301.917 367.72 302.249 367.122 302.78 366.658C303.311 366.259 303.975 366.06 304.639 366.127C304.971 366.193 340.501 371.769 361.421 361.082C372.843 355.24 380.016 346.08 378.953 338.778C378.223 333.667 373.242 329.816 364.874 327.759C365.605 330.547 366.335 334.662 363.347 337.782C359.362 341.964 350.264 342.296 334.724 338.911C327.551 337.318 322.305 333.467 317.191 329.75C309.022 323.776 301.983 318.598 288.369 322.78C281.13 324.971 276.083 328.887 273.493 334.397C268.445 344.951 273.559 358.095 273.625 358.227C273.958 359.09 273.758 360.086 273.094 360.75C272.43 361.414 271.434 361.613 270.571 361.281C266.187 359.489 262.136 358.692 258.417 358.692Z" fill="#202D37"/>
<path d="M391.173 635.632C390.11 635.632 389.114 634.901 388.915 633.773C382.938 604.632 363.878 564.671 363.679 564.273C363.479 563.941 363.413 563.542 363.479 563.144L369.058 445.451C369.124 444.721 369.456 444.057 370.054 443.659C370.652 443.261 371.382 443.128 372.046 443.327C389.844 448.372 410.697 453.085 415.811 452.554C415.147 448.97 409.502 436.822 395.622 415.115C381.742 393.409 366.202 372.632 354.049 359.555C353.186 358.626 353.252 357.165 354.182 356.302C355.112 355.439 356.573 355.506 357.436 356.435C369.788 369.778 385.594 390.82 399.607 412.792C404.72 420.758 421.323 447.376 420.526 454.014C420.327 455.408 419.53 456.139 419.065 456.471C417.803 457.267 415.213 458.927 392.302 453.55C384.797 451.758 377.492 449.833 373.64 448.77L368.195 563.011C370.519 567.923 387.852 605.229 393.563 633.043C393.829 634.304 393.032 635.499 391.77 635.764C391.438 635.632 391.306 635.632 391.173 635.632Z" fill="#202D37"/>
<path d="M321.508 551.196C290.892 551.196 261.273 544.093 248.721 532.078C247.792 531.215 247.792 529.688 248.655 528.825C249.518 527.896 251.046 527.896 251.909 528.759C259.613 536.127 275.352 541.969 295.143 544.823C315.464 547.744 337.978 547.146 356.905 543.163C358.167 542.898 359.362 543.694 359.628 544.956C359.893 546.217 359.096 547.412 357.835 547.677C346.279 550.067 333.794 551.196 321.508 551.196Z" fill="#202D37"/>
<path d="M282.192 586.178C273.692 586.178 264.859 575.159 250.448 556.307C249.651 555.311 249.85 553.851 250.913 553.054C251.909 552.258 253.37 552.457 254.167 553.519C267.449 570.977 276.68 582.328 282.923 581.531C287.837 580.868 304.108 566.861 311.944 560.091C315.398 557.103 317.921 554.979 319.25 553.984C327.086 548.341 334.258 554.714 340.833 562.414C343.357 565.401 351.127 574.429 356.373 573.3C359.893 572.504 362.218 567.061 363.479 562.613C363.811 561.352 365.14 560.688 366.335 561.02C367.597 561.352 368.261 562.679 367.929 563.874C365.538 572.238 362.085 576.752 357.37 577.814C350.264 579.341 342.892 572.039 337.247 565.467C328.082 554.78 324.629 555.776 321.906 557.767C320.777 558.564 318.054 560.887 314.933 563.609C301.651 575.026 289.298 585.382 283.454 586.112C283.056 586.178 282.657 586.178 282.192 586.178Z" fill="#202D37"/>
<path d="M325.559 586.244C325.293 586.244 324.961 586.244 324.695 586.178C319.249 585.182 313.737 578.146 308.425 565.202C307.96 564.007 308.491 562.679 309.686 562.148C310.882 561.684 312.21 562.215 312.741 563.41C319.316 579.274 324.23 581.332 325.559 581.598C328.016 582.062 336.716 572.437 339.97 566.397C340.567 565.268 341.962 564.804 343.091 565.467C344.22 566.065 344.685 567.459 344.021 568.587C342.825 570.844 332.864 586.244 325.559 586.244Z" fill="#202D37"/>
<path d="M342.029 637.291C340.767 637.291 339.771 636.295 339.704 635.1C337.978 598.259 329.876 584.452 329.079 583.125C329.012 583.058 328.946 582.992 328.879 582.925C328.082 581.93 328.149 580.469 329.145 579.673C329.809 579.075 330.805 578.943 331.602 579.341C333.794 580.27 336.782 588.767 338.11 593.082C340.435 600.848 343.423 614.39 344.353 634.968C344.42 636.229 343.423 637.357 342.162 637.424C342.095 637.291 342.029 637.291 342.029 637.291Z" fill="#202D37"/>
<path d="M356.506 440.672C356.506 444.92 347.673 461.582 336.45 470.742C330.473 475.588 323.832 478.31 317.456 475.854C309.819 472.933 305.17 467.556 302.58 462.047C298.861 454.28 299.326 446.381 301.385 445.252C307.694 441.734 356.506 436.822 356.506 440.672Z" fill="#202D37"/>
<path d="M322.371 479.04C320.378 479.04 318.519 478.708 316.659 477.978C307.495 474.526 302.846 467.888 300.455 463.042C296.537 454.811 296.404 445.319 300.256 443.194C303.975 441.137 318.054 439.145 329.012 438.083C338.044 437.22 353.783 436.025 357.303 438.149C358.299 438.747 358.83 439.676 358.83 440.672C358.83 446.248 349.068 463.507 337.911 472.535C332.598 476.849 327.352 479.04 322.371 479.04ZM302.647 447.177C301.85 448.438 301.518 454.545 304.639 461.051C306.631 465.166 310.55 470.742 318.253 473.663C323.168 475.522 328.746 473.929 334.989 468.884C345.15 460.652 352.654 446.646 353.982 441.8C346.412 440.473 308.424 444.323 302.647 447.177Z" fill="#202D37"/>
<path d="M336.517 470.742C330.54 475.588 323.898 478.31 317.523 475.854C309.886 472.933 305.237 467.556 302.647 462.046C315.066 458.196 330.739 458.263 336.517 470.742Z" fill="#FFFEF2"/>
<path d="M322.371 479.04C320.379 479.04 318.519 478.708 316.66 477.978C307.495 474.526 302.846 467.888 300.455 463.042C300.19 462.445 300.123 461.715 300.455 461.117C300.721 460.52 301.252 460.055 301.916 459.856C315.531 455.674 332.266 456.072 338.642 469.747C339.106 470.742 338.841 471.871 337.977 472.535C332.598 476.849 327.352 479.04 322.371 479.04ZM306.034 463.507C308.292 467.158 312.077 471.273 318.32 473.663C322.836 475.389 327.949 474.194 333.528 470.079C328.281 461.449 316.527 460.918 306.034 463.507Z" fill="#202D37"/>
<path d="M479.698 608.017C478.437 608.017 477.374 606.955 477.374 605.694C477.374 595.604 473.389 585.448 468.674 583.523C467.678 583.125 467.08 582.129 467.213 581.067C468.342 572.703 471.331 552.988 474.12 549.669C475.315 548.275 477.374 547.81 480.23 547.146C486.539 545.752 497.165 543.363 505.067 529.356C505.665 528.228 507.126 527.83 508.255 528.493C509.384 529.091 509.783 530.551 509.118 531.68C500.219 547.478 487.867 550.266 481.226 551.727C479.831 552.059 478.105 552.457 477.573 552.722C476.245 554.714 473.655 568.056 471.928 580.071C478.437 584.187 481.89 595.936 481.89 605.628C482.023 606.955 480.96 608.017 479.698 608.017Z" fill="#202D37"/>
<path d="M472.327 563.144C464.955 563.144 431.551 558.962 413.42 548.076C412.291 547.412 411.959 546.018 412.624 544.889C413.288 543.761 414.682 543.429 415.811 544.093C434.473 555.311 469.803 558.829 472.858 558.497C474.12 558.365 475.249 559.294 475.382 560.555C475.515 561.816 474.585 562.945 473.323 563.078C472.991 563.144 472.725 563.144 472.327 563.144Z" fill="#202D37"/>
<path d="M469.538 583.722C469.471 583.722 469.405 583.722 469.405 583.722C429.757 581 411.428 571.176 406.713 568.255C405.65 567.591 405.318 566.131 405.982 565.069C406.646 564.007 408.107 563.675 409.17 564.339C412.358 566.33 430.089 576.354 469.67 579.075C470.932 579.142 471.928 580.27 471.795 581.531C471.795 582.793 470.733 583.722 469.538 583.722Z" fill="#202D37"/>
<path d="M474.053 464.37C498.426 468.021 512.24 474.393 511.177 481.098C510.115 487.802 497.563 490.922 476.046 487.271C476.046 487.271 482.952 526.967 457.318 528.161" fill="#FFFEF2"/>
<path d="M457.318 530.551C456.056 530.551 455.06 529.555 454.993 528.361C454.927 527.099 455.923 525.971 457.185 525.905C462.232 525.639 466.084 523.78 468.94 520.262C477.44 509.641 473.788 487.935 473.788 487.736C473.655 487.006 473.92 486.209 474.452 485.678C474.983 485.147 475.714 484.881 476.511 485.014C490.855 487.47 502.278 486.873 506.993 483.554C508.122 482.757 508.786 481.828 508.919 480.766C509.052 480.036 508.786 479.305 508.188 478.509C504.802 473.862 491.918 469.415 473.721 466.693C472.459 466.494 471.596 465.299 471.795 464.038C471.995 462.777 473.19 461.914 474.452 462.113C486.007 463.839 506.196 467.888 511.974 475.787C513.302 477.58 513.833 479.571 513.501 481.562C513.103 483.819 511.841 485.811 509.65 487.337C504.137 491.254 493.312 492.25 478.835 490.125C479.565 497.029 480.429 513.491 472.659 523.183C469.006 527.763 463.892 530.286 457.517 530.618C457.384 530.551 457.318 530.551 457.318 530.551Z" fill="#202D37"/>
<path d="M679.13 598.591C670.032 598.591 659.738 597.064 653.296 593.48C647.253 590.161 645.792 585.913 645.593 582.925C645.327 578.212 645.327 571.773 645.261 564.936C645.194 549.536 645.128 530.286 642.272 521.457C640.479 516.014 637.092 513.359 632.842 509.973C627.861 506.057 621.618 501.145 616.837 490.258C605.613 464.503 606.61 436.822 619.427 416.31C630.783 398.122 650.374 387.435 674.548 386.373C695.069 385.443 711.406 391.351 723.293 403.897C742.088 423.811 743.416 454.811 742.42 464.104C739.963 486.607 729.005 500.082 721.036 509.973C716.32 515.815 712.601 520.395 712.203 524.71C712.004 526.767 710.144 545.354 707.156 562.945C702.64 589.298 698.921 594.409 696.198 595.936C693.143 597.595 686.568 598.591 679.13 598.591ZM674.747 388.63L674.88 390.953C652.234 392.015 634.037 401.839 623.478 418.7C611.458 437.95 610.594 463.971 621.22 488.4C625.47 498.224 630.982 502.539 635.83 506.322C640.346 509.84 644.597 513.226 646.855 520.063C649.909 529.555 649.976 548.341 650.042 564.936C650.042 571.707 650.109 578.08 650.374 582.66C650.507 585.315 652.3 587.572 655.621 589.431C666.844 595.604 689.291 594.476 694.073 591.82C694.737 591.422 698.257 588.302 702.706 562.082C705.695 544.624 707.488 526.236 707.687 524.179C708.218 518.47 712.336 513.425 717.582 506.986C725.618 497.029 735.646 484.682 737.97 463.573C738.9 454.811 737.638 425.736 720.106 407.017C709.214 395.467 694.073 390.024 674.946 390.953L674.747 388.63Z" fill="#202D37"/>
<path d="M678.732 557.103C667.309 557.103 656.086 554.647 646.39 549.669C645.261 549.071 644.796 547.677 645.394 546.549C645.991 545.42 647.386 544.956 648.515 545.553C665.317 554.116 686.834 554.78 706.093 547.412C707.289 546.947 708.617 547.545 709.082 548.739C709.547 549.934 708.949 551.262 707.753 551.727C698.323 555.311 688.428 557.103 678.732 557.103Z" fill="#202D37"/>
<path d="M652.367 580.27C650.773 580.27 649.179 580.204 647.652 580.137C646.39 580.071 645.394 578.943 645.46 577.681C645.527 576.42 646.656 575.424 647.917 575.491C668.505 576.818 698.788 568.056 702.706 564.936C703.702 564.14 705.164 564.339 705.96 565.335C706.757 566.33 706.558 567.791 705.562 568.587C700.98 572.238 673.685 580.27 652.367 580.27Z" fill="#202D37"/>
<path d="M666.579 556.108C666.512 556.108 666.379 556.108 666.313 556.108C665.051 555.975 664.121 554.846 664.254 553.519L664.586 550.333C667.84 521.457 670.098 501.41 668.04 488.731C662.195 489.528 656.551 489.528 651.835 488.4C644.198 486.541 642.671 482.558 642.405 480.301C641.94 476.517 644.663 472.402 649.113 470.079C653.363 467.888 659.871 467.291 665.118 472.07C668.172 474.858 670.298 478.575 671.559 483.355C675.212 482.624 678.931 481.562 682.517 480.301C682.451 478.243 682.451 476.318 682.384 474.46C682.119 465.034 685.439 457.533 691.682 453.948C696.131 451.359 701.511 451.226 705.363 453.616C708.617 455.608 710.343 459.126 710.144 463.175C709.878 467.423 706.824 471.804 701.311 475.92C697.592 478.708 692.678 481.297 687.299 483.487C687.631 507.65 686.701 541.637 685.971 553.917C685.904 555.178 684.775 556.174 683.513 556.108C682.251 556.041 681.255 554.913 681.322 553.652C682.052 541.703 682.916 509.177 682.65 485.213C679.396 486.342 676.009 487.271 672.622 487.935C674.813 501.543 672.556 521.855 669.235 550.864L668.903 554.05C668.704 555.245 667.708 556.108 666.579 556.108ZM655.886 473.132C653.761 473.132 651.968 473.862 651.238 474.261C648.581 475.588 646.788 477.911 647.054 479.77C647.253 481.496 649.445 483.023 652.964 483.886C656.949 484.881 661.863 484.881 667.043 484.151C665.981 480.5 664.321 477.646 661.996 475.522C659.937 473.729 657.746 473.132 655.886 473.132ZM699.053 456.67C697.393 456.67 695.6 457.134 694.006 458.064C689.357 460.785 686.834 466.693 687.033 474.393C687.1 475.721 687.099 477.115 687.166 478.575C691.483 476.717 695.467 474.526 698.522 472.269C702.839 469.083 705.362 465.764 705.495 463.042C705.695 460.055 704.234 458.528 702.972 457.732C701.776 457.002 700.448 456.67 699.053 456.67Z" fill="#202D37"/>
<path d="M776.821 460.52C775.891 460.52 774.961 459.922 774.629 458.993C774.164 457.798 774.828 456.471 776.024 456.006C787.911 451.691 795.349 449.301 795.482 449.301C796.678 448.903 798.006 449.567 798.404 450.828C798.803 452.023 798.139 453.351 796.877 453.749C796.81 453.749 789.439 456.139 777.618 460.387C777.352 460.453 777.086 460.52 776.821 460.52Z" fill="#202D37"/>
<path d="M576.99 428.458C576.658 428.458 576.326 428.392 575.994 428.259C564.571 422.749 557.665 419.098 557.598 419.098C556.469 418.501 556.004 417.107 556.602 415.978C557.2 414.85 558.594 414.385 559.723 414.983C559.79 415.049 566.63 418.634 577.92 424.077C579.049 424.608 579.58 426.002 578.983 427.197C578.651 427.993 577.854 428.458 576.99 428.458Z" fill="#202D37"/>
<path d="M719.84 361.148C719.574 361.148 719.309 361.082 718.977 361.015C717.781 360.551 717.184 359.223 717.649 358.028C721.035 349.332 724.954 342.163 725.153 341.898C725.751 340.769 727.212 340.371 728.341 340.968C729.47 341.566 729.868 343.026 729.27 344.155C729.204 344.221 725.286 351.257 722.098 359.688C721.633 360.617 720.77 361.148 719.84 361.148Z" fill="#202D37"/>
<path d="M676.54 347.075C675.411 347.075 674.415 346.212 674.216 345.084C674.149 344.686 672.887 335.193 674.216 319.461C674.349 318.2 675.478 317.204 676.739 317.337C678.001 317.47 678.997 318.598 678.864 319.859C677.536 334.994 678.864 344.287 678.864 344.42C679.064 345.681 678.134 346.876 676.872 347.075C676.739 347.075 676.673 347.075 676.54 347.075Z" fill="#202D37"/>
<path d="M635.1 363.604C634.303 363.604 633.506 363.206 633.108 362.476C633.041 362.343 625.072 348.669 619.493 340.172C618.763 339.11 619.095 337.649 620.158 336.986C621.22 336.255 622.681 336.587 623.345 337.649C628.99 346.279 637.026 360.02 637.092 360.152C637.756 361.281 637.358 362.675 636.229 363.339C635.897 363.471 635.498 363.604 635.1 363.604Z" fill="#202D37"/>
<path d="M1215.27 470.078C1204.31 470.078 1153.5 439.676 1141.88 430.98C1134.44 433.105 1092.34 444.854 1049.64 450.762C1048.37 450.961 1047.18 450.032 1047.05 448.77C1046.85 447.509 1047.78 446.314 1049.04 446.181C1095.46 439.743 1141.28 426.334 1141.75 426.201C1142.48 426.002 1143.28 426.135 1143.87 426.599C1156.56 436.755 1204.57 463.573 1214.14 465.365C1212.61 457.4 1196.07 423.745 1188.7 408.809C1182.79 396.794 1181.86 394.803 1181.73 393.94C1181.33 391.882 1182.92 390.621 1184.65 389.36C1187.97 386.837 1194.81 381.527 1198.53 365.33C1199.33 361.878 1200.06 357.165 1200.72 351.324C1200.85 350.062 1202.05 349.133 1203.31 349.266C1204.57 349.399 1205.5 350.594 1205.37 351.855C1204.71 357.829 1203.91 362.741 1203.05 366.392C1198.99 384.182 1191.22 390.156 1187.51 393.077C1187.24 393.276 1186.91 393.542 1186.64 393.807C1187.57 395.865 1190.23 401.242 1192.95 406.818C1216.99 455.608 1220.25 465.233 1218.52 468.419C1218.25 468.884 1217.59 469.747 1216.26 470.012C1215.86 470.012 1215.6 470.078 1215.27 470.078Z" fill="#FAD932"/>
<path d="M1202.98 353.913C1202.05 353.913 1201.12 353.315 1200.79 352.386C1200.65 352.054 1188.83 319.926 1175.42 282.952C1161.54 244.65 1154.1 216.837 1153.97 216.571C1153.7 215.642 1154.1 214.646 1154.83 214.049C1155.03 213.916 1172.1 201.569 1173.09 190.218C1173.36 187.032 1172.3 184.31 1169.91 181.854C1167.52 179.465 1164.99 178.403 1162.14 178.602C1154.17 179.265 1146.6 189.754 1146.53 189.886C1145.8 190.948 1144.34 191.214 1143.28 190.417C1142.21 189.687 1141.95 188.227 1142.74 187.165C1143.08 186.634 1151.58 174.752 1161.74 173.889C1165.99 173.557 1169.84 175.083 1173.16 178.469C1176.55 181.921 1178.08 185.97 1177.68 190.484C1176.68 202.034 1163.2 213.385 1158.82 216.704C1160.54 222.944 1167.72 248.102 1179.67 281.16C1193.02 318.067 1204.91 350.262 1205.04 350.594C1205.5 351.788 1204.84 353.116 1203.64 353.581C1203.51 353.846 1203.24 353.913 1202.98 353.913Z" fill="#202D37"/>
<path d="M1048.18 450.895C1048.04 450.895 1047.84 450.895 1047.71 450.828C1046.45 450.563 1045.65 449.301 1045.92 448.107C1051.1 423.347 1071.09 381.726 1074.67 374.358C1072.68 370.441 1066.04 356.568 1066.04 344.553C1066.04 331.675 1071.35 330.879 1087.03 328.356C1090.15 327.891 1093.67 327.294 1097.78 326.564C1127.2 321.253 1164.39 309.438 1181.26 294.9C1182.26 294.037 1183.72 294.17 1184.52 295.166C1185.38 296.162 1185.25 297.622 1184.25 298.419C1165.52 314.549 1126.34 326.166 1098.52 331.144C1094.4 331.874 1090.81 332.472 1087.69 332.936C1071.82 335.459 1070.62 335.857 1070.62 344.553C1070.62 357.298 1079.19 373.03 1079.26 373.229C1079.59 373.893 1079.65 374.69 1079.32 375.354C1079.06 375.818 1055.88 423.015 1050.43 449.102C1050.23 450.164 1049.3 450.895 1048.18 450.895Z" fill="#202D37"/>
<path d="M220.63 659.329C219.169 659.329 217.907 658.997 216.911 658.201C214.653 656.409 214.586 653.09 216.844 649.372C222.688 639.548 231.388 616.049 233.646 609.743C230.193 606.756 223.685 599.454 217.575 591.621C216.778 590.626 216.977 589.165 217.973 588.369C218.969 587.572 220.43 587.771 221.227 588.767C230.392 600.45 236.435 606.225 237.432 606.889C238.494 607.42 238.959 608.615 238.561 609.743C238.096 611.004 227.736 640.079 220.829 651.762C219.833 653.421 219.833 654.351 219.899 654.616C220.497 654.815 229.662 656.674 266.32 622.355C266.918 621.824 267.715 621.625 268.512 621.824C281.993 625.409 295.143 628.396 307.628 630.719C308.89 630.919 309.753 632.18 309.487 633.441C309.222 634.702 308.026 635.565 306.765 635.3C294.545 633.043 281.661 630.188 268.512 626.67C254.3 639.814 231.521 659.329 220.63 659.329Z" fill="#FAD932"/>
<path d="M218.836 593.613C218.504 593.613 218.172 593.546 217.84 593.414C216.711 592.883 216.18 591.489 216.711 590.294C255.03 509.907 254.565 441.933 254.034 429.055C254.034 429.055 253.968 429.055 253.901 429.055C238.228 429.055 226.075 423.347 221.161 413.655C217.973 407.349 218.438 400.379 222.422 395.4C226.872 389.825 234.642 387.899 243.74 390.09C245.002 390.422 245.733 391.683 245.467 392.878C245.135 394.139 243.873 394.869 242.678 394.604C235.439 392.812 229.396 394.139 226.141 398.255C223.352 401.773 223.02 406.884 225.411 411.531C229.728 420.094 241.283 424.873 256.226 424.342C257.487 424.276 258.55 425.272 258.616 426.467C258.683 427.263 260.011 445.584 256.026 475.323C252.374 502.738 243.342 545.221 220.895 592.285C220.496 593.148 219.7 593.613 218.836 593.613Z" fill="#202D37"/>
<path d="M307.163 635.233C307.03 635.233 306.897 635.233 306.765 635.233C305.503 635.034 304.639 633.839 304.839 632.578C305.104 630.918 311.413 592.351 317.988 579.673C318.586 578.544 319.98 578.08 321.109 578.677C322.238 579.274 322.703 580.668 322.105 581.797C315.863 593.878 309.487 632.976 309.421 633.308C309.288 634.437 308.292 635.233 307.163 635.233Z" fill="#202D37"/>
</g>
</g>
<defs>
<clipPath id="clip0_3457_3476">
<rect width="1440" height="1024" fill="white"/>
</clipPath>
<clipPath id="clip1_3457_3476">
<rect width="1506" height="1129" fill="white" transform="translate(-66 -53)"/>
</clipPath>
</defs>
</svg>
