<svg width="1440" height="1024" viewBox="0 0 1440 1024" fill="none" xmlns="http://www.w3.org/2000/svg">
<g clip-path="url(#clip0_3457_4870)">
<rect width="1440" height="1024" fill="white"/>
<g clip-path="url(#clip1_3457_4870)">
<path d="M1567.47 -180.131H-127.538V1204.13H1567.47V-180.131Z" fill="#FFFEF2"/>
<path d="M941.413 693.24C890.713 728.836 800.021 763.297 697.699 778.259C564.958 797.617 412.717 784.286 302.808 698.204C296.355 693.169 290.044 687.851 283.875 682.321C66.8232 485.977 291.533 164.481 531.985 300.269C686.283 387.415 759.886 419.182 959.778 322.534C1122.16 244.039 1233.77 487.679 941.413 693.24Z" fill="#FAD932"/>
<path d="M1239.44 269.992C1231.36 232.127 1095.78 211.918 1051.18 208.869C1006.58 205.82 955.24 208.231 956.446 240.636C957.651 273.041 961.977 373.233 962.898 449.672C954.744 446.694 946.306 444.141 937.442 442.369C938.009 437.476 939.569 431.591 943.399 425.918C950.135 415.849 951.34 403.653 947.795 402.235C940.349 389.542 904.115 389.188 891.564 394.719L886.246 397.484C884.828 395.924 883.481 395.144 880.857 396.208C872.631 399.398 883.551 421.309 890.571 430.598C893.266 434.214 894.968 437.05 896.031 439.674C894.968 439.745 893.833 439.816 892.77 439.958C858.733 443.361 855.613 461.655 872.561 470.661C864.264 474.49 861.924 483.708 875.61 493.989C867.526 496.826 865.895 505.76 872.206 511.433C873.837 512.851 876.177 514.269 878.942 515.545C867.526 520.225 869.228 529.018 883.906 535.541C885.041 536.038 886.175 536.463 887.31 536.889C873.412 575.533 828.313 632.189 838.595 703.522C848.877 774.926 893.479 788.044 929.642 785.137C951.766 783.364 979.137 768.97 997.077 745.287C997.077 745.287 1141.8 810.167 1175.41 815.06C1209.02 819.953 1218.24 806.48 1225.54 785.491C1232.71 764.574 1252.77 332.532 1239.44 269.992Z" fill="#FFFEF2"/>
<path d="M1154.42 764.432C1147.4 764.432 1137.48 761.595 1123.29 755.781C1077.13 736.778 1013.1 714.016 1012.46 713.804C1011.19 713.378 1010.48 711.96 1010.97 710.613C1011.4 709.336 1012.82 708.627 1014.17 709.124C1014.8 709.336 1078.98 732.169 1125.21 751.243C1144.43 759.185 1155.35 761.312 1160.59 758.192C1165.56 755.214 1166.41 746.492 1167.61 734.438C1167.9 731.672 1168.18 728.836 1168.53 725.858C1177.04 652.681 1186.4 417.054 1181.58 358.414C1179.31 331.043 1176.48 316.436 1166.34 307.36C1156.2 298.355 1138.47 294.242 1106.35 286.726L1090.18 282.968C1035.44 270.204 995.871 260.915 984.526 269.921C982.328 271.693 981.264 274.104 981.264 277.579V456.408C981.264 457.756 980.129 458.89 978.782 458.89C977.435 458.89 976.3 457.756 976.3 456.408V277.366C976.3 272.403 978.002 268.503 981.406 265.808C994.595 255.314 1033.1 264.319 1091.24 277.933L1107.41 281.691C1140.38 289.349 1158.47 293.533 1169.6 303.46C1181.01 313.6 1184.13 329.058 1186.47 357.846C1191.3 416.7 1181.94 652.965 1173.36 726.283C1173 729.262 1172.72 732.098 1172.43 734.792C1171.09 748.265 1170.17 758.05 1163 762.305C1160.73 763.723 1157.97 764.432 1154.42 764.432Z" fill="#202D37"/>
<path d="M1187.96 818.605C1183.99 818.605 1179.67 818.251 1174.92 817.542C1141.38 812.649 1001.83 750.25 995.942 747.627C994.665 747.059 994.098 745.57 994.665 744.365C995.233 743.089 996.722 742.521 997.927 743.089C999.345 743.727 1142.72 807.827 1175.62 812.649C1208.88 817.471 1216.54 803.502 1223.06 784.711C1226.61 774.572 1233.42 661.757 1237.67 543.199C1242.85 398.76 1242.63 296.795 1236.96 270.417C1233.7 255.243 1206.54 240.778 1158.39 228.723C1120.46 219.222 1076.14 212.982 1050.97 211.28C1006.08 208.231 977.222 212.556 965.238 224.114C960.7 228.511 958.644 233.829 958.856 240.494C958.998 245.032 959.282 250.917 959.566 257.866C961.267 301.9 964.529 383.87 965.38 449.601C965.38 450.948 964.316 452.083 962.898 452.083C961.551 452.083 960.416 451.019 960.416 449.601C959.566 383.941 956.375 302.042 954.602 258.008C954.318 251.059 954.106 245.174 953.893 240.636C953.609 232.623 956.233 225.887 961.764 220.569C974.953 207.735 1004.24 203.126 1051.25 206.316C1086.92 208.727 1232.85 227.66 1241.78 269.424C1250.01 307.998 1245.04 473.923 1242.56 543.412C1238.66 651.192 1231.78 774.572 1227.67 786.342C1224.27 796.057 1219.94 805.913 1211.58 812.011C1205.55 816.478 1197.89 818.605 1187.96 818.605Z" fill="#202D37"/>
<path d="M961.906 559.012C956.375 547.879 951.553 535.187 948.008 519.942C938.789 512.567 933.613 501.222 931.982 484.204C931.982 484.204 921.417 484.771 911.702 483.637C924.324 491.153 923.119 504.2 910.355 506.115L910.568 507.533C914.042 508.88 915.39 518.169 909.008 520.651C924.324 535.47 906.455 543.696 887.31 536.889C873.412 575.533 828.313 632.189 838.595 703.522C848.877 774.926 893.479 788.044 929.642 785.137C951.766 783.364 979.137 768.97 997.077 745.287C1004.52 735.501 1010.34 724.085 1013.46 711.322C1015.16 704.515 1016.08 697.353 1016.08 689.766C1015.87 624.034 983.817 603.329 961.906 559.012Z" fill="#48BA82"/>
<path d="M802.574 587.375C800.163 594.608 765.985 598.011 753.15 599.004L753.292 600.989C764.354 600.989 789.668 601.84 789.668 609.569C789.597 619.213 750.314 618.433 750.314 618.433C738.898 641.974 714.363 644.739 713.37 644.881C712.378 645.023 709.612 652.681 708.832 656.581C713.725 658.07 716.703 658.708 716.703 658.708C716.703 658.708 712.378 670.763 709.683 679.91C706.989 689.057 706.067 695.793 711.314 702.104C718.83 711.109 709.4 745.641 697.7 778.33C564.958 797.688 412.717 784.357 302.808 698.275C335.781 609.144 386.693 553.268 397.613 531.712C400.45 526.182 407.47 465.555 404.066 428.542C394.139 432.867 374.639 436.98 365.066 426.627C352.373 412.8 370.313 393.584 386.906 397.342H386.977C387.119 397.413 387.331 397.413 387.473 397.484C392.721 398.902 396.55 403.369 398.464 407.482C401.017 413.013 409.101 417.764 410.873 406.631C412.646 395.498 417.61 394.222 419.95 392.449C422.36 390.677 424.63 379.686 419.95 375.715C426.544 377.488 436.542 372.666 435.62 361.675C441.719 366.71 456.539 365.859 461.219 354.372C467.175 360.328 473.769 360.328 478.804 357.917C517.024 377.913 554.96 400.32 554.747 403.369C554.535 406.631 508.515 425.989 508.515 425.563C508.515 425.138 505.962 527.174 507.38 532.634C531.418 558.303 563.327 599.855 589.138 708.698C589.138 708.84 589.209 708.911 589.209 709.053C589.28 709.478 589.422 709.904 589.493 710.329C593.18 725.291 602.043 738.267 616.863 709.833C616.863 709.833 616.863 710.046 616.863 710.4C628.634 687.71 640.051 669.912 645.369 670.975C645.369 670.975 649.694 650.058 656.714 627.651C660.756 614.816 665.72 601.557 671.251 591.488C693.941 550.219 718.334 533.911 752.725 524.267C791.583 513.276 800.092 532.776 744.996 559.083C763.716 554.545 788.817 552.914 795.057 559.863C804.346 570.215 771.161 576.668 755.207 578.937C782.081 577.377 805.623 578.441 802.574 587.375Z" fill="#FFFEF2"/>
<path d="M291.604 735.147C291.391 735.147 291.179 735.147 290.895 735.076C289.548 734.721 288.839 733.303 289.193 732.027C312.735 649.065 354.075 590.637 378.751 555.75C386.409 544.901 392.507 536.321 395.415 530.578C397.613 526.182 404.704 470.094 401.867 432.087C391.231 435.916 372.937 438.894 363.222 428.329C357.124 421.734 356.628 412.871 361.946 405.284C367.548 397.271 379.602 391.315 390.947 396.066C392.224 396.562 392.791 398.051 392.295 399.328C391.798 400.604 390.309 401.171 389.033 400.675C380.098 396.917 370.455 401.738 365.988 408.12C364.073 410.815 360.386 417.905 366.838 424.925C375.064 433.86 393.004 430.598 403.073 426.202C403.782 425.918 404.633 425.918 405.342 426.343C406.051 426.769 406.476 427.478 406.547 428.258C409.88 464.421 403.215 526.111 399.882 532.776C396.833 538.874 390.664 547.525 382.864 558.586C358.329 593.189 317.344 651.192 294.015 733.303C293.66 734.438 292.668 735.147 291.604 735.147Z" fill="#202D37"/>
<path d="M372.724 419.253C371.731 419.253 370.81 418.685 370.455 417.693C369.959 416.416 370.597 414.998 371.802 414.431C381.233 410.673 386.906 410.673 389.671 410.673C391.019 410.673 392.153 411.807 392.153 413.155C392.153 414.502 391.019 415.636 389.671 415.636C387.048 415.636 382.155 415.636 373.646 419.04C373.291 419.182 373.008 419.253 372.724 419.253Z" fill="#202D37"/>
<path d="M452.78 405.284C451.149 405.284 449.731 403.937 449.731 402.235V394.506C449.731 392.875 451.078 391.457 452.78 391.457C454.411 391.457 455.829 392.804 455.829 394.506V402.235C455.829 403.866 454.482 405.284 452.78 405.284Z" fill="#202D37"/>
<path d="M478.52 396.208C476.889 396.208 475.471 394.86 475.471 393.159V385.501C475.471 383.87 476.818 382.451 478.52 382.451C480.151 382.451 481.569 383.799 481.569 385.501V393.229C481.569 394.86 480.222 396.208 478.52 396.208Z" fill="#202D37"/>
<path d="M453.773 437.263C441.577 436.98 432.571 429.18 430.16 416.771C429.877 415.424 430.799 414.147 432.146 413.864C433.493 413.58 434.769 414.502 435.053 415.849C437.038 425.989 444.058 432.087 453.844 432.3C455.191 432.3 456.326 433.434 456.255 434.852C456.255 436.2 455.12 437.263 453.773 437.263Z" fill="#202D37"/>
<path d="M595.378 739.472C594.243 739.472 593.179 738.692 592.967 737.487C567.51 613.469 534.467 565.11 505.607 534.265C505.323 533.981 505.111 533.627 505.04 533.201C504.756 532.209 504.047 529.514 505.04 476.972C505.253 463.357 505.607 450.168 505.749 441.447C505.891 436.625 505.962 432.654 506.032 429.818C506.103 427.903 506.103 426.698 506.174 425.847C506.174 425.705 506.174 425.634 506.174 425.492H506.245C506.387 424.216 506.6 424.003 507.096 423.578C507.451 423.294 507.876 423.082 508.302 423.011C512.343 421.734 544.678 407.695 551.627 403.015C544.607 396.917 507.309 375.006 467.671 354.726C466.465 354.088 465.969 352.599 466.607 351.394C467.245 350.188 468.734 349.692 469.94 350.33C489.723 360.399 511.634 372.453 528.723 382.451C557.725 399.469 557.583 401.597 557.441 403.44C557.3 405.284 557.158 406.986 533.12 417.905C532.907 417.976 517.52 424.925 511.209 427.265C510.854 440.525 508.94 522.494 509.932 531.429C539.218 562.841 572.474 611.98 598.001 736.494C598.285 737.841 597.434 739.118 596.087 739.401C595.732 739.472 595.59 739.472 595.378 739.472Z" fill="#202D37"/>
<path d="M468.948 571.988C462.991 571.988 453.348 569.081 442.357 563.834C431.933 558.941 415.482 549.652 396.053 533.556C394.99 532.705 394.848 531.145 395.699 530.082C396.55 529.018 398.11 528.876 399.173 529.727C433.777 558.445 462.566 568.088 470.295 566.883C476.322 565.961 495.042 544.405 505.466 531.003C506.317 529.94 507.877 529.727 508.94 530.578C510.004 531.429 510.216 532.989 509.366 534.052C504.686 540.079 480.789 570.286 471.075 571.775C470.437 571.988 469.657 571.988 468.948 571.988Z" fill="#202D37"/>
<path d="M486.817 613.256C489.519 613.256 491.709 611.066 491.709 608.364C491.709 605.662 489.519 603.471 486.817 603.471C484.114 603.471 481.924 605.662 481.924 608.364C481.924 611.066 484.114 613.256 486.817 613.256Z" fill="#202D37"/>
<path d="M487.738 661.403C487.738 663.388 489.795 665.09 492.347 665.09C494.9 665.09 496.956 663.459 496.956 661.403C496.956 659.346 494.9 657.716 492.347 657.716C489.795 657.716 487.738 659.346 487.738 661.403Z" fill="#202D37"/>
<path d="M493.34 716.924C491.567 717.916 491.213 720.54 492.489 722.738C493.765 724.936 496.176 725.858 497.949 724.865C499.722 723.873 500.076 721.249 498.8 719.051C497.524 716.853 495.113 715.931 493.34 716.924Z" fill="#202D37"/>
<path d="M419.808 597.444C418.602 597.444 417.397 597.231 416.262 596.806C408.391 593.969 404.421 581.915 399.386 566.741C398.039 562.77 396.691 558.657 395.202 554.474C394.706 553.197 395.415 551.779 396.691 551.283C397.968 550.787 399.386 551.496 399.882 552.772C401.442 557.026 402.79 561.139 404.137 565.181C408.533 578.512 412.362 590.069 417.964 592.126C419.95 592.835 422.29 592.339 425.197 590.566C434.344 584.893 445.406 575.108 445.548 574.966C446.54 574.044 448.171 574.115 449.022 575.179C449.944 576.172 449.873 577.802 448.809 578.653C448.313 579.079 437.322 588.864 427.75 594.749C425.055 596.522 422.36 597.444 419.808 597.444Z" fill="#202D37"/>
<path d="M516.669 584.893C512.556 584.893 504.898 582.695 489.085 573.477C487.88 572.768 487.525 571.279 488.164 570.073C488.873 568.868 490.362 568.514 491.567 569.152C512.131 581.135 517.165 580.072 517.945 579.717C518.158 579.646 518.229 579.575 518.229 579.362C519.86 572.91 522.058 552.701 522.058 552.488C522.2 551.141 523.405 550.148 524.823 550.29C526.171 550.432 527.164 551.637 527.022 553.056C526.951 553.906 524.753 573.832 523.051 580.568C522.625 582.341 521.491 583.617 519.86 584.326C519.08 584.681 518.087 584.893 516.669 584.893Z" fill="#202D37"/>
<path d="M484.193 739.472C484.122 739.472 484.122 739.472 484.051 739.472C482.703 739.401 481.64 738.267 481.711 736.849C482.136 729.191 482.278 708.131 478.378 702.458C473.84 695.935 471.003 685.228 476.676 674.946C481.64 666.083 478.378 656.085 474.549 647.434C469.94 637.081 470.436 610.278 472.422 588.651C472.563 587.304 473.769 586.311 475.116 586.382C476.463 586.524 477.456 587.729 477.385 589.077C474.974 615.454 475.613 637.578 479.087 645.378C483.413 655.092 486.958 666.508 481.002 677.286C476.393 685.582 478.733 694.233 482.42 699.551C488.022 707.635 486.816 734.012 486.674 736.99C486.603 738.479 485.469 739.472 484.193 739.472Z" fill="#202D37"/>
<path d="M611.758 723.376C611.403 723.376 611.119 723.305 610.765 723.163C609.488 722.596 608.921 721.178 609.488 719.902C614.31 708.627 621.188 695.793 627.925 685.582C636.15 673.173 640.688 669.628 643.312 668.635C645.368 659.205 655.225 615.384 669.123 590.211C693.445 545.965 719.894 530.861 752.086 521.785C770.664 516.538 783.428 517.744 786.122 524.976C789.526 534.052 774.564 547.596 746.13 561.281C744.924 561.848 743.435 561.352 742.797 560.146C742.23 558.941 742.726 557.452 743.932 556.814C774.281 542.278 783.002 530.861 781.442 526.749C780.379 523.913 771.799 521.36 753.363 526.607C722.375 535.329 696.919 549.936 673.448 592.622C658.557 619.709 647.921 670.904 647.85 671.401C647.566 672.677 646.361 673.528 645.085 673.386C644.021 673.599 639.696 676.719 631.541 689.27C625.159 699.126 618.636 711.322 614.098 721.887C613.601 722.809 612.75 723.376 611.758 723.376Z" fill="#202D37"/>
<path d="M696.21 695.722C695.997 695.722 695.856 695.722 695.643 695.651C660.188 687.071 644.447 673.315 643.808 672.748C642.816 671.826 642.674 670.266 643.596 669.273C644.518 668.281 646.078 668.139 647.07 669.061C647.283 669.273 662.741 682.604 696.777 690.829C698.125 691.184 698.905 692.46 698.621 693.808C698.337 695.013 697.274 695.722 696.21 695.722Z" fill="#202D37"/>
<path d="M710.818 739.472C710.605 739.472 710.392 739.472 710.179 739.401C708.832 739.047 708.052 737.7 708.407 736.352C714.576 713.591 712.803 709.195 709.258 703.38C704.152 695.155 704.79 687.993 707.343 679.13C709.258 672.606 712.023 664.523 713.441 660.41C704.719 658.212 677.278 649.987 655.012 629.423C654.02 628.501 653.949 626.941 654.87 625.949C655.792 624.956 657.352 624.885 658.345 625.807C683.589 649.136 716.845 656.156 717.128 656.226C717.838 656.368 718.476 656.794 718.759 657.432C719.114 658.07 719.185 658.779 718.901 659.488C718.83 659.63 714.576 671.613 711.952 680.548C709.258 689.695 709.612 694.8 713.299 700.756C718.334 708.982 719.043 715.434 713.016 737.629C712.874 738.763 711.881 739.472 710.818 739.472Z" fill="#202D37"/>
<path d="M708.832 659.063C708.69 659.063 708.478 659.063 708.336 658.992C706.989 658.708 706.138 657.361 706.421 656.085C706.847 654.099 707.768 651.121 708.761 648.497C710.392 644.101 711.456 642.683 713.087 642.47C715.639 642.187 737.692 638.854 748.116 617.369C748.541 616.518 749.392 615.951 750.385 615.951C762.014 616.163 782.152 614.887 786.619 610.562C787.186 609.995 787.186 609.64 787.186 609.498C787.186 609.356 787.186 609.002 786.619 608.505C782.081 604.109 760.737 603.116 748.328 603.471C746.981 603.471 745.847 602.407 745.776 601.06C745.705 599.713 746.839 598.578 748.187 598.507C751.661 598.366 782.577 597.586 790.094 604.889C791.795 606.52 792.15 608.293 792.15 609.427C792.15 610.562 791.795 612.334 790.094 613.965C783.428 620.489 758.894 620.843 751.874 620.772C740.954 641.69 719.894 646.228 714.718 647.079C713.796 648.781 712.023 653.745 711.314 656.936C711.03 658.283 710.038 659.063 708.832 659.063Z" fill="#202D37"/>
<path d="M747.832 607.442C747.619 607.442 747.406 607.442 747.193 607.371C745.846 607.016 745.066 605.669 745.421 604.322C746.413 600.422 746.13 581.419 741.946 567.237C741.592 565.89 742.301 564.543 743.648 564.188C744.924 563.834 746.342 564.543 746.697 565.89C750.952 580.213 751.519 600.493 750.242 605.598C749.888 606.733 748.895 607.442 747.832 607.442Z" fill="#202D37"/>
<path d="M747.052 582.27C746.839 582.27 746.697 582.27 746.626 582.27C745.563 582.057 744.782 581.206 744.641 580.142C744.428 578.795 745.421 577.519 746.768 577.306C746.981 577.306 747.123 577.306 747.335 577.306C748.824 577.235 759.39 576.03 770.735 573.619C790.377 569.364 793.639 565.181 794.135 563.975C794.277 563.621 794.631 562.912 793.284 561.494C787.541 555.112 757.688 557.381 738.188 563.55C736.912 563.975 735.493 563.266 735.068 561.919C734.643 560.643 735.352 559.225 736.699 558.799C753.717 553.339 788.391 548.518 797.042 558.161C800.304 561.848 799.311 565.039 798.39 566.599C797.397 568.372 794.419 573.69 770.522 578.724C761.162 580.71 749.675 582.27 747.052 582.27ZM749.463 579.079C749.463 579.15 749.533 579.292 749.533 579.433C749.462 579.292 749.463 579.221 749.463 579.079ZM747.477 577.377C747.69 577.448 747.902 577.519 748.115 577.59C747.973 577.448 747.69 577.377 747.477 577.377Z" fill="#202D37"/>
<path d="M748.257 601.84C746.981 601.84 745.846 600.847 745.775 599.5C745.704 598.153 746.768 596.948 748.115 596.877C748.257 596.877 761.021 596.097 773.997 594.253C798.602 590.708 800.233 586.737 800.233 586.595C800.517 585.815 800.304 585.46 800.092 585.177C798.744 583.404 791.653 579.433 755.277 581.419C753.93 581.49 752.724 580.426 752.654 579.079C752.583 577.732 753.646 576.526 754.993 576.455C793.426 574.328 801.368 578.724 804.062 582.199C805.41 583.971 805.693 586.028 804.913 588.226C803.779 591.488 799.382 595.671 774.635 599.217C761.517 601.131 748.541 601.911 748.399 601.911C748.399 601.84 748.328 601.84 748.257 601.84Z" fill="#202D37"/>
<path d="M708.832 637.861C708.052 637.861 707.272 637.507 706.775 636.798C705.995 635.663 706.279 634.103 707.414 633.323C716.561 627.012 721.879 619.78 723.155 611.767C724.857 601.202 719.397 591.204 714.504 584.751C714.079 584.184 713.937 583.404 714.079 582.766C714.221 582.057 714.717 581.49 715.284 581.135C723.155 576.881 735.352 567.734 734.784 561.494C734.713 560.785 734.146 560.217 733.012 559.792C726.984 557.239 710.888 559.792 696.21 571.421C695.146 572.272 693.586 572.059 692.736 570.995C691.885 569.932 692.097 568.372 693.161 567.521C708.477 555.396 726.772 551.708 734.997 555.183C737.834 556.388 739.535 558.445 739.748 561.068C740.599 570.712 726.204 580.426 720.106 584.113C725.07 591.346 729.892 601.627 728.048 612.689C726.559 622.049 720.532 630.416 710.179 637.507C709.825 637.72 709.328 637.861 708.832 637.861Z" fill="#202D37"/>
<path d="M894.188 478.106C872.206 477.539 860.364 467.541 860.01 458.039C859.726 449.743 868.093 439.958 892.486 437.476C893.621 437.334 894.684 437.263 895.819 437.192C897.166 437.05 898.372 438.114 898.513 439.461C898.655 440.809 897.592 442.014 896.244 442.156C895.181 442.227 894.117 442.298 893.053 442.439C872.064 444.567 864.832 452.083 865.044 457.897C865.328 464.917 875.681 472.717 894.33 473.213C895.677 473.284 896.812 474.419 896.741 475.766C896.67 477.042 895.535 478.106 894.188 478.106Z" fill="#202D37"/>
<path d="M1097.06 498.953C1080.54 498.953 1065.5 497.393 1052.03 494.202C1033.17 489.735 1022.75 483.353 1018.35 480.588C1017.99 480.375 1017.71 480.233 1017.43 480.021C993.46 465.626 967.507 451.019 937.016 444.779C935.669 444.496 934.818 443.219 935.102 441.872C935.385 440.525 936.662 439.674 938.009 439.958C969.28 446.41 995.658 461.23 1019.98 475.837C1020.26 475.979 1020.55 476.192 1020.9 476.404C1047.28 492.642 1085.78 497.677 1135.28 491.437C1136.62 491.295 1137.9 492.217 1138.04 493.564C1138.18 494.911 1137.26 496.188 1135.92 496.329C1122.23 498.102 1109.25 498.953 1097.06 498.953Z" fill="#202D37"/>
<path d="M896.031 439.674C897.662 443.787 897.662 447.474 897.449 453.147L895.818 453.501C908.298 459.032 926.593 456.266 926.593 456.266C930.989 455.132 935.031 454.352 937.867 453.856C937.867 453.856 936.733 449.034 937.513 442.369C938.08 437.476 939.64 431.591 943.469 425.918C950.276 415.849 953.822 407.34 950.56 398.618C945.384 384.791 898.584 376.779 878.871 397.342C873.482 403.015 876.815 415.353 890.571 430.527C893.62 433.931 894.967 437.05 896.031 439.674Z" fill="#48BA82"/>
<path d="M906.951 508.809C900.924 508.809 893.266 506.895 884.261 502.215C866.746 493.139 863.201 484.771 863.272 479.382C863.342 474.703 866.321 470.661 871.426 468.321C872.702 467.754 874.121 468.321 874.688 469.526C875.255 470.803 874.688 472.221 873.482 472.788C871.568 473.71 868.306 475.766 868.235 479.453C868.164 482.077 869.866 489.097 886.53 497.748C903.335 506.469 914.184 504.696 917.162 499.378C919.148 495.833 917.446 489.948 910.284 485.693C909.079 484.984 908.724 483.495 909.433 482.29C910.142 481.084 911.631 480.73 912.837 481.439C922.693 487.324 924.679 496.117 921.488 501.789C919.219 506.044 914.255 508.809 906.951 508.809Z" fill="#202D37"/>
<path d="M903.902 523.842C892.911 523.842 876.602 518.807 870.504 513.276C866.817 509.944 865.186 505.335 866.108 501.009C867.029 496.613 870.22 493.209 874.9 491.649C876.177 491.224 877.595 491.933 878.02 493.209C878.446 494.486 877.808 495.904 876.46 496.329C873.482 497.322 871.497 499.449 870.929 502.002C870.362 504.696 871.426 507.462 873.837 509.589C879.58 514.836 896.528 519.658 906.1 518.807C909.504 518.523 910.78 516.042 911.206 514.056C911.773 511.22 910.851 508.738 910.284 508.455C908.937 508.171 908.157 506.824 908.44 505.476C908.724 504.129 910.071 503.278 911.418 503.633C915.035 504.413 916.595 509.022 916.311 513.205C915.886 519.162 912.057 523.274 906.526 523.771C905.675 523.842 904.824 523.842 903.902 523.842Z" fill="#202D37"/>
<path d="M900.499 541.781C895.039 541.781 888.799 540.505 882.842 537.81C873.837 533.769 868.873 528.663 868.944 523.345C869.015 520.934 870.22 516.396 877.949 513.205C879.226 512.709 880.644 513.276 881.211 514.553C881.708 515.829 881.14 517.247 879.864 517.814C876.106 519.374 873.979 521.36 873.908 523.416C873.908 525.827 876.744 529.656 884.828 533.272C896.882 538.661 908.582 537.456 911.56 533.06C913.191 530.578 911.631 526.749 907.235 522.423C906.242 521.502 906.242 519.871 907.164 518.949C908.086 517.956 909.717 517.956 910.638 518.878C919.289 527.245 917.517 533.13 915.673 535.825C913.049 539.725 907.306 541.781 900.499 541.781Z" fill="#202D37"/>
<path d="M978.711 533.201C978.64 533.201 978.498 533.201 978.428 533.201C947.866 529.798 933.117 515.829 929.713 486.828C921.346 487.111 899.435 487.111 894.188 479.524C893.124 478.035 892.273 475.553 893.691 472.221C900.499 456.692 937.726 451.232 941.98 450.665C943.328 450.452 944.604 451.445 944.746 452.792C944.959 454.139 943.966 455.416 942.619 455.557C931.911 456.976 903.051 463.145 898.23 474.135C897.662 475.482 897.875 476.121 898.23 476.617C901.35 481.155 919.715 482.29 931.769 481.651C933.117 481.581 934.251 482.573 934.393 483.92C937.159 512.496 949.639 524.905 978.995 528.167C980.342 528.309 981.335 529.514 981.193 530.932C981.051 532.28 979.987 533.201 978.711 533.201Z" fill="#202D37"/>
<path d="M1107.62 571.563C1066.71 571.563 1031.4 555.183 1018.49 549.227C1016.43 548.305 1014.38 547.312 1013.67 547.099C1012.53 547.241 1008.71 548.872 1005.3 550.29C994.666 554.757 976.938 562.203 961.693 561.494C960.346 561.423 959.282 560.288 959.353 558.87C959.424 557.523 960.558 556.459 961.977 556.53C976.087 557.168 993.176 550.007 1003.39 545.752C1009.77 543.058 1012.46 541.994 1014.24 542.207C1015.23 542.349 1016.51 542.916 1020.55 544.759C1035.37 551.637 1080.39 572.484 1128.68 565.039C1130.03 564.826 1131.31 565.748 1131.52 567.095C1131.73 568.443 1130.81 569.719 1129.46 569.932C1122.09 571.066 1114.79 571.563 1107.62 571.563Z" fill="#202D37"/>
<path d="M915.957 459.457C908.653 459.457 899.08 458.465 891.918 454.352C890.713 453.643 890.358 452.154 890.997 450.948C891.706 449.743 893.195 449.388 894.4 450.027C905.888 456.763 925.955 453.856 926.167 453.785C927.515 453.572 928.791 454.494 929.004 455.841C929.217 457.188 928.295 458.465 926.947 458.677C926.593 458.748 922.055 459.457 915.957 459.457Z" fill="#202D37"/>
<path d="M917.304 412.658C914.964 412.658 912.411 412.516 909.646 412.304C900.995 411.524 894.542 409.184 889.862 405.213C888.799 404.291 888.657 402.731 889.579 401.738C890.5 400.675 892.06 400.533 893.053 401.455C896.882 404.716 902.484 406.631 910.071 407.34C925.246 408.758 933.826 405.567 939.498 402.589C940.704 401.951 942.193 402.447 942.831 403.653C943.469 404.858 942.973 406.347 941.767 406.986C936.591 409.751 929.146 412.658 917.304 412.658Z" fill="#202D37"/>
<path d="M948.079 683.739C948.079 688.348 947.086 692.106 945.101 695.013C943.115 697.92 939.924 699.977 935.528 701.253V713.378C935.528 713.733 935.386 714.016 935.173 714.3C934.961 714.513 934.606 714.655 934.252 714.655H918.226C917.872 714.655 917.588 714.513 917.304 714.3C917.092 714.087 916.95 713.733 916.95 713.378V702.6C913.972 702.458 911.206 702.246 908.795 701.962C908.512 701.891 908.228 701.749 908.015 701.466C907.803 701.182 907.661 700.898 907.661 700.544L908.937 687.639C909.008 687.213 909.15 686.93 909.433 686.717C909.717 686.504 910.072 686.433 910.497 686.504C911.49 686.717 912.483 686.93 913.546 687.071C914.61 687.213 915.957 687.426 917.588 687.639C919.219 687.851 920.779 687.922 922.197 687.922C923.757 687.993 925.033 687.78 926.168 687.355C927.232 686.93 928.012 686.433 928.437 685.795C928.862 685.157 929.217 684.59 929.359 684.093C929.501 683.597 929.642 683.101 929.642 682.746C929.642 682.321 929.572 681.824 929.359 681.257C929.217 680.761 928.862 680.052 928.366 679.272C927.87 678.492 926.948 677.712 925.742 676.932C924.466 676.152 922.977 675.584 921.133 675.159C919.077 674.663 917.092 673.883 915.177 672.677C913.262 671.543 911.49 670.124 909.859 668.352C908.228 666.65 906.881 664.452 905.888 661.899C904.895 659.346 904.399 656.51 904.399 653.532C904.399 649.278 905.463 645.732 907.661 642.825C909.859 639.918 912.908 637.791 917.021 636.372V623.893C917.021 623.538 917.162 623.254 917.375 622.971C917.588 622.687 917.942 622.545 918.297 622.545H934.322C934.677 622.545 934.961 622.687 935.244 622.971C935.528 623.254 935.67 623.538 935.67 623.893V634.671C938.506 634.812 941.342 635.025 944.179 635.309C944.462 635.38 944.746 635.521 945.03 635.805C945.242 636.089 945.384 636.372 945.313 636.727L944.037 649.632C943.966 649.987 943.824 650.27 943.541 650.554C943.257 650.767 942.902 650.908 942.548 650.767C938.081 649.774 934.039 649.278 930.422 649.278C928.933 649.207 927.657 649.419 926.522 649.845C925.459 650.27 924.679 650.837 924.183 651.476C923.686 652.114 923.402 652.681 923.19 653.177C923.048 653.674 922.906 654.099 922.906 654.596C922.906 655.021 922.977 655.447 923.19 656.014C923.332 656.51 923.686 657.219 924.253 657.999C924.75 658.779 925.672 659.559 926.948 660.339C928.224 661.119 929.713 661.686 931.557 662.112C933.613 662.608 935.599 663.459 937.513 664.594C939.428 665.728 941.201 667.146 942.831 668.919C944.462 670.692 945.739 672.819 946.731 675.372C947.582 677.995 948.079 680.761 948.079 683.739Z" fill="#202D37"/>
<path d="M934.251 717.136H918.226C917.233 717.136 916.311 716.782 915.602 716.073C914.893 715.364 914.539 714.442 914.539 713.449V705.011C912.411 704.869 910.426 704.657 908.582 704.444C907.59 704.302 906.81 703.877 906.171 703.097C905.604 702.387 905.25 701.537 905.25 700.615C905.25 700.544 905.25 700.473 905.25 700.402L906.526 687.497C906.668 686.362 907.235 685.44 908.086 684.802C908.937 684.164 910.071 683.951 911.135 684.164C912.057 684.377 913.05 684.59 914.042 684.731C915.035 684.873 916.382 685.086 917.942 685.299C919.502 685.511 920.92 685.582 922.268 685.582C923.544 685.582 924.537 685.511 925.317 685.157C926.168 684.802 926.38 684.519 926.451 684.448C926.806 683.88 927.019 683.526 927.09 683.313C927.231 682.959 927.231 682.817 927.231 682.746C927.231 682.675 927.231 682.462 927.09 682.037C927.019 681.824 926.877 681.399 926.31 680.619C926.168 680.335 925.671 679.839 924.466 679.13C923.402 678.492 922.126 677.995 920.566 677.641C918.297 677.073 916.028 676.152 913.901 674.875C911.844 673.599 909.859 672.039 908.086 670.124C906.242 668.139 904.753 665.728 903.619 662.821C902.555 659.985 901.988 656.865 901.988 653.532C901.988 648.781 903.264 644.669 905.746 641.336C907.873 638.5 910.851 636.23 914.61 634.671V623.893C914.61 622.9 914.964 622.049 915.602 621.269C916.311 620.489 917.304 620.063 918.297 620.063H934.322C935.315 620.063 936.308 620.489 937.017 621.198C937.726 621.907 938.151 622.9 938.151 623.893V632.331C940.279 632.472 942.335 632.614 944.391 632.898H944.462C945.313 633.04 946.164 633.465 946.731 634.174C947.44 634.954 947.795 636.018 947.653 637.081L946.377 649.916V649.987C946.235 650.979 945.739 651.901 944.888 652.539C943.966 653.248 942.902 653.461 941.839 653.248C937.584 652.327 933.684 651.83 930.21 651.759C929.004 651.759 928.011 651.83 927.231 652.185C926.38 652.539 926.097 652.823 926.026 652.894C925.6 653.532 925.388 653.886 925.388 654.028C925.317 654.241 925.246 654.454 925.246 654.596C925.246 654.596 925.246 654.808 925.388 655.234C925.459 655.376 925.6 655.801 926.168 656.652C926.38 656.936 926.806 657.503 928.082 658.212C929.146 658.85 930.422 659.346 931.982 659.701C934.251 660.268 936.449 661.19 938.577 662.466C940.704 663.672 942.689 665.303 944.462 667.217C946.306 669.203 947.795 671.613 948.859 674.521C949.922 677.357 950.489 680.477 950.489 683.739C950.489 688.844 949.355 693.169 947.015 696.431C944.959 699.338 941.909 701.607 937.868 703.097V713.449C937.868 714.442 937.513 715.364 936.804 716.073C936.166 716.782 935.244 717.136 934.251 717.136ZM919.431 712.173H933.046V701.253C933.046 700.118 933.755 699.197 934.819 698.842C938.577 697.708 941.413 695.935 943.044 693.524C944.746 691.042 945.597 687.78 945.597 683.668C945.597 680.973 945.171 678.492 944.32 676.222C943.469 673.953 942.335 672.11 940.917 670.55C939.428 668.99 937.868 667.714 936.166 666.721C934.464 665.728 932.691 664.948 930.848 664.523C928.862 664.026 927.09 663.317 925.6 662.466C924.04 661.545 922.906 660.481 922.126 659.417C921.488 658.425 920.991 657.574 920.779 656.865C920.495 656.085 920.353 655.376 920.353 654.666C920.353 653.957 920.495 653.177 920.779 652.397C921.062 651.688 921.417 650.979 922.055 650.128C922.835 649.065 923.97 648.214 925.529 647.647C926.948 647.079 928.579 646.867 930.351 646.938C933.684 647.008 937.513 647.434 941.555 648.214L942.548 637.861C940.208 637.649 937.797 637.436 935.386 637.365C934.039 637.294 933.046 636.23 933.046 634.883V625.169H919.431V636.443C919.431 637.507 918.793 638.429 917.801 638.783C914.255 640.059 911.49 641.903 909.646 644.385C907.802 646.867 906.881 649.845 906.881 653.603C906.881 656.297 907.306 658.779 908.228 661.119C909.079 663.388 910.284 665.303 911.631 666.792C913.12 668.352 914.681 669.628 916.382 670.692C918.013 671.684 919.786 672.393 921.63 672.819C923.686 673.315 925.459 674.024 926.948 674.875C928.579 675.868 929.713 676.861 930.422 677.995C931.06 678.988 931.486 679.768 931.699 680.548C931.982 681.328 932.124 682.108 932.124 682.817C932.124 683.526 931.982 684.235 931.699 685.015C931.415 685.724 931.06 686.504 930.493 687.355C929.784 688.419 928.579 689.269 927.09 689.837C925.671 690.404 924.04 690.617 922.197 690.546C920.779 690.546 919.148 690.404 917.375 690.262C915.673 690.05 914.255 689.837 913.191 689.695C912.553 689.624 911.986 689.482 911.348 689.34L910.355 699.764C912.411 699.977 914.68 700.189 917.162 700.26C918.51 700.331 919.502 701.395 919.502 702.742V712.173H919.431ZM942.689 636.585C942.689 636.656 942.689 636.656 942.689 636.585V636.585Z" fill="#202D37"/>
<path d="M806.97 409.893C806.615 409.893 806.261 409.822 805.906 409.609C804.701 409.042 804.134 407.553 804.772 406.276C805.056 405.709 831.788 350.543 840.652 331.469C841.219 330.192 842.708 329.696 843.914 330.263C845.19 330.831 845.686 332.32 845.119 333.525C836.255 352.67 809.523 407.836 809.239 408.404C808.743 409.396 807.892 409.893 806.97 409.893Z" fill="#202D37"/>
<path d="M835.617 402.447C834.624 402.447 833.56 402.306 832.568 402.022C829.448 401.1 826.966 398.76 825.548 395.498C824.201 392.379 824.059 388.833 825.122 385.359C827.321 378.126 834.199 373.73 840.51 375.644C843.63 376.566 846.111 378.906 847.53 382.168C848.877 385.288 849.019 388.833 847.955 392.308C846.182 398.406 841.006 402.447 835.617 402.447ZM837.46 380.182C834.27 380.182 831.079 382.877 829.873 386.848C829.164 389.188 829.235 391.528 830.157 393.584C830.937 395.428 832.355 396.775 834.057 397.271C837.744 398.406 841.857 395.498 843.275 390.889C843.984 388.55 843.913 386.21 842.991 384.153C842.211 382.31 840.793 380.962 839.091 380.466C838.595 380.253 838.028 380.182 837.46 380.182Z" fill="#202D37"/>
<path d="M806.473 367.277C804.63 367.277 802.786 366.852 801.084 365.859C798.248 364.228 796.333 361.392 795.695 357.917C795.128 354.585 795.766 351.039 797.539 347.919C801.297 341.325 809.097 338.701 814.77 341.963C820.513 345.225 822.073 353.308 818.244 359.832C815.692 364.583 811.012 367.277 806.473 367.277ZM809.452 345.579C806.686 345.579 803.708 347.423 801.935 350.472C800.73 352.599 800.233 354.939 800.659 357.066C801.013 359.052 802.077 360.683 803.637 361.534C806.97 363.448 811.65 361.605 814.061 357.421C816.472 353.237 815.762 348.274 812.43 346.288C811.508 345.792 810.515 345.579 809.452 345.579Z" fill="#202D37"/>
<path d="M778.89 407.907C777.472 407.907 776.408 406.773 776.408 405.426C776.408 404.575 776.55 385.004 777.685 378.41C777.897 377.062 779.174 376.141 780.521 376.353C781.868 376.566 782.79 377.842 782.577 379.19C781.514 385.359 781.372 405.213 781.372 405.426C781.372 406.773 780.237 407.907 778.89 407.907Z" fill="#202D37"/>
<path d="M770.239 390.251C768.963 390.251 767.899 389.259 767.757 387.982C767.616 386.635 768.679 385.43 770.026 385.288C775.628 384.791 788.817 385.288 789.385 385.288C790.732 385.359 791.795 386.493 791.795 387.84C791.725 389.188 790.661 390.251 789.243 390.251C789.101 390.251 775.77 389.755 770.452 390.251C770.381 390.251 770.31 390.251 770.239 390.251Z" fill="#202D37"/>
<path d="M1190.44 799.106C1190.37 799.106 1190.3 799.106 1190.23 799.106C1188.88 798.964 1187.89 797.758 1188.03 796.411C1209.52 575.888 1210.72 302.326 1199.17 280.628C1194.56 272.048 1159.39 259.072 1107.2 246.663C1059.76 235.389 1009.84 227.376 985.944 227.092C984.596 227.092 983.462 225.958 983.462 224.611C983.462 223.263 984.596 222.129 985.944 222.129C1010.19 222.413 1060.54 230.496 1108.26 241.841C1140.67 249.499 1196.05 264.461 1203.42 278.288C1210.87 292.257 1212.07 384.791 1210.72 466.761C1208.88 579.15 1202.36 699.48 1192.86 796.908C1192.78 798.113 1191.72 799.106 1190.44 799.106Z" fill="#202D37"/>
<path d="M461.218 354.372C478.52 371.532 500.998 339.41 476.889 339.978C492.56 317.287 459.374 304.807 452.78 321.258C448.1 311.544 429.025 314.876 431.578 326.08C419.027 313.813 396.407 326.931 400.236 344.161C377.475 339.34 358.188 368.837 381.8 376.708C374.993 380.395 374.355 394.506 386.906 397.342C392.436 398.618 396.478 403.227 398.393 407.482C400.946 413.013 409.029 417.764 410.802 406.631C412.575 395.499 417.538 394.222 419.949 392.449C422.36 390.677 424.629 379.686 419.949 375.715C426.544 377.488 436.542 372.666 435.62 361.676C441.718 366.71 456.538 365.859 461.218 354.372Z" fill="#202D37"/>
<path d="M405.697 415.849C401.655 415.849 397.826 412.233 396.124 408.475C394.493 404.929 391.089 400.817 386.339 399.753C379.815 398.264 375.419 393.797 374.639 387.699C374.142 383.87 375.135 380.111 377.191 377.417C368.966 373.092 367.477 365.646 369.108 359.69C371.873 349.479 383.786 340.049 397.329 341.183C396.975 333.312 401.229 325.938 408.888 321.683C415.695 317.925 423.282 317.854 429.309 321.187C430.302 317.925 432.926 315.302 436.826 313.954C442.002 312.182 448.526 312.891 452.567 316.72C455.049 313.529 458.878 311.615 463.416 311.26C470.649 310.764 478.095 314.593 481.498 320.549C483.2 323.598 485.185 329.625 481.144 337.709C487.1 338.701 489.015 341.963 489.653 344.161C491.071 349.196 487.525 355.79 481.427 359.406C475.046 363.165 468.025 362.739 462.069 358.272C459.516 362.314 455.475 365.15 450.44 366.426C446.115 367.49 441.647 367.206 438.031 365.788C437.464 369.404 435.691 372.524 432.855 374.864C430.515 376.85 427.537 378.055 424.558 378.41C425.055 380.041 425.267 381.884 425.197 383.94C425.055 387.77 423.849 392.662 421.438 394.435C421.013 394.789 420.517 395.073 420.02 395.357C417.609 396.846 414.631 398.689 413.284 406.986C412.149 414.005 408.675 415.565 406.618 415.778C406.335 415.849 406.051 415.849 405.697 415.849ZM395.344 346.076C385.204 346.076 376.128 353.237 374 361.037C372.299 367.206 375.419 371.886 382.651 374.368C383.573 374.652 384.282 375.502 384.353 376.495C384.424 377.488 383.928 378.41 383.077 378.906C380.595 380.253 379.177 383.657 379.673 387.131C380.24 391.102 383.077 393.939 387.544 395.002C395.698 396.846 399.74 404.291 400.733 406.489C402.009 409.255 404.633 411.098 406.051 410.956C407.115 410.815 408.037 409.042 408.462 406.276C410.164 395.64 414.773 392.804 417.538 391.173C417.964 390.889 418.318 390.677 418.602 390.535C419.169 390.039 420.446 386.777 420.304 382.948C420.233 380.537 419.595 378.622 418.46 377.701C417.538 376.921 417.326 375.715 417.822 374.652C418.389 373.588 419.524 373.092 420.658 373.375C423.566 374.155 427.182 373.233 429.664 371.177C431.507 369.617 433.635 366.781 433.209 361.959C433.138 360.966 433.635 360.045 434.557 359.548C435.478 359.123 436.542 359.194 437.322 359.832C439.946 362.03 444.838 362.81 449.235 361.675C451.929 361.037 456.751 359.052 459.02 353.45C459.304 352.67 460.013 352.103 460.793 351.961C461.573 351.819 462.424 352.032 463.062 352.67C469.798 359.406 476.393 356.641 478.875 355.152C483.342 352.528 485.611 348.061 484.831 345.579C484.264 343.523 481.356 342.389 476.96 342.53C476.038 342.53 475.187 342.034 474.691 341.254C474.266 340.403 474.336 339.41 474.833 338.63C478.804 332.816 479.655 327.498 477.173 323.102C474.762 318.776 469.089 315.94 463.771 316.294C461.36 316.436 457.035 317.429 455.12 322.18C454.766 323.102 453.915 323.669 452.922 323.74C451.929 323.74 451.007 323.243 450.582 322.322C448.597 318.138 442.711 317.145 438.457 318.634C436.755 319.202 432.997 321.045 434.06 325.442C434.273 326.505 433.847 327.64 432.855 328.136C431.862 328.703 430.727 328.491 429.877 327.782C423.991 322.109 416.191 323.243 411.298 326.009C406.193 328.845 400.804 335.156 402.648 343.594C402.86 344.445 402.577 345.296 402.009 345.863C401.442 346.43 400.591 346.714 399.74 346.572C398.251 346.218 396.762 346.076 395.344 346.076Z" fill="#202D37"/>
</g>
</g>
<defs>
<clipPath id="clip0_3457_4870">
<rect width="1440" height="1024" fill="white"/>
</clipPath>
<clipPath id="clip1_3457_4870">
<rect width="1608" height="1206" fill="white" transform="translate(-84 -91)"/>
</clipPath>
</defs>
</svg>
