<svg width="1440" height="1024" viewBox="0 0 1440 1024" fill="none" xmlns="http://www.w3.org/2000/svg">
<g clip-path="url(#clip0_3457_4968)">
<rect width="1440" height="1024" fill="#FFFEF2"/>
<g clip-path="url(#clip1_3457_4968)">
<path d="M599.359 689.847C600.62 694.666 601.362 746.194 600.917 749.753C600.398 753.312 483.428 822.338 461.844 830.419C440.26 838.575 418.676 841.318 377.585 828.121C336.493 814.923 229.092 771.773 222.268 760.874C215.444 749.976 211.588 704.823 211.588 704.823C211.588 704.823 169.161 702.451 159.741 683.322C153.511 670.718 111.9 560.544 106.708 543.12C101.442 525.697 100.478 522.435 126.438 513.093C152.398 503.825 245.039 471.945 245.039 471.945L253.717 489.442C253.717 489.442 187.037 509.015 174.427 516.281C161.818 523.547 161.002 536.225 171.238 562.546C181.474 588.94 212.329 685.843 215.89 693.85C219.45 701.858 354.962 749.605 405.622 768.882C416.525 773.033 425.945 774.294 429.357 772.663C452.498 761.764 522.739 728.252 545.881 715.351C569.023 702.673 599.359 689.847 599.359 689.847Z" fill="#48BA82"/>
<path d="M1239.91 704.897C1119.08 832.643 912.588 882.17 785.754 722.395C781.748 717.353 777.817 712.089 773.96 706.677C742.511 662.044 723.301 617.262 714.252 573.667C709.95 553.204 707.873 532.963 707.873 513.241C707.354 237.286 1099.65 44.0735 1287.75 325.663C1376.24 458.154 1334.11 605.325 1239.91 704.897Z" fill="#FAD932"/>
<path d="M1239.91 704.897C1119.08 832.643 912.588 882.17 785.754 722.395C785.012 716.834 784.196 710.606 783.306 703.637C777.965 662.044 784.938 653.295 785.605 646.548C786.273 639.875 786.273 629.718 779.597 616.372C772.922 603.101 774.109 593.982 774.109 593.982C769.881 593.982 742.585 581.303 733.759 571.072C730.792 572.555 726.935 573.519 722.262 573.741C719.37 573.889 716.699 573.815 714.326 573.593C696.97 571.962 693.409 561.137 697.415 553.426C685.399 550.683 682.654 540.97 686.437 532.444C691.778 530.665 697.118 528.96 702.162 527.328C700.53 523.251 702.977 518.283 708.021 513.167C713.065 508.052 720.631 502.862 729.605 498.191C726.342 474.836 723.301 460.453 720.185 452.001C759.867 453.78 782.342 460.749 792.132 467.793C809.044 480.026 851.173 573.074 851.173 573.074C852.879 572.258 854.585 571.443 856.143 570.627C856.143 570.627 867.195 584.417 870.977 605.103C886.108 605.103 906.728 635.056 909.324 648.253C910.066 652.035 911.475 656.928 913.107 662.044C955.237 599.32 1006.64 525.994 1006.64 525.994L1006.42 382.233C1006.42 382.233 936.471 370.371 934.617 362.438C932.911 355.023 990.172 316.099 1041.5 288.222C1040.02 300.307 1052.7 311.576 1071.24 310.835C1082.66 310.39 1099.95 302.457 1103.21 307.499C1106.47 312.54 1099.13 327.888 1106.7 341.752C1114.26 355.542 1126.43 370.593 1131.47 371.038C1134.21 371.334 1140.89 367.627 1146.38 362.586C1163.59 360.881 1180.27 369.184 1179.31 378.007C1177.6 393.725 1133.69 395.653 1133.69 395.653C1133.69 395.653 1127.24 459.266 1130.43 515.392C1130.43 515.392 1139.26 523.992 1142.67 531.332C1146.08 538.672 1161.88 562.323 1179.31 581.007C1199.41 602.953 1226.63 646.548 1239.91 704.897Z" fill="#FFFEF2"/>
<path d="M1039.94 350.13C1037.94 349.537 1036.83 347.461 1037.49 345.459L1040.31 336.34C1040.91 334.338 1042.98 333.226 1044.98 333.893C1046.99 334.486 1048.1 336.562 1047.43 338.564L1044.61 347.683C1044.02 349.611 1041.94 350.723 1039.94 350.13Z" fill="#202D37"/>
<path d="M1067.09 355.394C1065.09 354.801 1063.97 352.725 1064.64 350.723L1067.46 341.604C1068.05 339.602 1070.13 338.49 1072.13 339.157C1074.13 339.75 1075.25 341.826 1074.58 343.828L1071.76 352.947C1071.17 354.875 1069.09 355.987 1067.09 355.394Z" fill="#202D37"/>
<path d="M1069.46 263.236C1075.69 243.292 1095.42 249.891 1096.98 261.457C1112.11 252.56 1125.31 266.053 1120.27 280.882C1135.85 281.178 1142.89 299.121 1137.7 309.575C1152.68 313.801 1150.09 329.889 1142.74 334.709C1143.11 334.56 1154.31 334.709 1154.31 348.87C1154.31 358.953 1136.29 371.557 1131.25 371.112C1126.2 370.667 1114.04 355.617 1106.47 341.826C1098.91 328.036 1106.25 312.614 1102.99 307.573C1099.72 302.531 1082.44 310.464 1071.02 310.909C1044.76 311.873 1030.22 288.815 1051.14 273.616C1041.13 266.721 1053.66 251.077 1069.46 263.236Z" fill="#202D37"/>
<path d="M1131.47 373.707C1131.32 373.707 1131.1 373.707 1130.95 373.707C1123.76 373.04 1110.7 355.023 1104.17 343.087C1099.2 333.967 1100.17 324.403 1100.84 317.359C1101.21 313.875 1101.58 310.242 1100.76 308.981C1100.76 308.981 1100.24 308.24 1096.83 308.611C1093.94 308.907 1090.3 309.797 1086.37 310.761C1081.18 312.021 1075.77 313.356 1071.02 313.504C1055.96 314.097 1043.28 307.128 1039.5 296.229C1036.75 288.296 1039.57 279.992 1047.06 273.468C1045.43 271.466 1044.69 269.093 1044.91 266.572C1045.28 262.643 1048.03 259.158 1052.03 257.379C1056.85 255.303 1062.56 255.97 1068.05 259.307C1071.46 251.596 1077.62 247.37 1084.82 247.963C1090.97 248.482 1096.31 252.486 1098.46 257.75C1105.14 254.932 1111.96 255.599 1117.15 259.826C1122.49 264.2 1124.87 271.317 1123.46 278.658C1129.54 279.695 1134.73 283.254 1138.14 288.889C1141.78 294.895 1142.82 302.16 1140.96 308.092C1146.45 310.464 1150.01 314.764 1150.9 320.251C1151.57 324.774 1150.38 329.593 1147.86 333.226C1148.83 333.596 1149.79 334.115 1150.68 334.783C1153.5 336.785 1156.84 340.936 1156.84 348.944C1156.84 355.468 1151.05 361.696 1147.56 364.884C1142.6 369.333 1135.62 373.707 1131.47 373.707ZM1098.46 303.273C1101.43 303.273 1103.8 304.014 1105.14 306.09C1106.92 308.833 1106.47 312.763 1106.03 317.73C1105.36 324.403 1104.55 332.781 1108.7 340.417C1116.93 355.468 1128.35 368.072 1131.4 368.369C1132.73 368.517 1138.44 365.922 1144.08 360.806C1148.9 356.432 1151.64 352.058 1151.64 348.721C1151.64 344.569 1150.61 341.53 1148.53 339.528C1146.23 337.303 1143.34 337.155 1142.97 337.155C1141.85 337.304 1140.82 336.71 1140.37 335.672C1139.78 334.486 1140.22 333.077 1141.26 332.336C1144.52 330.186 1146.53 325.144 1145.86 320.77C1145.41 317.73 1143.49 313.652 1136.96 311.873C1136.22 311.651 1135.62 311.132 1135.25 310.464C1134.96 309.723 1134.96 308.981 1135.33 308.24C1137.7 303.495 1137.03 296.674 1133.77 291.336C1131.99 288.37 1127.84 283.477 1120.2 283.328C1119.38 283.328 1118.56 282.884 1118.12 282.216C1117.67 281.549 1117.53 280.659 1117.75 279.918C1119.9 273.616 1118.34 267.24 1113.96 263.607C1109.74 260.196 1104.03 260.122 1098.24 263.458C1097.5 263.903 1096.61 263.903 1095.79 263.533C1094.98 263.162 1094.46 262.421 1094.38 261.531C1093.79 257.082 1089.41 253.301 1084.52 252.856C1078.81 252.411 1074.28 256.341 1071.91 263.755C1071.69 264.571 1071.02 265.164 1070.2 265.46C1069.39 265.683 1068.5 265.534 1067.83 265.015C1063.01 261.308 1058.04 260.122 1054.18 261.827C1051.88 262.791 1050.33 264.719 1050.1 266.721C1049.95 268.426 1050.77 269.909 1052.55 271.095C1053.22 271.54 1053.66 272.355 1053.66 273.171C1053.66 273.987 1053.29 274.802 1052.62 275.321C1045.13 280.733 1042.17 287.629 1044.47 294.153C1047.43 302.754 1058.26 308.388 1070.87 307.943C1075.02 307.795 1080.22 306.535 1085.19 305.348C1090.23 304.459 1094.83 303.273 1098.46 303.273Z" fill="#202D37"/>
<path d="M1244.58 732.626C1243.32 732.626 1242.21 731.663 1241.99 730.402C1232.12 662.414 1202.01 609.551 1177.09 582.786C1159.28 563.658 1143.49 539.858 1140 532.444C1136.81 525.623 1128.35 517.393 1128.28 517.319C1127.84 516.874 1127.54 516.281 1127.54 515.614C1124.35 459.934 1130.73 396.098 1130.8 395.43C1130.95 394.17 1131.99 393.132 1133.25 393.132C1149.34 392.391 1175.31 387.646 1176.42 377.785C1176.71 375.042 1174.12 372.521 1172.49 371.334C1165 365.551 1149.34 362.586 1136.22 367.627C1134.88 368.146 1133.4 367.479 1132.88 366.145C1132.36 364.81 1133.03 363.327 1134.36 362.808C1149.79 356.877 1167.15 360.732 1175.68 367.257C1179.9 370.519 1181.98 374.448 1181.54 378.378C1179.83 394.17 1145.64 397.506 1135.7 398.174C1134.66 409.814 1129.91 465.124 1132.66 514.354C1134.88 516.652 1141.71 523.844 1144.75 530.294C1148.01 537.263 1163.73 560.84 1180.94 579.302C1206.38 606.66 1237.09 660.487 1247.18 729.735C1247.4 731.144 1246.44 732.478 1244.95 732.701C1244.88 732.626 1244.73 732.626 1244.58 732.626Z" fill="#202D37"/>
<path d="M912.81 664.713C912.291 664.713 911.846 664.564 911.401 664.268C910.214 663.452 909.918 661.821 910.659 660.635C950.193 601.841 998.479 532.741 1003.75 525.178L1003.52 384.383C998.257 383.494 984.312 380.973 970.368 377.859C959.984 375.56 951.677 373.336 945.52 371.334C934.32 367.701 932.318 365.181 931.798 363.031C931.279 360.732 930.018 355.394 971.258 327.591C995.883 310.983 1026 293.115 1051.73 279.77C1053 279.102 1054.55 279.621 1055.22 280.882C1055.89 282.142 1055.37 283.699 1054.11 284.366C1029.33 297.193 1000.19 314.468 976.079 330.557C947.152 349.908 938.029 359.249 936.99 361.844C938.029 362.956 943.592 366.589 972.741 373.04C989.727 376.821 1006.42 379.638 1006.56 379.638C1007.82 379.861 1008.71 380.899 1008.71 382.159L1009.01 525.994C1009.01 526.513 1008.86 527.032 1008.57 527.477C1008.05 528.218 956.72 601.544 915.036 663.526C914.516 664.268 913.7 664.713 912.81 664.713Z" fill="#202D37"/>
<path d="M1014.43 796.981C1013.02 796.981 1011.83 795.869 1011.83 794.46C1011.38 770.883 1012.35 673.758 1021.03 630.237C1029.19 589.311 1033.64 565.734 1031.34 556.614C1029.48 549.349 1011.53 533.556 1004.78 528.07C1003.67 527.18 1003.52 525.549 1004.41 524.437C1005.3 523.325 1006.93 523.177 1008.05 524.066C1010.64 526.216 1033.71 545.122 1036.38 555.354C1038.98 565.585 1034.67 588.421 1026.15 631.275C1017.54 674.351 1016.58 770.883 1017.02 794.386C1017.1 795.721 1015.91 796.907 1014.43 796.981Z" fill="#202D37"/>
<path d="M1073.69 765.1C1073.62 765.1 1073.62 765.1 1073.54 765.1C1072.13 765.026 1071.02 763.766 1071.09 762.357C1071.17 761.69 1074.95 696.075 1076.36 660.042C1076.95 645.362 1079.92 571.294 1083.63 555.057C1086.82 541.119 1124.42 516.059 1128.73 513.241C1129.91 512.426 1131.54 512.797 1132.29 513.983C1133.1 515.169 1132.73 516.8 1131.54 517.542C1120.42 524.882 1090.97 546.086 1088.67 556.169C1085.85 568.477 1083.04 619.931 1081.55 660.19C1080.22 696.223 1076.36 761.912 1076.29 762.579C1076.21 764.062 1075.1 765.1 1073.69 765.1Z" fill="#202D37"/>
<path d="M1117.3 591.535C1116.93 591.535 1116.64 591.535 1116.26 591.461C1112.48 591.09 1109.96 588.495 1109.37 584.491C1108.33 577.225 1102.69 566.623 1096.76 560.914C1095.72 559.951 1095.72 558.245 1096.68 557.281C1097.65 556.318 1099.35 556.243 1100.32 557.207C1107.14 563.88 1113.22 575.298 1114.48 583.824C1114.78 585.826 1115.82 586.197 1116.78 586.345C1122.12 586.864 1136.29 577.819 1144.97 554.242C1145.49 552.907 1146.97 552.24 1148.31 552.685C1149.64 553.204 1150.31 554.686 1149.86 556.021C1141.63 578.412 1126.87 591.535 1117.3 591.535Z" fill="#202D37"/>
<path d="M1060.86 578.263C1051.73 578.263 1040.91 577.225 1032.89 572.999C1031.63 572.332 1031.11 570.775 1031.78 569.515C1032.45 568.254 1034.01 567.735 1035.27 568.403C1049.88 576.039 1077.03 571.961 1077.25 571.887C1078.66 571.665 1079.99 572.629 1080.22 574.037C1080.44 575.446 1079.47 576.781 1078.07 577.003C1077.47 577.151 1070.13 578.263 1060.86 578.263Z" fill="#202D37"/>
<path d="M1000.63 591.164C1000.48 591.164 1000.33 591.164 1000.26 591.164C992.471 590.794 984.535 579.376 982.532 575.298C981.939 574.038 982.458 572.481 983.719 571.813C984.98 571.22 986.537 571.739 987.205 573C989.356 577.448 996.031 585.752 1000.48 585.974C1001.22 585.974 1002.26 585.826 1003.37 584.047C1004.78 581.748 1006.19 579.005 1007.75 576.114C1013.17 565.882 1018.73 555.28 1026.07 554.612C1027.48 554.464 1028.74 555.502 1028.89 556.985C1029.04 558.394 1028 559.654 1026.52 559.802C1021.99 560.247 1016.43 570.775 1012.35 578.56C1010.79 581.526 1009.23 584.343 1007.82 586.79C1005.6 590.349 1002.78 591.164 1000.63 591.164Z" fill="#202D37"/>
<path d="M1050.1 409.74C1047.21 409.74 1044.32 409.221 1041.5 408.109C1040.16 407.59 1039.5 406.107 1040.02 404.772C1040.53 403.438 1042.02 402.771 1043.35 403.29C1049.88 405.81 1055.22 404.179 1058.56 402.4C1063.97 399.508 1068.2 394.022 1069.61 388.016C1069.91 386.608 1071.32 385.718 1072.73 386.089C1074.13 386.385 1075.02 387.794 1074.65 389.203C1072.87 396.765 1067.76 403.438 1060.93 406.997C1057.59 408.776 1053.89 409.74 1050.1 409.74Z" fill="#202D37"/>
<path d="M1137.92 383.938C1137.11 383.938 1136.29 383.568 1135.77 382.752C1134.96 381.566 1135.33 379.935 1136.51 379.119C1142.67 375.041 1156.69 372.076 1165.59 374.374C1167 374.745 1167.81 376.154 1167.44 377.562C1167.07 378.971 1165.66 379.787 1164.25 379.416C1156.39 377.414 1143.93 380.454 1139.41 383.494C1138.89 383.79 1138.44 383.938 1137.92 383.938Z" fill="#202D37"/>
<path d="M953.011 729.29C951.676 729.29 950.564 728.326 950.415 726.992C949.525 719.281 945.965 697.854 940.254 691.329C938.103 688.809 936.026 689.328 931.872 691.107C929.573 692.071 927.496 693.035 925.271 692.442C924.01 692.071 921.192 691.329 914.516 674.573C910.882 665.38 907.692 655.297 906.431 648.772C903.91 636.242 884.106 607.772 870.68 607.772C869.271 607.772 868.084 606.586 868.084 605.177C868.084 603.768 869.271 602.582 870.68 602.582C880.842 602.582 891.3 613.629 896.567 620.154C904.132 629.495 910.14 640.617 911.549 647.734C914.219 661.08 923.639 684.657 926.829 687.4C927.422 687.4 928.906 686.733 929.87 686.362C933.356 684.879 939.29 682.358 944.185 687.919C952.121 696.964 955.459 725.212 955.533 726.398C955.682 727.807 954.643 729.142 953.234 729.29C953.16 729.29 953.086 729.29 953.011 729.29Z" fill="#202D37"/>
<path d="M850.951 575.743C849.987 575.743 849.022 575.15 848.577 574.186C834.114 542.231 803.332 479.285 790.426 469.943C784.938 466.013 766.988 456.597 718.48 454.595C717.07 454.521 715.958 453.335 715.958 451.926C716.032 450.518 717.219 449.406 718.628 449.406C766.691 451.407 786.124 460.453 793.393 465.717C810.675 478.172 851.544 568.254 853.25 572.036C853.843 573.37 853.25 574.853 851.989 575.446C851.693 575.669 851.322 575.743 850.951 575.743Z" fill="#202D37"/>
<path d="M704.758 556.911C692.371 556.911 686.956 551.795 684.731 548.607C681.319 543.565 681.245 536.67 684.434 530.368C685.102 529.108 686.66 528.589 687.92 529.256C689.181 529.923 689.701 531.48 689.033 532.741C686.66 537.412 686.66 542.305 688.959 545.79C692.074 550.386 699.046 552.462 708.54 551.647C721.372 550.535 731.237 545.938 733.61 539.932C735.094 536.225 733.091 532.889 731.163 530.813C730.199 529.775 730.273 528.144 731.311 527.18C732.35 526.216 733.981 526.29 734.946 527.328C739.099 531.851 740.286 536.967 738.432 541.86C735.316 549.942 724.265 555.576 708.985 556.837C707.576 556.837 706.167 556.911 704.758 556.911Z" fill="#202D37"/>
<path d="M719.073 576.558C703.942 576.558 697.86 570.849 695.56 567.216C692.742 562.842 692.519 557.281 695.041 552.314C695.709 551.054 697.266 550.535 698.527 551.202C699.788 551.869 700.307 553.426 699.64 554.686C697.934 557.949 698.082 561.508 699.862 564.399C701.716 567.291 707.057 572.036 721.965 571.294C734.056 570.701 738.877 565.14 739.322 560.544C739.767 555.799 735.91 551.573 729.754 550.016C728.344 549.645 727.528 548.236 727.825 546.902C728.196 545.493 729.605 544.677 730.94 544.974C739.693 547.124 745.107 553.574 744.44 561.063C743.772 567.735 737.616 575.743 722.188 576.484C721.15 576.558 720.111 576.558 719.073 576.558Z" fill="#202D37"/>
<path d="M870.755 607.772C869.494 607.772 868.455 606.882 868.233 605.622C865.118 588.495 857.849 576.558 855.03 574.26C836.932 588.124 778.781 596.725 774.109 596.725C769.139 596.725 740.954 583.528 731.756 572.925C730.792 571.813 730.94 570.182 731.979 569.292C733.091 568.329 734.723 568.477 735.613 569.515C744.366 579.598 770.771 591.387 774.034 591.535C778.262 591.535 837.081 582.49 852.508 569.589C853.547 568.773 854.882 568.551 856.217 568.996C861.557 570.923 870.013 586.567 873.277 604.658C873.499 606.067 872.609 607.401 871.2 607.698C871.051 607.772 870.903 607.772 870.755 607.772Z" fill="#202D37"/>
<path d="M791.613 764.507C790.352 764.507 789.314 763.618 789.091 762.357C789.091 762.209 786.05 745.156 780.784 704.008C776.482 670.57 779.968 658.114 782.119 650.626C782.638 648.846 783.009 647.512 783.083 646.326C783.751 640.172 783.825 630.459 777.372 617.633C770.4 603.768 771.512 594.204 771.587 593.759C771.735 592.351 773.07 591.313 774.479 591.535C775.889 591.683 776.927 593.018 776.705 594.427C776.705 594.575 775.814 603.027 781.971 615.26C789.091 629.347 788.943 640.024 788.275 646.845C788.127 648.476 787.682 650.107 787.089 652.034C785.086 659.078 781.822 670.941 785.902 703.34C791.168 744.341 794.209 761.245 794.209 761.467C794.432 762.876 793.542 764.211 792.132 764.507C791.91 764.507 791.761 764.507 791.613 764.507Z" fill="#202D37"/>
<path d="M785.605 649.217C784.27 649.217 783.083 648.179 783.009 646.845C782.935 645.436 783.973 644.176 785.383 644.101C786.05 644.027 849.542 639.06 868.455 603.991C869.123 602.73 870.681 602.286 871.941 602.953C873.202 603.62 873.647 605.177 872.98 606.437C852.805 644.027 788.498 649.069 785.754 649.291C785.679 649.217 785.679 649.217 785.605 649.217Z" fill="#202D37"/>
<path d="M338.348 502.862C337.828 502.862 337.309 502.713 336.864 502.417C335.677 501.601 335.381 499.97 336.271 498.784C342.575 489.887 347.545 482.621 351.55 476.764C364.456 457.932 368.387 452.223 375.953 450.814C380.181 449.999 386.708 450.073 393.012 450.147C398.204 450.221 406.067 450.295 407.55 449.48C408.737 448.813 415.264 443.4 421.569 438.21C446.49 417.673 453.685 412.335 456.43 412.112C459.545 411.89 464.069 413.818 468.075 415.449C469.41 416.042 471.116 416.709 472.08 417.006C476.753 413.818 501.674 390.908 516.954 376.673C517.992 375.709 519.624 375.783 520.588 376.821C521.553 377.859 521.478 379.49 520.44 380.454C520.366 380.528 509.314 390.908 498.114 401.065C474.824 422.344 473.786 422.344 472.377 422.344C471.041 422.344 469.261 421.603 465.998 420.268C463.179 419.082 458.877 417.302 456.949 417.302C456.949 417.302 456.949 417.302 456.875 417.302C453.463 418.563 434.845 433.984 424.758 442.288C416.08 449.406 411.555 453.187 410.072 454.002C407.55 455.485 402.136 455.485 392.864 455.411C386.782 455.337 380.552 455.263 376.843 455.93C371.651 456.894 368.461 461.268 355.778 479.73C351.773 485.587 346.729 492.853 340.424 501.75C339.979 502.491 339.163 502.862 338.348 502.862Z" fill="#202D37"/>
<path d="M508.202 371.705C507.089 373.188 520.218 393.651 522.962 393.058C525.706 392.465 533.939 371.409 532.604 369.852C531.195 368.369 510.798 368.22 508.202 371.705Z" fill="#202D37"/>
<path d="M522.962 394.17C520.959 394.17 517.473 390.315 512.504 382.678C506.051 372.743 506.941 371.557 507.312 371.112C508.943 368.888 515.1 368.146 519.995 367.924C520.143 367.924 531.788 367.405 533.42 369.259C533.939 369.852 534.31 370.89 532.604 376.154C532.53 376.302 526.819 393.429 523.184 394.244C523.11 394.17 523.036 394.17 522.962 394.17ZM509.24 372.224C509.833 375.19 520.143 390.982 522.814 391.946C524.816 390.611 531.788 373.855 531.64 370.593C528.821 369.481 511.984 369.703 509.24 372.224Z" fill="#202D37"/>
<path d="M263.434 530.516C262.173 530.516 261.06 529.553 260.838 528.292C255.794 493.52 244.075 473.427 235.1 462.751C225.458 451.185 216.854 447.774 216.78 447.774C215.815 447.404 215.148 446.44 215.148 445.402C215.148 444.364 215.741 443.4 216.78 442.955C233.468 436.06 262.84 426.496 291.545 418.489C313.871 412.261 341.611 405.365 347.322 407.59C353.553 409.962 384.705 423.604 386.782 455.485C388.785 486.032 394.199 501.082 398.724 510.721C399.317 512.055 398.798 513.538 397.463 514.131C396.128 514.724 394.644 514.205 394.051 512.871C389.378 502.788 383.741 487.218 381.664 455.782C379.81 427.089 351.179 414.633 345.468 412.409C338.718 410.036 264.324 429.98 223.9 445.698C227.683 448.071 233.097 452.223 238.883 459.118C248.377 470.314 260.838 491.37 266.03 527.625C266.252 529.034 265.214 530.368 263.805 530.591C263.731 530.516 263.582 530.516 263.434 530.516Z" fill="#202D37"/>
<path d="M267.365 453.261C266.327 453.261 265.362 452.668 264.991 451.63C264.472 450.295 265.066 448.812 266.401 448.219C289.172 438.952 341.685 423.678 345.616 424.123C347.026 424.272 348.064 425.606 347.916 427.015C347.767 428.349 346.581 429.387 345.246 429.313C341.24 429.61 292.658 443.178 268.403 453.038C268.032 453.187 267.662 453.261 267.365 453.261ZM344.949 429.313C344.949 429.313 345.023 429.313 345.097 429.313C345.097 429.313 345.023 429.313 344.949 429.313Z" fill="#202D37"/>
<path d="M530.082 643.36C527.635 643.36 523.629 642.544 516.806 640.765C510.13 638.986 503.529 636.836 503.455 636.836C502.12 636.391 501.378 634.908 501.749 633.573C502.194 632.239 503.677 631.497 505.012 631.868C514.655 634.982 526.151 638.096 529.712 638.17C535.497 623.564 556.117 536.225 557.378 524.511C552.408 521.323 519.921 516.281 512.652 515.911C511.391 517.987 509.833 525.771 509.018 529.701C508.721 531.332 508.424 532.815 508.128 534.075C507.831 535.484 506.422 536.374 505.012 536.077C503.603 535.781 502.713 534.372 503.01 532.963C503.306 531.777 503.603 530.294 503.9 528.663C506.347 516.207 507.905 510.721 511.91 510.721C514.803 510.721 556.043 515.688 561.457 521.249C562.421 522.213 562.644 523.251 562.57 523.918C562.347 532.592 539.576 629.496 533.939 641.506C533.42 642.619 532.456 643.36 530.082 643.36Z" fill="#202D37"/>
<path d="M549.145 624.306C548.7 624.306 548.255 624.231 547.884 624.009C546.623 623.342 546.178 621.711 546.845 620.45C562.347 592.499 587.121 547.198 589.568 540.748C587.788 538.672 577.553 533.63 559.084 529.998C557.674 529.701 556.784 528.366 557.081 526.958C557.378 525.549 558.713 524.659 560.122 524.956C563.682 525.697 594.909 532.148 594.909 540.674C594.909 541.86 594.909 543.491 573.028 583.75C562.347 603.398 551.518 622.823 551.444 623.045C550.925 623.787 550.035 624.306 549.145 624.306Z" fill="#202D37"/>
<path d="M562.941 621.711C561.531 621.711 560.345 620.524 560.345 619.116C560.345 617.855 560.345 617.855 566.649 611.702C570.061 608.365 574.808 603.843 579.926 598.875C592.609 586.716 611.152 568.848 615.529 564.103C612.784 561.359 603.068 554.687 589.346 546.753C588.085 546.012 587.714 544.455 588.382 543.195C589.123 541.934 590.681 541.564 591.942 542.231C599.062 546.383 606.035 550.683 611.078 554.168C620.646 560.692 621.907 562.842 621.017 565.215C620.498 566.623 617.309 570.034 583.486 602.582C574.956 610.812 566.13 619.264 564.943 620.524C564.572 621.266 563.831 621.711 562.941 621.711Z" fill="#202D37"/>
<path d="M426.538 839.909C413.113 839.909 397.314 837.24 376.769 830.642C337.754 818.112 227.757 774.665 220.043 762.283C212.923 750.939 209.14 706.899 208.992 705.046C208.843 703.637 209.956 702.377 211.365 702.228C212.774 702.08 214.035 703.192 214.184 704.601C215.222 716.983 219.079 751.014 224.419 759.54C230.205 768.733 333.007 811.142 378.326 825.674C418.231 838.501 439.518 836.054 460.88 827.973C481.426 820.262 589.717 756.574 598.395 748.715C598.766 741.746 597.95 695.63 596.911 690.662C594.39 687.326 570.506 677.836 542.84 666.863C532.827 662.859 521.404 658.337 509.314 653.443C507.979 652.924 507.312 651.367 507.905 650.033C508.424 648.698 509.982 648.031 511.317 648.624C523.407 653.517 534.829 658.04 544.843 662.044C590.088 680.06 600.768 684.657 601.955 689.179C603.364 694.444 604.032 746.491 603.513 750.05C603.29 751.533 603.142 752.496 583.412 764.878C572.064 771.922 556.859 781.115 540.615 790.605C510.575 808.177 474.305 828.492 462.808 832.866C451.46 837.092 440.186 839.909 426.538 839.909Z" fill="#202D37"/>
<path d="M202.687 706.232C202.613 706.232 202.539 706.232 202.539 706.232C193.786 705.639 164.711 702.228 157.294 684.286C152.472 672.498 109.527 561.73 104.112 543.862C101.442 534.891 99.6619 528.885 102.555 523.77C105.447 518.58 112.865 515.169 125.548 510.646C151.211 501.453 243.259 469.869 244.149 469.498C245.484 469.053 246.968 469.72 247.413 471.129C247.858 472.464 247.19 473.946 245.781 474.391C244.891 474.688 152.843 506.346 127.254 515.466C114.348 520.062 108.933 523.028 107.079 526.216C105.299 529.404 106.708 534.223 109.156 542.231C114.496 560.025 157.294 670.422 162.115 682.136C167.084 694.147 186.443 699.708 202.909 700.894C204.319 700.968 205.431 702.228 205.283 703.637C205.209 705.194 204.096 706.232 202.687 706.232Z" fill="#202D37"/>
<path d="M152.027 525.475H106.56C105.151 525.475 103.964 524.289 103.964 522.88C103.964 521.471 105.151 520.285 106.56 520.285H152.027C153.437 520.285 154.623 521.471 154.623 522.88C154.623 524.363 153.437 525.475 152.027 525.475Z" fill="#202D37"/>
<path d="M215.815 696.594C214.703 696.594 213.739 695.926 213.368 694.814C212.997 693.776 178.804 589.607 168.716 563.658C159.741 540.6 157.071 523.399 173.092 514.205C185.85 506.865 250.231 487.885 252.976 487.069C254.385 486.699 255.794 487.44 256.165 488.849C256.536 490.258 255.794 491.666 254.385 492.037C253.717 492.259 187.852 511.61 175.614 518.654C166.12 524.14 162.486 533.26 173.537 561.73C183.699 587.828 217.892 692.145 218.263 693.183C218.708 694.518 217.966 696 216.631 696.445C216.335 696.594 216.038 696.594 215.815 696.594Z" fill="#202D37"/>
<path d="M418.528 776.815C418.083 776.815 417.712 776.741 417.341 776.518C414.967 775.332 371.132 758.724 328.779 742.636C284.35 725.805 238.364 708.382 225.384 703.118C224.048 702.599 223.381 701.042 223.974 699.708C224.493 698.373 226.051 697.706 227.386 698.299C240.292 703.489 286.279 720.912 330.708 737.742C384.631 758.205 417.712 770.735 419.863 771.847C421.124 772.515 421.643 774.072 420.975 775.332C420.308 776.296 419.418 776.815 418.528 776.815Z" fill="#202D37"/>
<path d="M429.283 775.48C428.244 775.48 427.354 774.887 426.909 773.923C426.316 772.589 426.983 771.106 428.244 770.513C457.245 758.057 521.33 726.25 544.546 713.35C567.539 700.523 598.024 687.697 598.321 687.548C599.656 687.029 601.139 687.622 601.733 688.957C602.252 690.291 601.658 691.774 600.323 692.367C600.027 692.516 569.764 705.194 547.068 717.946C523.704 730.995 459.396 762.876 430.247 775.406C429.95 775.406 429.653 775.48 429.283 775.48Z" fill="#202D37"/>
<path d="M427.28 839.909C425.871 839.909 424.758 838.797 424.684 837.388C424.684 837.092 423.645 806.323 425.426 787.12C425.574 785.712 426.835 784.674 428.244 784.748C429.653 784.896 430.692 786.157 430.618 787.565C428.838 806.397 429.876 836.869 429.876 837.166C429.95 838.575 428.838 839.835 427.354 839.835C427.354 839.909 427.28 839.909 427.28 839.909Z" fill="#202D37"/>
<path d="M524.594 729.438C524.297 729.438 523.926 729.364 523.629 729.216C523.11 728.993 469.706 707.196 439.667 696.593C438.332 696.149 437.59 694.666 438.109 693.257C438.554 691.922 440.038 691.181 441.447 691.7C471.561 702.302 525.113 724.174 525.632 724.396C526.967 724.915 527.561 726.473 527.041 727.807C526.522 728.845 525.558 729.438 524.594 729.438Z" fill="#202D37"/>
<path d="M310.088 641.729C297.701 641.729 288.133 636.613 281.532 626.53C274.782 616.224 272.854 602.879 272.483 593.537C272.409 592.128 273.521 590.868 274.931 590.794C276.34 590.719 277.601 591.832 277.675 593.24C278.194 605.696 281.087 616.224 285.908 623.638C291.545 632.313 299.927 636.613 310.681 636.465C310.681 636.465 310.681 636.465 310.756 636.465C312.165 636.465 313.352 637.577 313.352 638.986C313.352 640.394 312.239 641.581 310.83 641.655C310.533 641.729 310.311 641.729 310.088 641.729Z" fill="#202D37"/>
<path d="M338.348 656.631C337.458 656.631 336.642 656.186 336.122 655.371C336.122 655.297 333.156 650.552 329.521 645.658C328.631 644.546 328.928 642.915 330.04 642.025C331.153 641.136 332.785 641.432 333.675 642.544C337.532 647.66 340.424 652.479 340.573 652.702C341.314 653.962 340.944 655.519 339.683 656.261C339.312 656.557 338.793 656.631 338.348 656.631Z" fill="#202D37"/>
<path d="M351.699 647.734C350.512 647.734 349.399 646.844 349.177 645.658C348.287 641.21 347.99 636.02 348.138 630.311C348.212 628.902 349.399 627.79 350.808 627.79C352.218 627.864 353.405 629.05 353.33 630.459C353.182 635.797 353.553 640.542 354.295 644.694C354.591 646.103 353.627 647.438 352.218 647.734C351.995 647.734 351.847 647.734 351.699 647.734Z" fill="#202D37"/>
<path d="M365.346 652.183C364.901 652.183 364.382 652.035 364.011 651.812C362.824 651.071 362.379 649.44 363.121 648.253C366.014 643.582 371.28 637.28 371.503 636.984C372.393 635.872 374.099 635.723 375.137 636.687C376.25 637.577 376.398 639.282 375.434 640.32C375.359 640.394 370.167 646.622 367.497 650.922C367.052 651.738 366.162 652.183 365.346 652.183Z" fill="#202D37"/>
<path d="M240.44 708.901C239.105 708.901 237.993 707.937 237.844 706.528C237.696 705.12 238.735 703.859 240.144 703.711C257.723 701.932 309.198 682.729 309.717 682.507C311.052 681.988 312.536 682.655 313.055 684.064C313.574 685.398 312.907 686.881 311.497 687.4C309.346 688.216 258.835 707.047 240.589 708.901C240.589 708.901 240.515 708.901 240.44 708.901Z" fill="#202D37"/>
<path d="M321.881 589.459C299.63 597.096 271.519 604.806 260.541 607.624C249.564 610.441 244.668 614.815 238.586 597.392C235.323 588.124 231.911 578.931 229.018 571.072C227.238 566.253 225.68 561.952 224.493 558.468C223.974 556.985 223.529 555.65 223.084 554.464C220.192 545.864 223.678 538.375 230.353 535.78C264.25 522.806 302.968 512.797 312.907 510.202C320.62 508.2 324.922 508.348 330.04 520.433C331.524 523.918 333.081 528.366 334.862 534.075C334.936 534.223 334.936 534.372 335.01 534.446C342.872 560.247 345.691 568.699 346.655 574.482C347.693 580.265 344.059 581.822 321.881 589.459Z" fill="#FFFEF2"/>
<path d="M249.267 612.814C244.149 612.814 240.07 609.625 236.064 598.282C233.023 589.681 229.908 581.155 227.164 573.667L225.903 570.182C224.345 566.03 223.084 562.397 221.972 559.283C221.452 557.801 221.007 556.466 220.562 555.28C217.373 545.79 221.082 536.596 229.389 533.408C251.715 524.807 281.161 515.762 312.239 507.755C321.511 505.382 326.851 506.495 332.414 519.469C333.897 522.954 335.529 527.551 337.309 533.408C337.309 533.482 337.383 533.556 337.383 533.704L337.458 533.853C339.238 539.71 340.795 544.677 342.056 548.904C346.507 563.509 348.361 569.589 349.177 574.186C350.66 582.415 344.726 584.417 322.697 592.054C300.817 599.616 272.854 607.253 261.135 610.293C259.725 610.663 258.464 611.034 257.203 611.405C254.236 612.146 251.64 612.814 249.267 612.814ZM318.618 511.833C317.134 511.833 315.503 512.278 313.5 512.797C282.644 520.73 253.421 529.775 231.243 538.227C225.532 540.377 223.158 546.753 225.458 553.649C225.829 554.835 226.274 556.095 226.793 557.578C227.831 560.618 229.166 564.251 230.724 568.403L231.985 571.813C234.729 579.302 237.844 587.902 240.96 596.502C243.185 602.879 245.262 606.289 247.487 607.253C249.415 608.143 252.086 607.327 255.72 606.215C256.981 605.844 258.39 605.399 259.874 605.029C271.519 602.063 299.259 594.426 320.991 586.938C331.598 583.305 338.273 580.933 341.685 578.931C344.504 577.3 344.356 576.41 344.133 574.927C343.391 570.627 341.537 564.696 337.161 550.312C335.826 546.086 334.342 541.119 332.562 535.261L332.488 534.891C330.708 529.108 329.224 524.733 327.741 521.471C324.403 513.909 321.881 511.833 318.618 511.833Z" fill="#202D37"/>
<path d="M334.862 534.149C316.541 539.858 261.728 557.356 228.944 571.072C227.164 566.253 225.606 561.952 224.419 558.468C246.745 548.829 295.995 528.07 330.04 520.507C331.524 523.992 333.081 528.44 334.862 534.149Z" fill="#202D37"/>
<path d="M228.944 572.184C228.795 572.184 228.647 572.184 228.499 572.11C228.202 571.961 227.98 571.739 227.905 571.443L227.238 569.663C225.68 565.511 224.419 561.878 223.307 558.838C223.084 558.319 223.381 557.652 223.9 557.43C270.035 537.56 305.638 524.733 329.744 519.395C330.263 519.247 330.782 519.543 331.005 520.062C332.488 523.473 334.046 527.996 335.826 533.853C335.974 534.446 335.677 535.039 335.084 535.261C318.618 540.451 262.321 558.319 229.315 572.11C229.241 572.11 229.092 572.184 228.944 572.184ZM225.829 559.061C226.867 561.878 228.054 565.14 229.389 568.922L229.611 569.589C262.173 556.095 315.948 538.894 333.452 533.408C331.969 528.663 330.634 524.807 329.373 521.768C305.564 527.18 270.777 539.71 225.829 559.061Z" fill="#202D37"/>
<path d="M309.05 569.885C307.047 569.885 305.712 569.218 304.896 567.958C304.822 567.884 298.517 557.504 301.484 553.945C303.709 551.276 316.17 546.679 320.917 546.308C321.881 546.234 323.365 546.234 324.403 547.198C326.999 549.497 328.483 559.061 328.26 561.359C328.112 562.545 327.667 563.435 326.777 563.88C326.109 564.251 321.807 566.253 317.505 567.81C313.871 569.218 311.126 569.885 309.05 569.885ZM308.976 564.696C311.423 564.918 319.508 561.804 323.068 560.099C322.92 557.875 321.956 553.352 321.14 551.573C318.024 551.795 308.456 555.354 305.86 557.059C306.083 558.616 307.492 562.249 308.976 564.696Z" fill="#202D37"/>
<path d="M331.598 695.63C330.115 695.63 328.928 694.666 328.557 693.109C327.741 689.921 330.56 681.839 331.45 679.467C333.23 674.648 335.974 668.568 338.793 667.011C343.836 664.194 369.574 666.047 371.28 666.418C372.393 666.64 374.099 666.937 377.733 676.353C379.216 680.134 381.071 685.769 381.367 689.031C381.59 691.404 380.922 692.887 379.365 693.554C374.544 695.481 357.262 695.63 333.304 695.704L331.598 695.63ZM352.292 670.718C347.1 670.718 342.501 670.941 341.315 671.608C339.015 673.165 334.342 685.621 333.675 690.44C349.177 690.44 369.797 690.44 376.175 689.031C375.656 685.028 371.651 673.98 369.722 671.46C367.052 671.089 359.116 670.718 352.292 670.718Z" fill="#202D37"/>
<path d="M313.277 719.948C305.934 719.948 303.487 719.726 302.893 717.205C302.152 713.72 310.756 695.036 312.313 692.738C313.129 691.478 314.613 691.033 318.989 690.736C323.217 690.44 330.04 690.366 336.271 690.514C347.767 690.81 348.509 691.626 349.251 692.441C350.364 693.628 353.998 700.301 355.556 703.34C361.118 713.868 360.673 715.055 360.228 716.167C359.858 717.131 359.042 717.872 358.003 717.946C356.891 718.094 343.614 718.91 331.227 719.429C323.81 719.726 317.876 719.874 313.574 719.874C313.5 719.948 313.426 719.948 313.277 719.948ZM308.456 714.684C316.467 715.203 345.023 713.72 354.517 713.053C352.514 708.456 347.322 698.892 345.691 696.371C341.389 695.481 320.546 695.407 316.244 696.297C314.316 699.633 309.866 710.087 308.456 714.684Z" fill="#202D37"/>
<path d="M363.344 718.021C357.929 718.021 356.001 717.65 355.407 715.574C355.185 714.907 354.74 713.35 358.448 703.415C362.157 693.554 363.64 692.442 364.159 692.071C366.236 690.514 377.065 689.995 380.329 689.921C394.941 689.476 397.463 691.478 398.279 692.071C402.061 695.111 409.182 709.791 408.069 713.572C407.698 714.832 406.734 715.648 405.548 715.796C404.509 715.945 392.864 716.76 381.145 717.353C374.544 717.724 369.203 717.872 365.346 717.946C364.53 718.021 363.937 718.021 363.344 718.021ZM360.748 712.831C368.313 713.201 394.496 711.57 402.655 710.977C401.468 706.973 397.314 698.151 394.941 696.297C392.122 694.369 371.503 695.185 367.201 696.445C365.717 698.521 361.934 708.382 360.748 712.831Z" fill="#202D37"/>
<path d="M587.862 665.603C586.75 665.603 585.86 665.528 585.341 665.454C584.154 665.158 583.264 664.565 582.819 663.675C581.78 661.525 579.036 652.85 578.665 651.886C578.22 650.552 578.962 649.069 580.371 648.624C581.706 648.179 583.19 648.921 583.635 650.329C584.673 653.443 586.231 658.262 587.121 660.561C592.313 660.932 613.823 657.892 618.941 656.335C619.089 650.848 614.49 628.235 612.858 623.638C611.078 623.268 604.551 622.971 580.149 626.159C578.739 626.308 577.404 625.344 577.256 623.935C577.033 622.526 578.072 621.192 579.481 621.043C588.827 619.783 596.17 619.042 601.807 618.597C613.304 617.707 615.9 618.523 617.086 620.45C618.57 622.897 621.759 639.579 621.759 639.727C625.245 658.04 623.984 659.152 622.798 660.19C620.201 662.34 596.541 665.603 587.862 665.603Z" fill="#202D37"/>
<path d="M581.558 638.393C580.371 638.393 579.333 637.577 579.036 636.391C578.739 634.982 579.629 633.573 581.039 633.277C592.164 630.756 616.419 629.199 617.457 629.125C618.866 629.051 620.127 630.089 620.201 631.571C620.276 632.98 619.237 634.241 617.754 634.315C617.531 634.315 592.906 635.946 582.151 638.393C581.929 638.393 581.78 638.393 581.558 638.393Z" fill="#202D37"/>
<path d="M583.338 648.772C582.077 648.772 580.964 647.883 580.742 646.622C580.519 645.214 581.484 643.879 582.893 643.657C593.796 641.877 618.57 640.394 619.608 640.32C621.017 640.246 622.278 641.358 622.353 642.767C622.427 644.176 621.314 645.436 619.905 645.51C619.682 645.51 594.315 647.067 583.635 648.772C583.635 648.772 583.486 648.772 583.338 648.772Z" fill="#202D37"/>
<path d="M500.265 528.663C498.93 528.663 497.818 527.625 497.669 526.29C496.631 513.835 494.999 494.187 494.331 489.146C491.513 488.627 484.022 488.775 481.426 489.368C481.055 492.111 481.722 500.712 482.316 507.162C482.612 510.572 482.909 514.131 483.131 517.616C483.206 519.025 482.167 520.285 480.684 520.359C479.275 520.433 478.014 519.395 477.939 517.912C477.717 514.502 477.42 511.017 477.124 507.607C475.714 491.147 475.64 487.144 477.865 485.364C480.684 483.14 493.441 483.437 496.557 484.326C497.966 484.771 498.856 485.513 499.153 486.551C499.672 488.108 501.452 508.793 502.861 525.846C503.01 527.254 501.897 528.515 500.488 528.663C500.414 528.663 500.339 528.663 500.265 528.663Z" fill="#202D37"/>
<path d="M530.75 547.94C531.343 545.196 446.342 478.098 435.736 479.062C426.983 479.878 355.407 551.573 351.699 562.545C350.438 566.253 368.832 567.142 370.835 567.291C371.057 567.291 372.244 566.253 374.173 564.473C378.401 596.873 389.155 684.731 392.122 685.027C395.608 685.25 514.432 678.355 518.66 675.463C522.072 673.165 515.767 589.459 513.171 557.133C518.141 558.245 530.231 550.386 530.75 547.94Z" fill="#FFFEF2"/>
<path d="M392.345 687.548C392.122 687.548 391.974 687.548 391.9 687.548C389.526 687.4 388.71 686.065 386.634 674.277C385.521 667.975 384.038 658.781 382.406 646.993C379.365 625.418 375.953 599.023 373.505 579.746C372.022 567.809 370.761 558.394 370.242 554.761C370.019 553.352 370.983 552.017 372.393 551.795C373.802 551.573 375.137 552.536 375.36 553.945C375.879 557.652 377.14 567.142 378.623 579.079C382.554 609.922 390.565 672.646 393.606 682.358C407.402 682.062 505.531 675.982 516.657 673.313C518.512 663.6 513.32 590.126 509.537 544.677C509.388 543.269 510.501 542.008 511.91 541.86C513.32 541.712 514.58 542.824 514.729 544.233C514.729 544.529 517.399 576.632 519.55 608.662C523.926 674.87 521.998 676.204 520.069 677.539C518.957 678.28 516.731 679.837 455.243 683.915C428.467 685.769 396.869 687.548 392.345 687.548Z" fill="#202D37"/>
<path d="M420.234 686.14C418.973 686.14 417.86 685.25 417.638 683.99C414.967 667.159 412.371 648.921 410.665 635.13C407.253 606.734 408.589 605.844 410.295 604.806C412.594 603.324 422.978 602.211 426.093 601.915C440.186 600.58 441.521 601.915 442.263 602.73C443.153 603.694 443.969 604.51 448.196 643.582C450.273 662.488 452.053 681.395 452.128 681.543C452.276 682.952 451.238 684.212 449.828 684.36C448.419 684.509 447.158 683.471 447.01 682.062C444.488 655.89 440.038 614 438.406 606.66C434.03 606.141 418.083 607.846 413.781 609.032C413.187 615.26 417.044 647.512 422.755 683.248C422.978 684.657 422.014 685.991 420.604 686.214C420.53 686.14 420.382 686.14 420.234 686.14Z" fill="#202D37"/>
<path d="M474.231 647.734C470.3 647.734 467.481 646.622 466.517 643.73C465.479 640.542 464.663 633.573 464.292 628.012C463.55 616.076 464.959 614.519 466.739 613.777C470.151 612.369 478.088 612.294 480.461 612.294C491.365 612.369 492.255 613.851 492.848 614.889C494.257 617.41 495.518 637.799 493.59 642.174C492.922 643.656 491.958 644.175 491.216 644.324C490.92 644.398 490.475 644.546 489.881 644.694C484.096 646.474 478.533 647.734 474.231 647.734ZM469.484 618.374C468.816 622.229 469.781 637.354 471.338 642.099C471.635 642.396 473.934 643.953 488.324 639.875C488.546 639.801 488.694 639.801 488.917 639.727C489.881 636.094 488.991 622.155 488.324 618.152C484.912 617.336 473.712 617.262 469.484 618.374Z" fill="#202D37"/>
<path d="M512.059 784.229C503.381 784.229 495.147 782.079 489.065 777.853C484.541 774.665 483.577 769.104 485.505 765.99C486.766 763.988 489.659 762.505 493.664 764.804C502.713 769.92 522.517 769.92 533.569 762.283C539.206 758.354 541.579 753.164 540.615 746.787C540.096 743.303 541.505 741.523 542.469 740.782C543.953 739.596 546.029 739.373 548.032 740.189C550.628 741.227 553.595 744.118 554.411 749.308C556.043 760.133 550.925 769.845 539.947 776.592C531.714 781.708 521.627 784.229 512.059 784.229ZM489.881 768.882C489.807 769.03 489.733 769.401 489.807 770.068C490.03 771.402 490.845 772.737 492.106 773.627C503.158 781.411 523.407 780.744 537.277 772.144C542.543 768.882 551.073 761.69 549.293 750.05C548.996 747.974 548.032 746.194 546.771 745.305C546.326 745.008 545.955 744.86 545.807 744.86C545.733 745.008 545.733 745.379 545.807 745.972C547.142 754.35 543.953 761.467 536.61 766.583C523.629 775.554 501.971 775.406 491.216 769.326C490.475 768.956 490.03 768.882 489.881 768.882Z" fill="#202D37"/>
<path d="M729.457 498.339C726.193 474.984 723.152 460.601 720.037 452.149C716.328 442.065 712.397 440.36 707.502 441.695C697.489 444.512 666.262 450.295 612.191 468.682C598.84 473.205 608.408 495.67 615.974 517.616C623.465 539.562 621.611 552.388 645.42 545.493C654.988 542.75 670.787 537.708 686.363 532.666C691.703 530.887 697.044 529.182 702.087 527.551C698.824 519.395 711.433 507.681 729.457 498.339Z" fill="#FFFEF2"/>
<path d="M634.665 549.867C631.698 549.867 629.176 549.274 627.099 548.088C621.388 544.9 619.46 538.227 616.79 528.959C615.899 525.771 614.861 522.138 613.526 518.283C612.784 516.059 611.968 513.835 611.227 511.684C605.59 495.744 600.323 480.619 604.477 472.019C605.886 469.127 608.186 467.125 611.375 466.087C653.505 451.778 681.838 445.105 697.118 441.472C701.346 440.509 704.683 439.693 706.834 439.1C715.809 436.579 719.963 444.216 722.485 451.111C725.748 459.934 728.789 474.762 732.053 497.82C732.201 498.932 731.682 499.97 730.718 500.489C712.917 509.757 702.162 520.433 704.535 526.364C704.832 527.032 704.758 527.773 704.461 528.44C704.164 529.108 703.571 529.553 702.903 529.775C697.86 531.406 692.593 533.185 687.179 534.891C674.273 539.117 656.694 544.752 646.162 547.791C641.563 549.274 637.78 549.867 634.665 549.867ZM710.098 443.845C709.356 443.845 708.763 443.993 708.17 444.216C705.87 444.883 702.681 445.624 698.23 446.662C683.099 450.221 654.914 456.894 613.007 471.129C611.152 471.796 609.892 472.834 609.076 474.391C605.812 481.064 611.004 495.818 616.048 510.053C616.79 512.278 617.605 514.502 618.347 516.726C619.682 520.656 620.795 524.363 621.685 527.625C623.984 535.706 625.69 541.489 629.547 543.639C632.514 545.271 637.335 545.048 644.604 542.972C655.062 539.932 672.567 534.298 685.473 530.146C689.997 528.663 694.596 527.18 698.898 525.771C698.156 517.319 708.095 506.865 726.564 496.93C723.449 475.281 720.556 461.342 717.515 453.113C714.697 445.328 712.175 443.845 710.098 443.845Z" fill="#202D37"/>
<path d="M718.924 493.223C718.924 499.822 713.584 505.234 706.983 505.234C705.574 505.234 704.164 505.012 702.903 504.493C703.793 503.084 704.313 501.379 704.313 499.525C704.313 494.558 700.381 490.406 695.412 490.184C696.747 485.068 701.42 481.212 706.983 481.212C713.51 481.287 718.924 486.625 718.924 493.223Z" fill="#202D37"/>
<path d="M694.893 511.462C688.291 511.462 682.951 506.124 682.951 499.525C682.951 497.301 683.544 495.151 684.731 493.297C685.473 492.111 687.105 491.666 688.291 492.482C689.478 493.223 689.923 494.854 689.107 496.041C688.44 497.079 688.143 498.339 688.143 499.525C688.143 503.232 691.184 506.272 694.893 506.272C697.266 506.272 699.343 505.086 700.604 503.084C701.271 502.046 701.642 500.786 701.642 499.525C701.642 495.892 698.824 492.927 695.189 492.778C695.041 492.778 694.967 492.778 694.893 492.778C693.483 492.778 692.297 491.592 692.297 490.183C692.297 488.775 693.483 487.588 694.893 487.588C695.115 487.588 695.264 487.588 695.486 487.588C701.865 487.885 706.834 493.149 706.834 499.525C706.834 501.749 706.241 503.974 705.054 505.827C702.829 509.386 699.046 511.462 694.893 511.462Z" fill="#202D37"/>
<path d="M627.99 501.601C627.693 501.601 627.396 501.601 627.099 501.527C625.319 501.305 624.355 500.415 623.836 499.748C621.759 496.856 618.792 487.514 620.498 484.919C621.685 483.14 625.245 481.287 631.105 479.359C636.816 477.431 640.525 476.838 642.082 477.505C645.049 478.766 647.645 486.254 648.09 489.22C648.239 490.109 648.684 492.853 646.829 494.335C644.975 495.967 633.775 501.601 627.99 501.601ZM627.841 496.486C630.511 496.856 640.302 492.63 643.046 490.777C643.046 488.923 641.192 484.104 640.005 482.473C636.89 482.769 627.47 485.883 625.171 487.663C625.319 489.442 626.432 494.187 627.841 496.486Z" fill="#202D37"/>
<path d="M784.493 573.296C784.196 573.296 783.825 573.222 783.528 573.074C760.832 563.954 753.118 549.867 750.67 539.71C749.335 534.075 749.409 529.034 749.78 525.327C738.728 530.887 717.738 536.967 706.834 534.149C703.126 533.186 700.678 531.258 699.566 528.515C698.379 525.697 698.601 522.583 700.233 519.247C705.722 507.607 728.27 493.372 753.86 485.513C755.195 485.068 756.678 485.883 757.123 487.218C757.568 488.552 756.752 490.035 755.417 490.48C731.905 497.746 709.727 511.388 704.98 521.471C704.016 523.473 703.868 525.178 704.461 526.587C704.98 527.773 706.241 528.663 708.244 529.182C709.801 529.553 711.581 529.775 713.584 529.775C726.119 529.775 746.071 522.732 751.857 518.135C752.747 517.393 754.008 517.393 754.972 518.061C755.936 518.728 756.307 519.914 755.936 521.026C755.491 522.287 746.368 552.685 785.457 568.403C786.792 568.922 787.459 570.479 786.866 571.813C786.495 572.703 785.531 573.296 784.493 573.296Z" fill="#202D37"/>
<path d="M558.565 672.349C575.565 672.349 589.346 658.574 589.346 641.581C589.346 624.587 575.565 610.812 558.565 610.812C541.564 610.812 527.783 624.587 527.783 641.581C527.783 658.574 541.564 672.349 558.565 672.349Z" fill="#FFFEF2"/>
<path d="M558.565 674.944C540.17 674.944 525.187 659.968 525.187 641.581C525.187 623.193 540.17 608.217 558.565 608.217C576.959 608.217 591.942 623.193 591.942 641.581C591.942 659.968 576.959 674.944 558.565 674.944ZM558.565 613.407C543.063 613.407 530.379 626.011 530.379 641.581C530.379 657.076 542.988 669.754 558.565 669.754C574.066 669.754 586.75 657.15 586.75 641.581C586.75 626.011 574.066 613.407 558.565 613.407Z" fill="#202D37"/>
<path d="M567.91 645.436C568.355 647.141 568.281 648.55 567.836 649.81C567.391 651.07 566.427 652.108 564.943 652.998L566.056 657.372C566.056 657.521 566.056 657.595 565.982 657.743C565.908 657.817 565.833 657.891 565.685 657.966L559.825 659.448C559.677 659.448 559.603 659.448 559.455 659.374C559.38 659.3 559.306 659.226 559.232 659.078L558.268 655.148C557.155 655.371 556.117 655.519 555.227 655.667C555.078 655.667 555.004 655.667 554.93 655.593C554.856 655.519 554.782 655.445 554.708 655.296L553.966 650.477C553.966 650.329 553.966 650.181 554.04 650.107C554.114 650.032 554.263 649.958 554.411 649.958C554.782 649.958 555.153 649.958 555.598 649.884C555.968 649.884 556.488 649.81 557.155 649.736C557.749 649.662 558.342 649.588 558.861 649.439C559.455 649.291 559.9 649.143 560.27 648.846C560.641 648.624 560.864 648.327 560.938 648.031C561.012 647.734 561.086 647.512 561.086 647.289C561.086 647.067 561.086 646.918 561.086 646.77C561.012 646.622 560.938 646.474 560.864 646.251C560.715 646.103 560.567 645.881 560.345 645.658C560.122 645.436 559.677 645.213 559.158 645.065C558.639 644.917 558.045 644.843 557.304 644.843C556.488 644.843 555.672 644.768 554.93 644.472C554.114 644.249 553.372 643.879 552.631 643.36C551.889 642.915 551.221 642.248 550.628 641.358C550.035 640.542 549.59 639.504 549.293 638.466C548.922 636.909 548.996 635.501 549.516 634.24C550.035 632.98 550.999 631.942 552.334 631.052L551.221 626.53C551.221 626.381 551.221 626.307 551.296 626.159C551.37 626.011 551.444 625.936 551.592 625.936L557.452 624.454C557.6 624.454 557.674 624.454 557.823 624.528C557.971 624.602 558.045 624.676 558.045 624.824L559.01 628.754C560.048 628.531 561.086 628.383 562.125 628.235C562.273 628.235 562.347 628.235 562.496 628.309C562.644 628.383 562.644 628.457 562.718 628.606L563.46 633.425C563.46 633.573 563.46 633.647 563.312 633.795C563.237 633.944 563.089 633.944 562.941 633.944C561.235 634.018 559.677 634.166 558.416 634.463C557.897 634.611 557.378 634.759 557.081 635.056C556.71 635.278 556.488 635.575 556.414 635.871C556.339 636.168 556.265 636.39 556.191 636.613C556.191 636.835 556.191 636.984 556.191 637.132C556.191 637.28 556.265 637.428 556.414 637.651C556.562 637.799 556.71 638.022 557.007 638.244C557.304 638.466 557.674 638.689 558.194 638.837C558.713 638.985 559.306 639.059 560.048 639.059C560.864 639.059 561.606 639.208 562.421 639.43C563.237 639.653 563.979 640.023 564.721 640.542C565.463 641.061 566.13 641.729 566.723 642.544C567.168 643.36 567.613 644.324 567.91 645.436Z" fill="#202D37"/>
<path d="M559.751 660.487C559.455 660.487 559.158 660.412 558.935 660.264C558.565 660.042 558.342 659.671 558.194 659.3L557.452 656.409C556.71 656.557 556.043 656.631 555.375 656.705C555.004 656.779 554.559 656.631 554.263 656.409C553.966 656.186 553.743 655.816 553.669 655.445V655.371L552.927 650.552C552.853 650.107 553.002 649.662 553.298 649.291C553.595 648.92 554.04 648.772 554.485 648.698C554.856 648.698 555.227 648.698 555.598 648.624C555.968 648.624 556.488 648.55 557.081 648.476C557.674 648.401 558.194 648.327 558.639 648.179C559.084 648.105 559.38 647.957 559.677 647.808C559.9 647.66 559.974 647.512 559.974 647.512C560.048 647.289 560.048 647.141 560.122 647.067C560.122 646.993 560.122 646.919 560.122 646.919C560.122 646.919 560.122 646.844 560.048 646.77C560.048 646.696 559.9 646.622 559.677 646.325C559.603 646.251 559.455 646.103 558.935 645.955C558.49 645.806 557.971 645.732 557.452 645.806C556.562 645.806 555.598 645.658 554.708 645.436C553.817 645.139 552.927 644.768 552.112 644.249C551.221 643.73 550.48 642.915 549.738 641.951C549.07 640.987 548.551 639.875 548.255 638.689C547.81 636.909 547.884 635.278 548.477 633.796C548.996 632.535 549.886 631.497 551.073 630.533L550.109 626.752C550.035 626.381 550.035 625.937 550.257 625.566C550.48 625.195 550.851 624.899 551.221 624.824L557.081 623.342C557.526 623.267 557.897 623.342 558.268 623.49C558.639 623.712 558.935 624.083 559.01 624.454L559.751 627.345C560.493 627.197 561.235 627.123 561.902 626.975C562.347 626.9 562.718 627.049 563.015 627.271C563.386 627.494 563.608 627.938 563.682 628.383L564.424 633.202C564.498 633.647 564.35 634.092 564.127 634.389C563.831 634.759 563.386 634.982 562.941 634.982C561.383 635.056 559.9 635.204 558.639 635.501C558.194 635.575 557.897 635.723 557.674 635.871C557.452 636.02 557.378 636.168 557.378 636.168C557.304 636.465 557.229 636.539 557.229 636.613C557.229 636.687 557.229 636.761 557.229 636.761C557.229 636.761 557.229 636.835 557.304 636.909C557.304 636.909 557.378 637.058 557.674 637.28C557.749 637.354 557.971 637.503 558.416 637.651C558.861 637.799 559.306 637.799 559.9 637.799C560.79 637.799 561.68 637.947 562.57 638.17C563.46 638.466 564.35 638.837 565.166 639.356C566.056 639.949 566.798 640.691 567.465 641.655C568.133 642.618 568.652 643.731 568.949 644.917C569.394 646.844 569.394 648.55 568.874 649.958C568.429 651.219 567.465 652.331 566.204 653.221L567.094 656.854C567.168 657.298 567.168 657.669 566.946 658.04C566.723 658.411 566.353 658.633 565.982 658.781L560.122 660.264C559.974 660.486 559.825 660.487 559.751 660.487ZM558.268 654.036C558.787 654.036 559.232 654.407 559.38 654.852L560.196 658.188L564.795 657.002L563.831 653.221C563.682 652.776 563.905 652.257 564.35 651.96C565.611 651.219 566.427 650.329 566.798 649.365C567.168 648.327 567.168 647.067 566.798 645.658C566.575 644.694 566.204 643.879 565.685 643.137C565.166 642.396 564.647 641.877 563.979 641.432C563.312 640.987 562.644 640.691 561.902 640.468C561.235 640.246 560.493 640.172 559.825 640.172C559.01 640.172 558.342 640.098 557.674 639.875C557.007 639.653 556.488 639.43 556.043 639.06C555.672 638.763 555.449 638.466 555.301 638.17C555.153 637.873 555.004 637.651 554.93 637.354C554.856 637.058 554.856 636.761 554.856 636.465C554.856 636.168 555.004 635.871 555.078 635.501C555.301 634.982 555.598 634.537 556.191 634.166C556.636 633.796 557.229 633.573 557.971 633.425C559.158 633.128 560.493 632.98 561.976 632.906L561.457 629.421C560.641 629.569 559.825 629.718 559.01 629.866C558.416 630.014 557.823 629.644 557.674 629.05L556.859 625.714L552.26 626.9L553.224 630.83C553.372 631.275 553.15 631.794 552.779 632.016C551.592 632.758 550.851 633.647 550.406 634.685C549.961 635.723 549.961 636.835 550.257 638.17C550.48 639.134 550.851 639.949 551.37 640.691C551.889 641.432 552.482 641.951 553.076 642.396C553.743 642.841 554.411 643.137 555.153 643.36C555.82 643.582 556.488 643.656 557.229 643.656C558.045 643.656 558.787 643.73 559.38 643.953C560.048 644.175 560.641 644.472 561.012 644.843C561.309 645.139 561.606 645.436 561.754 645.658C561.902 645.955 562.051 646.251 562.125 646.474C562.199 646.77 562.199 647.067 562.199 647.363C562.199 647.66 562.125 648.031 561.976 648.401C561.828 648.92 561.457 649.291 560.864 649.736C560.419 650.107 559.825 650.329 559.084 650.477C558.565 650.626 557.971 650.7 557.304 650.774C556.636 650.848 556.117 650.922 555.746 650.922C555.598 650.922 555.375 650.922 555.227 650.922L555.746 654.407C556.488 654.333 557.229 654.184 558.045 653.962C558.119 654.036 558.194 654.036 558.268 654.036Z" fill="#202D37"/>
<path d="M351.699 562.546C350.438 566.253 368.832 567.217 370.835 567.291C372.763 567.439 432.472 503.232 437.738 502.862C443.004 502.491 508.35 553.204 512.059 556.466C515.767 559.802 530.231 550.609 530.75 547.866C531.343 545.122 446.342 478.024 435.736 478.988C426.983 479.878 355.407 551.573 351.699 562.546Z" fill="#FFFEF2"/>
<path d="M370.983 569.886C370.909 569.886 370.761 569.886 370.612 569.886H370.316C352.292 568.848 350.512 566.253 349.696 564.992C349.028 564.028 348.88 562.842 349.251 561.73C351.476 555.131 372.615 532.592 389.971 515.243C401.394 503.825 428.763 477.134 435.513 476.541C437.441 476.393 443.227 475.874 485.282 507.31C506.347 523.102 527.783 540.451 532.085 545.271C532.604 545.864 533.643 547.05 533.346 548.533C532.604 552.092 523.926 557.356 518.734 559.061C514.951 560.321 512.133 560.099 510.353 558.468C505.161 553.797 446.045 508.422 437.961 505.605C433.139 508.274 409.33 532.592 395.015 547.272C374.099 568.477 372.541 569.886 370.983 569.886ZM354.665 562.323C356.075 562.916 360.006 564.028 370.167 564.621C372.689 562.471 382.183 552.833 391.306 543.491C425.129 508.941 434.252 500.489 437.59 500.192C439.222 500.044 441.966 499.896 477.049 526.142C494.48 539.191 511.762 552.685 513.839 554.464C514.284 554.687 516.806 554.538 521.33 552.166C524.297 550.609 526.522 548.903 527.635 547.865C523.407 543.639 506.273 529.33 484.244 512.796C451.163 487.959 438.406 481.509 436.106 481.583C433.065 482.176 417.044 495.596 393.309 519.247C373.802 538.672 357.855 556.54 354.665 562.323Z" fill="#202D37"/>
</g>
</g>
<defs>
<clipPath id="clip0_3457_4968">
<rect width="1440" height="1024" fill="white"/>
</clipPath>
<clipPath id="clip1_3457_4968">
<rect width="1682" height="1261" fill="white" transform="translate(-121 -118)"/>
</clipPath>
</defs>
</svg>
