<svg width="1440" height="1024" viewBox="0 0 1440 1024" fill="none" xmlns="http://www.w3.org/2000/svg">
<g clip-path="url(#clip0_3457_3183)">
<rect width="1440" height="1024" fill="white"/>
<g clip-path="url(#clip1_3457_3183)">
<path d="M1482.11 -110.188H-43.1788V1135.19H1482.11V-110.188Z" fill="#FFFEF2"/>
<path d="M872.419 902.087C872.355 902.087 872.355 902.087 872.291 902.087C838.153 908.147 800.697 912.039 759.604 913.506C756.35 913.634 753.096 913.697 749.905 913.825C731.911 914.335 714.491 914.335 697.645 913.953C680.353 913.506 663.571 912.613 647.428 911.337C372.155 888.818 261.956 739.286 292.649 570.361C302.475 516.264 328.765 471.417 365.455 437.032C365.519 436.968 365.519 436.969 365.583 436.905C456.511 351.932 611.312 331.263 739.44 394.354C793.742 421.084 839.366 437.287 879.629 449.472C880.905 449.855 882.118 450.238 883.394 450.62H883.458C884.798 451.003 886.201 451.45 887.541 451.832C908.279 457.957 927.614 463.124 945.863 468.355C946.629 468.546 947.458 468.801 948.224 469.057H948.288C949.053 469.248 949.883 469.503 950.649 469.758C987.02 480.157 1019.69 490.938 1052.23 509.693C1053.06 510.14 1053.89 510.65 1054.72 511.16C1055.55 511.607 1056.38 512.117 1057.15 512.628C1074.95 523.345 1092.75 536.55 1111.13 553.519C1206.84 641.49 1167.66 849.776 872.419 902.087Z" fill="#D181B6"/>
<path d="M1055.61 546.438C1055.3 537.698 1054.98 525.003 1054.72 511.16C1054.15 485.643 1053.7 456.17 1052.87 439.839C1051.59 414.704 1042.15 402.648 1035.2 397.225C1034.62 396.779 1033.98 396.46 1033.15 396.204C1032.45 396.013 1031.69 395.822 1030.79 395.758V395.566C1030.79 395.566 1030.54 394.737 1030.15 393.206C1028.11 385.997 1021.67 364.052 1017.14 358.63C1016.18 357.546 1015.35 357.099 1014.65 357.673C1014.65 357.673 1014.39 356.844 1013.95 355.313C1011.78 348.104 1005.21 326.032 1001.12 311.168C996.208 293.114 991.167 291.647 991.167 287.692C991.167 272.509 983.766 276.655 983.766 271.807C983.766 266.959 985.042 261.919 976.683 257.071C975.088 256.178 972.982 255.603 970.621 255.476C970.302 254.583 969.983 253.753 969.664 252.988C958.561 252.478 942.928 257.645 936.993 261.472C932.016 264.662 928.89 269.829 927.55 276.783C927.103 278.952 926.848 281.312 926.784 284.119C926.593 291.2 927.55 293.178 932.718 295.857C933.867 296.495 935.334 295.985 935.973 294.836C936.611 293.688 936.1 292.221 934.952 291.583C931.634 289.861 931.506 289.797 931.634 284.311C931.697 281.759 931.889 279.654 932.272 277.74C933.293 272.062 935.717 268.107 939.546 265.619C945.225 261.919 960.667 257.135 970.557 257.964C972.727 258.155 974.449 258.602 975.598 259.304C981.724 262.812 981.66 266.129 981.469 270.212C981.405 270.85 981.405 271.36 981.405 271.998C981.405 275.124 983.447 276.273 984.787 277.102C986.573 278.123 988.807 279.462 988.807 287.755C988.807 289.988 989.764 291.583 991.104 293.561C993.018 296.559 995.953 301.024 998.888 311.869C1003.1 327.244 1010.05 350.528 1011.91 356.844C998.761 366.987 987.658 371.261 974.194 371.197C973.684 369.985 973.173 368.773 972.663 367.497C972.535 367.178 972.408 366.923 972.28 366.604C972.982 366.477 973.62 366.03 973.875 365.328C974.513 364.18 974.003 362.713 972.854 362.075C971.578 361.373 970.43 360.608 969.345 359.715C969.09 359.268 968.707 359.013 968.324 358.821C958.625 349.508 959.072 331.326 962.262 320.035C962.581 318.759 961.943 317.419 960.603 317.037C959.327 316.718 957.987 317.356 957.604 318.695C956.519 322.523 955.753 327.052 955.562 331.837C954.732 332.283 953.52 332.538 951.67 331.773C946.565 329.732 941.588 321.949 940.822 318.504C939.801 313.592 947.777 300.259 950.457 296.686C950.457 296.686 952.244 294.645 964.049 295.347C965.389 295.411 966.537 294.39 966.601 293.05C966.665 291.711 965.644 290.562 964.304 290.499C954.477 289.924 948.607 291.009 946.565 293.752C946.501 293.943 934.314 311.231 936.1 319.525C937.121 324.437 943.183 333.623 949.883 336.302C951.287 336.876 952.563 337.132 953.839 337.132C954.413 337.132 954.924 337.068 955.498 337.004C955.817 346.509 958.497 356.142 965.261 362.458C966.282 364.818 967.239 367.115 968.132 369.284C968.77 370.751 969.345 372.218 969.919 373.621C969.983 374.132 970.174 374.642 970.493 375.025C975.726 387.592 979.299 396.715 980.32 403.477C980.256 403.86 980.192 404.179 980.32 404.561C980.384 404.816 980.448 405.008 980.575 405.199C980.83 408.198 980.511 410.749 979.49 412.791C977.13 417.639 970.685 421.02 957.285 424.656C955.434 425.167 952.754 425.932 949.436 426.953C948.99 426.953 948.543 427.08 948.16 427.336C934.313 431.546 909.875 439.456 879.501 449.6C839.238 437.415 793.614 421.211 739.313 394.482C611.12 331.326 456.383 352.059 365.455 437.032C365.455 437.096 365.455 437.16 365.455 437.224C366.221 444.113 367.242 450.556 368.199 455.086C371.134 468.227 376.749 499.614 376.175 515.881C371.963 514.924 374.133 539.804 376.175 570.488V578.462C376.175 578.462 366.859 585.862 368.39 602.576C370.496 625.414 386.129 641.682 392.701 655.653C406.995 685.954 433.667 742.986 472.016 778.2C510.366 813.414 575.323 851.562 665.103 855.9L666.06 856.092C661.083 876.123 653.17 897.94 647.364 911.273C663.507 912.613 680.226 913.506 697.454 913.889C714.3 914.271 731.719 914.271 749.714 913.761C752.968 913.697 756.222 913.57 759.54 913.442C800.57 911.975 838.089 908.02 872.227 902.023L868.845 877.144C865.463 855.709 861.763 835.423 858.062 816.221C857.934 815.455 857.743 814.626 857.615 813.86C1021.22 753.895 1058.1 613.23 1055.61 546.438ZM443.621 554.285C443.621 554.285 440.239 543.567 437.942 531.191C436.028 520.793 435.39 516.646 427.477 517.029C437.623 504.526 434.688 484.941 426.584 471.736C430.476 477.158 433.667 478.307 436.219 477.222C436.921 476.903 437.623 476.457 438.197 475.819C452.746 514.733 462.126 541.335 469.719 559.707C468.571 559.005 467.486 558.367 466.465 557.857C457.595 553.136 450.768 552.817 443.621 554.285ZM684.628 546.438C684.628 546.438 684.628 579.228 680.672 578.143C672.632 575.783 676.844 566.916 667.208 561.493C635.878 558.878 614.311 595.176 647.491 599.706C653.936 600.599 662.423 600.28 673.27 598.238C673.27 598.238 676.397 609.594 679.843 628.03C682.586 643.085 685.586 662.734 687.245 684.998C687.946 694.758 688.393 705.029 688.521 715.491C688.521 715.491 639.771 708.601 601.995 686.975C598.039 675.747 589.106 671.282 579.088 682.254C581.959 664.456 574.111 658.141 557.712 663.946C558.541 650.932 558.541 631.22 542.781 629.944C523.893 628.477 508.515 625.797 498.178 595.304C497.923 594.538 497.668 593.837 497.412 593.007V592.944C507.813 592.178 524.34 586.5 551.905 572.849C575.004 561.43 618.713 544.142 669.25 525.45C688.393 518.369 708.493 511.096 728.912 503.824C728.465 504.845 728.019 505.865 727.572 506.822C718.511 526.152 699.943 544.46 684.628 546.438ZM744.992 500.826C743.205 500.634 741.355 500.507 739.504 500.379L739.44 500.188C790.679 482.07 842.62 464.272 883.394 450.748C883.458 450.748 883.521 450.684 883.521 450.684C911.087 441.498 933.484 434.289 947.075 430.079C947.969 429.824 948.798 429.568 949.628 429.313C949.564 430.079 949.5 430.908 949.436 431.993C948.926 439.137 948.671 452.853 948.352 469.057V469.12C947.713 501.4 947.267 543.185 945.735 561.366C943.183 592.306 916.83 639.13 827.944 690.803C827.688 690.037 827.497 689.208 827.242 688.442C824.179 678.044 821.116 668.22 818.181 658.97C796.103 590.902 777.917 557.666 777.917 557.666C777.917 557.666 816.075 528.576 817.989 522.388C819.585 516.647 792.083 505.164 744.992 500.826Z" fill="#FFFEF2"/>
<path d="M980.384 404.561C980.32 404.179 980.32 403.796 980.384 403.477C979.363 396.715 975.79 387.592 970.557 375.025C970.238 374.642 969.983 374.132 969.983 373.621C969.409 372.218 968.77 370.751 968.196 369.284C967.303 367.115 966.346 364.818 965.325 362.458C958.561 356.142 955.881 346.445 955.562 337.004C955.052 337.132 954.477 337.132 953.903 337.132C952.627 337.132 951.351 336.876 949.947 336.302C943.247 333.623 937.185 324.437 936.164 319.525C934.377 311.231 946.565 293.943 946.629 293.752C948.734 291.009 954.541 289.924 964.368 290.499C965.708 290.562 966.729 291.774 966.665 293.05C966.601 294.39 965.389 295.411 964.112 295.347C952.308 294.645 950.521 296.686 950.521 296.686C947.841 300.323 939.865 313.592 940.886 318.504C941.652 321.885 946.565 329.732 951.733 331.773C953.584 332.475 954.796 332.219 955.626 331.837C955.881 327.052 956.647 322.523 957.668 318.695C957.987 317.356 959.391 316.654 960.667 317.037C962.007 317.356 962.709 318.759 962.326 320.035C959.135 331.326 958.689 349.571 968.388 358.821C968.834 359.013 969.153 359.332 969.409 359.715C970.493 360.608 971.642 361.373 972.918 362.075C974.067 362.713 974.577 364.18 973.939 365.328C973.684 366.03 973.046 366.477 972.344 366.604C972.471 366.923 972.599 367.178 972.727 367.497C973.237 368.773 973.748 369.985 974.258 371.197C987.722 371.261 998.825 366.987 1011.97 356.844C1010.05 350.528 1003.1 327.307 998.952 311.869C996.017 301.024 993.146 296.559 991.167 293.561C989.828 291.519 988.87 289.924 988.87 287.755C988.87 279.462 986.637 278.123 984.85 277.102C983.447 276.273 981.469 275.06 981.469 271.998C981.469 271.36 981.469 270.85 981.532 270.212C981.66 266.129 981.724 262.876 975.662 259.303C974.513 258.602 972.727 258.219 970.621 257.964C960.794 257.135 945.289 261.919 939.61 265.619C935.781 268.107 933.356 272.062 932.336 277.74C932.016 279.654 931.761 281.759 931.697 284.311C931.57 289.797 931.697 289.861 935.015 291.583C936.164 292.221 936.674 293.688 936.036 294.837C935.398 295.985 933.931 296.495 932.782 295.857C927.55 293.242 926.593 291.2 926.848 284.119C926.912 281.248 927.167 278.888 927.614 276.783C928.954 269.829 932.08 264.662 937.057 261.472C942.992 257.645 958.625 252.541 969.728 252.988C965.389 241.76 962.007 240.74 955.307 240.74C950.713 240.74 943.821 242.143 938.078 244.567C935.781 239.974 924.295 216.37 906.365 163.549C884.096 97.9059 880.267 105.306 817.224 126.932C750.224 149.898 463.083 246.417 403.166 269.957C343.186 293.561 359.265 302.045 394.616 386.954C387.788 389.251 380.961 392.249 375.537 395.375C370.113 398.501 366.157 401.691 365.136 404.434C363.349 409.473 364.051 424.018 365.455 437.096C456.383 352.123 611.184 331.454 739.313 394.546C793.614 421.275 839.238 437.479 879.501 449.663C909.875 439.52 934.314 431.61 948.16 427.399C948.543 427.144 948.926 427.017 949.436 427.017C952.754 425.996 955.371 425.23 957.285 424.72C970.685 421.084 977.13 417.703 979.49 412.854C980.511 410.749 980.83 408.261 980.575 405.263C980.511 405.008 980.448 404.753 980.384 404.561ZM514.577 342.426C510.366 344.276 506.09 346.126 501.943 347.913C490.202 353.016 478.844 357.864 469.464 361.692C467.231 362.649 465.061 363.478 463.083 364.308C461.105 365.073 459.254 365.839 457.532 366.477C444.642 371.325 442.473 373.111 435.39 359.14C434.241 356.78 432.837 353.718 431.37 350.401C428.881 344.595 426.137 337.897 424.159 332.602C423.011 329.604 422.054 327.052 421.543 325.33C418.48 316.335 424.797 311.168 432.582 307.531C435.517 306.128 438.516 304.788 441.707 303.385C453.512 298.154 466.975 292.923 477.823 288.84C484.076 286.48 489.5 284.502 493.329 283.098C508.707 277.421 513.365 275.698 519.937 289.924C520.575 291.264 521.213 292.54 521.724 293.88C524.34 299.685 526.701 305.235 528.679 310.147C530.912 315.761 532.699 320.545 533.911 324.182C536.527 331.454 536.336 332.921 514.577 342.426Z" fill="#FFFEF2"/>
<path d="M533.975 323.926C532.699 320.29 530.976 315.569 528.679 309.892C526.764 304.98 524.404 299.493 521.724 293.624C521.149 292.285 520.575 291.009 519.937 289.669C513.428 275.507 508.77 277.166 493.328 282.843C489.5 284.247 484.012 286.224 477.823 288.585C466.848 292.731 453.512 297.962 441.707 303.13C438.516 304.533 435.39 306 432.582 307.276C424.797 310.976 418.544 316.08 421.479 324.947C422.054 326.67 423.011 329.221 424.096 332.22C426.137 337.578 428.817 344.213 431.306 350.018C432.774 353.335 434.177 356.461 435.326 358.758C442.409 372.792 444.578 370.942 457.468 366.094C460.85 364.818 464.87 363.159 469.464 361.309C478.844 357.482 490.202 352.57 501.943 347.53C506.09 345.744 510.302 343.83 514.577 342.044C536.336 332.794 536.527 331.326 533.975 323.926Z" fill="#FAD932"/>
<path d="M729.614 552.498C727.955 553.2 725.913 552.435 725.275 550.712L722.02 542.866C721.319 541.207 722.084 539.166 723.807 538.528C725.466 537.826 727.508 538.592 728.146 540.314L731.4 548.161C732.102 549.883 731.273 551.797 729.614 552.498Z" fill="#202D37"/>
<path d="M750.607 539.676C748.948 540.378 746.906 539.612 746.268 537.89L743.014 530.043C742.312 528.385 743.077 526.343 744.8 525.705C746.459 525.003 748.501 525.769 749.139 527.491L752.394 535.338C753.096 537.06 752.266 538.974 750.607 539.676Z" fill="#202D37"/>
<path d="M868.845 879.632C867.697 879.632 866.612 878.802 866.421 877.526C848.745 766.143 824.945 685.317 808.099 637.152C789.85 585.097 775.684 559.005 775.556 558.75C774.982 557.73 775.301 556.39 776.194 555.624C794.38 541.845 813.714 525.45 815.373 521.75C814.863 520.602 810.396 516.71 795.21 512.117C780.278 507.652 760.37 504.334 739.249 502.676C737.909 502.612 736.888 501.4 737.016 500.06C737.079 498.721 738.292 497.7 739.632 497.827C784.49 501.272 814.161 511.224 819.329 518.752C820.478 520.474 820.414 522.005 820.159 522.962C818.308 529.086 791.445 550.138 780.853 558.24C784.362 565.13 797.06 590.838 812.757 635.494C829.667 683.785 853.531 764.931 871.27 876.697C871.461 878.037 870.568 879.249 869.228 879.44C869.164 879.632 868.973 879.632 868.845 879.632Z" fill="#202D37"/>
<path d="M688.585 717.979C688.457 717.979 688.393 717.979 688.266 717.979C687.755 717.915 638.622 710.77 600.847 689.208C600.337 688.953 599.954 688.442 599.762 687.868C597.976 682.637 594.977 679.256 591.722 678.554C588.532 677.916 584.767 679.703 581.002 683.977C580.3 684.742 579.152 684.997 578.131 684.551C577.174 684.041 576.6 683.02 576.791 681.999C578.067 674.153 577.11 668.666 574.111 666.178C570.346 663.053 563.646 664.584 558.669 666.37C557.393 666.88 556.053 666.178 555.543 664.903C555.096 663.627 555.734 662.287 557.01 661.777C566.007 658.587 572.835 658.778 577.238 662.478C580.619 665.349 582.279 670.006 582.215 676.513C586.49 673.578 590.191 673.387 592.743 673.897C597.593 674.854 601.613 678.937 604.101 685.444C635.814 703.306 675.44 710.961 686.224 712.748C685.713 679.065 681.31 648.508 677.609 628.54C675.121 614.952 672.696 605.192 671.675 601.109C662.104 602.704 653.936 603.15 647.364 602.194C635.559 600.599 631.156 595.304 629.561 591.221C627.328 585.607 628.987 578.781 634.155 572.657C640.664 564.747 654.319 556.645 671.611 559.771C672.951 559.962 673.845 561.302 673.526 562.642C673.334 563.981 671.994 564.874 670.654 564.555C655.531 561.812 643.535 568.829 637.856 575.783C633.964 580.504 632.496 585.607 634.028 589.499C635.687 593.645 640.472 596.452 647.938 597.409C654.51 598.302 662.997 597.856 672.951 595.942C674.228 595.75 675.376 596.516 675.695 597.664C675.695 597.792 678.886 609.338 682.331 627.711C686.16 648.444 690.818 680.468 691.073 715.618C691.073 716.32 690.818 717.022 690.244 717.468C689.733 717.787 689.159 717.979 688.585 717.979Z" fill="#202D37"/>
<path d="M557.201 674.089C557.138 674.089 557.138 674.089 557.074 674.089C555.734 674.025 554.713 672.813 554.777 671.537C554.841 670.517 554.904 669.304 555.032 667.901C556.436 650.103 555.925 633.516 542.589 632.432C521.468 630.773 505.644 627.009 495.179 593.837C494.732 592.561 495.434 591.221 496.774 590.775C498.05 590.328 499.39 591.03 499.837 592.369C509.472 622.735 523.191 625.989 543.036 627.584C562.944 629.178 560.839 655.589 559.881 668.284C559.818 669.623 559.69 670.772 559.626 671.729C559.499 673.132 558.478 674.089 557.201 674.089Z" fill="#202D37"/>
<path d="M665.166 858.388C665.103 858.388 665.103 858.388 665.039 858.388C564.539 853.476 499.965 807.162 470.485 780.05C431.944 744.708 405.208 687.805 390.787 657.184L390.596 656.737C388.681 652.654 385.874 648.253 382.875 643.596C375.664 632.24 367.497 619.354 365.965 602.832C364.625 587.968 371.262 579.93 373.75 577.442V570.425C373.75 569.723 374.005 569.085 374.516 568.702C375.026 568.192 375.601 568 376.302 568C392.255 568.766 421.798 558.687 432.965 554.923C445.982 550.457 455.617 548.288 471.059 557.793C472.144 558.495 472.59 560.026 471.889 561.111C471.187 562.195 469.655 562.642 468.57 561.94C454.724 553.392 446.556 555.497 434.56 559.58C422.692 563.599 395.764 572.721 378.663 572.976V578.526C378.663 579.292 378.344 579.994 377.77 580.376C377.451 580.631 369.539 587.33 370.879 602.385C372.283 617.696 380.131 630.135 387.022 640.98C390.085 645.765 392.893 650.294 394.999 654.632L395.19 655.079C409.419 685.38 435.9 741.646 473.739 776.478C502.772 803.143 566.326 848.692 665.294 853.54C666.634 853.604 667.655 854.688 667.591 856.092C667.527 857.368 666.443 858.388 665.166 858.388Z" fill="#202D37"/>
<path d="M646.407 916.058C646.088 916.058 645.705 915.994 645.449 915.866C644.173 915.292 643.727 913.825 644.301 912.677C653.17 893.156 666.889 853.349 668.357 829.873C668.421 828.533 669.633 827.512 670.909 827.576C672.249 827.64 673.27 828.852 673.206 830.128C671.739 854.433 658.02 894.176 648.704 914.654C648.193 915.484 647.3 916.058 646.407 916.058Z" fill="#202D37"/>
<path d="M710.152 688.315C702.112 688.315 694.327 688.06 687.117 687.486C685.777 687.422 684.756 686.21 684.884 684.934C684.947 683.594 686.16 682.573 687.436 682.701C712.385 684.487 738.356 683.339 760.625 679.32C785.128 674.854 804.398 667.263 816.458 657.247C817.479 656.418 819.01 656.546 819.84 657.566C820.669 658.587 820.542 660.118 819.521 660.947C795.018 681.298 749.331 688.315 710.152 688.315Z" fill="#202D37"/>
<path d="M779.13 744.326C770.516 744.326 722.084 721.36 699.879 706.751C698.794 705.986 698.411 704.518 699.177 703.37C699.943 702.286 701.41 701.903 702.559 702.668C726.615 718.617 773.323 739.477 778.811 739.477C780.406 738.712 786.021 732.396 797.826 713.386C805.93 700.308 813.778 686.146 815.692 681.17C816.203 679.894 817.543 679.32 818.819 679.766C820.095 680.277 820.669 681.617 820.223 682.892C818.117 688.315 809.822 703.179 801.335 716.767C784.681 743.496 781.044 744.007 779.513 744.198C779.449 744.326 779.257 744.326 779.13 744.326Z" fill="#202D37"/>
<path d="M779.895 741.901C790.232 740.37 792.338 754.214 781.682 756.255C771.09 758.169 771.153 743.177 779.895 741.901Z" fill="#FFFEF2"/>
<path d="M779.832 758.807C776.195 758.807 774.153 757.084 773.195 755.808C771.026 753.257 770.516 749.238 771.856 745.729C773.196 742.284 776.067 739.924 779.64 739.413C786.149 738.456 790.36 742.539 791.062 747.132C791.828 751.853 789.02 757.339 782.193 758.551C781.363 758.743 780.534 758.807 779.832 758.807ZM780.215 744.326C777.79 744.644 776.769 746.494 776.322 747.579C775.62 749.429 775.812 751.598 776.896 752.874C777.79 753.958 779.257 754.341 781.235 753.895C785.255 753.129 786.659 750.45 786.213 748.025C785.894 745.92 784.107 743.751 780.215 744.326Z" fill="#202D37"/>
<path d="M679.906 628.094C665.996 648.316 636.389 662.415 622.925 644.17C612.013 629.497 626.881 610.104 647.555 599.706C654 600.599 662.486 600.28 673.334 598.239C673.27 598.239 676.397 609.594 679.906 628.094Z" fill="#202D37"/>
<path d="M640.026 655.015C632.05 655.015 625.477 651.761 620.883 645.573C617.054 640.47 615.906 634.346 617.437 628.03C620.117 616.866 631.22 605.128 646.407 597.601C646.853 597.409 647.3 597.345 647.81 597.409C654.383 598.302 662.869 597.856 672.824 595.942C674.1 595.751 675.248 596.516 675.567 597.664C675.567 597.792 678.758 609.339 682.204 627.711C682.331 628.349 682.204 629.051 681.757 629.497C671.547 644.361 654.574 654.823 640.345 655.078C640.345 655.015 640.217 655.015 640.026 655.015ZM647.938 602.194C634.538 609.083 624.456 619.609 622.159 629.114C621.011 634.09 621.904 638.684 624.839 642.703C628.54 647.615 633.581 650.166 640.026 650.166C640.153 650.166 640.281 650.166 640.472 650.166C652.66 649.975 668.102 640.47 677.354 627.52C674.929 614.442 672.568 605.064 671.611 601.045C662.359 602.64 654.447 603.023 647.938 602.194Z" fill="#202D37"/>
<path d="M647.428 583.693C646.534 583.693 645.705 583.183 645.258 582.354C644.62 581.205 645.13 579.738 646.279 579.1C653.426 575.336 664.72 574.762 667.081 574.89C668.421 574.954 669.442 576.166 669.314 577.442C669.25 578.781 668.038 579.802 666.762 579.674C664.401 579.547 654.319 580.312 648.512 583.374C648.193 583.63 647.874 583.693 647.428 583.693Z" fill="#202D37"/>
<path d="M728.912 503.888C720.489 524.11 700.836 544.397 684.628 546.438C684.628 546.438 684.628 579.228 680.672 578.143C672.568 575.783 676.907 566.788 666.953 561.366C664.847 560.281 665.805 541.59 669.314 525.514C688.393 518.433 708.557 511.16 728.912 503.888Z" fill="#202D37"/>
<path d="M680.864 580.568C680.608 580.568 680.225 580.504 679.97 580.44C674.866 578.909 673.526 575.209 672.313 571.892C671.228 568.766 670.08 565.767 665.805 563.407C664.72 562.769 662.806 561.812 663.571 548.798C664.018 541.143 665.23 532.531 666.889 524.876C667.081 524.046 667.655 523.409 668.421 523.153C686.543 516.455 706.579 509.246 728.082 501.527C728.976 501.208 729.997 501.464 730.635 502.165C731.337 502.867 731.464 503.888 731.145 504.781C723.424 523.409 704.664 544.779 687.053 548.479C687.053 551.159 686.925 556.262 686.606 561.366C685.777 576.421 684.182 578.781 682.778 579.866C682.204 580.376 681.565 580.568 680.864 580.568ZM668.676 559.579C674.164 562.769 675.695 566.916 676.907 570.297C677.865 572.849 678.439 574.38 680.098 575.273C681.438 571.254 682.204 557.857 682.204 546.438C682.204 545.162 683.097 544.205 684.373 544.014C697.645 542.291 715.001 526.407 724.318 508.098C705.366 514.924 687.627 521.367 671.42 527.3C668.293 542.1 667.783 556.517 668.676 559.579Z" fill="#202D37"/>
<path d="M951.925 429.568C951.861 430.015 951.797 430.589 951.797 431.227C951.287 438.053 950.904 452.789 950.649 469.822C950.585 474.607 950.457 479.519 950.393 484.495C949.883 513.329 949.372 546.055 948.096 561.557C945.991 585.99 927.869 635.494 829.028 692.844C828.582 693.036 828.199 693.163 827.752 693.163C826.923 693.163 826.093 692.717 825.647 692.015C824.945 690.867 825.391 689.399 826.54 688.698C826.731 688.634 826.859 688.506 826.987 688.442C923.466 632.24 941.205 584.65 943.119 561.238C944.395 545.864 944.906 513.266 945.416 484.431C945.48 478.881 945.608 473.522 945.672 468.419C945.927 452.917 946.246 439.967 946.693 432.694C946.756 431.737 946.82 430.844 946.884 430.079C946.884 429.696 946.948 429.377 947.012 429.122C947.075 428.356 947.522 427.718 948.096 427.336C948.479 427.08 948.862 426.953 949.372 426.953C949.436 426.953 949.564 426.953 949.628 426.953C951.095 427.08 952.052 428.229 951.925 429.568Z" fill="#202D37"/>
<path d="M1021.03 683.977C1004.95 711.982 984.212 736.862 959.518 758.105C930.995 782.602 897.049 802.122 858.508 816.285C858.444 816.285 858.381 816.348 858.253 816.348C858.062 816.412 857.87 816.412 857.679 816.412C856.722 816.412 855.764 815.774 855.382 814.817C854.871 813.541 855.573 812.202 856.849 811.691C928.443 785.409 982.298 741.646 1016.82 681.553C1052.93 618.78 1053.76 562.386 1053.25 546.629C1052.87 537.571 1052.62 524.302 1052.3 509.757C1052.23 507.077 1052.17 504.398 1052.11 501.655C1051.59 478.37 1051.15 454.32 1050.45 440.03C1049.3 416.235 1040.68 404.689 1033.66 399.203C1029.01 395.503 1007.63 400.734 993.465 404.115C990.721 404.816 988.105 405.391 985.616 405.965C984.85 406.156 984.085 406.284 983.319 406.475C982.234 406.73 981.149 406.156 980.639 405.263C980.511 405.072 980.447 404.816 980.384 404.625C980.32 404.242 980.32 403.86 980.384 403.541C980.575 402.647 981.277 401.946 982.234 401.754C983.127 401.563 984.021 401.372 984.914 401.116C987.211 400.542 989.7 399.968 992.252 399.394C1007.18 395.822 1019.37 393.078 1027.6 393.142C1028.5 393.142 1029.33 393.206 1030.09 393.27C1031.05 393.334 1031.94 393.525 1032.77 393.716C1034.3 394.099 1035.58 394.609 1036.6 395.439C1044.45 401.563 1053.96 414.258 1055.23 439.903C1055.93 454.256 1056.38 478.37 1056.89 501.655C1056.95 505.419 1057.02 509.183 1057.08 512.819C1057.34 526.152 1057.66 538.145 1057.98 546.566C1058.68 562.578 1057.78 620.119 1021.03 683.977Z" fill="#202D37"/>
<path d="M749.458 612.528C741.738 618.971 732.23 623.437 724.892 620.566C716.98 617.504 710.726 609.53 707.217 601.301C703.452 592.497 702.75 583.247 706.515 579.292C712.066 573.231 720.361 584.969 735.293 585.607C748.182 586.181 759.604 583.949 762.794 588.733C765.857 593.39 759.03 604.554 749.458 612.528Z" fill="#202D37"/>
<path d="M729.805 623.82C727.763 623.82 725.849 623.501 724.062 622.799C716.341 619.801 709.195 612.146 704.983 602.194C700.517 591.859 700.453 582.163 704.728 577.569C708.876 573.04 714.044 575.528 719.34 578.207C723.552 580.313 728.912 582.928 735.356 583.183C739.057 583.311 742.503 583.247 745.885 583.183C754.754 582.992 761.837 582.864 764.836 587.394C768.92 593.582 761.008 605.894 750.99 614.314C743.588 620.566 736.186 623.82 729.805 623.82ZM710.343 579.994C709.514 579.994 708.876 580.313 708.301 580.887C705.43 583.949 705.94 592.114 709.45 600.28C713.215 609.02 719.277 615.718 725.785 618.206C731.336 620.375 739.568 617.504 747.927 610.551C758.2 601.939 762.475 592.497 760.816 590.009C759.285 587.713 752.84 587.776 746.076 587.968C742.822 588.032 739.057 588.095 735.229 587.968C727.763 587.649 721.893 584.778 717.299 582.482C713.725 580.823 711.747 579.994 710.343 579.994Z" fill="#202D37"/>
<path d="M749.458 612.528C741.738 618.971 732.23 623.437 724.892 620.566C716.98 617.504 710.726 609.53 707.217 601.301C720.936 597.409 738.547 599.323 749.458 612.528Z" fill="#FFFEF2"/>
<path d="M729.805 623.82C727.763 623.82 725.849 623.501 724.062 622.799C716.341 619.801 709.195 612.145 704.983 602.194C704.728 601.556 704.728 600.79 705.047 600.152C705.302 599.514 705.877 599.068 706.579 598.813C720.234 594.921 739.185 596.133 751.309 610.806C752.138 611.826 752.011 613.358 750.99 614.187C743.588 620.566 736.186 623.82 729.805 623.82ZM710.662 602.959C714.427 610.423 719.979 616.037 725.785 618.333C730.89 620.247 738.356 618.078 745.885 612.209C736.058 601.938 721.893 600.535 710.662 602.959Z" fill="#202D37"/>
<path d="M1033.15 396.141C1032.96 396.906 1032.32 397.608 1031.43 397.799C1031.3 397.799 1031.11 397.863 1030.86 397.863C1029.84 397.863 1028.75 397.161 1028.5 396.077C1028.24 395.056 1027.92 394.035 1027.67 393.015C1023.58 378.661 1018.22 363.351 1015.41 360.161C1001.76 370.815 990.147 375.535 976.236 375.854C974.96 375.854 973.684 375.854 972.344 375.854C971.642 375.791 971.004 375.472 970.557 374.961C970.238 374.578 969.983 374.068 969.983 373.558C969.983 373.494 969.983 373.43 969.983 373.366C970.047 372.027 971.131 371.006 972.471 371.006C973.046 371.006 973.62 371.006 974.194 371.07C987.658 371.134 998.761 366.859 1011.91 356.716C1012.29 356.397 1012.67 356.078 1013.05 355.759C1013.31 355.568 1013.56 355.377 1013.88 355.249C1014.65 354.93 1015.54 354.866 1016.37 355.121C1016.44 355.121 1016.56 355.185 1016.63 355.185C1018.86 356.078 1021.86 359.523 1027.47 376.301C1029.9 383.51 1032.01 390.654 1032.77 393.525C1032.96 394.291 1033.09 394.801 1033.09 394.801C1033.28 395.311 1033.22 395.758 1033.15 396.141Z" fill="#202D37"/>
<path d="M1017.14 358.566C1016.88 359.204 1016.31 359.715 1015.61 359.97C1015.1 360.033 1014.9 360.033 1014.71 360.033C1013.69 360.033 1012.67 359.332 1012.42 358.311C1012.42 358.247 1012.22 357.673 1011.91 356.652C1009.99 350.337 1003.04 327.116 998.888 311.678C995.953 300.833 993.082 296.368 991.104 293.369C989.764 291.328 988.806 289.733 988.806 287.564C988.806 279.271 986.573 277.931 984.786 276.911C983.383 276.081 981.405 274.869 981.405 271.807C981.405 271.169 981.405 270.659 981.468 270.021C981.596 265.938 981.66 262.685 975.598 259.112C974.449 258.41 972.663 258.028 970.557 257.772C960.73 256.943 945.225 261.728 939.546 265.428C935.717 267.916 933.292 271.871 932.272 277.548C931.952 279.462 931.697 281.567 931.633 284.119C931.506 289.605 931.633 289.669 934.951 291.392C936.1 292.03 936.611 293.497 935.972 294.645C935.334 295.793 933.867 296.304 932.718 295.666C927.486 293.05 926.529 291.009 926.784 283.928C926.848 281.057 927.103 278.697 927.55 276.592C928.89 269.638 932.016 264.471 936.993 261.281C942.928 257.454 958.561 252.35 969.664 252.797C970.11 252.797 970.493 252.86 970.94 252.86C973.811 253.052 976.236 253.753 978.023 254.774C986.701 259.75 986.509 265.428 986.318 270.021V271.679C986.318 271.871 986.318 271.935 986.318 271.935C986.382 272.062 986.956 272.381 987.275 272.573C990.529 274.486 993.72 277.23 993.72 287.5C993.72 288.266 994.23 289.031 995.251 290.69C997.165 293.752 1000.48 298.792 1003.61 310.402C1007.76 325.713 1014.71 348.742 1016.63 355.121C1016.95 356.206 1017.14 356.78 1017.14 356.844C1017.39 357.482 1017.33 358.056 1017.14 358.566Z" fill="#202D37"/>
<path d="M940.12 312.89C939.929 312.89 939.61 312.89 939.418 312.763C933.931 311.104 928.443 307.149 929.273 300.961C929.592 298.409 930.294 295.602 931.378 292.731C933.484 286.607 936.419 281.185 938.333 278.633C941.715 274.04 948.99 272.19 964.24 271.807C965.644 271.743 966.665 272.828 966.729 274.167C966.729 275.507 965.708 276.592 964.368 276.655C947.777 276.974 943.821 279.271 942.226 281.504C940.567 283.736 937.759 288.904 935.973 294.199C935.079 296.814 934.441 299.302 934.122 301.535C933.548 305.554 939.61 307.659 940.822 307.978C942.098 308.425 942.864 309.7 942.417 311.04C942.162 312.252 941.205 312.89 940.12 312.89Z" fill="#202D37"/>
<path d="M966.665 292.923C966.601 294.262 965.388 295.283 964.112 295.219C952.308 294.518 950.521 296.559 950.521 296.559C947.841 300.195 939.865 313.464 940.886 318.376C941.652 321.757 946.565 329.604 951.733 331.645C953.584 332.347 954.796 332.092 955.626 331.709C955.817 331.582 956.009 331.518 956.2 331.39C957.285 330.625 958.816 330.88 959.582 332.028C960.348 333.113 960.092 334.644 958.944 335.409C957.923 336.239 956.774 336.685 955.562 336.94C955.051 337.068 954.477 337.068 953.903 337.068C952.627 337.068 951.351 336.813 949.947 336.239C943.247 333.559 937.185 324.373 936.164 319.461C934.377 311.168 946.565 293.88 946.629 293.688C948.734 290.945 954.541 289.861 964.368 290.435C965.644 290.435 966.728 291.583 966.665 292.923Z" fill="#202D37"/>
<path d="M973.939 365.201C973.684 365.903 973.046 366.349 972.344 366.477C972.216 366.54 972.025 366.54 971.897 366.54C971.578 366.54 971.131 366.477 970.812 366.285C968.771 365.201 966.984 363.925 965.389 362.394C958.625 356.078 955.945 346.382 955.626 336.94C955.562 335.218 955.562 333.432 955.69 331.709C955.945 326.925 956.711 322.395 957.732 318.568C958.051 317.228 959.454 316.526 960.731 316.909C962.071 317.228 962.773 318.632 962.39 319.907C959.199 331.199 958.753 349.444 968.452 358.694C968.771 359.013 969.153 359.332 969.472 359.587C970.557 360.48 971.706 361.246 972.982 361.947C974.067 362.521 974.513 363.989 973.939 365.201Z" fill="#202D37"/>
<path d="M376.239 572.785C374.963 572.785 373.878 571.828 373.814 570.488C373.623 566.788 373.304 563.152 373.112 559.643C370.943 527.555 370.56 516.838 373.814 514.095C374.644 513.393 375.664 513.138 376.813 513.329C377.77 513.521 378.919 514.031 380.323 514.605C386.002 516.966 396.658 521.304 415.354 516.774C425.053 514.414 430.668 513.585 434.433 516.009C438.07 518.369 438.899 522.835 440.239 530.107L440.367 530.745C442.6 542.738 445.982 553.392 445.982 553.583C446.429 554.859 445.727 556.199 444.387 556.645C443.111 557.092 441.771 556.39 441.324 555.05C441.196 554.604 437.878 544.014 435.581 531.702L435.454 531.064C434.369 525.259 433.667 521.367 431.753 520.155C429.519 518.688 424.032 519.645 416.439 521.559C396.211 526.471 384.215 521.559 378.344 519.198C377.706 518.943 377.196 518.688 376.685 518.497C375.409 523.281 376.685 542.419 377.834 559.388C378.025 562.897 378.344 566.533 378.536 570.233C378.664 571.509 377.706 572.657 376.239 572.785Z" fill="#202D37"/>
<path d="M376.239 518.178C374.835 518.114 373.814 517.029 373.814 515.69C374.388 499.678 368.773 468.227 365.902 455.532C363.03 442.71 359.776 411.898 362.839 403.477C366.093 394.354 393.212 383.254 409.228 380.448C421.288 378.342 433.093 385.998 438.07 394.227C441.962 400.67 441.898 407.241 437.942 412.472C437.113 413.493 435.581 413.748 434.56 412.918C433.539 412.089 433.284 410.558 434.114 409.537C437.814 404.753 435.581 399.458 433.922 396.779C429.711 389.825 419.629 383.637 410.058 385.296C393.084 388.23 369.539 399.203 367.433 405.199C365.008 412.089 367.624 441.051 370.687 454.576C372.984 464.846 379.302 498.274 378.663 516.009C378.6 517.157 377.515 518.178 376.239 518.178Z" fill="#202D37"/>
<path d="M438.197 431.418C437.304 431.418 436.411 430.844 435.964 430.015C435.39 428.739 435.964 427.399 437.113 426.825C437.304 426.761 439.282 425.677 439.282 423.061C439.218 420.51 431.561 408.197 426.456 405.454C421.99 403.03 406.42 403.158 388.043 407.56C386.703 407.815 385.427 407.049 385.108 405.773C384.789 404.497 385.619 403.158 386.895 402.839C402.337 399.139 421.735 397.416 428.69 401.244C434.943 404.625 444.004 418.277 444.004 423.061C444.068 427.718 440.877 430.398 439.091 431.227C438.899 431.355 438.58 431.418 438.197 431.418Z" fill="#202D37"/>
<path d="M427.477 519.517C426.903 519.517 426.393 519.326 425.946 518.943C424.925 518.114 424.797 516.583 425.627 515.562C436.219 502.548 431.37 479.264 420.076 467.079C419.182 466.122 419.246 464.591 420.203 463.698C421.16 462.805 422.692 462.869 423.585 463.826C436.347 477.414 441.835 503.314 429.392 518.688C428.881 519.135 428.179 519.517 427.477 519.517Z" fill="#202D37"/>
<path d="M439.282 451.577C438.516 451.577 437.815 451.258 437.368 450.62C436.538 449.6 436.73 448.068 437.878 447.239C437.942 447.239 442.855 443.348 442.217 438.563C441.771 435.31 428.626 422.041 423.904 420.956C419.884 419.999 410.632 420.956 399.21 425.23C397.934 425.741 396.594 425.103 396.083 423.827C395.573 422.551 396.211 421.211 397.487 420.701C408.526 416.554 419.118 414.832 424.989 416.235C430.923 417.639 446.237 431.992 447.003 437.989C447.96 445.644 441.069 450.875 440.75 451.131C440.303 451.386 439.793 451.577 439.282 451.577Z" fill="#202D37"/>
<path d="M434.433 480.029C430.668 480.029 427.031 477.031 423.202 470.97C422.5 469.886 422.883 468.355 423.968 467.653C425.053 466.951 426.584 467.334 427.286 468.419C430.157 473.076 432.837 475.5 434.752 475.117C437.24 474.67 439.665 469.567 440.622 464.846C441.898 458.658 442.154 454.512 432.391 446.729C421.543 438.117 418.799 439.265 409.739 442.837L408.399 443.412C407.122 443.922 405.782 443.284 405.272 442.008C404.761 440.732 405.4 439.393 406.676 438.882L408.016 438.308C418.289 434.225 423.011 432.949 435.454 442.901C447.195 452.215 446.939 458.531 445.408 465.803C444.961 467.972 442.409 478.626 435.581 479.901C435.262 479.965 434.816 480.029 434.433 480.029Z" fill="#202D37"/>
<path d="M445.663 372.282C441.005 372.282 437.815 369.092 433.22 360.097C428.69 351.166 421.288 332.283 419.118 325.904C414.907 313.209 427.35 307.276 431.434 305.299C450.513 296.24 478.014 286.033 491.287 281.121L492.563 280.611C507.749 274.997 514.768 272.445 522.234 288.648C530.21 305.873 534.996 319.333 536.272 323.097C537.548 326.606 538.761 330.306 535.124 334.006C532.252 336.94 526.318 339.811 515.598 344.468C493.711 354.037 471.378 363.797 458.425 368.646C457.723 368.901 457.021 369.156 456.383 369.411C451.789 371.133 448.471 372.282 445.663 372.282ZM423.777 324.373C425.818 330.497 433.22 349.316 437.559 357.928C440.686 364.116 442.6 366.732 444.515 367.37C446.556 368.008 449.747 366.796 454.66 364.946C455.298 364.69 456 364.435 456.702 364.18C469.528 359.332 491.861 349.635 513.62 340.13C523.319 335.919 529.445 332.985 531.742 330.688C533.082 329.349 533.082 328.519 531.805 324.819C530.529 321.119 525.871 307.85 517.959 290.817C514.577 283.545 512.28 281.759 509.791 281.376C506.537 280.802 501.688 282.652 494.413 285.331L493.137 285.842C479.992 290.69 452.555 300.833 433.731 309.828C424.67 313.911 421.799 318.312 423.777 324.373Z" fill="#202D37"/>
<path d="M469.464 364.053C469.272 364.053 469.145 364.053 468.89 363.989C467.55 363.734 466.784 362.394 467.103 361.054C470.804 345.425 463.466 316.782 440.686 305.426C439.537 304.788 439.027 303.321 439.601 302.173C440.239 301.025 441.707 300.514 442.855 301.088C454.022 306.638 463.019 316.718 468.315 329.54C472.846 340.576 474.122 352.761 471.952 362.202C471.57 363.287 470.612 364.053 469.464 364.053Z" fill="#202D37"/>
<path d="M501.943 350.209C500.858 350.209 499.837 349.508 499.582 348.423C493.073 322.969 484.395 301.79 475.909 290.18C475.143 289.095 475.334 287.564 476.483 286.799C477.568 286.033 479.099 286.224 479.865 287.373C492.371 304.469 501.113 335.026 504.304 347.275C504.623 348.614 503.857 349.89 502.581 350.273C502.326 350.209 502.134 350.209 501.943 350.209Z" fill="#202D37"/>
<path d="M424.159 334.899C423.202 334.899 422.309 334.325 421.926 333.432C421.352 332.156 421.99 330.816 423.202 330.242C444.004 321.311 508.387 295.985 520.958 291.328C522.234 290.817 523.574 291.519 524.084 292.795C524.595 294.071 523.893 295.411 522.617 295.921C510.046 300.514 445.854 325.776 425.053 334.707C424.861 334.835 424.478 334.899 424.159 334.899Z" fill="#202D37"/>
<path d="M431.434 352.697C430.54 352.697 429.647 352.123 429.2 351.23C428.626 349.954 429.2 348.614 430.476 348.04C457.021 336.111 498.944 318.759 527.913 307.595C529.189 307.085 530.529 307.723 531.04 308.999C531.55 310.275 530.912 311.614 529.636 312.125C500.73 323.225 458.872 340.576 432.391 352.378C432.072 352.633 431.753 352.697 431.434 352.697Z" fill="#202D37"/>
<path d="M800.889 317.866C799.931 317.866 798.974 317.228 798.591 316.271C798.145 314.995 798.783 313.656 800.123 313.145C807.333 310.657 813.969 308.233 820.542 305.937C841.088 298.664 857.232 292.923 868.462 290.307C869.802 290.052 871.079 290.881 871.398 292.093C871.653 293.433 870.823 294.709 869.611 295.028C858.7 297.516 842.62 303.194 822.265 310.402C815.756 312.699 809.12 315.123 801.846 317.611C801.399 317.802 801.08 317.866 800.889 317.866Z" fill="#202D37"/>
<path d="M703.005 358.056C702.048 358.056 701.155 357.482 700.772 356.525C700.261 355.249 700.836 353.909 702.112 353.335C709.067 350.401 717.362 346.892 726.168 343.128C737.398 338.344 750.16 332.857 762.475 327.754C763.752 327.244 765.092 327.818 765.666 329.094C766.176 330.369 765.602 331.709 764.326 332.283C752.011 337.387 739.249 342.809 728.082 347.658C719.277 351.485 710.981 354.994 704.026 357.928C703.58 357.928 703.26 358.056 703.005 358.056Z" fill="#202D37"/>
<path d="M593.955 397.863C592.871 397.863 591.85 397.161 591.595 396.077C591.275 394.737 592.041 393.461 593.317 393.079C611.758 388.23 640.345 377.704 661.019 369.73C662.295 369.22 663.635 369.858 664.146 371.134C664.656 372.409 664.018 373.749 662.742 374.259C641.94 382.297 613.226 392.887 594.594 397.735C594.402 397.863 594.147 397.863 593.955 397.863Z" fill="#202D37"/>
<path d="M494.222 436.012C493.392 436.012 492.563 435.565 492.052 434.736C491.414 433.588 491.861 432.12 492.946 431.419C512.471 420.382 536.655 410.367 564.603 401.372C565.88 400.925 567.22 401.627 567.666 402.967C568.113 404.243 567.411 405.582 566.071 406.029C538.378 414.896 514.641 424.912 495.307 435.693C494.988 435.948 494.605 436.012 494.222 436.012Z" fill="#202D37"/>
<path d="M512.854 481.943C511.961 481.943 511.131 481.433 510.685 480.603C510.047 479.455 510.493 477.988 511.706 477.35C527.849 468.738 550.757 460.7 572.899 452.853C593.828 445.453 613.673 438.436 626.753 431.482C627.902 430.844 629.37 431.291 630.008 432.439C630.646 433.587 630.199 435.055 629.051 435.693C615.587 442.837 595.615 449.919 574.494 457.382C552.48 465.165 529.827 473.203 513.939 481.56C513.684 481.751 513.237 481.943 512.854 481.943Z" fill="#202D37"/>
<path d="M394.552 389.251C393.595 389.251 392.702 388.677 392.319 387.72C387.022 375.089 382.237 364.244 378.025 354.675C364.498 324.054 357.032 307.085 362.265 294.199C366.795 283.226 380.323 276.081 402.145 267.533C449.492 248.905 636.835 185.367 748.757 147.474C778.619 137.33 802.292 129.292 816.394 124.444C821.18 122.785 825.519 121.254 829.794 119.787C855.509 110.792 869.675 105.88 880.65 111.175C891.498 116.47 898.07 131.27 908.662 162.593C926.593 215.605 938.078 239.145 940.184 243.291C940.822 244.44 940.312 245.907 939.163 246.545C938.015 247.183 936.547 246.672 935.909 245.524C933.739 241.314 922.19 217.583 904.068 164.187C894.178 134.779 887.797 120.106 878.544 115.577C869.42 111.111 855.892 115.832 831.389 124.38C827.178 125.848 822.775 127.442 817.926 129.037C803.76 133.886 780.214 141.86 750.224 152.067C638.367 189.96 451.151 253.498 403.932 272.062C380.195 281.44 370.113 287.947 366.731 296.112C362.201 307.149 369.347 323.288 382.428 352.761C386.64 362.394 391.489 373.303 396.785 385.87C397.296 387.146 396.722 388.485 395.445 389.06C395.126 389.187 394.871 389.251 394.552 389.251Z" fill="#202D37"/>
<path d="M929.719 279.526C929.655 279.526 929.655 279.526 929.592 279.526C927.422 279.398 923.275 277.804 922.573 272.7C921.935 267.979 922.445 255.859 927.869 248.522C932.91 241.633 948.096 238.188 955.179 238.188C955.243 238.188 955.243 238.188 955.307 238.188C963.921 238.188 967.877 240.676 972.854 254.519C973.365 255.795 972.663 257.135 971.387 257.645C970.11 258.155 968.77 257.454 968.26 256.178C963.538 243.036 960.922 243.036 955.243 243.036C948.288 243.036 935.334 246.545 931.825 251.393C927.614 257.135 926.912 267.66 927.486 272.062C927.741 274.295 929.528 274.614 929.974 274.614C931.314 274.678 932.335 275.89 932.272 277.166C932.08 278.505 930.995 279.526 929.719 279.526Z" fill="#202D37"/>
<path d="M983.957 414.896C980.83 421.212 973.748 425.231 958.625 429.25C956.902 429.696 954.605 430.398 951.733 431.227C950.968 431.482 950.138 431.674 949.309 431.993C948.543 432.248 947.65 432.503 946.82 432.758C933.739 436.777 912.937 443.539 887.478 451.96C847.533 465.229 796.039 482.772 744.992 500.89C739.951 502.676 734.91 504.462 729.933 506.248C729.167 506.503 728.401 506.759 727.699 507.078C707.153 514.414 687.883 521.431 670.399 527.874C613.609 548.862 574.238 564.811 553.245 575.209C527.466 587.968 510.046 594.475 498.306 595.495C497.221 595.623 496.136 595.623 495.115 595.623C491.988 595.623 489.436 595.113 487.139 594.283C480.056 591.54 477.631 584.842 475.27 578.399C474.441 576.102 473.548 573.742 472.527 571.445C470.612 567.426 468.634 562.961 466.529 557.857C461.615 545.864 456 530.554 448.598 510.459C444.961 500.634 440.877 489.534 436.283 477.286C436.219 477.095 436.155 476.903 436.092 476.712C435.581 475.436 436.219 474.096 437.559 473.586C438.835 473.076 440.175 473.714 440.686 475.053C445.344 487.557 449.555 498.848 453.256 508.8C463.785 537.316 470.74 556.071 477.057 569.404C478.206 571.892 479.163 574.316 480.056 576.74C482.353 582.928 484.14 587.84 489.117 589.754C498.178 593.39 517.895 587.33 551.14 570.807C572.133 560.345 611.758 544.397 668.74 523.345C686.862 516.647 706.898 509.438 728.401 501.719C781.682 482.708 836.686 463.889 879.757 449.536C910.13 439.393 934.569 431.482 948.415 427.272C948.862 427.144 949.245 427.017 949.692 426.889C953.01 425.868 955.626 425.103 957.54 424.593C970.94 420.956 977.385 417.575 979.746 412.727C980.767 410.622 981.086 408.134 980.83 405.136C980.767 404.561 980.703 403.987 980.639 403.413C979.618 396.651 976.045 387.529 970.812 374.961C970.621 374.515 970.43 374.004 970.238 373.558C969.664 372.154 969.026 370.687 968.451 369.22C967.558 367.051 966.601 364.754 965.58 362.394C965.516 362.203 965.389 362.011 965.325 361.82C964.814 360.544 965.389 359.204 966.665 358.63C967.303 358.375 968.069 358.439 968.643 358.694C969.09 358.885 969.409 359.204 969.664 359.587C969.728 359.715 969.791 359.778 969.855 359.906C970.812 362.139 971.706 364.372 972.599 366.413C972.727 366.732 972.854 366.987 972.982 367.306C973.492 368.582 974.003 369.794 974.513 371.006C975.215 372.665 975.917 374.323 976.555 375.854C980.83 386.253 983.957 394.418 985.233 400.989C985.552 402.711 985.808 404.37 985.871 405.901C985.744 409.282 985.297 412.217 983.957 414.896Z" fill="#202D37"/>
</g>
</g>
<defs>
<clipPath id="clip0_3457_3183">
<rect width="1440" height="1024" fill="white"/>
</clipPath>
<clipPath id="clip1_3457_3183">
<rect width="1447" height="1085" fill="white" transform="translate(-4 -30)"/>
</clipPath>
</defs>
</svg>
