<svg width="1440" height="1024" viewBox="0 0 1440 1024" fill="none" xmlns="http://www.w3.org/2000/svg">
<g clip-path="url(#clip0_3457_5293)">
<rect width="1440" height="1024" fill="white"/>
<g clip-path="url(#clip1_3457_5293)">
<path d="M1680.28 -272.03H-241.359V1297.03H1680.28V-272.03Z" fill="#FFFEF2"/>
<path d="M1215.71 690.207C1146.17 762.624 1032.58 820.332 865.609 840.024C831.684 844.042 795.509 846.454 757.082 847.177C709.411 847.981 662.383 845.811 616.883 841.069C472.502 825.958 343.316 784.887 255.209 732.805C139.528 664.487 94.8311 577.121 180.044 504.784C225.947 465.722 276.834 487.745 358.429 492.487C390.183 494.335 426.68 493.532 469.287 485.494C549.355 470.464 651.209 429.956 784.978 333.346C1188.7 41.7498 1447.87 448.281 1215.71 690.207Z" fill="#D181B6"/>
<path d="M742.13 642.545L742.21 642.947C752.098 674.212 749.284 679.919 730.393 685.384C726.534 686.51 719.058 688.84 709.25 691.895L709.331 692.296C697.996 741.325 660.695 826.441 599.116 793.568H599.036C606.11 812.616 612.943 830.7 616.882 840.988C472.502 825.878 343.316 784.807 255.208 732.725C261.479 702.343 272.171 672.444 283.586 649.055C310.517 593.678 362.047 539.184 362.047 539.184L358.509 492.406L350.872 392.261C308.587 393.466 302.719 374.578 314.295 364.853C307.301 365.576 299.262 365.978 290.339 365.978C245.964 365.978 254.646 322.898 281.174 315.182C300.307 309.556 324.022 317.593 338.332 328.926C339.537 319.442 342.03 310.44 345.969 304.733C370.246 269.69 411.326 283.675 411.326 283.675C425.474 288.98 436.246 304.573 436.246 304.573C436.246 304.573 507.15 328.765 509.321 338.571C511.411 347.814 445.893 365.978 445.893 365.978L469.367 485.575L476.924 523.993C476.924 523.993 529.74 547.463 540.512 569.807C581.028 558.956 660.454 540.55 686.339 532.031C714.958 522.627 716.244 534.683 721.389 556.143C731.518 549.472 743.979 548.106 747.355 558.393C748.802 562.894 747.114 567.315 743.657 571.093C749.526 570.048 754.67 571.655 756.68 577.603C758.449 582.827 756.278 587.73 752.178 591.829C755.394 592.311 757.967 594.16 759.253 597.937C760.78 602.599 759.172 607.1 755.876 610.958C759.574 610.797 762.79 612.405 764.558 616.504C769.462 627.837 753.465 640.214 742.13 642.545Z" fill="#FFFEF2"/>
<path d="M620.098 853.044C618.973 853.044 617.928 852.321 617.445 851.276C617.124 850.392 584.164 764.553 574.678 733.528C574.196 732.082 575.08 730.474 576.527 729.992C578.054 729.51 579.582 730.394 580.064 731.84C589.47 762.624 622.349 848.302 622.671 849.186C623.233 850.633 622.51 852.241 621.063 852.803C620.741 852.964 620.42 853.044 620.098 853.044Z" fill="#202D37"/>
<path d="M625.886 804.097C616.722 804.097 607.316 801.525 597.669 796.381C596.303 795.657 595.74 793.97 596.544 792.603C597.267 791.237 598.955 790.674 600.322 791.478C615.677 799.676 630.468 800.641 644.295 794.371C675.969 779.985 697.594 730.233 706.437 691.975C706.758 690.448 708.286 689.483 709.813 689.885C711.34 690.207 712.305 691.734 711.903 693.261C702.739 732.725 680.149 784.244 646.627 799.515C639.874 802.57 632.96 804.097 625.886 804.097Z" fill="#202D37"/>
<path d="M540.271 572.861C539.226 572.861 538.181 572.298 537.699 571.253C527.569 550.115 476.04 527.048 475.557 526.806C474.753 526.405 474.11 525.681 473.949 524.797L442.919 366.862C442.597 365.416 443.482 363.969 444.929 363.647C445.089 363.567 460.122 359.388 475.316 354.083C502.086 344.759 505.703 340.339 506.266 339.374C505.703 338.33 501.443 333.266 470.251 320.647C452.726 313.574 435.282 307.627 435.121 307.546C434.558 307.386 434.076 306.984 433.755 306.501C433.674 306.341 423.304 291.552 410.2 286.649C408.753 286.087 408.03 284.479 408.512 283.032C409.075 281.586 410.683 280.862 412.13 281.344C425.233 286.247 435.362 299.187 437.854 302.483C441.633 303.769 457.228 309.234 472.824 315.584C510.205 330.694 511.331 335.758 511.893 338.249C512.858 342.509 509.562 347.894 479.175 358.664C466.875 363.004 454.254 366.782 449.029 368.229L479.255 522.225C487.776 526.163 532.714 547.543 542.924 568.762C543.567 570.128 543.004 571.816 541.638 572.539C541.075 572.78 540.673 572.861 540.271 572.861Z" fill="#202D37"/>
<path d="M742.773 643.429L742.692 643.027C737.306 644.072 733.046 643.027 732.322 638.526C731.438 633.061 734.252 626.792 738.673 621.648C731.679 623.416 725.569 622.371 725.168 616.906C724.766 611.842 727.579 606.377 731.84 601.876C725.489 602.679 720.344 601.072 719.942 596.089C719.621 591.266 722.032 586.283 725.891 582.023C716.325 585.078 707.241 584.515 707.241 578.005C707.241 569.565 713.833 561.206 721.711 556.063C716.485 534.442 715.28 522.306 686.42 531.79C660.373 540.309 580.466 558.876 539.708 569.807C526.524 573.343 517.44 575.995 515.591 577.362C507.874 582.747 514.787 598.42 519.128 613.369C547.345 619.799 546.863 649.296 537.618 653.878C538.663 658.861 538.583 663.603 535.769 666.496C545.577 702.022 544.532 741.244 573.472 734.332C574.597 734.091 575.803 733.769 577.089 733.448C603.538 726.616 672.673 704.433 709.572 692.859C719.46 689.724 727.016 687.394 730.875 686.268C749.928 680.562 752.661 674.855 742.773 643.429Z" fill="#FAD932"/>
<path d="M728.946 662.96C728.946 662.96 730.313 673.81 725.891 674.695C711.662 680.562 616.722 705.558 579.984 714.56C574.035 716.007 571.623 715.444 569.372 707.889C569.372 707.889 537.618 609.752 537.618 592.07C537.618 582.023 545.979 582.827 604.181 567.717C693.414 544.569 705.553 539.023 708.607 557.188L717.933 602.358C723.56 632.096 728.946 662.96 728.946 662.96Z" fill="#FFFEF2"/>
<path d="M1127.52 502.373C1126.23 498.836 1122.21 458.328 1119.48 429.795C1138.13 424.571 1141.83 410.345 1136.92 390.412C1147.21 389.769 1150.75 384.866 1150.59 377.954C1150.27 365.094 1136.52 357.217 1125.27 353.601C1129.13 336.561 1124.06 307.787 1105.01 286.247C1092.79 272.423 1079.69 284.318 1079.69 284.318C1056.7 260.769 997.448 283.113 999.94 299.83C1000.82 305.457 1005.17 309.234 1011.52 311.244C994.795 337.687 952.189 366.621 951.626 373.694C951.143 379.963 987.56 379.722 1003.88 379.24C1003.88 393.788 1001.39 413.318 987.319 422.32C974.778 430.358 998.975 437.19 1014.33 435.341C1013.12 409.702 1011.84 383.58 1011.6 379.481C1011.84 383.902 1013.77 415.569 1015.05 441.449L1014.97 441.932C1013.85 441.69 1012.72 441.53 1011.6 441.449C995.519 440.485 969.151 455.113 964.89 464.597C960.629 474.001 942.703 531.629 939.407 542.479C936.111 553.33 901.623 607.1 873.326 668.908C845.029 730.715 834.659 799.596 861.991 835.925C861.991 835.925 863.277 837.371 865.77 839.943C1032.74 820.252 1146.33 762.543 1215.87 690.126C1183.79 603.483 1133.87 520.135 1127.52 502.373ZM958.379 645.438C962.559 615.057 966.578 583.872 966.578 583.872C980.727 567.556 990.293 555.982 992.705 542.238C992.544 549.633 999.94 555.339 1007.5 551.079C992.946 583.229 962.8 637.481 958.379 645.438ZM997.77 465.722C997.77 465.722 1005.89 461.302 1014.73 461.784C1014.73 461.784 1014.97 461.945 1015.46 462.266C1015.7 467.651 1015.94 470.866 1016.18 475.046C1010.15 470.866 997.77 465.722 997.77 465.722Z" fill="#FFFEF2"/>
<path d="M1080.25 310.44C1083.79 364.612 1125.03 354.645 1125.03 354.645C1129.37 337.767 1124.46 308.35 1105.01 286.328C1092.79 272.503 1079.69 284.399 1079.69 284.399C1056.7 260.849 997.448 283.193 999.94 299.911C1002.51 316.629 1035.31 316.629 1060.63 304.01C1044.48 315.584 1064.73 322.817 1080.25 310.44Z" fill="#202D37"/>
<path d="M1117.47 358.182C1111.44 358.182 1102.92 356.896 1095.2 351.27C1085.56 344.197 1079.69 332.141 1077.84 315.503C1070.04 320.004 1061.84 320.647 1056.94 318.638C1053.96 317.432 1052.19 315.343 1051.87 312.69C1051.79 312.128 1051.79 311.485 1051.95 310.761C1034.75 316.87 1016.66 317.673 1006.21 312.208C1001.07 309.556 997.93 305.457 997.126 300.393C996.081 293.481 1002.43 286.086 1014.57 279.978C1034.83 269.851 1064.01 266.957 1079.85 280.782C1082.42 279.094 1087.16 276.602 1092.79 276.924C1098.02 277.245 1102.84 279.817 1107.02 284.559C1126.8 306.903 1132.34 337.124 1127.68 355.449C1127.44 356.494 1126.63 357.217 1125.59 357.459C1125.35 357.378 1122.13 358.182 1117.47 358.182ZM1080.25 307.627C1080.65 307.627 1081.05 307.707 1081.38 307.868C1082.34 308.27 1082.98 309.234 1083.06 310.279C1084.19 327.72 1089.41 339.937 1098.58 346.688C1107.74 353.44 1118.68 352.797 1122.78 352.234C1126.23 335.516 1120.61 308.189 1103 288.257C1099.86 284.64 1096.33 282.711 1092.63 282.55C1086.6 282.228 1081.7 286.488 1081.62 286.569C1080.49 287.614 1078.8 287.533 1077.68 286.408C1063.37 271.78 1033.7 276.763 1017.14 285.042C1007.74 289.703 1002.11 295.41 1002.75 299.509C1003.24 302.804 1005.33 305.376 1008.86 307.225C1019.8 312.851 1041.5 310.44 1059.43 301.599C1060.71 300.956 1062.32 301.438 1063.13 302.643C1063.85 303.929 1063.53 305.537 1062.32 306.341C1058.62 308.993 1057.5 311.083 1057.58 312.047C1057.66 312.771 1058.71 313.253 1059.19 313.494C1063.29 315.182 1071.49 313.976 1078.56 308.35C1078.96 307.868 1079.61 307.627 1080.25 307.627Z" fill="#202D37"/>
<path d="M1014.25 435.341C998.975 437.109 974.698 430.277 987.238 422.32C1001.31 413.318 1003.8 393.868 1003.8 379.24C1008.46 379.16 1011.52 378.999 1011.52 378.999C1011.52 378.999 1012.88 407.451 1014.25 435.341Z" fill="#202D37"/>
<path d="M1008.94 438.475C997.769 438.475 983.621 435.26 981.289 428.75C980.646 426.902 980.325 423.365 985.711 419.989C995.84 413.479 1000.98 399.816 1000.98 379.32C1000.98 377.793 1002.19 376.507 1003.72 376.507C1008.3 376.427 1011.36 376.266 1011.36 376.266C1012.88 376.186 1014.25 377.391 1014.33 378.918C1014.33 378.918 1015.7 407.371 1017.06 435.26C1017.14 436.707 1016.02 437.993 1014.57 438.154C1012.8 438.395 1010.95 438.475 1008.94 438.475ZM1006.61 382.053C1006.13 403.111 1000.18 417.498 988.766 424.731C986.917 425.937 986.515 426.741 986.595 426.902C987.64 429.715 999.94 433.492 1011.27 432.849C1010.23 411.068 1009.18 389.528 1008.78 381.973C1008.14 381.973 1007.42 381.973 1006.61 382.053Z" fill="#202D37"/>
<path d="M1100.51 432.046C1095.76 432.046 1097.21 426.098 1104.37 421.436C1111.68 416.694 1115.86 399.655 1114.66 387.679C1124.22 390.01 1131.46 390.814 1136.84 390.492C1143.19 415.89 1135.48 432.046 1100.51 432.046Z" fill="#202D37"/>
<path d="M1100.51 434.859C1097.85 434.859 1095.85 433.492 1095.2 431.322C1094.16 427.705 1097.21 422.722 1102.92 419.025C1108.63 415.247 1113.13 399.896 1111.92 387.92C1111.84 387.036 1112.16 386.152 1112.89 385.509C1113.61 384.946 1114.5 384.705 1115.38 384.866C1124.22 387.036 1131.38 387.92 1136.68 387.599C1138.05 387.518 1139.26 388.403 1139.58 389.769C1143.19 404.397 1142.07 415.167 1136.2 422.722C1129.85 430.92 1118.19 434.859 1100.51 434.859ZM1117.71 391.216C1117.87 403.513 1113.53 418.784 1105.89 423.687C1102.52 425.857 1101.07 428.107 1100.67 429.152C1116.1 429.152 1126.55 425.776 1131.78 419.186C1136.28 413.479 1137.25 404.96 1134.67 393.225C1130.01 393.386 1124.38 392.662 1117.71 391.216Z" fill="#202D37"/>
<path d="M345.647 371.203C356.178 371.765 359.313 349.582 359.072 339.857C359.072 339.857 401.518 318.477 411.004 283.997C411.004 283.997 369.925 270.012 345.647 305.055C333.508 322.576 335.116 370.64 345.647 371.203Z" fill="#202D37"/>
<path d="M346.049 374.016C345.888 374.016 345.728 374.016 345.567 374.016C343.557 373.935 340.743 372.81 338.493 368.229C332.383 355.851 332.544 319.201 343.396 303.447C356.58 284.399 374.507 279.416 387.289 278.531C401.036 277.647 411.567 281.103 411.969 281.264C413.416 281.746 414.139 283.274 413.737 284.64C404.975 316.548 369.925 337.124 361.966 341.464C361.886 350.305 359.635 364.692 353.365 370.801C351.194 372.89 348.702 374.016 346.049 374.016ZM345.808 368.389C347.094 368.47 348.22 367.988 349.426 366.862C354.249 362.12 356.58 348.216 356.339 339.937C356.339 338.812 356.902 337.847 357.866 337.365C358.268 337.124 397.097 317.272 407.547 285.926C403.769 284.961 396.293 283.595 387.45 284.238C370.809 285.444 357.465 292.999 347.979 306.743C338.251 320.808 338.091 354.806 343.477 365.818C344.441 367.666 345.326 368.389 345.808 368.389Z" fill="#202D37"/>
<path d="M349.988 353.36C349.024 355.69 345.326 358.182 339.055 360.272C328.203 358.102 319.28 360.674 313.974 365.174C306.98 365.898 298.941 366.3 290.018 366.3C245.642 366.3 254.325 323.219 280.853 315.503C312.929 306.1 357.706 334.954 349.988 353.36Z" fill="#202D37"/>
<path d="M290.017 369.113C270.885 369.113 258.263 360.915 256.254 347.251C254.164 332.703 264.855 317.272 280.049 312.771C302.799 306.1 332.704 317.915 346.371 333.105C353.043 340.5 355.214 348.055 352.561 354.404C351.194 357.7 346.933 360.513 339.94 362.924C339.457 363.085 338.975 363.085 338.493 363.004C329.569 361.156 321.048 362.763 315.742 367.264C315.34 367.666 314.778 367.827 314.215 367.907C306.819 368.711 298.7 369.113 290.017 369.113ZM294.359 316.468C290.017 316.468 285.676 317.03 281.657 318.156C267.991 322.174 260.354 335.999 261.881 346.367C263.408 357.217 273.698 363.406 290.017 363.406C298.137 363.406 305.854 363.085 312.848 362.361C319.279 357.378 328.846 355.449 338.895 357.298C344.441 355.369 346.933 353.359 347.416 352.154C349.747 346.447 345.165 340.098 342.19 336.802C332.142 325.711 312.446 316.468 294.359 316.468Z" fill="#202D37"/>
<path d="M1050.34 360.834C1048.66 360.111 1047.93 358.102 1048.66 356.414L1052.19 348.617C1052.92 346.93 1054.93 346.206 1056.61 346.93C1058.3 347.653 1059.03 349.662 1058.3 351.35L1054.77 359.146C1054.04 360.834 1052.03 361.558 1050.34 360.834Z" fill="#202D37"/>
<path d="M427.404 346.447C425.555 346.688 423.867 345.403 423.626 343.634L422.42 335.115C422.179 333.266 423.465 331.578 425.233 331.337C427.082 331.096 428.771 332.382 429.012 334.15L430.218 342.67C430.459 344.438 429.172 346.126 427.404 346.447Z" fill="#202D37"/>
<path d="M400.956 352.154C399.107 352.395 397.418 351.109 397.177 349.341L395.971 340.821C395.73 338.973 397.017 337.285 398.785 337.044C400.634 336.802 402.322 338.088 402.563 339.857L403.769 348.376C404.091 350.145 402.805 351.832 400.956 352.154Z" fill="#202D37"/>
<path d="M1026.07 358.343C1024.38 357.619 1023.65 355.61 1024.38 353.922L1027.92 346.126C1028.64 344.438 1030.65 343.715 1032.34 344.438C1034.03 345.161 1034.75 347.171 1034.03 348.859L1030.49 356.655C1029.76 358.343 1027.75 359.146 1026.07 358.343Z" fill="#202D37"/>
<path d="M351.114 183.771C352.319 186.584 352.641 189.156 352.159 191.486C351.676 193.737 350.229 195.827 347.898 197.756L351.033 205.15C351.114 205.391 351.114 205.552 351.033 205.793C350.953 206.034 350.792 206.195 350.551 206.275L340.743 210.374C340.502 210.455 340.341 210.455 340.1 210.374C339.859 210.294 339.698 210.133 339.618 209.892L336.885 203.301C335.036 204.025 333.267 204.587 331.74 204.989C331.579 205.07 331.338 204.989 331.097 204.909C330.855 204.829 330.775 204.668 330.695 204.427L328.122 196.228C328.042 195.987 328.042 195.746 328.202 195.505C328.363 195.264 328.524 195.184 328.765 195.103C329.408 195.023 330.051 194.862 330.775 194.701C331.418 194.541 332.302 194.3 333.428 193.978C334.473 193.657 335.438 193.335 336.322 193.014C337.287 192.612 338.01 192.21 338.573 191.647C339.136 191.085 339.457 190.602 339.537 190.12C339.618 189.638 339.698 189.156 339.698 188.834C339.698 188.513 339.618 188.191 339.537 187.95C339.457 187.709 339.216 187.387 338.975 187.146C338.734 186.905 338.332 186.584 337.849 186.182C337.367 185.86 336.563 185.619 335.598 185.458C334.634 185.298 333.508 185.378 332.302 185.539C330.936 185.78 329.489 185.78 328.042 185.539C326.595 185.298 325.148 184.896 323.701 184.253C322.254 183.61 320.887 182.645 319.601 181.279C318.315 179.993 317.269 178.385 316.546 176.537C315.421 173.965 315.179 171.473 315.822 169.142C316.385 166.812 317.752 164.722 319.842 162.793L316.626 155.157C316.546 154.916 316.546 154.756 316.626 154.514C316.707 154.273 316.868 154.113 317.109 154.032L326.916 149.933C327.157 149.853 327.318 149.853 327.559 149.933C327.801 150.013 327.961 150.174 328.042 150.415L330.775 157.006C332.544 156.363 334.312 155.72 336.161 155.238C336.322 155.157 336.563 155.238 336.804 155.318C337.045 155.399 337.126 155.559 337.206 155.8L339.779 163.999C339.859 164.24 339.779 164.481 339.698 164.642C339.537 164.883 339.377 164.963 339.136 165.043C336.161 165.606 333.589 166.329 331.338 167.213C330.373 167.535 329.65 168.017 329.087 168.58C328.524 169.142 328.203 169.625 328.122 170.187C328.042 170.75 327.961 171.152 327.961 171.473C327.961 171.795 328.042 172.116 328.122 172.357C328.203 172.599 328.363 172.84 328.604 173.161C328.846 173.402 329.248 173.724 329.73 174.126C330.293 174.447 331.016 174.688 331.981 174.849C332.945 175.01 334.071 174.929 335.277 174.769C336.643 174.608 338.09 174.608 339.537 174.769C340.984 174.929 342.431 175.412 343.878 176.055C345.326 176.698 346.692 177.662 347.898 179.028C349.345 180.395 350.39 182.002 351.114 183.771Z" fill="#202D37"/>
<path d="M340.422 211.66C340.181 211.66 339.94 211.58 339.618 211.5C339.136 211.258 338.734 210.937 338.493 210.374L336.161 204.829C334.714 205.391 333.267 205.793 331.981 206.114C331.499 206.275 330.936 206.195 330.534 205.954C330.052 205.713 329.73 205.311 329.569 204.909C329.569 204.909 329.569 204.829 329.489 204.829L326.917 196.63C326.756 196.068 326.836 195.425 327.158 194.942C327.479 194.46 327.962 194.139 328.605 193.978C329.248 193.898 329.891 193.737 330.534 193.576C331.177 193.415 332.061 193.174 333.107 192.933C334.152 192.612 335.036 192.29 335.84 191.969C336.644 191.647 337.287 191.245 337.769 190.843C338.251 190.361 338.412 190.04 338.412 189.879C338.493 189.397 338.493 189.075 338.493 188.914C338.493 188.593 338.412 188.513 338.412 188.432C338.332 188.271 338.252 188.111 338.091 187.95C337.93 187.789 337.689 187.548 337.206 187.227C336.965 187.066 336.483 186.825 335.518 186.664C334.714 186.584 333.669 186.584 332.624 186.744C331.097 186.985 329.569 186.985 327.962 186.744C326.434 186.503 324.826 186.021 323.299 185.378C321.691 184.655 320.244 183.61 318.878 182.163C317.511 180.716 316.385 179.028 315.582 177.019C314.376 174.206 314.135 171.473 314.778 168.901C315.34 166.571 316.627 164.481 318.556 162.552L315.662 155.72C315.421 155.238 315.421 154.675 315.662 154.193C315.823 153.63 316.225 153.228 316.787 152.987L326.515 148.888C326.997 148.647 327.56 148.647 328.122 148.888C328.685 149.129 329.007 149.451 329.248 150.013L331.579 155.559C333.026 155.077 334.473 154.595 335.92 154.113C336.403 153.952 336.885 154.032 337.367 154.273C337.93 154.514 338.251 154.997 338.412 155.559L340.985 163.757C341.146 164.32 341.065 164.883 340.824 165.365C340.502 165.928 340.02 166.249 339.377 166.329C336.563 166.892 333.991 167.535 331.82 168.419C331.016 168.741 330.373 169.062 329.971 169.544C329.569 169.866 329.409 170.268 329.328 170.509C329.248 171.071 329.167 171.313 329.248 171.473C329.248 171.634 329.328 171.875 329.328 171.956C329.328 172.036 329.409 172.197 329.65 172.438C329.73 172.599 330.052 172.84 330.534 173.161C330.775 173.322 331.338 173.563 332.303 173.724C333.107 173.804 334.152 173.804 335.197 173.643C336.724 173.402 338.251 173.402 339.779 173.643C341.387 173.885 342.914 174.286 344.441 175.01C346.049 175.733 347.496 176.778 348.863 178.225C350.23 179.671 351.275 181.359 352.159 183.288C353.445 186.342 353.847 189.156 353.284 191.728C352.802 194.058 351.435 196.148 349.345 198.077L352.079 204.668C352.32 205.15 352.32 205.713 352.079 206.195C351.837 206.677 351.516 207.079 350.953 207.32L341.146 211.419C340.985 211.58 340.744 211.66 340.422 211.66ZM336.965 202.176C337.448 202.176 337.85 202.417 338.091 202.9L340.744 209.169L349.828 205.311L346.853 198.238C346.612 197.756 346.773 197.193 347.175 196.871C349.265 195.184 350.551 193.255 351.033 191.245C351.435 189.236 351.114 186.905 350.069 184.253C349.345 182.565 348.381 181.118 347.255 179.913C346.13 178.707 344.924 177.823 343.557 177.26C342.191 176.698 340.904 176.296 339.538 176.055C338.171 175.894 336.885 175.894 335.599 176.055C334.312 176.296 333.026 176.296 331.981 176.135C330.856 175.974 329.971 175.653 329.248 175.251C328.605 174.849 328.203 174.447 327.881 174.126C327.56 173.724 327.318 173.402 327.158 173C326.997 172.599 326.917 172.116 326.836 171.634C326.836 171.152 326.836 170.67 326.997 170.027C327.158 169.303 327.64 168.499 328.364 167.856C329.007 167.214 329.891 166.651 331.016 166.249C333.187 165.365 335.759 164.642 338.653 164.079L336.322 156.604C334.714 157.086 333.026 157.649 331.418 158.212C330.775 158.453 330.132 158.131 329.891 157.569L327.238 151.299L318.074 155.157L321.128 162.471C321.289 162.954 321.209 163.516 320.807 163.838C318.878 165.606 317.672 167.535 317.109 169.544C316.627 171.634 316.868 173.804 317.832 176.135C318.556 177.823 319.521 179.27 320.646 180.475C321.772 181.681 323.058 182.565 324.344 183.128C325.711 183.69 327.077 184.092 328.364 184.333C329.65 184.494 331.016 184.494 332.303 184.333C333.669 184.092 334.875 184.092 335.92 184.253C337.046 184.414 338.01 184.735 338.653 185.217C339.297 185.619 339.699 186.021 340.02 186.342C340.342 186.744 340.583 187.146 340.744 187.468C340.904 187.87 340.985 188.271 340.985 188.754C340.985 189.236 340.985 189.718 340.824 190.361C340.663 191.085 340.181 191.808 339.457 192.531C338.814 193.174 337.93 193.737 336.804 194.139C335.92 194.541 334.875 194.862 333.83 195.184C332.705 195.505 331.82 195.746 331.177 195.907C330.614 196.068 330.052 196.148 329.489 196.228L331.82 203.703C333.267 203.301 334.875 202.739 336.563 202.176C336.644 202.176 336.804 202.176 336.965 202.176Z" fill="#202D37"/>
<path d="M424.108 187.628C423.304 190.602 422.017 192.853 420.249 194.38C418.48 195.907 416.069 196.711 413.014 196.711L410.924 204.507C410.843 204.748 410.763 204.909 410.522 204.989C410.361 205.07 410.12 205.15 409.879 205.07L399.589 202.337C399.347 202.256 399.187 202.176 399.106 201.935C399.026 201.774 398.946 201.533 399.026 201.292L400.875 194.38C398.945 193.737 397.257 193.174 395.73 192.531C395.569 192.451 395.408 192.29 395.328 192.129C395.248 191.888 395.248 191.727 395.248 191.486L398.302 183.449C398.383 183.208 398.544 183.047 398.785 182.967C399.026 182.886 399.267 182.886 399.508 183.047C400.071 183.369 400.714 183.69 401.357 183.931C402 184.253 402.804 184.574 403.849 184.976C404.894 185.378 405.859 185.699 406.743 185.941C407.708 186.262 408.592 186.342 409.396 186.262C410.2 186.182 410.763 185.941 411.165 185.619C411.567 185.298 411.888 184.976 412.049 184.655C412.21 184.333 412.371 184.092 412.451 183.851C412.531 183.529 412.531 183.208 412.531 182.886C412.531 182.484 412.371 182.002 412.21 181.44C412.049 180.877 411.567 180.234 410.924 179.511C410.28 178.787 409.396 178.144 408.271 177.582C406.984 176.939 405.859 176.055 404.894 175.01C403.849 173.965 402.965 172.759 402.241 171.312C401.518 169.946 401.036 168.339 400.794 166.49C400.634 164.641 400.794 162.793 401.277 160.864C402 158.131 403.287 156.041 405.216 154.595C407.065 153.148 409.477 152.264 412.29 152.103L414.461 144.146C414.541 143.905 414.622 143.744 414.863 143.583C415.023 143.423 415.265 143.423 415.506 143.503L425.796 146.236C426.037 146.316 426.198 146.397 426.358 146.638C426.519 146.879 426.519 147.04 426.439 147.281L424.59 154.193C426.439 154.755 428.207 155.398 429.896 156.041C430.056 156.122 430.217 156.283 430.378 156.443C430.458 156.684 430.458 156.845 430.378 157.086L427.323 165.124C427.243 165.365 427.082 165.526 426.841 165.606C426.6 165.686 426.358 165.686 426.198 165.606C423.545 164.24 420.972 163.195 418.721 162.552C417.757 162.23 416.872 162.15 416.149 162.23C415.345 162.311 414.782 162.552 414.38 162.873C413.978 163.195 413.657 163.516 413.496 163.838C413.335 164.079 413.174 164.4 413.094 164.722C413.014 164.963 413.014 165.284 413.014 165.686C413.014 166.088 413.174 166.57 413.335 167.133C413.576 167.696 413.978 168.419 414.621 169.062C415.265 169.785 416.149 170.428 417.274 170.991C418.48 171.714 419.606 172.518 420.651 173.643C421.696 174.688 422.58 175.894 423.304 177.341C424.027 178.707 424.509 180.314 424.67 182.163C424.831 183.77 424.67 185.699 424.108 187.628Z" fill="#202D37"/>
<path d="M410.2 206.275C410.039 206.275 409.798 206.275 409.637 206.195L399.347 203.462C398.785 203.301 398.383 202.98 398.142 202.498C397.9 202.015 397.82 201.453 397.981 200.971L399.508 195.184C397.981 194.701 396.614 194.219 395.408 193.657C394.926 193.415 394.524 193.094 394.363 192.612C394.122 192.129 394.122 191.647 394.283 191.165V191.085L397.338 183.047C397.579 182.485 397.981 182.083 398.544 181.842C399.106 181.6 399.669 181.681 400.232 181.922C400.795 182.243 401.357 182.485 402 182.806C402.644 183.128 403.447 183.449 404.412 183.851C405.377 184.253 406.341 184.574 407.145 184.815C408.03 185.057 408.753 185.137 409.316 185.137C409.959 185.056 410.281 184.896 410.441 184.815C410.843 184.494 411.004 184.253 411.084 184.092C411.245 183.851 411.326 183.69 411.326 183.61C411.406 183.449 411.406 183.288 411.406 183.047C411.406 182.886 411.326 182.485 411.165 181.922C411.084 181.6 410.843 181.118 410.12 180.475C409.557 179.832 408.753 179.27 407.788 178.787C406.422 178.064 405.216 177.099 404.091 175.974C402.965 174.849 402.081 173.483 401.277 172.036C400.473 170.509 399.91 168.741 399.749 166.731C399.508 164.802 399.749 162.713 400.312 160.703C401.116 157.729 402.563 155.399 404.653 153.791C406.502 152.344 408.833 151.38 411.567 151.058L413.496 143.905C413.657 143.423 413.978 142.941 414.38 142.699C414.863 142.378 415.425 142.298 415.988 142.458L426.278 145.191C426.841 145.352 427.243 145.673 427.564 146.156C427.886 146.638 427.886 147.2 427.806 147.763L426.278 153.55C427.725 154.032 429.172 154.595 430.539 155.077C431.021 155.318 431.343 155.64 431.584 156.122C431.825 156.684 431.905 157.247 431.664 157.81L428.609 165.847C428.368 166.41 427.966 166.812 427.484 166.972C426.921 167.213 426.278 167.213 425.715 166.892C423.143 165.526 420.731 164.561 418.48 163.918C417.676 163.677 416.953 163.597 416.39 163.677C415.908 163.757 415.506 163.838 415.265 164.079C414.863 164.4 414.622 164.642 414.541 164.802C414.461 164.963 414.38 165.124 414.3 165.284C414.3 165.365 414.22 165.526 414.3 165.847C414.3 166.008 414.38 166.329 414.541 166.972C414.622 167.294 414.863 167.776 415.586 168.499C416.149 169.142 416.953 169.705 417.918 170.187C419.204 170.911 420.49 171.875 421.535 173C422.661 174.126 423.625 175.492 424.429 176.939C425.233 178.466 425.796 180.234 425.957 182.163C426.117 184.092 425.957 186.101 425.394 188.191C424.51 191.406 423.063 193.817 421.133 195.505C419.365 197.032 416.953 197.916 414.059 198.077L412.21 204.989C412.049 205.552 411.728 205.954 411.245 206.195C410.843 206.195 410.522 206.275 410.2 206.275ZM400.312 201.212L409.879 203.784L411.888 196.389C412.049 195.907 412.451 195.505 413.014 195.505C415.747 195.425 417.918 194.782 419.445 193.415C421.053 192.049 422.178 190.04 422.902 187.307C423.384 185.539 423.545 183.771 423.384 182.163C423.223 180.556 422.821 179.028 422.098 177.823C421.374 176.537 420.57 175.412 419.606 174.447C418.641 173.483 417.596 172.679 416.471 172.036C415.265 171.393 414.3 170.67 413.576 169.866C412.773 169.062 412.21 168.258 411.969 167.455C411.728 166.731 411.567 166.169 411.567 165.686C411.567 165.204 411.567 164.722 411.647 164.4C411.728 163.999 411.969 163.597 412.21 163.195C412.451 162.793 412.853 162.471 413.335 161.989C413.898 161.507 414.702 161.185 415.747 161.105C416.631 161.025 417.676 161.105 418.802 161.427C421.053 162.07 423.545 163.034 426.117 164.4L428.851 157.086C427.243 156.443 425.635 155.881 423.947 155.318C423.304 155.157 422.982 154.514 423.143 153.871L424.911 147.281L415.345 144.709L413.255 152.344C413.094 152.827 412.692 153.228 412.21 153.228C409.637 153.389 407.467 154.193 405.779 155.479C404.09 156.765 402.965 158.694 402.242 161.105C401.759 162.873 401.598 164.642 401.759 166.329C401.92 168.017 402.322 169.464 403.045 170.67C403.769 171.956 404.573 173.081 405.538 174.045C406.502 175.01 407.467 175.813 408.673 176.376C409.879 177.019 410.843 177.742 411.647 178.546C412.451 179.35 413.014 180.154 413.255 180.957C413.496 181.681 413.577 182.243 413.657 182.726C413.657 183.208 413.657 183.69 413.496 184.092C413.416 184.494 413.175 184.896 412.933 185.298C412.692 185.699 412.29 186.101 411.808 186.503C411.245 186.985 410.441 187.307 409.396 187.387C408.512 187.468 407.467 187.387 406.261 186.985C405.377 186.744 404.332 186.423 403.287 185.941C402.242 185.539 401.357 185.137 400.714 184.896C400.151 184.655 399.669 184.413 399.187 184.172L396.453 191.567C397.82 192.129 399.428 192.692 401.116 193.255C401.759 193.415 402.081 194.058 401.92 194.701L400.312 201.212Z" fill="#202D37"/>
<path d="M1014.97 444.262C1013.45 444.262 1012.24 443.057 1012.16 441.61C1011.03 418.543 1009.43 390.653 1008.86 381.892C1007.58 381.973 1005.89 381.973 1003.88 382.053C956.128 383.339 951.626 378.517 950.099 376.989C948.893 375.703 948.732 374.337 948.812 373.453C949.134 369.434 955.083 364.049 968.347 352.234C985.149 337.365 1008.22 317.03 1014.01 299.83C1014.49 298.384 1016.1 297.58 1017.55 298.062C1018.99 298.544 1019.8 300.152 1019.31 301.599C1013.04 320.165 989.329 341.143 972.045 356.414C964.569 363.004 956.128 370.479 954.6 373.373C957.334 375.06 970.196 377.231 1003.72 376.346C1008.3 376.266 1011.36 376.105 1011.36 376.105C1012.88 376.025 1014.17 377.231 1014.33 378.758C1014.33 379.079 1016.42 413.64 1017.79 441.289C1017.87 442.816 1016.66 444.182 1015.13 444.262C1015.05 444.262 1014.97 444.262 1014.97 444.262Z" fill="#202D37"/>
<path d="M1016.1 477.859C1014.57 477.859 1013.37 476.653 1013.28 475.207C1013.2 473.197 1013.12 471.509 1012.96 469.58C1012.8 467.491 1012.72 465.24 1012.56 462.427C1012.48 460.9 1013.69 459.534 1015.21 459.453C1016.82 459.373 1018.11 460.578 1018.19 462.106C1018.35 464.919 1018.43 467.169 1018.59 469.259C1018.67 471.188 1018.83 472.956 1018.91 474.885C1018.99 476.412 1017.79 477.778 1016.26 477.859C1016.26 477.859 1016.18 477.859 1016.1 477.859Z" fill="#202D37"/>
<path d="M958.379 648.252C957.896 648.252 957.414 648.171 957.012 647.93C955.645 647.207 955.163 645.438 955.887 644.072C961.594 633.784 990.776 581.139 1004.84 549.874C1005.49 548.427 1007.18 547.864 1008.54 548.427C1009.99 549.07 1010.55 550.758 1009.99 552.124C995.84 583.55 966.498 636.437 960.79 646.724C960.308 647.769 959.343 648.252 958.379 648.252Z" fill="#202D37"/>
<path d="M1134.35 393.305C1128.89 393.305 1122.13 392.341 1114.01 390.332C1112.49 389.93 1111.6 388.483 1111.92 386.956C1112.33 385.429 1113.77 384.545 1115.3 384.866C1124.14 387.036 1131.3 387.92 1136.6 387.599C1146.49 386.956 1147.78 382.374 1147.62 378.034C1147.29 363.326 1125.67 355.61 1115.3 354.163C1113.77 353.922 1112.65 352.556 1112.89 351.029C1113.13 349.502 1114.5 348.376 1116.02 348.617C1125.51 349.903 1152.68 358.102 1153.16 377.954C1153.32 384.464 1150.59 392.421 1136.84 393.305C1136.2 393.305 1135.32 393.305 1134.35 393.305Z" fill="#202D37"/>
<path d="M1136.12 380.847C1135.4 380.847 1134.75 380.606 1134.19 380.044C1132.58 378.758 1122.53 374.739 1115.94 376.105C1114.42 376.427 1112.97 375.462 1112.65 373.935C1112.33 372.408 1113.29 370.962 1114.82 370.64C1123.66 368.872 1136.04 374.016 1138.13 376.105C1139.26 377.231 1139.26 378.999 1138.13 380.044C1137.57 380.526 1136.84 380.847 1136.12 380.847Z" fill="#202D37"/>
<path d="M1125.91 771.384C1124.38 771.384 1123.18 770.179 1123.1 768.652C1123.1 768.169 1121.73 723.16 1105.01 647.046C1104.69 645.519 1105.65 643.992 1107.18 643.67C1108.71 643.349 1110.23 644.313 1110.56 645.84C1125.03 711.827 1128.08 754.747 1128.64 765.678C1172.22 764.472 1217.72 740.44 1227.44 735.055C1207.1 662.076 1166.59 584.756 1142.31 538.38C1133.39 521.341 1126.96 509.124 1124.87 503.257C1122.86 497.631 1115.86 420.793 1115.54 417.498C1115.38 415.971 1116.51 414.604 1118.11 414.444C1119.64 414.283 1121.01 415.408 1121.17 417.016C1124.62 454.952 1129.05 497.952 1130.17 501.408C1132.1 506.874 1138.45 519.01 1147.29 535.808C1171.89 582.827 1213.05 661.433 1233.39 735.698C1233.71 736.904 1233.23 738.19 1232.11 738.833C1229.85 740.199 1177.12 771.063 1125.91 771.384Z" fill="#202D37"/>
<path d="M1047.69 565.707C1047.05 565.707 1046.33 565.466 1045.84 564.984C1045.76 564.904 1034.67 554.937 1022.37 546.9C1021.08 546.016 1020.68 544.328 1021.57 543.042C1022.45 541.756 1024.14 541.354 1025.42 542.238C1035.39 548.748 1044.48 556.384 1048.01 559.438C1057.58 553.571 1103.32 524.877 1118.11 507.436C1119.16 506.231 1120.93 506.07 1122.05 507.115C1123.26 508.16 1123.42 509.928 1122.37 511.053C1105.33 531.147 1051.47 563.859 1049.14 565.225C1048.74 565.547 1048.17 565.707 1047.69 565.707Z" fill="#202D37"/>
<path d="M1065.14 403.031C1060.07 403.031 1054.12 400.941 1047.93 398.69C1042.31 396.681 1036.44 394.591 1032.02 394.591C1030.49 394.591 1029.2 393.305 1029.2 391.778C1029.2 390.251 1030.49 388.965 1032.02 388.965C1037.4 388.965 1043.67 391.216 1049.78 393.386C1056.13 395.636 1062.64 397.967 1066.82 397.244C1068.35 397.002 1069.8 397.967 1070.12 399.494C1070.36 401.021 1069.4 402.468 1067.87 402.789C1066.9 402.95 1066.02 403.031 1065.14 403.031Z" fill="#202D37"/>
<path d="M1056.86 398.208C1056.05 398.208 1055.25 397.806 1054.69 397.163C1048.01 388.804 1043.83 388.483 1042.31 388.724C1040.94 388.965 1040.13 389.849 1039.81 390.653C1039.25 392.1 1037.64 392.823 1036.2 392.26C1034.75 391.698 1034.03 390.09 1034.59 388.644C1035.71 385.75 1038.29 383.66 1041.5 383.178C1045.28 382.616 1051.39 383.902 1059.19 393.707C1060.15 394.913 1059.99 396.681 1058.7 397.646C1058.14 397.967 1057.5 398.208 1056.86 398.208Z" fill="#202D37"/>
<path d="M1050.34 413.801C1049.06 413.801 1047.85 413.64 1046.65 413.318C1041.58 411.952 1037.08 407.773 1034.03 401.503C1033.38 400.137 1033.94 398.449 1035.31 397.726C1036.68 397.083 1038.37 397.645 1039.09 399.012C1041.42 403.754 1044.56 406.888 1048.09 407.853C1051.15 408.657 1054.36 407.853 1057.82 405.442C1059.11 404.558 1060.88 404.879 1061.76 406.165C1062.64 407.451 1062.32 409.219 1061.04 410.103C1057.42 412.515 1053.8 413.801 1050.34 413.801Z" fill="#202D37"/>
<path d="M1024.54 332.221C1024.22 332.221 1023.9 332.141 1023.57 332.06C1022.13 331.498 1021.4 329.89 1021.89 328.444C1023.57 323.943 1028.88 320.004 1034.19 319.361C1037.96 318.879 1041.26 320.165 1043.11 322.978C1043.99 324.264 1043.67 326.032 1042.39 326.917C1041.1 327.801 1039.33 327.479 1038.45 326.193C1037.72 325.229 1036.52 324.827 1034.83 324.988C1031.61 325.389 1028.08 327.881 1027.11 330.453C1026.79 331.498 1025.66 332.221 1024.54 332.221Z" fill="#202D37"/>
<path d="M1069.56 344.117C1068.35 344.117 1067.23 343.313 1066.82 342.107C1065.94 338.892 1062.64 337.365 1061.28 336.883C1058.38 335.758 1055.81 335.999 1055.09 336.561C1053.8 337.446 1052.03 337.044 1051.23 335.758C1050.34 334.472 1050.75 332.703 1052.03 331.9C1054.61 330.212 1059.03 330.132 1063.29 331.659C1067.87 333.346 1071.17 336.642 1072.29 340.58C1072.69 342.107 1071.89 343.634 1070.36 344.036C1070.04 344.036 1069.8 344.117 1069.56 344.117Z" fill="#202D37"/>
<path d="M1234.76 856.983C1233.23 856.983 1231.95 855.777 1231.95 854.25C1231.95 853.607 1230.58 793.166 1220.61 741.003C1220.29 739.476 1221.33 738.029 1222.86 737.708C1224.39 737.386 1225.84 738.431 1226.16 739.958C1236.21 792.603 1237.65 853.527 1237.65 854.17C1237.57 855.697 1236.37 856.983 1234.76 856.983Z" fill="#202D37"/>
<path d="M1144.8 849.99C1143.19 849.99 1141.99 848.704 1141.99 847.096C1142.63 804.338 1134.11 769.616 1134.03 769.214C1133.63 767.687 1134.59 766.16 1136.12 765.838C1137.65 765.437 1139.18 766.401 1139.5 767.928C1139.58 768.25 1148.26 803.695 1147.62 847.257C1147.62 848.704 1146.33 849.99 1144.8 849.99Z" fill="#202D37"/>
<path d="M861.911 838.738C861.026 838.738 860.223 838.336 859.66 837.613C846.395 820.011 840.929 793.728 843.903 761.74C846.556 732.644 855.801 700.173 870.673 667.782C887.796 630.409 907.492 595.446 920.435 572.218C928.795 557.429 935.307 545.694 936.593 541.676C939.085 533.478 957.735 473.438 962.237 463.472C967.061 452.863 994.393 437.672 1011.68 438.717C1023.49 439.44 1035.07 449.326 1039.33 458.569C1041.82 463.874 1041.9 468.616 1039.41 471.992C1036.28 476.251 1029.2 473.358 1023.33 470.304C1019.15 468.134 1015.29 465.642 1013.77 464.597C1010.55 464.517 1007.5 465.16 1005 465.883C1009.99 468.214 1016.5 471.509 1019.64 474.322C1023.66 477.939 1029.28 487.263 1029.2 496.425C1029.12 502.292 1026.71 507.436 1022.29 511.375C1021.08 512.42 1019.31 512.259 1018.35 511.134C1017.3 509.928 1017.47 508.16 1018.59 507.195C1021.89 504.382 1023.57 500.765 1023.57 496.425C1023.66 488.79 1018.59 480.993 1015.86 478.502C1012.16 475.126 1000.74 470.063 996.644 468.375C995.679 467.973 994.956 467.008 994.876 465.963C994.795 464.919 995.358 463.874 996.323 463.311C996.644 463.15 1005.25 458.569 1014.81 459.051C1015.29 459.051 1015.86 459.212 1016.26 459.534C1023.98 464.838 1032.74 469.018 1034.99 468.535C1036.04 466.928 1035.71 464.195 1034.19 460.98C1030.65 453.425 1020.84 444.905 1011.28 444.343C995.84 443.459 970.839 457.846 967.302 465.803C963.282 474.724 945.999 530.021 941.979 543.283C940.612 547.865 934.503 558.635 925.338 574.951C912.396 598.018 892.78 632.98 875.738 670.113C861.187 701.941 852.023 733.85 849.45 762.302C846.637 792.925 851.701 817.841 864.081 834.317C865.046 835.523 864.805 837.291 863.519 838.255C863.036 838.577 862.473 838.738 861.911 838.738Z" fill="#202D37"/>
<path d="M1017.3 532.272C1016.5 532.272 1015.7 531.95 1015.13 531.308C1014.17 530.102 1014.25 528.334 1015.46 527.369C1015.7 527.128 1021.57 521.984 1018.83 512.821C1016.26 504.221 1004.04 490.638 997.207 487.182C995.84 486.459 995.278 484.771 995.921 483.405C996.644 482.038 998.332 481.476 999.699 482.119C1007.82 486.218 1021.24 501.007 1024.22 511.134C1028 523.913 1019.47 531.308 1019.07 531.629C1018.59 532.111 1017.95 532.272 1017.3 532.272Z" fill="#202D37"/>
<path d="M1002.19 555.339C1000.82 555.339 999.377 555.098 998.011 554.616C993.027 552.767 989.731 547.784 989.811 542.158C989.811 540.631 991.097 539.345 992.705 539.425C994.232 539.425 995.519 540.711 995.438 542.319C995.358 545.453 997.207 548.347 999.94 549.311C1003.08 550.517 1006.69 548.99 1009.75 545.292C1013.93 540.229 1015.29 534.201 1013.77 527.932C1011.52 519.251 1003.96 510.973 994.795 507.276C993.348 506.713 992.625 505.025 993.187 503.659C993.75 502.212 995.438 501.489 996.805 502.132C1007.5 506.391 1016.5 516.277 1019.15 526.646C1021.24 534.683 1019.47 542.399 1014.01 548.909C1010.63 553.089 1006.37 555.339 1002.19 555.339Z" fill="#202D37"/>
<path d="M936.191 789.549C936.03 789.549 935.869 789.549 935.709 789.549C934.181 789.308 933.136 787.861 933.377 786.334C933.458 785.691 944.31 719.463 949.134 689.403C953.957 659.424 963.604 584.274 963.765 583.551C963.845 582.988 964.086 582.506 964.408 582.104C982.415 561.367 992.464 548.749 990.052 529.941C989.891 528.414 990.936 526.967 992.464 526.807C993.991 526.646 995.438 527.691 995.599 529.218C998.252 550.195 987.882 563.618 969.151 585.158C968.025 593.517 959.183 661.995 954.6 690.368C949.777 720.427 938.924 786.656 938.844 787.299C938.683 788.585 937.558 789.549 936.191 789.549Z" fill="#202D37"/>
<path d="M606.191 340.982C605.628 340.982 605.065 340.821 604.583 340.5C603.859 340.017 603.457 339.294 603.377 338.49C602.975 335.115 593.811 279.335 581.109 237.782C580.627 236.335 581.511 234.728 582.958 234.245C584.405 233.763 586.013 234.647 586.495 236.094C597.83 273.146 606.432 321.451 608.522 334.632C641.884 325.47 675.567 318.558 708.607 314.137C710.135 313.896 711.582 315.021 711.742 316.548C711.984 318.075 710.858 319.522 709.331 319.683C675.487 324.184 641.08 331.337 606.914 340.821C606.753 340.902 606.512 340.982 606.191 340.982Z" fill="#202D37"/>
<path d="M616.802 309.877C616.24 309.877 615.677 309.716 615.195 309.315C613.908 308.43 613.667 306.662 614.551 305.376C616.963 302.001 619.536 298.303 621.947 294.687C631.835 280.139 635.614 275.075 639.231 275.075C639.794 275.075 640.598 275.075 641.562 275.156C651.692 275.638 654.344 274.673 654.988 274.03C654.988 273.307 654.988 272.503 654.988 271.539C654.827 261.251 654.988 251.767 658.364 247.989C661.901 244.051 685.455 229.101 688.189 227.414C689.475 226.61 691.243 227.012 692.047 228.298C692.851 229.584 692.449 231.352 691.163 232.156C681.355 238.344 664.876 249.195 662.544 251.767C660.293 254.258 660.534 267.199 660.615 271.539C660.615 272.584 660.615 273.548 660.615 274.272C660.615 275.799 660.052 277.085 658.927 278.21C655.631 281.344 648.396 281.264 641.321 280.943C640.678 280.943 640.035 280.862 639.633 280.862C637.382 282.229 631.192 291.311 626.69 298.062C624.198 301.759 621.626 305.537 619.214 308.913C618.571 309.475 617.687 309.877 616.802 309.877Z" fill="#202D37"/>
<path d="M669.779 221.305C665.197 225.485 689.635 248.552 694.298 246.703C697.915 245.257 711.742 215.92 707.16 211.66C702.819 207.481 676.371 215.358 669.779 221.305Z" fill="#202D37"/>
<path d="M693.735 249.677C691.806 249.677 688.349 248.552 681.435 242.765C676.13 238.264 671.146 232.879 668.573 228.78C665.84 224.52 665.599 221.305 667.85 219.296C672.03 215.438 681.596 211.901 688.51 209.972C695.906 207.963 705.472 206.195 709.09 209.571C710.858 211.258 711.34 214.152 710.456 218.653C708.768 227.655 699.925 247.427 695.343 249.356C695.102 249.436 694.539 249.677 693.735 249.677ZM672.11 223.073C672.432 224.681 675.326 229.182 681.194 234.888C687.143 240.675 691.725 243.488 693.333 243.89C694.619 242.444 697.915 237.058 701.211 229.262C705.07 220.019 705.713 214.875 705.231 213.589C704.186 213.027 699.282 212.786 689.635 215.438C682.078 217.608 675.004 220.662 672.11 223.073Z" fill="#202D37"/>
<path d="M322.736 884.471C320.164 884.471 317.591 884.31 315.019 883.988C293.555 881.416 274.985 868.476 261.318 846.454C247.33 823.949 243.231 790.353 249.34 749.282C254.244 716.087 265.74 679.276 280.933 648.171C305.854 596.973 352.159 545.936 358.992 538.541L348.059 395.475C316.466 395.717 308.829 384.705 306.98 379.883C304.809 374.096 306.819 367.666 312.285 363.004C318.877 357.459 329.167 355.369 339.779 357.539C341.386 357.86 343.075 358.262 344.763 358.825C346.21 359.307 347.094 360.915 346.612 362.361C346.129 363.808 344.522 364.692 343.075 364.21C341.628 363.728 340.1 363.326 338.734 363.085C329.81 361.236 321.289 362.844 315.983 367.345C312.366 370.399 310.999 374.337 312.285 377.874C314.617 384.062 325.952 390.492 350.631 389.769C352.078 389.689 353.365 390.894 353.525 392.341L364.78 539.264C364.86 540.068 364.539 540.872 364.056 541.435C363.574 541.997 312.527 596.25 286.159 650.582C271.287 681.205 259.952 717.453 255.128 750.085C249.179 789.87 253.118 822.1 266.383 843.48C279.165 863.975 296.288 876.031 315.983 878.362C340.663 881.256 368.558 868.717 394.685 842.917C440.668 797.506 469.287 754.265 472.1 747.112C471.136 745.826 468.242 742.932 465.428 740.119C455.058 729.751 436.086 710.863 425.474 687.715C410.361 699.048 338.332 754.586 301.594 813.42C300.79 814.706 299.021 815.108 297.735 814.304C296.449 813.5 296.047 811.732 296.851 810.446C338.492 743.816 424.188 681.687 425.072 681.044C425.796 680.562 426.68 680.401 427.484 680.642C428.288 680.883 429.011 681.446 429.333 682.25C439.141 705.88 458.916 725.571 469.528 736.1C476.281 742.852 478.049 744.7 478.049 746.87C478.049 751.13 464.222 770.741 456.907 780.547C445.25 796.22 425.635 820.413 398.785 846.936C373.623 871.45 347.094 884.471 322.736 884.471Z" fill="#202D37"/>
<path d="M336.965 377.391C336.644 377.391 336.322 377.311 336 377.23C331.177 375.543 326.193 375.221 322.334 376.427C320.887 376.909 319.279 376.025 318.797 374.578C318.315 373.051 319.199 371.524 320.646 371.042C327.479 368.952 334.393 370.72 337.849 371.926C339.296 372.408 340.1 374.016 339.538 375.543C339.216 376.668 338.091 377.391 336.965 377.391Z" fill="#202D37"/>
<path d="M409.798 419.909C402 422.722 392.997 422.964 386.324 417.98C380.054 413.319 376.436 407.049 374.909 400.861C372.578 391.698 374.668 382.696 378.928 379.401C386.244 373.775 392.997 381.812 402.483 388.242C412.853 395.235 422.66 390.492 426.358 400.861C428.77 407.612 420.329 416.132 409.798 419.909Z" fill="#202D37"/>
<path d="M398.946 424.732C393.559 424.732 388.575 423.205 384.636 420.231C376.758 414.363 373.462 406.808 372.176 401.504C369.603 391.618 371.774 381.33 377.16 377.15C384.636 371.363 391.71 376.748 398.544 381.892C400.312 383.178 402.081 384.545 403.93 385.831C407.788 388.403 411.486 389.206 415.104 389.93C420.57 391.055 426.117 392.261 428.851 399.816C432.066 408.737 422.098 418.302 410.602 422.481C406.663 424.008 402.724 424.732 398.946 424.732ZM384.073 380.365C382.868 380.365 381.742 380.767 380.617 381.651C377.481 384.062 375.472 391.778 377.642 400.137C378.768 404.558 381.501 410.827 388.093 415.73C393.238 419.588 400.875 420.15 408.914 417.257C418.4 413.881 425.474 406.487 423.786 401.825C422.178 397.405 419.686 396.762 414.139 395.556C410.361 394.752 405.698 393.788 400.955 390.573C398.946 389.206 397.097 387.84 395.328 386.474C390.022 382.535 386.807 380.365 384.073 380.365Z" fill="#202D37"/>
<path d="M409.798 419.909C402.001 422.722 392.997 422.964 386.325 417.98C380.054 413.319 376.437 407.049 374.909 400.861C386.968 396.681 402.804 400.78 409.798 419.909Z" fill="#FFFEF2"/>
<path d="M398.946 424.732C393.56 424.732 388.575 423.205 384.636 420.231C376.758 414.363 373.462 406.808 372.176 401.504C371.854 400.057 372.578 398.61 373.944 398.128C387.209 393.547 404.895 398.048 412.451 418.864C412.692 419.588 412.692 420.311 412.371 421.034C412.049 421.677 411.486 422.24 410.763 422.481C406.663 424.008 402.724 424.732 398.946 424.732ZM378.366 402.79C379.813 406.808 382.627 411.791 388.013 415.73C392.595 419.105 399.026 419.99 406.02 418.141C399.83 404.397 388.334 400.539 378.366 402.79Z" fill="#202D37"/>
<path d="M398.464 501.087C388.656 501.087 378.527 500.524 367.674 499.721C366.147 499.56 364.941 498.274 365.102 496.666C365.263 495.139 366.549 493.934 368.157 494.094C401.599 496.747 428.288 496.345 457.711 486.057C459.158 485.575 460.766 486.298 461.328 487.745C461.811 489.192 461.087 490.799 459.64 491.362C438.819 498.515 419.526 501.087 398.464 501.087Z" fill="#202D37"/>
<path d="M386.164 554.535C377.964 554.535 369.362 548.427 361.082 542.479L360.198 541.836C358.912 540.952 358.671 539.184 359.555 537.898C360.439 536.612 362.208 536.371 363.494 537.255L364.378 537.898C372.739 543.846 381.341 549.954 388.013 548.748C391.148 548.186 393.881 546.016 396.454 542.158C400.795 535.648 403.769 528.976 406.101 523.672C409.718 515.634 412.291 509.848 417.355 509.687C421.696 509.606 425.876 514.509 432.308 522.707C436.247 527.61 440.668 533.236 444.125 535.406C446.778 537.014 449.431 537.416 452.084 536.532C456.183 535.165 459.962 530.745 462.373 524.556C462.936 523.109 464.544 522.386 465.991 522.948C467.438 523.511 468.162 525.119 467.599 526.565C464.624 534.362 459.64 539.907 453.852 541.836C449.592 543.283 445.25 542.72 441.151 540.148C436.809 537.416 432.227 531.709 427.806 526.163C424.671 522.145 419.285 515.474 417.436 515.313C415.908 515.393 413.175 521.502 411.165 526.003C408.673 531.548 405.618 538.461 401.036 545.373C397.66 550.517 393.56 553.491 388.897 554.375C388.093 554.455 387.129 554.535 386.164 554.535Z" fill="#202D37"/>
<path d="M436.89 568.52C439.909 568.52 442.356 566.073 442.356 563.055C442.356 560.037 439.909 557.59 436.89 557.59C433.871 557.59 431.423 560.037 431.423 563.055C431.423 566.073 433.871 568.52 436.89 568.52Z" fill="#202D37"/>
<path d="M449.27 595.205C446.295 595.928 444.607 599.545 445.491 603.242C446.376 607.02 449.511 609.431 452.485 608.707C455.46 607.984 457.148 604.367 456.264 600.67C455.46 596.973 452.324 594.481 449.27 595.205Z" fill="#202D37"/>
<path d="M553.053 688.278C551.123 688.76 550.078 691.091 550.641 693.502C551.204 695.913 553.214 697.521 555.143 697.038C557.072 696.556 558.117 694.225 557.555 691.814C556.992 689.403 554.982 687.795 553.053 688.278Z" fill="#202D37"/>
<path d="M476.683 616.102C476.603 616.102 476.522 616.102 476.522 616.102C474.995 616.022 473.789 614.655 473.869 613.128C473.869 612.726 476.603 569.566 473.869 524.395C473.789 522.868 474.914 521.502 476.522 521.422C478.05 521.341 479.416 522.466 479.497 524.074C482.31 569.566 479.497 613.048 479.497 613.45C479.416 614.977 478.13 616.102 476.683 616.102Z" fill="#202D37"/>
<path d="M446.697 661.513C445.893 661.513 445.17 661.192 444.607 660.629C393.881 604.93 362.77 555.098 362.529 554.616C361.725 553.33 362.127 551.562 363.413 550.758C364.7 549.954 366.468 550.356 367.272 551.642C367.594 552.124 398.463 601.554 448.787 656.852C449.832 657.977 449.752 659.745 448.627 660.79C448.064 661.272 447.34 661.513 446.697 661.513Z" fill="#202D37"/>
<path d="M388.977 691.493C387.932 691.493 386.967 690.93 386.485 689.885C378.687 674.052 377.803 653.797 377.24 641.661C377.08 638.285 376.999 635.633 376.758 633.945C376.758 633.945 376.276 632.9 371.854 632.177C367.996 631.534 363.011 631.454 358.188 631.373C347.978 631.132 342.592 630.891 340.663 627.756C337.769 622.853 340.904 605.252 348.139 572.298C348.461 570.771 349.988 569.807 351.516 570.128C353.043 570.45 354.008 571.977 353.686 573.504C350.631 587.328 343.557 619.478 345.486 624.702C347.175 625.506 353.847 625.667 358.349 625.747C370.246 625.988 381.501 626.229 382.385 633.222C382.626 635.151 382.787 637.883 382.948 641.42C383.43 653.074 384.315 672.605 391.63 687.394C392.354 688.76 391.711 690.448 390.344 691.171C389.862 691.412 389.46 691.493 388.977 691.493Z" fill="#202D37"/>
<path d="M427.323 688.599C426.68 688.599 426.037 688.358 425.555 687.956C424.349 686.992 424.188 685.143 425.233 684.018C440.748 665.532 454.816 641.58 460.203 624.3C464.302 611.119 482.069 606.296 514.385 609.672C539.949 612.324 545.175 630.167 546.22 635.633C547.908 644.795 545.094 653.476 539.547 656.208C538.181 656.932 536.493 656.369 535.769 654.922C535.046 653.556 535.608 651.868 537.055 651.145C539.869 649.779 542.039 643.831 540.753 636.597C539.949 632.177 535.608 617.468 513.903 615.218C485.445 612.324 468.724 616.021 465.669 625.988C460.042 643.911 445.572 668.666 429.654 687.635C428.931 688.197 428.127 688.599 427.323 688.599Z" fill="#202D37"/>
<path d="M531.669 671.479C530.383 671.479 529.257 670.595 528.936 669.309C528.534 667.782 529.499 666.255 531.026 665.934C533.036 665.451 534.402 664.487 535.126 663.121C537.618 658.539 534.081 648.975 532.393 644.393C530.624 639.41 516.074 631.453 498.147 627.997C496.619 627.676 495.655 626.229 495.896 624.702C496.217 623.175 497.664 622.21 499.192 622.451C515.43 625.666 534.402 633.704 537.618 642.464C540.753 651.064 543.165 659.825 540.03 665.773C538.502 668.666 535.93 670.515 532.312 671.399C532.152 671.479 531.91 671.479 531.669 671.479Z" fill="#202D37"/>
<path d="M465.187 739.154C464.464 739.154 463.74 738.913 463.177 738.351C461.73 736.904 462.374 735.377 463.499 732.805C464.062 731.519 464.785 729.831 465.83 727.661C467.518 723.964 469.287 720.347 469.287 720.347C469.689 719.543 470.413 718.981 471.377 718.82C472.422 718.659 497.022 714.078 499.755 692.216C499.916 690.689 501.363 689.564 502.89 689.805C504.417 689.966 505.543 691.412 505.302 692.939C502.488 715.525 479.818 722.517 473.789 724.044C471.216 729.51 468.483 735.296 468.001 736.743C467.92 737.306 467.679 737.868 467.197 738.351C466.634 738.913 465.911 739.154 465.187 739.154Z" fill="#202D37"/>
<path d="M508.115 713.113C504.9 713.113 501.684 711.345 499.513 708.291C497.262 705.156 496.78 701.459 498.227 698.485C498.87 697.119 500.558 696.476 502.005 697.199C503.372 697.842 504.015 699.53 503.292 700.977C502.649 702.263 503.292 703.951 504.096 704.995C505.301 706.603 506.99 707.648 508.437 707.487C512.135 707.085 521.138 699.048 522.264 693.422C523.148 688.76 515.993 672.765 511.974 670.595C507.552 668.184 500.639 669.149 500.558 669.149C499.031 669.39 497.584 668.265 497.423 666.737C497.182 665.21 498.308 663.764 499.835 663.523C500.156 663.442 508.678 662.317 514.707 665.612C521.299 669.229 529.097 687.876 527.811 694.466C526.283 702.182 515.27 712.309 509.16 713.033C508.839 713.113 508.437 713.113 508.115 713.113Z" fill="#202D37"/>
<path d="M523.791 688.599C522.344 688.599 521.058 687.474 520.978 685.947C520.897 684.42 522.023 683.053 523.63 682.973C526.846 682.732 529.017 681.848 529.901 680.24C532.473 675.82 527.57 665.612 524.595 659.504L523.872 657.896C522.907 655.887 514.305 650.1 502.006 648.01C500.478 647.769 499.433 646.323 499.674 644.795C499.915 643.268 501.362 642.223 502.89 642.465C515.752 644.635 526.685 650.984 528.856 655.485L529.579 657.012C533.438 665.05 538.744 676.061 534.644 683.053C532.714 686.349 529.097 688.197 523.872 688.519C523.872 688.599 523.872 688.599 523.791 688.599Z" fill="#202D37"/>
<path d="M731.599 638.446C733.85 652.351 771.633 633.543 764.237 616.745C757.323 600.911 729.107 622.773 731.599 638.446Z" fill="#FFFEF2"/>
<path d="M738.432 646.081C737.146 646.081 735.94 645.921 734.895 645.599C731.599 644.635 729.428 642.223 728.866 638.848C726.936 626.952 739.557 612.565 751.294 609.109C758.369 607.02 764.237 609.431 766.89 615.62C769.382 621.326 767.935 627.756 762.629 633.784C756.278 641.018 745.908 646.081 738.432 646.081ZM756.118 614.092C755.233 614.092 754.108 614.253 752.902 614.575C743.818 617.227 733.046 629.283 734.493 638.044C734.654 639.25 735.297 639.893 736.503 640.294C741.246 641.661 752.098 637.401 758.449 630.167C761.102 627.193 763.755 622.612 761.745 617.95C761.263 616.825 760.057 614.092 756.118 614.092Z" fill="#202D37"/>
<path d="M638.99 673.65C638.106 673.65 637.141 673.65 636.257 673.569C625.324 672.766 615.355 667.14 608.361 657.816C601.367 648.573 598.072 636.758 598.956 624.541C599.76 613.852 603.86 603.644 610.452 595.928C619.053 585.882 630.951 580.657 643.09 581.541C647.431 581.863 651.692 582.988 655.711 584.837C666.162 589.659 674.361 599.384 678.22 611.44C680.15 617.629 680.873 624.059 680.391 630.65C679.908 636.839 678.381 642.786 675.889 648.252C668.734 663.925 654.425 673.65 638.99 673.65ZM640.437 587.007C630.871 587.007 621.626 591.508 614.793 599.465C608.924 606.296 605.307 615.379 604.583 624.863C603.779 635.713 606.673 646.242 612.863 654.36C618.892 662.397 627.414 667.22 636.659 667.943C650.727 668.988 664.152 660.308 670.824 645.84C673.075 640.938 674.442 635.633 674.844 630.168C675.246 624.3 674.603 618.594 672.914 613.048C669.618 602.519 662.464 593.999 653.46 589.82C650.084 588.212 646.466 587.328 642.768 587.007C641.964 587.007 641.241 587.007 640.437 587.007Z" fill="#202D37"/>
<path d="M673.397 649.859C673.075 649.859 672.834 649.779 672.512 649.698L641.08 639.41C640.517 639.25 640.035 638.848 639.713 638.446L610.371 599.304C609.567 598.259 609.647 596.812 610.451 595.767C619.053 585.721 630.951 580.496 643.09 581.38C647.431 581.702 651.691 582.827 655.711 584.676C666.161 589.498 674.361 599.223 678.22 611.28C680.149 617.468 680.873 623.898 680.39 630.489C679.908 636.678 678.381 642.625 675.889 648.091C675.487 649.216 674.442 649.859 673.397 649.859ZM643.733 634.347L671.869 643.509C673.557 639.25 674.602 634.749 674.924 630.087C675.326 624.22 674.683 618.513 672.995 612.967C669.699 602.438 662.544 593.919 653.54 589.739C650.164 588.132 646.546 587.248 642.848 586.926C633.121 586.203 623.635 590.061 616.4 597.696L643.733 634.347Z" fill="#202D37"/>
<path d="M675.567 612.244L641.964 636.758L654.586 587.328C664.473 591.829 672.03 600.911 675.567 612.244Z" fill="#FAD932"/>
<path d="M641.964 639.571C641.402 639.571 640.839 639.41 640.357 639.089C639.392 638.446 638.909 637.24 639.231 636.035L651.852 586.605C652.093 585.801 652.576 585.158 653.38 584.756C654.103 584.434 654.987 584.354 655.791 584.756C666.242 589.578 674.442 599.304 678.3 611.36C678.622 612.485 678.22 613.771 677.255 614.494L643.652 639.008C643.17 639.41 642.527 639.571 641.964 639.571ZM656.515 591.427L646.707 629.846L672.352 611.119C669.136 602.679 663.589 595.687 656.515 591.427Z" fill="#202D37"/>
<path d="M724.524 616.986C725.489 631.051 764.8 615.62 758.931 598.259C753.465 581.782 723.399 601.152 724.524 616.986Z" fill="#FFFEF2"/>
<path d="M732.242 625.265C730.312 625.265 728.624 625.023 727.177 624.461C723.962 623.175 722.032 620.603 721.791 617.227C720.907 605.171 734.814 591.99 746.712 589.579C753.947 588.132 759.574 591.025 761.665 597.375C763.674 603.322 761.584 609.592 755.876 615.057C749.365 621.246 739.557 625.265 732.242 625.265ZM727.338 616.825C727.418 618.031 727.981 618.754 729.187 619.237C733.769 621.005 744.943 617.709 751.937 611.038C754.831 608.306 757.886 603.965 756.278 599.143C755.796 597.777 754.429 593.678 747.757 595.044C738.512 596.893 726.695 607.984 727.338 616.825Z" fill="#202D37"/>
<path d="M719.38 596.33C720.425 611.038 762.71 596.089 756.439 577.924C750.491 560.644 718.174 579.692 719.38 596.33Z" fill="#FFFEF2"/>
<path d="M728.142 605.091C725.972 605.091 724.042 604.769 722.354 604.126C718.897 602.76 716.807 600.107 716.566 596.491C715.682 584.193 729.991 571.253 742.451 568.681C750.571 566.993 756.761 570.128 759.092 576.96C761.102 582.827 759.173 589.016 753.626 594.401C746.953 600.831 736.261 605.091 728.142 605.091ZM746.632 573.906C745.667 573.906 744.622 573.986 743.496 574.227C733.528 576.236 721.47 586.926 722.113 596.089C722.193 597.053 722.515 598.178 724.364 598.902C729.669 600.911 742.451 597.455 749.687 590.382C752.42 587.73 755.394 583.55 753.786 578.808C752.661 575.513 750.249 573.906 746.632 573.906Z" fill="#202D37"/>
<path d="M706.758 578.246C706.758 593.035 753.063 576.96 747.114 558.635C741.085 540.39 706.758 558.956 706.758 578.246Z" fill="#FFFEF2"/>
<path d="M715.038 586.846C712.627 586.846 710.537 586.524 708.768 585.721C705.633 584.354 703.864 581.702 703.864 578.246C703.864 564.18 719.379 550.758 732.805 548.668C741.085 547.382 747.436 550.758 749.686 557.831C751.616 563.698 749.365 569.967 743.255 575.513C735.779 582.265 723.721 586.846 715.038 586.846ZM709.572 578.246C709.572 579.21 709.813 579.934 711.099 580.577C716.405 582.908 731.197 578.889 739.557 571.334C742.612 568.601 745.908 564.261 744.381 559.599C742.934 555.179 739.316 553.33 733.689 554.294C722.836 555.982 709.572 567.395 709.572 578.246Z" fill="#202D37"/>
<path d="M544.21 644.795C549.757 659.745 554.339 673.409 552.973 678.633C552.33 681.124 547.747 682.25 545.577 678.633C543.406 675.016 538.744 653.878 538.744 653.878C538.744 653.878 543.808 652.592 544.21 644.795Z" fill="#202D37"/>
</g>
</g>
<defs>
<clipPath id="clip0_3457_5293">
<rect width="1440" height="1024" fill="white"/>
</clipPath>
<clipPath id="clip1_3457_5293">
<rect width="1823" height="1367" fill="white" transform="translate(-192 -171)"/>
</clipPath>
</defs>
</svg>
