<svg width="1440" height="1024" viewBox="0 0 1440 1024" fill="none" xmlns="http://www.w3.org/2000/svg">
<g clip-path="url(#clip0_3457_5166)">
<rect width="1440" height="1024" fill="white"/>
<g clip-path="url(#clip1_3457_5166)">
<path d="M1535.85 -153.805H-95.9136V1178.81H1535.85V-153.805Z" fill="#FFFEF2"/>
<path d="M679.213 809.576C658.256 810.122 636.48 809.303 614.295 807.051C425.616 787.869 208.949 666.909 230.793 460.894C233.524 435.227 239.94 408.264 250.521 380.072C311.548 217.95 633.477 151.326 806.319 302.253C979.161 453.18 1135.48 249.691 1237.67 380.072C1392.56 577.622 900.863 803.501 679.213 809.576Z" fill="#ED95BF"/>
<path d="M614.295 807.051C425.616 787.869 208.949 666.909 230.793 460.894C250.112 471.202 273.321 492.704 276.666 527.313C280.147 525.743 283.424 524.514 286.154 523.968C301.241 520.76 324.177 570.932 321.651 598.032L321.856 603.903C321.856 603.903 328.614 616.804 336.26 633.802C340.151 642.403 344.246 652.096 347.796 661.721C350.868 669.98 353.394 678.24 355.646 686.022L366.227 665.816C394.488 610.934 407.321 607.589 410.12 590.66C410.598 587.998 411.008 576.462 411.417 561.444C412.509 523.763 413.328 463.829 413.328 463.829C413.328 463.829 364.862 458.3 364.179 455.023C363.565 452.088 393.805 422.804 426.094 399.458C400.358 388.605 403.021 365.737 412.441 355.497C446.095 318.909 505.961 395.294 505.961 395.294C505.961 395.294 515.382 382.529 524.324 387.922C530.877 391.881 521.798 416.455 514.426 429.289C531.423 425.671 548.489 429.562 545.895 442.805C542.687 459.256 502.685 468.744 502.685 468.744C502.685 468.744 498.725 506.971 497.155 552.229C496.746 563.901 496.541 576.052 496.541 588.134C496.541 591.957 496.541 595.78 496.609 599.534C496.678 602.469 551.356 640.901 583.099 724.112L614.295 807.051Z" fill="#FFFEF2"/>
<path d="M283.561 556.324C283.561 556.324 255.368 560.625 250.999 552.16C247.518 545.471 263.423 533.457 276.598 527.381C271.273 472.703 216.595 450.86 205.741 453.931C166.763 464.922 119.252 495.639 126.283 501.715C133.314 507.79 192.088 534.139 193.317 586.769C194.546 639.399 175.022 687.183 182.668 695.101C186.832 699.47 207.789 673.121 235.981 651.277C244.036 644.997 251.682 638.444 258.303 631.344C270.659 618.17 279.533 603.289 281.376 585.404L282.741 585.199C280.694 573.322 282.605 558.099 283.561 556.324Z" fill="#FAD932"/>
<path d="M1056.37 541.307C1013.84 540.76 978.956 551.955 950.968 568.065C950.968 568.065 955.269 547.177 942.23 547.314C942.572 530.521 948.784 223.206 944.893 181.225C940.933 138.015 897.723 150.643 776.078 152.008C654.502 153.305 604.602 142.725 590.676 166.617C576.75 190.508 588.628 447.992 586.922 552.16C583.031 792.716 573.064 831.488 618.323 831.079C671.226 830.533 897.859 826.505 897.859 826.505L929.534 827.051C952.47 836.813 981.891 843.571 1019.3 844.595C1142.99 848.008 1217.74 802.477 1234.94 732.918C1252.21 663.291 1185.66 543.013 1056.37 541.307Z" fill="#FFFEF2"/>
<path d="M1097.19 402.462C1125.72 397.206 1152.48 425.33 1141.56 456.184C1130.57 487.038 1084.49 484.376 1070.7 461.44C1056.09 437.139 1070.02 407.513 1097.19 402.462Z" fill="#FAD932"/>
<path d="M432.442 442.6C430.667 442.6 429.234 441.166 429.234 439.391V431.132C429.234 429.357 430.667 427.923 432.442 427.923C434.217 427.923 435.651 429.357 435.651 431.132V439.391C435.651 441.166 434.217 442.6 432.442 442.6Z" fill="#202D37"/>
<path d="M452.102 444.306C450.327 444.306 448.894 442.873 448.894 441.098V432.838C448.894 431.063 450.327 429.63 452.102 429.63C453.877 429.63 455.31 431.063 455.31 432.838V441.098C455.31 442.873 453.877 444.306 452.102 444.306Z" fill="#202D37"/>
<path d="M909.191 647.044C907.416 647.044 905.983 645.611 905.983 643.836V635.576C905.983 633.802 907.416 632.368 909.191 632.368C910.966 632.368 912.4 633.802 912.4 635.576V643.836C912.4 645.611 910.966 647.044 909.191 647.044Z" fill="#202D37"/>
<path d="M940.319 658.854C938.544 658.854 937.11 657.42 937.11 655.645V647.386C937.11 645.611 938.544 644.177 940.319 644.177C942.094 644.177 943.527 645.611 943.527 647.386V655.645C943.527 657.42 942.094 658.854 940.319 658.854Z" fill="#202D37"/>
<path d="M688.497 608.476L688.975 615.098H680.169L680.646 608.476L675.049 612.299L671.021 605.132L677.643 601.855L670.953 598.578L675.049 591.616L680.646 595.302L680.169 588.68H688.975L688.497 595.302L694.094 591.616L698.19 598.578L691.5 601.855L698.122 605.132L694.094 612.299L688.497 608.476Z" fill="#202D37"/>
<path d="M745.36 608.476L745.838 615.098H737.032L737.51 608.476L731.912 612.299L727.885 605.132L734.506 601.855L727.816 598.578L731.912 591.616L737.51 595.302L737.032 588.68H745.838L745.36 595.302L750.957 591.616L755.053 598.578L748.364 601.855L754.985 605.132L750.957 612.299L745.36 608.476Z" fill="#202D37"/>
<path d="M803.793 608.476L804.271 615.098H795.465L795.943 608.476L790.345 612.299L786.318 605.132L792.939 601.855L786.25 598.578L790.345 591.616L795.943 595.302L795.465 588.68H804.271L803.793 595.302L809.391 591.616L813.486 598.578L806.797 601.855L813.418 605.132L809.391 612.299L803.793 608.476Z" fill="#202D37"/>
<path d="M183.214 488.95C183.282 488.95 183.35 489.018 183.555 489.018C183.692 489.086 183.965 489.154 184.306 489.291C184.647 489.427 185.057 489.632 185.398 489.837C185.74 490.042 186.149 490.315 186.559 490.656C186.968 490.997 187.378 491.407 187.651 491.885C188.265 492.772 188.675 493.66 188.88 494.547C189.084 495.434 189.084 496.254 188.948 497.004C188.743 497.755 188.47 498.438 187.992 499.121C187.514 499.735 186.968 500.349 186.217 500.827L175.364 507.926C175.227 507.995 175.091 508.063 174.954 508.063C174.817 508.063 174.749 507.995 174.613 507.858L161.165 490.178C161.097 490.042 161.028 489.974 161.097 489.837C161.165 489.7 161.233 489.632 161.37 489.564L172.087 483.693C172.906 483.216 173.794 482.943 174.681 482.806C175.568 482.669 176.456 482.669 177.343 482.806C178.231 482.943 179.05 483.284 179.869 483.83C180.688 484.376 181.371 485.059 182.053 485.946C182.463 486.492 182.736 487.038 182.941 487.584C183.146 488.062 183.214 488.472 183.214 488.677V488.95ZM171.131 490.588L172.838 492.909C172.906 493.045 173.043 493.045 173.179 492.977L175.227 491.817C175.705 491.544 175.978 491.202 176.114 490.724C176.251 490.247 176.183 489.837 175.91 489.496C175.637 489.154 175.227 488.881 174.749 488.813C174.203 488.745 173.725 488.813 173.316 489.086L171.268 490.247C171.063 490.383 171.063 490.451 171.131 490.588ZM181.302 498.097C181.712 497.824 182.053 497.482 182.122 497.004C182.258 496.595 182.19 496.185 181.917 495.776C181.644 495.434 181.302 495.23 180.756 495.161C180.279 495.093 179.801 495.161 179.323 495.434L176.388 497.278C176.251 497.346 176.183 497.482 176.319 497.619L178.026 499.872C178.094 500.008 178.231 500.008 178.367 499.94L181.302 498.097Z" fill="#202D37"/>
<path d="M198.505 492.772L193.999 495.707C193.863 495.776 193.794 495.844 193.658 495.776C193.521 495.776 193.453 495.707 193.385 495.571L181.712 478.847C181.644 478.71 181.644 478.642 181.644 478.505C181.644 478.369 181.78 478.301 181.848 478.232L186.832 475.502C186.968 475.434 187.036 475.434 187.173 475.434C187.309 475.434 187.378 475.502 187.446 475.638L198.641 492.09C198.709 492.158 198.709 492.294 198.709 492.431C198.641 492.636 198.573 492.704 198.505 492.772Z" fill="#202D37"/>
<path d="M210.792 484.24C210.86 484.308 210.86 484.444 210.86 484.513C210.86 484.581 210.792 484.717 210.724 484.717L201.167 490.998C201.031 491.066 200.962 491.066 200.826 491.066C200.689 491.066 200.621 490.997 200.553 490.861L189.562 474.478C189.494 474.342 189.494 474.273 189.494 474.137C189.494 474 189.562 473.932 189.699 473.864L194.341 471.338C194.409 471.27 194.546 471.27 194.682 471.27C194.819 471.27 194.887 471.338 194.955 471.475L203.215 484.103L208.266 480.895C208.335 480.826 208.471 480.826 208.54 480.826C208.608 480.826 208.744 480.895 208.813 481.031L210.792 484.24Z" fill="#202D37"/>
<path d="M221.646 477.14C221.714 477.209 221.714 477.345 221.714 477.413C221.714 477.482 221.646 477.55 221.578 477.618L212.976 483.216C212.908 483.284 212.772 483.284 212.703 483.284C212.635 483.284 212.499 483.216 212.499 483.079L202.6 467.379C202.532 467.311 202.532 467.174 202.532 467.106C202.532 467.038 202.601 466.901 202.737 466.901L206.901 464.648C206.969 464.58 207.106 464.58 207.174 464.58C207.311 464.58 207.379 464.648 207.447 464.785L214.956 476.935L219.53 474.068C219.598 474 219.735 474 219.803 474C219.871 474 219.939 474.068 220.008 474.205L221.646 477.14Z" fill="#202D37"/>
<path d="M789.663 386.761C789.663 390.652 788.843 393.792 787.137 396.25C785.43 398.707 782.768 400.414 779.082 401.506V411.677C779.082 411.95 778.945 412.223 778.809 412.428C778.604 412.633 778.331 412.701 778.058 412.701H764.61C764.337 412.701 764.064 412.564 763.859 412.428C763.654 412.223 763.586 411.95 763.586 411.677V402.598C761.06 402.462 758.808 402.325 756.76 402.052C756.487 401.984 756.282 401.916 756.077 401.643C755.872 401.438 755.804 401.165 755.804 400.892L756.828 390.038C756.896 389.697 757.033 389.424 757.306 389.287C757.579 389.082 757.852 389.014 758.193 389.151C759.013 389.355 759.832 389.492 760.719 389.628C761.607 389.765 762.699 389.901 764.132 390.106C765.498 390.243 766.794 390.379 768.023 390.379C769.32 390.448 770.412 390.243 771.3 389.901C772.187 389.56 772.87 389.082 773.211 388.536C773.553 387.99 773.826 387.512 773.962 387.103C774.099 386.693 774.167 386.284 774.167 385.942C774.167 385.601 774.099 385.191 773.962 384.714C773.826 384.236 773.553 383.69 773.075 383.075C772.665 382.393 771.914 381.778 770.822 381.096C769.798 380.481 768.501 379.935 766.931 379.594C765.156 379.184 763.518 378.502 761.948 377.546C760.378 376.59 758.876 375.362 757.511 373.928C756.146 372.495 755.053 370.652 754.234 368.535C753.415 366.351 753.005 364.03 753.005 361.504C753.005 357.955 753.893 354.951 755.736 352.494C757.579 350.036 760.173 348.262 763.586 347.101V336.657C763.586 336.384 763.654 336.111 763.859 335.906C764.064 335.701 764.337 335.565 764.61 335.565H778.058C778.331 335.565 778.604 335.701 778.809 335.906C779.014 336.111 779.15 336.384 779.15 336.657V345.668C781.539 345.804 783.929 345.941 786.25 346.214C786.523 346.282 786.727 346.35 786.932 346.623C787.137 346.828 787.205 347.101 787.205 347.374L786.181 358.228C786.113 358.501 785.976 358.774 785.703 358.979C785.43 359.184 785.157 359.252 784.884 359.184C781.13 358.364 777.717 357.955 774.713 357.887C773.484 357.818 772.392 358.023 771.436 358.364C770.549 358.706 769.866 359.184 769.457 359.73C769.047 360.276 768.774 360.754 768.638 361.163C768.501 361.573 768.433 361.982 768.433 362.324C768.433 362.665 768.501 363.074 768.638 363.484C768.774 363.962 769.115 364.508 769.525 365.122C770.003 365.805 770.754 366.419 771.778 367.102C772.802 367.716 774.099 368.262 775.669 368.604C777.375 369.082 779.014 369.764 780.652 370.72C782.29 371.676 783.724 372.904 785.157 374.338C786.523 375.771 787.615 377.614 788.434 379.73C789.253 381.915 789.663 384.236 789.663 386.761Z" fill="#202D37"/>
<path d="M778.058 413.793H764.61C764.064 413.793 763.518 413.588 763.108 413.179C762.699 412.769 762.494 412.291 762.494 411.677V403.622C760.309 403.486 758.33 403.349 756.555 403.076C756.009 403.008 755.599 402.735 755.258 402.325C754.917 401.916 754.712 401.438 754.712 400.892V400.823L755.736 389.97C755.804 389.355 756.077 388.809 756.623 388.468C757.101 388.127 757.715 387.99 758.33 388.127C759.149 388.332 759.968 388.468 760.787 388.605C761.606 388.741 762.767 388.878 764.132 389.082C765.497 389.219 766.726 389.355 767.887 389.355C769.047 389.424 770.071 389.219 770.822 388.946C771.505 388.673 772.051 388.332 772.255 387.99C772.597 387.512 772.802 387.103 772.938 386.761C773.075 386.42 773.075 386.147 773.075 385.942C773.075 385.669 773.006 385.396 772.938 385.055C772.87 384.782 772.665 384.372 772.187 383.621C771.846 383.075 771.232 382.529 770.276 381.983C769.32 381.437 768.091 380.959 766.726 380.618C764.883 380.208 763.108 379.457 761.402 378.434C759.763 377.41 758.193 376.181 756.76 374.679C755.326 373.109 754.098 371.198 753.21 368.945C752.323 366.692 751.913 364.167 751.913 361.573C751.913 357.818 752.869 354.61 754.848 351.948C756.623 349.559 759.217 347.647 762.494 346.419V336.657C762.494 336.111 762.699 335.565 763.04 335.155C763.45 334.746 763.927 334.473 764.542 334.473H777.99C778.536 334.473 779.082 334.678 779.491 335.087C779.901 335.497 780.106 336.043 780.106 336.589V344.712C782.222 344.849 784.27 344.985 786.318 345.258C786.864 345.326 787.273 345.6 787.683 345.941C788.092 346.419 788.297 346.965 788.161 347.511L787.137 358.296C787.069 358.911 786.795 359.388 786.318 359.73C785.84 360.139 785.225 360.276 784.611 360.139C780.993 359.32 777.648 358.911 774.645 358.911C773.484 358.911 772.528 359.047 771.778 359.32C771.095 359.593 770.549 359.935 770.276 360.344C769.935 360.822 769.73 361.231 769.593 361.573C769.457 361.846 769.457 362.119 769.457 362.392C769.457 362.528 769.457 362.802 769.593 363.211C769.661 363.484 769.866 363.894 770.344 364.645C770.685 365.191 771.368 365.737 772.255 366.283C773.211 366.829 774.44 367.307 775.805 367.648C777.58 368.126 779.355 368.877 781.061 369.833C782.768 370.856 784.338 372.085 785.772 373.655C787.205 375.225 788.434 377.137 789.253 379.389C790.14 381.642 790.55 384.099 790.55 386.761C790.55 390.857 789.663 394.202 787.819 396.796C786.113 399.253 783.451 401.096 779.969 402.189V411.609C779.969 412.155 779.764 412.701 779.355 413.111C779.15 413.588 778.604 413.793 778.058 413.793ZM756.76 400.96C756.76 401.028 756.76 401.028 756.828 401.028C758.876 401.301 761.129 401.506 763.586 401.574C764.132 401.574 764.542 402.052 764.542 402.598V411.677H778.058V401.438C778.058 400.96 778.331 400.55 778.809 400.482C782.222 399.458 784.748 397.82 786.318 395.636C787.888 393.383 788.639 390.379 788.639 386.761C788.639 384.372 788.229 382.12 787.478 380.14C786.727 378.16 785.703 376.386 784.406 375.089C783.109 373.723 781.676 372.563 780.174 371.676C778.672 370.788 777.034 370.106 775.464 369.696C773.894 369.286 772.46 368.74 771.3 368.058C770.071 367.375 769.252 366.624 768.706 365.805C768.228 365.054 767.887 364.44 767.682 363.894C767.477 363.348 767.409 362.87 767.409 362.392C767.409 361.914 767.477 361.368 767.682 360.89C767.887 360.412 768.16 359.866 768.638 359.184C769.115 358.433 769.935 357.887 771.027 357.477C772.051 357.068 773.279 356.863 774.713 356.931C777.785 356.999 781.266 357.409 785.089 358.228C785.157 358.16 785.157 358.16 785.157 358.16L786.181 347.374L786.113 347.306C783.86 347.033 781.471 346.896 779.082 346.76C778.536 346.76 778.126 346.282 778.126 345.736V336.657L778.058 336.589H764.61C764.61 336.657 764.61 336.657 764.61 336.657V347.101C764.61 347.511 764.337 347.92 763.927 348.057C760.719 349.149 758.262 350.856 756.555 353.108C754.848 355.361 754.029 358.16 754.029 361.505C754.029 363.894 754.439 366.146 755.19 368.194C755.941 370.242 757.033 371.949 758.262 373.246C759.559 374.611 760.992 375.771 762.494 376.659C763.996 377.546 765.566 378.229 767.204 378.57C768.842 378.98 770.208 379.526 771.368 380.208C772.597 380.959 773.416 381.642 773.962 382.461C774.44 383.212 774.781 383.826 774.918 384.372C775.123 384.918 775.191 385.465 775.191 385.942C775.191 386.42 775.123 386.898 774.918 387.444C774.713 387.99 774.44 388.536 774.03 389.151C773.552 389.833 772.733 390.448 771.641 390.857C770.617 391.267 769.388 391.472 767.955 391.403C766.794 391.403 765.429 391.335 763.996 391.13C762.562 390.925 761.47 390.789 760.583 390.652C759.695 390.516 758.808 390.311 757.989 390.175H757.92L756.76 400.96Z" fill="#202D37"/>
<path d="M1112 450.928C1111.25 453.044 1110.16 454.682 1108.79 455.638C1107.43 456.662 1105.58 457.071 1103.33 457.003L1101.35 462.6C1101.28 462.737 1101.21 462.874 1101.01 462.942C1100.87 463.01 1100.67 463.01 1100.53 462.942L1093.09 460.348C1092.96 460.28 1092.82 460.211 1092.75 460.007C1092.68 459.87 1092.68 459.665 1092.75 459.529L1094.53 454.546C1093.16 453.999 1091.93 453.453 1090.84 452.907C1090.7 452.839 1090.63 452.702 1090.57 452.566C1090.5 452.429 1090.5 452.225 1090.57 452.088L1093.23 446.286C1093.3 446.081 1093.43 446.013 1093.64 445.945C1093.84 445.876 1093.98 445.945 1094.18 446.013C1094.59 446.286 1095 446.559 1095.48 446.764C1095.96 447.037 1096.5 447.31 1097.26 447.651C1098.01 447.992 1098.69 448.334 1099.3 448.539C1099.99 448.812 1100.67 448.948 1101.21 448.948C1101.76 448.948 1102.24 448.812 1102.51 448.607C1102.85 448.402 1103.06 448.197 1103.19 447.992C1103.33 447.788 1103.47 447.583 1103.54 447.378C1103.6 447.173 1103.67 446.968 1103.67 446.627C1103.67 446.354 1103.6 446.013 1103.54 445.535C1103.4 445.057 1103.13 444.579 1102.72 444.033C1102.24 443.487 1101.62 442.941 1100.87 442.463C1099.99 441.917 1099.24 441.234 1098.48 440.347C1097.8 439.528 1097.19 438.572 1096.71 437.48C1096.23 436.388 1095.96 435.227 1095.96 433.862C1095.89 432.497 1096.16 431.132 1096.64 429.766C1097.32 427.787 1098.42 426.353 1099.85 425.329C1101.35 424.374 1103.13 423.828 1105.24 423.828L1107.29 418.094C1107.36 417.957 1107.43 417.821 1107.63 417.752C1107.77 417.684 1107.97 417.684 1108.11 417.684L1115.55 420.278C1115.69 420.346 1115.82 420.415 1115.89 420.619C1115.96 420.756 1115.96 420.961 1115.89 421.097L1114.12 426.08C1115.41 426.626 1116.71 427.172 1117.94 427.787C1118.08 427.855 1118.14 427.992 1118.28 428.128C1118.35 428.265 1118.35 428.469 1118.28 428.606L1115.62 434.408C1115.55 434.545 1115.41 434.681 1115.21 434.75C1115 434.818 1114.87 434.818 1114.73 434.681C1112.82 433.521 1111.04 432.633 1109.34 432.019C1108.66 431.746 1108.04 431.61 1107.43 431.678C1106.88 431.678 1106.4 431.814 1106.06 432.087C1105.72 432.292 1105.52 432.565 1105.31 432.702C1105.17 432.907 1105.04 433.111 1104.97 433.316C1104.9 433.521 1104.9 433.726 1104.83 433.999C1104.83 434.272 1104.9 434.613 1104.97 435.091C1105.11 435.569 1105.38 436.047 1105.86 436.593C1106.33 437.139 1106.95 437.685 1107.7 438.163C1108.59 438.709 1109.34 439.46 1110.02 440.279C1110.7 441.098 1111.32 442.054 1111.8 443.146C1112.27 444.238 1112.55 445.398 1112.55 446.764C1112.68 448.129 1112.48 449.494 1112 450.928Z" fill="#202D37"/>
<path d="M1100.81 464.034C1100.6 464.034 1100.46 464.034 1100.26 463.966L1092.82 461.372C1092.41 461.235 1092.07 460.962 1091.86 460.553C1091.66 460.143 1091.66 459.734 1091.79 459.324L1093.23 455.228C1092.2 454.819 1091.25 454.341 1090.43 453.931C1090.02 453.726 1089.81 453.453 1089.61 453.044C1089.47 452.634 1089.47 452.225 1089.61 451.883C1089.61 451.883 1089.61 451.815 1089.68 451.815L1092.34 446.013C1092.55 445.535 1092.89 445.262 1093.36 445.125C1093.84 444.989 1094.32 445.057 1094.73 445.33C1095.14 445.603 1095.55 445.808 1095.96 446.081C1096.37 446.286 1096.98 446.627 1097.67 446.969C1098.35 447.31 1099.03 447.583 1099.64 447.788C1100.26 447.992 1100.74 448.129 1101.21 448.129C1101.69 448.129 1101.9 447.992 1101.97 447.992C1102.24 447.788 1102.38 447.651 1102.44 447.515C1102.58 447.378 1102.58 447.242 1102.65 447.242C1102.65 447.173 1102.72 447.037 1102.72 446.832C1102.72 446.695 1102.72 446.491 1102.58 446.013C1102.51 445.808 1102.38 445.467 1101.97 444.921C1101.56 444.443 1101.01 443.965 1100.33 443.555C1099.37 442.941 1098.48 442.19 1097.73 441.235C1096.98 440.347 1096.37 439.323 1095.82 438.163C1095.28 437.002 1095 435.637 1094.93 434.135C1094.87 432.633 1095.14 431.132 1095.69 429.63C1096.44 427.446 1097.67 425.807 1099.3 424.715C1100.74 423.759 1102.51 423.213 1104.49 423.077L1106.27 417.957C1106.4 417.548 1106.68 417.206 1107.09 417.002C1107.5 416.797 1107.97 416.728 1108.38 416.865L1115.82 419.459C1116.23 419.595 1116.57 419.869 1116.78 420.346C1116.98 420.756 1116.98 421.234 1116.85 421.643L1115.41 425.739C1116.44 426.149 1117.39 426.626 1118.42 427.104C1118.76 427.309 1119.03 427.582 1119.24 427.992C1119.44 428.401 1119.44 428.879 1119.24 429.357L1116.57 435.091C1116.37 435.501 1116.03 435.774 1115.62 435.978C1115.14 436.115 1114.66 436.115 1114.25 435.842C1112.41 434.75 1110.7 433.862 1109.13 433.316C1108.59 433.111 1108.04 432.975 1107.63 433.043C1107.29 433.043 1107.02 433.111 1106.88 433.248C1106.54 433.453 1106.4 433.657 1106.33 433.726C1106.27 433.862 1106.2 433.93 1106.13 433.999C1106.13 434.067 1106.06 434.135 1106.06 434.34C1106.06 434.408 1106.06 434.681 1106.2 435.159C1106.27 435.364 1106.4 435.705 1106.88 436.251C1107.29 436.729 1107.84 437.207 1108.52 437.617C1109.47 438.231 1110.29 439.05 1111.11 439.938C1111.86 440.825 1112.55 441.849 1113.02 443.009C1113.57 444.17 1113.84 445.535 1113.84 447.037C1113.91 448.47 1113.64 449.972 1113.09 451.474C1112.27 453.795 1111.04 455.57 1109.47 456.73C1108.04 457.754 1106.27 458.3 1104.15 458.3L1102.44 463.215C1102.31 463.624 1102.03 463.966 1101.62 464.171C1101.28 463.966 1101.01 464.034 1100.81 464.034ZM1093.91 459.529L1100.53 461.85L1102.38 456.593C1102.51 456.184 1102.92 455.911 1103.4 455.911C1105.38 456.047 1107.02 455.638 1108.18 454.75C1109.41 453.863 1110.36 452.429 1111.04 450.518C1111.45 449.221 1111.73 447.992 1111.66 446.764C1111.66 445.535 1111.39 444.443 1110.98 443.555C1110.57 442.6 1110.02 441.712 1109.34 440.961C1108.72 440.211 1107.97 439.528 1107.22 439.05C1106.4 438.504 1105.72 437.89 1105.17 437.275C1104.63 436.593 1104.29 435.978 1104.08 435.364C1103.95 434.818 1103.88 434.34 1103.88 433.999C1103.88 433.589 1103.95 433.316 1104.01 432.975C1104.15 432.634 1104.29 432.36 1104.56 432.087C1104.76 431.814 1105.11 431.541 1105.45 431.268C1105.93 430.927 1106.54 430.722 1107.36 430.722C1108.04 430.722 1108.86 430.859 1109.61 431.132C1111.18 431.678 1112.96 432.565 1114.73 433.657L1117.05 428.674C1115.96 428.128 1114.8 427.65 1113.64 427.173C1113.16 426.968 1112.89 426.422 1113.02 425.876L1114.66 421.234L1107.97 418.913L1106.06 424.306C1105.93 424.715 1105.52 424.988 1105.11 424.988C1103.19 424.988 1101.62 425.398 1100.33 426.285C1099.03 427.173 1098.07 428.401 1097.46 430.176C1097.05 431.473 1096.85 432.702 1096.85 433.93C1096.91 435.159 1097.12 436.251 1097.53 437.139C1097.94 438.094 1098.48 438.982 1099.17 439.733C1099.78 440.484 1100.53 441.098 1101.28 441.644C1102.17 442.19 1102.85 442.805 1103.33 443.419C1103.88 444.102 1104.22 444.716 1104.42 445.33C1104.56 445.876 1104.63 446.286 1104.63 446.695C1104.63 447.105 1104.56 447.446 1104.49 447.719C1104.42 447.992 1104.22 448.334 1104.01 448.607C1103.81 448.88 1103.47 449.153 1103.13 449.426C1102.65 449.767 1102.03 449.972 1101.21 449.972C1100.53 449.972 1099.71 449.836 1098.89 449.494C1098.21 449.289 1097.46 448.948 1096.71 448.607C1095.96 448.197 1095.34 447.924 1094.87 447.651C1094.53 447.446 1094.18 447.31 1093.91 447.105L1091.59 452.156C1092.55 452.634 1093.64 453.112 1094.87 453.59C1095.34 453.795 1095.62 454.341 1095.48 454.887L1093.91 459.529Z" fill="#202D37"/>
<path d="M366.159 668.138C365.818 668.138 365.408 668.069 365.067 667.864C363.906 667.25 363.429 665.817 364.043 664.656C378.924 635.713 389.641 620.968 396.741 611.139C403.021 602.469 406.502 597.691 407.731 590.182C408.96 583.015 410.325 506.971 410.94 465.809C406.912 465.331 397.765 464.239 388.686 462.874C381.586 461.85 375.852 460.826 371.688 460.007C364.521 458.505 362.268 457.481 361.858 455.365C361.585 454 361.927 452.361 368.548 445.33C372.781 440.893 378.719 435.159 385.409 429.152C401.861 414.408 420.292 399.936 436.06 389.424C437.153 388.673 438.654 389.014 439.405 390.106C440.156 391.199 439.815 392.7 438.723 393.451C405.956 415.295 372.917 446.354 367.32 454C373.19 455.979 394.352 459.119 413.602 461.304C414.831 461.44 415.718 462.464 415.718 463.693C415.65 468.471 414.011 581.445 412.441 590.933C411.008 599.534 407.117 604.927 400.632 613.937C393.601 623.631 383.088 638.239 368.343 666.841C367.797 667.66 366.978 668.138 366.159 668.138Z" fill="#202D37"/>
<path d="M583.098 726.433C582.143 726.433 581.255 725.819 580.846 724.863C555.247 657.83 515.313 620.695 500.295 606.702C495.312 602.06 494.22 601.104 494.22 599.534C493.196 537.757 500.227 469.085 500.295 468.403C500.432 467.379 501.115 466.56 502.139 466.355C512.856 463.829 541.185 454.546 543.574 442.258C544.257 438.777 543.369 436.047 540.775 434.067C533.949 428.606 517.293 429.084 503.64 435.159C502.412 435.705 501.046 435.159 500.5 433.93C499.954 432.702 500.5 431.337 501.729 430.79C517.088 424.032 535.587 423.828 543.779 430.381C547.738 433.521 549.308 437.958 548.284 443.214C546.783 450.859 538.659 457.89 524.051 464.102C515.996 467.515 508.214 469.768 504.869 470.587C503.845 481.373 498.111 542.877 498.998 598.851C499.681 599.671 501.592 601.377 503.572 603.22C518.863 617.419 559.343 655.168 585.351 723.225C585.829 724.453 585.215 725.819 583.986 726.297C583.645 726.433 583.372 726.433 583.098 726.433Z" fill="#202D37"/>
<path d="M505.961 452.361C505.211 452.361 504.391 451.952 503.982 451.269C503.231 450.177 503.572 448.675 504.665 447.992C510.74 444.033 520.911 441.03 524.597 441.508C525.894 441.644 526.85 442.873 526.713 444.17C526.577 445.467 525.348 446.422 524.051 446.286C522.14 446.081 512.993 448.334 507.327 452.02C506.849 452.225 506.439 452.361 505.961 452.361Z" fill="#202D37"/>
<path d="M412.441 355.361C398.652 370.31 399.403 412.087 481.25 404.237C481.25 404.237 472.512 436.934 507.804 436.934C513.197 436.934 533.267 393.178 524.324 387.785C515.382 382.393 505.961 395.158 505.961 395.158C505.961 395.158 446.095 318.773 412.441 355.361Z" fill="#202D37"/>
<path d="M507.736 439.323C496.336 439.323 487.94 436.047 482.957 429.494C477.086 421.848 477.496 411.95 478.247 406.899C427.118 411.131 411.144 395.226 406.161 385.192C400.29 373.314 404.318 360.549 410.666 353.723C417.561 346.282 425.957 342.664 435.65 343.074C465.072 344.234 497.906 381.642 506.03 391.403C509.579 387.581 517.498 380.823 525.553 385.738C529.58 388.127 530.058 394.475 527.055 405.192C525.143 412.087 521.798 420.278 518.18 427.241C511.832 439.323 508.965 439.323 507.736 439.323ZM481.25 401.847C481.933 401.847 482.615 402.12 483.093 402.667C483.571 403.281 483.776 404.1 483.571 404.851C483.571 404.987 480.226 418.026 486.848 426.627C490.875 431.814 497.838 434.477 507.531 434.545C511.286 432.361 523.505 407.923 524.188 394.816C524.324 392.154 523.915 390.311 523.095 389.833C516.133 385.601 508.009 396.455 507.941 396.591C507.531 397.206 506.781 397.547 506.03 397.547C505.279 397.547 504.596 397.206 504.118 396.66C503.709 396.182 466.437 349.081 435.446 347.852C427.049 347.511 420.155 350.514 414.148 356.999C408.96 362.665 405.546 373.246 410.461 383.075C414.352 390.926 426.23 402.871 462 402.871C467.734 402.871 474.014 402.598 480.977 401.916C481.045 401.916 481.182 401.847 481.25 401.847Z" fill="#202D37"/>
<path d="M442.545 472.021C441.385 472.021 440.292 471.133 440.156 469.905C440.019 468.608 440.907 467.379 442.272 467.242C456.949 465.468 458.109 454.341 458.109 450.996C458.109 449.699 459.201 448.607 460.498 448.607C461.795 448.607 462.887 449.699 462.887 450.996C462.887 459.597 457.631 470.246 442.818 472.021C442.75 472.021 442.613 472.021 442.545 472.021Z" fill="#202D37"/>
<path d="M436.401 571C426.23 571 418.516 568.202 410.12 563.355C408.96 562.673 408.55 561.239 409.233 560.079C409.915 558.918 411.349 558.509 412.509 559.191C430.667 569.567 445.275 569.704 496.404 549.908C497.633 549.43 498.998 550.044 499.476 551.273C499.954 552.502 499.34 553.867 498.111 554.345C467.939 566.086 449.917 571 436.401 571Z" fill="#202D37"/>
<path d="M433.33 608.067C424.387 608.067 416.878 606.77 411.827 604.108C410.666 603.493 410.188 602.06 410.803 600.899C411.417 599.739 412.851 599.261 414.011 599.875C421.179 603.562 434.831 604.312 450.532 601.855C467.12 599.261 483.435 593.459 495.312 586.018C496.405 585.336 497.906 585.677 498.589 586.769C499.272 587.861 498.93 589.363 497.838 590.046C485.414 597.828 468.485 603.835 451.283 606.565C444.866 607.589 438.791 608.067 433.33 608.067Z" fill="#202D37"/>
<path d="M437.357 607.93C436.06 607.93 435.036 606.907 434.968 605.61C434.695 597.213 434.285 587.861 433.807 578.441C433.739 577.144 434.763 575.984 436.06 575.916C437.357 575.847 438.518 576.871 438.586 578.168C439.064 587.588 439.473 597.009 439.746 605.405C439.815 606.702 438.791 607.862 437.425 607.862C437.357 607.93 437.357 607.93 437.357 607.93Z" fill="#202D37"/>
<path d="M453.126 599.193C451.897 599.193 450.805 598.237 450.737 596.94C450.737 596.804 449.986 586.018 449.303 576.735C449.235 575.438 450.191 574.277 451.488 574.141C452.785 574.004 453.945 575.028 454.082 576.325C454.764 585.609 455.515 596.462 455.515 596.531C455.583 597.828 454.628 598.988 453.262 599.056C453.262 599.193 453.194 599.193 453.126 599.193Z" fill="#202D37"/>
<path d="M472.991 590.455C471.967 590.455 471.079 589.841 470.738 588.817C470.601 588.476 470.601 588.203 470.601 587.861C470.533 586.36 469.919 575.165 469.031 561.649C468.963 560.352 469.919 559.191 471.284 559.123C472.581 559.055 473.741 560.01 473.81 561.376C474.219 567.997 474.629 574.755 474.97 579.875C475.107 582.332 475.243 584.38 475.311 585.745C475.448 588.476 475.516 590.046 473.468 590.455C473.264 590.387 473.127 590.455 472.991 590.455Z" fill="#202D37"/>
<path d="M486.165 587.793C484.8 587.793 483.776 586.701 483.776 585.404C483.776 585.336 483.844 575.574 483.776 566.359C483.776 565.062 484.8 563.97 486.165 563.97C487.462 563.97 488.554 564.994 488.554 566.359C488.623 575.574 488.554 585.404 488.554 585.472C488.554 586.701 487.462 587.793 486.165 587.793Z" fill="#202D37"/>
<path d="M321.788 606.292C321.719 606.292 321.583 606.292 321.515 606.292C320.218 606.156 319.262 604.927 319.467 603.63C323.085 575.165 308.203 541.853 295.848 530.521C292.366 527.313 289.09 525.811 286.632 526.357C276.12 528.61 257.211 540.215 253.456 548.065C252.842 549.362 252.706 550.317 253.115 551.068C255.573 555.847 272.16 555.642 283.219 553.935C284.106 553.799 284.994 554.208 285.54 554.959C286.018 555.71 286.086 556.666 285.677 557.417C284.516 560.215 281.649 587.52 289.158 595.165C290.114 596.121 290.045 597.623 289.09 598.51C288.134 599.466 286.632 599.398 285.745 598.442C278.031 590.524 278.85 568.475 280.42 559.055C271.819 560.079 253.047 561.239 248.883 553.184C248.132 551.751 247.586 549.293 249.156 545.949C253.934 535.914 274.959 523.832 285.608 521.579C289.704 520.692 294.346 522.535 299.056 526.903C313.869 540.556 327.795 575.642 324.177 604.108C324.04 605.405 323.016 606.292 321.788 606.292Z" fill="#202D37"/>
<path d="M392.918 789.849C392.372 789.849 391.894 789.644 391.416 789.303C387.594 786.231 383.02 775.65 384.454 765.889C385.136 761.315 383.361 760.086 380.904 758.38C377.081 755.718 374.009 752.646 377.969 744.386C382.815 734.147 375.784 728.891 367.524 724.795C363.429 722.747 360.971 714.351 356.193 697.081C353.257 686.5 349.981 674.554 345.544 662.54C337.284 640.287 326.02 617.419 321.652 608.681C314.143 619.467 303.494 627.863 291.411 632.436C279.329 637.01 266.632 637.42 257.484 633.529C256.256 632.982 255.71 631.617 256.256 630.389C256.802 629.16 258.167 628.614 259.396 629.16C276.12 636.259 305.132 627.18 319.945 602.742C320.423 601.992 321.242 601.582 322.061 601.582C322.949 601.582 323.699 602.128 324.109 602.879C324.246 603.152 339.605 632.573 350.117 660.902C354.623 673.121 358.104 685.681 360.903 695.852C363.975 706.91 367.388 719.402 369.777 720.563C374.76 723.088 389.983 730.665 382.406 746.502C379.88 751.827 381.04 752.578 383.771 754.489C386.433 756.332 390.461 759.131 389.368 766.639C388.14 774.694 392.099 783.637 394.625 785.616C395.649 786.435 395.853 787.937 394.966 788.961C394.352 789.507 393.669 789.849 392.918 789.849Z" fill="#202D37"/>
<path d="M272.912 734.215C271.683 734.215 270.591 733.259 270.523 731.962C270.523 731.757 269.294 711.279 266.7 695.92C264.993 685.885 267.724 677.148 274.687 670.049C274.96 667.182 274.687 653.598 270.454 634.279C270.181 632.982 271 631.685 272.297 631.412C273.594 631.139 274.891 631.958 275.164 633.255C277.69 644.928 278.782 654.212 279.192 660.014C280.011 670.8 279.124 672.097 278.851 672.506C278.646 672.779 278.441 672.984 278.1 673.393C272.229 679.332 269.976 686.636 271.41 695.101C274.004 710.733 275.233 731.416 275.301 731.621C275.369 732.918 274.345 734.078 273.048 734.147C273.048 734.215 272.98 734.215 272.912 734.215Z" fill="#202D37"/>
<path d="M283.014 675.441C279.806 675.441 277.417 674.417 275.574 673.12C274.481 672.37 274.208 670.868 274.959 669.776C275.71 668.684 277.212 668.41 278.304 669.161C286.701 674.895 306.156 662.13 334.485 632.095C335.372 631.139 336.874 631.071 337.83 632.027C338.785 632.914 338.853 634.416 337.898 635.372C307.521 667.591 291.889 675.441 283.014 675.441Z" fill="#202D37"/>
<path d="M319.467 652.847C318.443 652.847 317.487 652.164 317.214 651.208C317.214 651.072 313.801 640.423 311.412 633.119C311.002 631.89 311.685 630.525 312.914 630.115C314.143 629.706 315.508 630.388 315.917 631.617C318.307 638.853 321.652 649.638 321.72 649.707C322.129 650.935 321.447 652.301 320.15 652.71C319.945 652.847 319.74 652.847 319.467 652.847Z" fill="#202D37"/>
<path d="M308.681 662.267C307.658 662.267 306.634 661.584 306.361 660.492C306.292 660.355 301.992 644.177 298.306 635.576C297.759 634.348 298.374 632.982 299.603 632.436C300.831 631.89 302.196 632.505 302.743 633.733C306.497 642.676 310.798 658.649 311.002 659.263C311.344 660.56 310.593 661.857 309.296 662.199C309.091 662.267 308.886 662.267 308.681 662.267Z" fill="#202D37"/>
<path d="M291.684 662.267C290.66 662.267 289.704 661.584 289.363 660.492C289.226 660.014 285.881 648.137 284.516 639.604C284.311 638.307 285.199 637.078 286.496 636.873C287.793 636.669 289.022 637.556 289.226 638.853C290.523 647.181 293.937 659.127 293.937 659.195C294.278 660.492 293.527 661.789 292.298 662.13C292.093 662.267 291.889 662.267 291.684 662.267Z" fill="#202D37"/>
<path d="M617.571 833.4C606.718 833.4 599.55 831.01 594.294 825.686C578.798 809.986 579.754 768.141 582.416 656.26C583.099 626.225 583.918 592.094 584.6 552.024C585.146 517.415 584.191 465.945 583.235 411.404C581.187 298.567 579.003 181.839 588.696 165.32C599.413 146.957 627.47 147.571 689.111 148.8C712.525 149.278 741.605 149.892 776.146 149.483C800.994 149.21 822.36 148.459 841.201 147.845C913.901 145.319 944.005 144.295 947.35 180.883C951.309 223.752 944.961 534.071 944.688 547.245C944.688 548.542 943.595 549.566 942.298 549.566C942.298 549.566 942.298 549.566 942.23 549.566C940.933 549.566 939.841 548.474 939.909 547.109C939.978 543.901 946.463 223.82 942.572 181.293C939.636 149.21 912.877 150.097 841.338 152.555C822.497 153.237 801.062 153.92 776.215 154.193C741.605 154.602 712.457 153.988 689.043 153.51C631.224 152.35 602.144 151.735 592.86 167.641C588.969 174.33 586.785 203.342 586.375 253.992C586.034 299.591 587.058 356.317 588.082 411.268C589.106 465.809 589.993 517.347 589.447 552.024C588.833 592.162 588.014 626.225 587.263 656.328C584.737 763.568 583.713 807.938 597.775 822.273C602.212 826.778 608.356 828.621 618.391 828.553C670.68 828.007 895.675 823.979 897.928 823.979C897.928 823.979 897.928 823.979 897.996 823.979C899.293 823.979 900.385 825.003 900.385 826.3C900.385 827.597 899.361 828.69 898.064 828.758C895.811 828.826 670.748 832.785 618.459 833.331C618.117 833.4 617.844 833.4 617.571 833.4Z" fill="#202D37"/>
<path d="M689.384 768.141C657.983 768.141 631.088 767.595 621.053 765.889C598.663 762.066 601.12 716.603 604.601 653.666C606.103 626.907 607.742 596.531 607.537 566.359C607.4 546.085 606.922 519.122 606.445 490.52C604.055 347.033 602.895 226.96 612.179 211.67C622.691 194.331 656.823 195.423 708.429 197.13C725.29 197.676 744.336 198.29 764.678 198.29C784.133 198.29 803.315 197.403 821.883 196.515C850.758 195.15 875.674 193.99 894.446 196.515C908.167 198.358 926.462 202.864 927.554 220.68C929.67 255.63 927.622 552.365 927.554 555.369C927.554 556.666 926.462 557.758 925.165 557.758C923.868 557.758 922.775 556.666 922.775 555.369C922.775 552.365 924.891 255.767 922.775 221.021C921.274 196.72 877.517 198.768 822.087 201.362C803.52 202.249 784.27 203.137 764.678 203.137C744.268 203.137 725.154 202.522 708.293 201.976C660.099 200.406 625.353 199.314 616.274 214.195C606.922 229.554 609.516 386.557 611.223 490.451C611.701 520.282 612.11 546.017 612.315 566.291C612.52 596.599 610.882 627.044 609.38 653.871C606.308 709.777 603.646 757.97 621.872 761.11C650.815 766.025 829.733 761.11 831.576 761.11C832.873 761.11 833.965 762.134 834.033 763.431C834.102 764.728 833.009 765.82 831.712 765.889C826.798 766.025 749.797 768.141 689.384 768.141Z" fill="#202D37"/>
<path d="M724.266 344.234C723.925 344.234 723.584 344.166 723.242 343.961C722.082 343.347 721.536 341.981 722.15 340.753C727.748 329.285 734.574 321.366 751.025 317.271C766.385 313.516 790.345 312.834 833.76 315.018C835.057 315.086 836.081 316.178 836.013 317.544C835.945 318.841 834.784 319.865 833.487 319.796C790.55 317.612 766.999 318.226 752.118 321.912C737.373 325.53 731.502 332.357 726.382 342.801C725.973 343.688 725.154 344.234 724.266 344.234Z" fill="#202D37"/>
<path d="M827.958 304.301C827.958 318.568 827.617 334.814 832.19 333.722C836.764 332.63 858.608 319.796 858.745 316.179C858.949 312.629 828.026 296.656 827.958 304.301Z" fill="#202D37"/>
<path d="M831.781 336.179C830.893 336.179 830.006 335.906 829.323 335.292C825.774 332.493 825.569 322.732 825.637 307.031V304.301C825.637 302.663 826.388 301.297 827.753 300.547C833.282 297.475 849.12 305.803 854.171 309.011C860.11 312.697 861.27 314.609 861.134 316.315C861.066 317.544 860.929 320.069 848.369 327.92C842.771 331.469 835.603 335.36 832.736 336.043C832.463 336.111 832.122 336.179 831.781 336.179ZM830.347 304.642V307.031C830.347 315.155 830.279 328.602 832.054 331.333C836.9 329.831 853.215 319.865 856.082 316.315C854.649 314.882 850.075 311.81 843.795 308.874C836.081 305.188 831.712 304.437 830.347 304.642Z" fill="#202D37"/>
<path d="M745.701 436.115C734.233 436.115 720.649 435.705 704.266 434.886C702.969 434.818 701.945 433.726 702.013 432.361C702.081 431.064 703.173 430.04 704.539 430.108C747.476 432.292 771.027 431.678 785.908 427.992C800.653 424.374 806.524 417.548 811.643 407.104C812.258 405.943 813.623 405.397 814.852 406.012C816.012 406.626 816.558 407.991 815.944 409.22C810.346 420.688 803.52 428.606 787.069 432.702C777.444 434.955 764.542 436.115 745.701 436.115Z" fill="#202D37"/>
<path d="M710 445.604C710 431.337 710.341 415.09 705.767 416.183C701.194 417.275 679.349 430.108 679.213 433.726C679.008 437.344 710 453.317 710 445.604Z" fill="#202D37"/>
<path d="M707.133 450.041C700.238 450.041 688.156 443.624 683.787 440.962C677.848 437.275 676.687 435.364 676.824 433.658C676.892 432.429 677.029 429.903 689.589 422.053C695.187 418.503 702.354 414.613 705.221 413.93C706.45 413.657 707.679 413.93 708.703 414.681C712.252 417.48 712.457 427.241 712.389 442.941V445.672C712.389 447.31 711.638 448.675 710.273 449.426C709.385 449.836 708.361 450.041 707.133 450.041ZM681.875 433.658C683.309 435.091 687.882 438.163 694.163 441.098C701.876 444.716 706.245 445.467 707.61 445.262V442.873C707.61 434.75 707.679 421.302 705.904 418.572C701.125 420.142 684.811 430.04 681.875 433.658Z" fill="#202D37"/>
<path d="M198.71 530.999C197.891 530.999 197.071 530.59 196.662 529.839C195.979 528.678 196.389 527.245 197.549 526.562C197.822 526.426 225.537 510.247 236.254 498.165C237.142 497.141 238.644 497.073 239.599 497.96C240.623 498.848 240.691 500.349 239.804 501.305C228.609 514.002 201.099 530.043 199.938 530.726C199.529 530.931 199.119 530.999 198.71 530.999Z" fill="#202D37"/>
<path d="M213.864 548.065C213.25 548.065 212.636 547.86 212.158 547.382C211.202 546.426 211.202 544.925 212.158 544.037C221.988 534.207 239.122 522.398 239.872 521.92C240.965 521.169 242.466 521.442 243.217 522.535C243.968 523.627 243.695 525.129 242.603 525.879C242.398 526.016 225.128 537.894 215.571 547.45C215.093 547.792 214.479 548.065 213.864 548.065Z" fill="#202D37"/>
<path d="M224.377 571.001C223.558 571.001 222.807 570.591 222.329 569.84C221.646 568.68 221.987 567.246 223.148 566.564C232.363 561.034 239.122 550.932 239.19 550.795C239.941 549.703 241.374 549.43 242.535 550.112C243.627 550.863 243.9 552.297 243.217 553.389C242.944 553.867 235.777 564.516 225.605 570.591C225.264 570.864 224.855 571.001 224.377 571.001Z" fill="#202D37"/>
<path d="M663.649 643.427C663.035 643.427 662.489 643.427 662.079 643.427C656.755 643.29 652.659 635.918 649.86 621.446C646.72 605.2 644.74 571.615 654.297 567.451C663.581 563.424 710.068 563.219 754.985 563.014C772.665 562.946 789.39 562.877 803.179 562.604C811.029 562.4 818.333 562.195 824.75 561.99C857.858 560.966 874.514 560.42 883.047 569.567C890.214 577.281 890.419 591.001 888.166 613.664C888.03 614.961 886.869 615.917 885.572 615.78C884.275 615.644 883.32 614.484 883.456 613.187C885.504 592.435 885.504 579.124 879.633 572.844C872.602 565.267 855.673 565.813 824.955 566.768C818.538 566.973 811.166 567.178 803.315 567.383C789.526 567.656 772.734 567.724 755.053 567.792C712.73 567.997 664.673 568.134 656.277 571.82C655.048 572.366 652.659 576.598 652.181 589.022C651.772 598.851 652.659 610.661 654.639 620.559C657.164 633.733 660.646 638.58 662.284 638.648C666.243 638.785 682.558 638.239 703.174 637.624C742.698 636.396 802.496 634.553 826.525 635.508C827.822 635.576 828.846 636.669 828.846 637.966C828.777 639.263 827.685 640.287 826.388 640.287C802.496 639.331 742.834 641.174 703.378 642.403C683.855 642.949 669.315 643.427 663.649 643.427Z" fill="#202D37"/>
<path d="M713.003 642.061C711.706 642.061 710.614 641.037 710.614 639.672C710.614 639.194 710 588.612 709.18 565.813C709.112 564.516 710.136 563.355 711.501 563.355C712.798 563.355 713.959 564.311 713.959 565.676C714.778 588.544 715.392 639.194 715.392 639.672C715.392 640.969 714.368 642.061 713.003 642.061Z" fill="#202D37"/>
<path d="M771.914 640.423C770.617 640.423 769.525 639.399 769.525 638.034C769.525 637.556 768.91 587.793 768.091 565.335C768.023 564.038 769.047 562.877 770.412 562.877C771.777 562.877 772.87 563.833 772.87 565.198C773.689 587.657 774.303 637.488 774.303 637.966C774.303 639.331 773.279 640.423 771.914 640.423Z" fill="#202D37"/>
<path d="M830.825 620.764C829.528 620.764 828.436 619.74 828.436 618.443L827.412 564.311C827.412 563.014 828.436 561.922 829.733 561.854C829.733 561.854 829.733 561.854 829.801 561.854C831.098 561.854 832.191 562.877 832.191 564.174L833.214 618.306C833.283 619.671 832.191 620.764 830.825 620.764Z" fill="#202D37"/>
<path d="M863.66 664.247C863.523 664.247 863.318 664.247 863.182 664.178C842.225 659.673 831.303 654.553 826.661 646.908C823.521 641.857 823.18 635.781 825.432 627.18C828.504 615.712 834.511 601.104 845.979 596.326C852.874 593.459 860.792 594.551 869.394 599.602C878.814 605.063 888.507 612.367 893.49 616.258C894.514 617.078 894.719 618.579 893.9 619.603C893.081 620.627 891.579 620.832 890.555 620.013C885.708 616.19 876.22 609.023 867.004 603.698C859.7 599.466 853.284 598.442 847.754 600.695C838.061 604.722 832.736 617.965 829.938 628.341C828.026 635.576 828.231 640.491 830.62 644.314C834.511 650.594 844.819 655.236 864.069 659.4C865.366 659.673 866.185 660.97 865.912 662.267C865.776 663.496 864.752 664.247 863.66 664.247Z" fill="#202D37"/>
<path d="M1032.61 847.12C1028.24 847.12 1023.8 847.052 1019.3 846.915C965.098 845.414 921.956 831.966 890.965 806.846C861.27 782.749 853.01 755.717 851.235 748.004C850.962 746.707 851.713 745.41 853.01 745.137C854.307 744.864 855.604 745.615 855.877 746.912C857.584 754.284 865.434 780.019 893.968 803.16C924.072 827.529 966.259 840.635 1019.37 842.137C1078.21 843.775 1128.86 834.014 1165.93 813.945C1201.08 794.9 1224.09 766.708 1232.62 732.235C1241.15 697.627 1228.25 651.345 1199.65 614.347C1179.58 588.407 1134.32 544.72 1056.23 543.627C1003.74 542.945 957.316 560.01 918.338 594.346C889.599 619.671 870.759 650.048 863.318 668.342C862.84 669.571 861.407 670.185 860.178 669.639C858.949 669.161 858.335 667.728 858.881 666.499C866.526 647.727 885.845 616.6 915.198 590.728C933.151 574.891 953.016 562.468 974.314 553.798C999.708 543.423 1027.29 538.371 1056.3 538.781C1136.37 539.873 1182.86 584.721 1203.4 611.343C1232.83 649.434 1246.14 697.353 1237.26 733.328C1228.46 769.097 1204.56 798.381 1168.25 818.041C1132.82 837.359 1087.22 847.12 1032.61 847.12Z" fill="#202D37"/>
<path d="M1078.55 561.239C1059.51 559.464 1036.09 559.806 1016.36 562.331C1014.86 562.536 1013.43 562.741 1011.99 562.946C1001.28 547.245 1003.26 525.265 1018.96 511.476C1021.07 509.633 1023.33 507.995 1025.72 506.698C1047.76 494.547 1078.76 505.879 1084.56 534.89C1086.54 544.993 1083.88 554.003 1078.55 561.239Z" fill="#FAD932"/>
<path d="M1272.01 708.139C1268.8 708.139 1265.59 707.32 1262.38 705.682C1259.79 704.385 1257.61 702.746 1255.76 700.903C1248.94 702.951 1241.29 701.995 1235.56 697.968C1234.46 697.217 1234.19 695.715 1235.01 694.623C1235.76 693.531 1237.26 693.258 1238.36 694.077C1242.38 696.944 1247.64 697.831 1252.62 696.807C1249.76 691.961 1248.8 686.022 1250.16 679.605C1251.94 671.004 1257.26 664.315 1262.52 664.042C1264.57 663.905 1268.25 664.656 1270.3 670.936C1273.85 681.517 1271.19 691.346 1263.27 697.285C1262.45 697.9 1261.56 698.446 1260.61 698.992C1261.7 699.879 1263.07 700.767 1264.57 701.518C1270.58 704.589 1276.45 703.975 1281.98 699.743C1285.53 697.08 1288.53 693.121 1290.78 688.821C1284.23 683.633 1282.45 672.711 1285.39 666.499C1287.1 662.813 1290.37 661.243 1294.13 662.13C1297.06 662.881 1299.11 665.27 1299.86 668.957C1300.82 673.53 1299.79 680.083 1297.13 686.568C1301.36 687.387 1306.75 684.93 1312.83 679.401C1313.79 678.513 1315.29 678.581 1316.18 679.537C1317.06 680.493 1316.99 681.995 1316.04 682.882C1306.55 691.551 1299.59 692.234 1295.08 690.937C1292.49 695.784 1289.01 700.289 1284.91 703.497C1280.75 706.569 1276.38 708.139 1272.01 708.139ZM1262.79 668.752H1262.73C1260.4 668.888 1256.24 673.462 1254.74 680.561C1254.12 683.633 1253.51 689.776 1257.2 695.237C1258.29 694.691 1259.38 694.077 1260.34 693.326C1266.62 688.616 1268.6 680.971 1265.73 672.37C1265.25 671.004 1264.3 668.752 1262.79 668.752ZM1292.01 666.567C1291.19 666.567 1290.37 666.977 1289.62 668.479C1287.71 672.574 1288.87 680.288 1292.83 684.247C1294.95 678.923 1295.83 673.598 1295.08 669.912C1294.67 668.069 1293.92 666.977 1292.83 666.704C1292.62 666.636 1292.28 666.567 1292.01 666.567Z" fill="#202D37"/>
<path d="M977.59 878.111C972.812 878.111 968.716 877.838 965.986 877.292C951.923 874.425 945.097 861.865 941.752 832.717C941.616 831.42 942.571 830.192 943.868 830.055C945.165 829.918 946.394 830.874 946.531 832.171C950.08 862.957 957.248 870.603 966.941 872.582C972.812 873.811 986.191 873.538 998.069 871.9C1013.63 869.783 1020.05 866.439 1020.6 864.664C1022.92 856.95 1020.6 845.141 1020.53 845.073C1020.25 843.776 1021.07 842.547 1022.37 842.274C1023.67 842.001 1024.9 842.82 1025.17 844.117C1025.31 844.663 1027.83 857.223 1025.1 866.097C1023.6 870.944 1014.73 874.494 998.615 876.678C991.584 877.634 984.007 878.111 977.59 878.111Z" fill="#202D37"/>
<path d="M1163.68 855.107C1149.89 855.107 1139.51 846.779 1133.3 830.533C1132.82 829.304 1133.43 827.939 1134.66 827.461C1135.89 826.983 1137.26 827.598 1137.74 828.826C1144.49 846.438 1156.17 853.264 1172.55 849.1C1183.74 846.233 1190.23 842.274 1193.57 836.13C1197.88 828.212 1197.19 815.993 1191.46 798.859C1191.05 797.63 1191.73 796.265 1192.96 795.856C1194.19 795.446 1195.55 796.129 1195.96 797.357C1202.24 816.129 1202.79 829.168 1197.74 838.451C1193.71 845.892 1186.27 850.602 1173.71 853.81C1170.23 854.698 1166.82 855.107 1163.68 855.107Z" fill="#202D37"/>
<path d="M1010.77 657.83C1009.74 657.83 1008.79 657.147 1008.51 656.123C1008.1 654.895 1008.86 653.529 1010.08 653.12C1024.21 648.751 1033.63 649.024 1033.98 649.024C1035.27 649.092 1036.3 650.185 1036.3 651.482C1036.23 652.779 1035.14 653.802 1033.84 653.802C1033.77 653.802 1024.83 653.598 1011.45 657.693C1011.24 657.83 1010.97 657.83 1010.77 657.83Z" fill="#202D37"/>
<path d="M929.806 584.448C929.67 584.448 929.533 584.448 929.397 584.448C928.1 584.243 927.212 583.015 927.417 581.718C929.533 568.884 929.26 564.243 929.26 564.174C929.192 562.877 930.216 561.717 931.513 561.649C932.81 561.58 933.97 562.604 934.039 563.901C934.039 564.106 934.312 569.158 932.127 582.537C931.991 583.629 930.967 584.448 929.806 584.448Z" fill="#202D37"/>
<path d="M907.962 603.288C906.802 603.288 905.778 602.401 905.573 601.241C902.16 577.417 920.181 547.996 939.909 545.129C944.21 544.515 947.623 545.471 950.149 548.133C956.019 554.345 953.562 567.11 953.289 568.543C953.016 569.84 951.787 570.659 950.49 570.386C949.193 570.113 948.374 568.884 948.647 567.587C949.33 564.379 950.217 555.096 946.736 551.409C945.37 549.976 943.391 549.498 940.728 549.908C923.526 552.433 907.416 579.465 910.42 600.626C910.624 601.923 909.669 603.152 908.372 603.357C908.167 603.288 908.099 603.288 907.962 603.288Z" fill="#202D37"/>
<path d="M1010.77 675.987C1009.54 675.987 1008.45 675.032 1008.38 673.735C1008.31 672.438 1009.26 671.277 1010.56 671.209C1022.1 670.39 1052 665.612 1052.27 653.393C1052.41 647.386 1047.7 641.174 1040.05 637.215C1030.97 632.505 1015.68 630.388 1002.44 640.013C1001.35 640.764 999.844 640.559 999.093 639.467C998.342 638.375 998.547 636.873 999.639 636.122C1014.66 625.2 1032 627.59 1042.24 632.982C1051.52 637.829 1057.19 645.679 1056.98 653.529C1056.84 661.789 1048.79 668.137 1033.09 672.301C1022.03 675.237 1011.24 675.987 1010.83 676.056C1010.83 675.987 1010.83 675.987 1010.77 675.987Z" fill="#202D37"/>
<path d="M1110.57 571.342C1110.09 571.342 1109.68 571.205 1109.27 570.932C1105.17 568.202 1097.26 566.017 1086.47 564.516C1083.88 564.174 1081.15 563.833 1078.41 563.56C1071.59 562.946 1064.22 562.536 1056.5 562.468C1053.5 562.468 1050.36 562.468 1047.29 562.536C1036.57 562.741 1025.99 563.492 1016.71 564.72C1015.2 564.925 1013.77 565.13 1012.34 565.335C1007.15 566.154 1002.44 567.041 998.411 568.065C997.114 568.407 995.817 567.587 995.544 566.359C995.202 565.062 996.022 563.765 997.25 563.492C1001.48 562.468 1006.33 561.512 1011.65 560.693C1013.09 560.488 1014.59 560.283 1016.09 560.079C1025.58 558.85 1036.36 558.099 1047.22 557.894C1050.36 557.826 1053.5 557.826 1056.57 557.826C1064.42 557.894 1071.93 558.304 1078.89 558.918C1081.76 559.191 1084.56 559.532 1087.15 559.874C1098.83 561.512 1107.22 563.901 1111.93 567.041C1113.02 567.792 1113.37 569.226 1112.61 570.318C1112.07 571 1111.32 571.342 1110.57 571.342Z" fill="#202D37"/>
<path d="M869.53 751.758C858.949 751.758 847.549 748.823 836.627 743.089C822.019 735.444 813.896 720.358 815.875 704.658C818.265 686.09 833.624 671.687 857.106 666.226C870.827 663.018 884.207 666.772 894.787 676.807C906.802 688.206 912.741 705.682 909.874 721.314C907.757 732.918 900.863 742.134 890.282 747.253C884.207 750.257 877.039 751.758 869.53 751.758ZM858.199 670.868C836.764 675.919 822.702 688.753 820.586 705.272C818.879 718.924 825.978 732.099 838.812 738.857C856.219 748.004 874.718 749.574 888.234 742.953C897.518 738.447 903.32 730.665 905.163 720.494C907.689 706.364 902.365 690.596 891.443 680.288C882.159 671.346 870.349 668.069 858.199 670.868Z" fill="#202D37"/>
<path d="M872.67 735.307C871.441 735.307 870.281 735.103 869.12 734.625C863.933 732.509 861.953 726.638 863.796 718.924C866.185 708.958 874.035 698.719 882.637 699.401C885.777 699.675 888.098 701.518 889.19 704.658C891.715 711.825 887.551 725.136 880.793 731.621C878.268 734.01 875.469 735.307 872.67 735.307ZM881.817 704.112C876.288 704.112 870.281 712.303 868.438 720.017C867.96 721.996 866.731 728.481 870.895 730.188C873.011 731.075 875.196 730.324 877.585 728.14C882.91 723.088 886.664 711.62 884.753 706.228C884.138 704.521 883.183 704.18 882.295 704.112C882.159 704.112 881.954 704.112 881.817 704.112Z" fill="#202D37"/>
<path d="M842.908 719.675C841.952 719.675 840.996 719.47 840.041 719.061C835.877 717.218 834.375 712.098 836.15 705.408C838.129 697.831 843.727 690.049 850.212 690.664C852.738 690.869 854.581 692.439 855.468 695.101C857.448 701.04 854.035 712.439 848.71 717.218C846.867 718.856 844.887 719.675 842.908 719.675ZM849.461 695.374C846.389 695.374 842.225 700.63 840.723 706.569C839.904 709.709 839.768 713.668 841.952 714.692C842.362 714.897 843.522 715.375 845.433 713.668C849.529 709.914 852.123 700.425 850.826 696.603C850.417 695.442 849.939 695.442 849.666 695.374C849.666 695.374 849.598 695.374 849.461 695.374Z" fill="#202D37"/>
<path d="M1057.59 547.45C1057.32 546.017 1056.78 544.72 1056.09 543.559C1055.34 542.399 1054.52 541.512 1053.57 540.829C1052.61 540.146 1051.59 539.668 1050.56 539.259C1049.54 538.918 1048.52 538.713 1047.49 538.645C1046.6 538.645 1045.79 538.508 1045.1 538.235C1044.42 538.03 1043.94 537.689 1043.6 537.416C1043.26 537.075 1043.05 536.801 1042.92 536.597C1042.78 536.392 1042.71 536.119 1042.64 535.982C1042.58 535.778 1042.58 535.504 1042.64 535.3C1042.71 535.027 1042.78 534.754 1042.92 534.412C1043.05 534.071 1043.4 533.73 1043.87 533.388C1044.35 533.047 1044.97 532.842 1045.72 532.706C1047.42 532.364 1049.47 532.228 1051.66 532.228C1051.86 532.228 1052 532.16 1052.13 532.023C1052.27 531.887 1052.34 531.682 1052.27 531.545L1051.59 525.197C1051.59 524.992 1051.52 524.856 1051.38 524.787C1051.25 524.719 1051.11 524.651 1050.97 524.651C1049.61 524.787 1048.24 524.924 1046.81 525.197L1045.72 520.009C1045.72 519.872 1045.58 519.736 1045.44 519.599C1045.31 519.463 1045.1 519.463 1044.97 519.463L1037.25 521.033C1037.12 521.101 1036.98 521.169 1036.84 521.306C1036.77 521.442 1036.71 521.647 1036.77 521.784L1038 527.791C1036.16 528.883 1034.93 530.18 1034.18 531.818C1033.43 533.388 1033.29 535.231 1033.7 537.279C1033.98 538.713 1034.52 540.01 1035.27 541.17C1036.02 542.331 1036.84 543.218 1037.8 543.901C1038.75 544.583 1039.71 545.061 1040.73 545.471C1041.76 545.88 1042.78 546.017 1043.81 546.085C1044.69 546.153 1045.51 546.222 1046.19 546.495C1046.88 546.699 1047.36 547.041 1047.7 547.314C1048.04 547.655 1048.24 547.928 1048.38 548.201C1048.52 548.406 1048.58 548.679 1048.65 548.884C1048.72 549.089 1048.72 549.293 1048.65 549.566C1048.58 549.84 1048.52 550.113 1048.38 550.454C1048.24 550.795 1047.9 551.136 1047.42 551.41C1046.95 551.751 1046.33 551.956 1045.58 552.092C1044.9 552.229 1044.15 552.365 1043.33 552.433C1042.51 552.502 1041.83 552.57 1041.35 552.57C1040.8 552.57 1040.32 552.57 1039.85 552.57C1039.64 552.57 1039.5 552.638 1039.37 552.775C1039.23 552.911 1039.16 553.048 1039.23 553.253L1039.91 559.601C1039.98 559.737 1040.05 559.874 1040.19 560.011C1040.32 560.147 1040.46 560.147 1040.6 560.147C1041.83 560.079 1043.12 559.874 1044.56 559.669L1044.69 560.215C1047.76 560.147 1050.9 560.147 1053.98 560.147L1053.36 557.144C1055.34 556.12 1056.64 554.754 1057.32 553.184C1057.94 551.614 1058.07 549.703 1057.59 547.45Z" fill="#202D37"/>
<path d="M1044.62 561.171C1044.28 561.171 1043.94 560.966 1043.81 560.693C1042.65 560.83 1041.62 560.966 1040.67 561.034C1040.19 561.034 1039.85 560.898 1039.5 560.625C1039.23 560.42 1039.03 560.079 1038.89 559.669C1038.89 559.601 1038.89 559.601 1038.89 559.533L1038.21 553.184C1038.14 552.638 1038.34 552.229 1038.62 551.887C1038.89 551.546 1039.37 551.341 1039.91 551.341C1040.39 551.341 1040.87 551.341 1041.35 551.341C1041.89 551.341 1042.58 551.273 1043.33 551.205C1044.08 551.136 1044.83 551.068 1045.44 550.932C1046.06 550.795 1046.54 550.659 1046.95 550.386C1047.36 550.112 1047.49 549.908 1047.49 549.839C1047.56 549.566 1047.7 549.362 1047.7 549.157C1047.7 548.952 1047.7 548.884 1047.7 548.815C1047.7 548.747 1047.63 548.679 1047.56 548.474C1047.49 548.338 1047.29 548.065 1047.01 547.792C1046.88 547.655 1046.54 547.45 1045.92 547.177C1045.38 546.972 1044.69 546.836 1043.81 546.836C1042.65 546.836 1041.55 546.563 1040.39 546.153C1039.3 545.744 1038.21 545.198 1037.18 544.447C1036.09 543.696 1035.2 542.672 1034.39 541.443C1033.57 540.214 1033.02 538.781 1032.68 537.211C1032.2 534.958 1032.41 532.91 1033.22 531.136C1033.98 529.566 1035.2 528.2 1036.84 527.04L1035.75 521.784C1035.68 521.374 1035.75 520.965 1035.96 520.555C1036.16 520.145 1036.57 519.872 1036.98 519.804L1044.69 518.234C1045.17 518.166 1045.58 518.234 1045.99 518.507C1046.33 518.712 1046.6 519.122 1046.67 519.531L1047.56 523.763C1048.65 523.627 1049.74 523.49 1050.77 523.354C1051.18 523.354 1051.52 523.422 1051.86 523.695C1052.27 523.968 1052.47 524.378 1052.54 524.856L1053.23 531.136C1053.23 531.613 1053.09 532.023 1052.82 532.364C1052.47 532.774 1052 532.979 1051.52 532.91C1049.33 532.91 1047.42 533.047 1045.79 533.388C1045.17 533.525 1044.69 533.661 1044.35 533.866C1043.94 534.139 1043.81 534.344 1043.81 534.412C1043.67 534.754 1043.6 534.958 1043.6 535.095C1043.6 535.231 1043.6 535.368 1043.6 535.436C1043.6 535.504 1043.67 535.573 1043.74 535.709C1043.81 535.846 1043.94 536.05 1044.28 536.324C1044.42 536.46 1044.76 536.733 1045.44 536.938C1046.06 537.143 1046.74 537.279 1047.56 537.279C1048.72 537.347 1049.81 537.552 1050.97 537.962C1052.07 538.371 1053.16 538.917 1054.25 539.6C1055.27 540.351 1056.23 541.375 1057.05 542.604C1057.8 543.832 1058.41 545.266 1058.69 546.836C1059.16 549.225 1059.03 551.409 1058.28 553.184C1057.59 554.823 1056.3 556.188 1054.52 557.28L1055 559.533C1055.07 559.806 1055 560.147 1054.8 560.42C1054.59 560.625 1054.32 560.761 1053.98 560.761C1050.84 561.103 1047.7 561.103 1044.62 561.171ZM1044.49 558.577C1044.9 558.577 1045.24 558.782 1045.38 559.123C1047.76 559.055 1050.22 559.055 1052.61 559.055L1052.27 557.28C1052.2 556.802 1052.41 556.393 1052.82 556.188C1054.59 555.3 1055.75 554.14 1056.37 552.775C1056.98 551.409 1057.05 549.703 1056.64 547.655C1056.37 546.358 1055.89 545.129 1055.27 544.105C1054.66 543.081 1053.84 542.262 1053.02 541.716C1052.13 541.102 1051.25 540.624 1050.29 540.283C1049.33 539.941 1048.38 539.737 1047.49 539.737C1046.47 539.737 1045.58 539.532 1044.83 539.259C1044.01 538.986 1043.4 538.644 1042.92 538.167C1042.51 537.757 1042.24 537.416 1042.03 537.074C1041.83 536.801 1041.76 536.46 1041.69 536.187C1041.62 535.777 1041.62 535.436 1041.69 535.095C1041.76 534.754 1041.89 534.344 1042.03 533.934C1042.24 533.388 1042.71 532.91 1043.33 532.501C1043.94 532.091 1044.62 531.886 1045.51 531.682C1047.15 531.34 1049.06 531.204 1051.25 531.204L1050.63 525.743C1049.47 525.879 1048.24 526.016 1046.95 526.221C1046.4 526.289 1045.92 525.948 1045.79 525.402L1044.83 520.555L1037.93 521.989L1039.1 527.586C1039.16 527.996 1038.96 528.473 1038.62 528.678C1036.98 529.634 1035.82 530.863 1035.14 532.228C1034.45 533.593 1034.32 535.231 1034.73 537.006C1035 538.303 1035.48 539.532 1036.09 540.556C1036.77 541.58 1037.53 542.399 1038.34 543.013C1039.23 543.628 1040.12 544.105 1041.07 544.447C1041.96 544.788 1042.92 544.925 1043.87 544.993C1044.97 545.061 1045.85 545.198 1046.6 545.471C1047.42 545.744 1048.04 546.085 1048.52 546.563C1048.93 546.972 1049.2 547.314 1049.33 547.587C1049.54 547.928 1049.68 548.269 1049.74 548.611C1049.81 548.952 1049.81 549.293 1049.74 549.635C1049.68 549.976 1049.61 550.385 1049.4 550.795C1049.13 551.341 1048.72 551.819 1048.04 552.229C1047.42 552.638 1046.67 552.911 1045.85 553.048C1045.17 553.184 1044.35 553.321 1043.53 553.389C1042.78 553.457 1042.03 553.526 1041.48 553.526C1041.14 553.526 1040.8 553.526 1040.32 553.526L1040.94 559.055C1041.96 558.986 1043.19 558.85 1044.49 558.645C1044.42 558.577 1044.42 558.577 1044.49 558.577ZM1037.8 521.579C1037.8 521.647 1037.8 521.647 1037.8 521.579V521.579Z" fill="#202D37"/>
</g>
</g>
<defs>
<clipPath id="clip0_3457_5166">
<rect width="1440" height="1024" fill="white"/>
</clipPath>
<clipPath id="clip1_3457_5166">
<rect width="1548" height="1161" fill="white" transform="translate(-54 -68)"/>
</clipPath>
</defs>
</svg>
